<?xml version="1.0" encoding="UTF-8" standalone="no"?>
<!-- Created with Inkscape (http://www.inkscape.org/) -->

<svg
   xmlns:dc="http://purl.org/dc/elements/1.1/"
   xmlns:cc="http://creativecommons.org/ns#"
   xmlns:rdf="http://www.w3.org/1999/02/22-rdf-syntax-ns#"
   xmlns:svg="http://www.w3.org/2000/svg"
   xmlns="http://www.w3.org/2000/svg"
   xmlns:sodipodi="http://sodipodi.sourceforge.net/DTD/sodipodi-0.dtd"
   xmlns:inkscape="http://www.inkscape.org/namespaces/inkscape"
   id="svg3390"
   version="1.1"
   inkscape:version="0.91 r13725"
   width="1240"
   height="100.25"
   viewBox="0 0 1240 100.25"
   sodipodi:docname="Dskyline.svg">
  <metadata
     id="metadata3396">
    <rdf:RDF>
      <cc:Work
         rdf:about="">
        <dc:format>image/svg+xml</dc:format>
        <dc:type
           rdf:resource="http://purl.org/dc/dcmitype/StillImage" />
        <dc:title></dc:title>
      </cc:Work>
    </rdf:RDF>
  </metadata>
  <defs
     id="defs3394">
    <marker
       inkscape:stockid="Arrow1Lstart"
       orient="auto"
       refY="0"
       refX="0"
       id="Arrow1Lstart"
       style="overflow:visible"
       inkscape:isstock="true">
      <path
         id="path4174"
         d="M 0,0 5,-5 -12.5,0 5,5 0,0 Z"
         style="fill-rule:evenodd;stroke:#000000;stroke-width:1pt"
         transform="matrix(0.8,0,0,0.8,10,0)"
         inkscape:connector-curvature="0" />
    </marker>
    <clipPath
       clipPathUnits="userSpaceOnUse"
       id="clipPath3366">
      <rect
         style="fill:#000000"
         id="rect3368"
         width="622.01831"
         height="97.012024"
         x="0.041796286"
         y="-0.94406974"
         clip-path="none" />
    </clipPath>
  </defs>
  <sodipodi:namedview
     pagecolor="#ffffff"
     bordercolor="#666666"
     borderopacity="1"
     objecttolerance="10"
     gridtolerance="10"
     guidetolerance="10"
     inkscape:pageopacity="0"
     inkscape:pageshadow="2"
     inkscape:window-width="1440"
     inkscape:window-height="724"
     id="namedview3392"
     showgrid="false"
     inkscape:zoom="1.48403"
     inkscape:cx="512.86456"
     inkscape:cy="151.67306"
     inkscape:window-x="-2"
     inkscape:window-y="23"
     inkscape:window-maximized="0"
     inkscape:current-layer="svg3390" />
  <g
     id="g3359"
     style="fill:#f2f2f2">
    <path
       inkscape:transform-center-y="-77.03896"
       inkscape:transform-center-x="3.5666185"
       style="fill:#f2f2f2;stroke:none"
       d="m 4.1090274,110.4245 4.0625,-0.50416 0,-7.4208 c 0,-7.082175 0.1425946,-7.420785 3.1250006,-7.420785 1.71875,0 2.984375,-0.60761 2.8125,-1.35024 -0.171875,-0.74263 2.081704,-2.57076 5.007952,-4.0625 3.114783,-1.58786 5.632435,-3.87823 6.07301,-5.52476 0.796547,-2.9769 2.32353,-3.63845 3.606538,-1.5625 0.96855,1.56714 6.875,1.65663 6.875,0.10416 0,-0.63021 -0.703125,-1.44131 -1.5625,-1.80245 -1.118936,-0.47021 -0.941511,-1.04969 0.625,-2.04128 1.203125,-0.76156 2.1875,-2.62233 2.1875,-4.13505 0,-2.68009 0.380993,-2.75038 14.90625,-2.75038 l 14.90625,0 0.6875,3.4375 c 0.43543,2.17715 1.500999,3.45207 2.90625,3.47725 2.109405,0.0378 2.110945,0.12159 0.03125,1.7003 -2.870683,2.17916 -2.767078,3.25995 0.3125,3.25995 1.375,0 2.5,-0.5625 2.5,-1.25 0,-2.70376 3.750177,-1.05952 4.512686,1.97855 0.589695,2.34954 1.434493,3.06533 3.102855,2.62905 1.260897,-0.32974 2.944596,0.18616 3.741555,1.14644 2.780549,3.35036 3.544303,1.67482 3.904852,-8.56654 0.204176,-5.79963 0.910067,-10.3125 1.613052,-10.3125 0.6875,0 1.434255,1.30002 1.659455,2.88893 0.947327,6.68393 7.715545,4.01544 7.715545,-3.04199 0,-4.61528 1.819322,-5.70982 2.862182,-1.72194 0.53229,2.03548 1.70502,2.5 6.31155,2.5 4.55997,0 5.81175,-0.4851 6.45126,-2.5 1.32489,-4.17438 2.95891,-2.80891 3.36563,2.8125 0.34229,4.73083 0.72653,5.3125 3.50937,5.3125 2.47987,0 3.20665,-0.70964 3.52053,-3.4375 0.76962,-6.68875 2.72947,-3.32298 2.72947,4.6875 l 0,8.125 8.125,0 8.125,0 0,-6.17623 c 0,-3.39693 0.6115,-6.55416 1.3589,-7.01608 0.74739,-0.46191 1.09595,-1.84534 0.77457,-3.07428 -0.37777,-1.4446 0.68839,-3.17539 3.0161,-4.89635 l 3.60043,-2.66191 3.78444,2.79796 c 2.08144,1.53887 3.70416,3.66509 3.60605,4.72492 -0.0981,1.05983 -0.0433,2.34884 0.12187,2.86447 0.74103,2.31423 0.93517,3.71667 1.08144,7.8125 l 0.1562,4.375 7.1875,-0.0397 c 6.59195,-0.0365 6.98645,-0.19183 4.76109,-1.875 -2.11582,-1.60033 -2.15582,-1.83525 -0.3125,-1.83525 1.16265,0 2.11391,-0.80585 2.11391,-1.79077 0,-0.98492 1.08591,-2.13542 2.41312,-2.55666 1.32723,-0.42124 2.74728,-2.28727 3.15569,-4.14673 l 0.74255,-3.38084 19.91224,0 c 19.6951,0 19.92006,0.0311 20.62881,2.85501 0.3941,1.57025 2.12325,3.49594 3.84255,4.2793 2.28229,1.03989 2.6947,1.70316 1.52801,2.45752 -1.15727,0.74828 -0.81428,1.2479 1.24366,1.8116 2.66562,0.73017 2.70433,0.88254 0.625,2.46022 -1.90896,1.44839 -0.61173,1.68736 9.34587,1.72159 l 11.5625,0.0397 0,3.67623 c 0,2.02193 0.56647,4.02633 1.25882,4.45423 1.97719,1.22197 3.04817,-3.20153 1.41014,-5.82441 -1.19009,-1.90564 -1.10872,-2.50356 0.42055,-3.0904 1.04288,-0.40018 1.56969,-1.25581 1.1707,-1.90138 -0.39899,-0.64558 -0.0456,-1.99289 0.78523,-2.99402 1.19673,-1.44197 1.15723,-1.82025 -0.19004,-1.82025 -0.93539,0 0.40199,-1.49609 2.97195,-3.32464 2.56996,-1.82855 4.67265,-4.07855 4.67265,-5 0,-2.36326 0.20976,-2.25168 6.25,3.32464 2.97879,2.75 4.97225,5 4.42994,5 -0.54233,0 -0.30625,0.81911 0.52462,1.82025 0.83087,1.00113 1.16915,2.37281 0.75176,3.04817 -0.4174,0.67536 0.2373,1.85765 1.45489,2.62731 1.57966,0.99853 1.76623,1.58746 0.65129,2.05599 -2.67837,1.12554 -1.71238,2.94828 1.5625,2.94828 l 3.125,0 0,-15.39542 c 0,-18.48217 1.76747,-29.48112 5.11415,-31.82522 1.31221,-0.91911 2.38585,-2.48297 2.38585,-3.47524 0,-0.99226 0.5625,-1.80412 1.25,-1.80412 0.70512,0 1.25,-3.54166 1.25,-8.125 0,-4.58333 0.54487,-8.125 1.25,-8.125 0.70512,0 1.25,3.54167 1.25,8.125 0,4.58334 0.54487,8.125 1.25,8.125 0.6875,0 1.25,0.80293 1.25,1.78428 0,0.98135 1.54687,2.99975 3.4375,4.48534 l 3.4375,2.70107 0.40256,18.63966 c 0.67364,31.19187 2.72259,21.45985 2.72074,-12.92285 l -0.001,-31.5625 6.87671,0.42819 6.8767,0.42819 0.19601,31.44681 c 0.1648,26.43757 0.34994,29.3561 1.16232,18.32181 0.53146,-7.21875 0.98331,-23.53125 1.00412,-36.25 0.0208,-12.71875 0.0602,-25.2343707 0.0878,-27.8125007 0.0429,-4.11064 0.42103,-4.6875 3.0718,-4.6875 7.30806,0 6.97724,-1.93253 6.97724,40.7587407 0,24.8453 0.45028,39.24126 1.22737,39.24126 0.75932,0 1.35518,-11.3215 1.5625,-29.6875 l 0.33513,-29.6875 6.5625,-0.37782 6.5625,-0.37783 0.0987,13.50283 c 0.0983,13.44168 0.24746,14.10941 1.69079,7.56532 0.70322,-3.18844 1.20926,-3.4375 6.98433,-3.4375 5.94268,0 6.22923,0.15653 6.29302,3.4375 0.0367,1.89063 0.17737,12.95204 0.3125,24.58093 0.18722,16.11297 0.63406,21.27346 1.87808,21.68997 1.31744,0.44109 1.55863,-4.66145 1.25,-26.44363 -0.42685,-30.1259 -1.01898,-28.26477 8.99258,-28.26477 10.00966,0 9.41933,-1.84695 8.99361,28.1373 -0.32343,22.78054 -0.10659,26.8627 1.42699,26.8627 2.7268,0 3.4851,-4.96 4.09885,-26.81054 0.30797,-10.96454 0.81385,-20.18942 1.12416,-20.49973 1.12014,-1.12015 27.1117,2.74415 28.62309,4.25555 0.85205,0.85204 2.272,8.03438 3.15546,15.96075 2.1296,19.1068 3.97091,26.21786 3.05064,11.78147 l -0.69723,-10.9375 4.42841,0 c 2.43561,0 5.90278,-0.67178 7.70482,-1.49284 2.53961,-1.15713 3.814,-1.15713 5.66685,0 1.31474,0.82106 3.25747,1.49284 4.3172,1.49284 1.62035,0 1.79644,1.27216 1.10722,7.99928 -0.45075,4.3996 -0.42593,11.1496 0.0551,15 l 0.87469,7.00072 4.91006,0 4.91005,0 0,-14.41423 c 0,-16.29102 -0.34059,-15.76239 10.33442,-16.04042 6.39385,-0.16653 6.56823,-0.0763 7.77297,4.02148 1.19681,4.07084 1.38972,4.17409 6.68383,3.57737 5.38265,-0.6067 5.44494,-0.56997 4.93422,2.90979 -0.67989,4.63238 2.82346,5.64202 8.2005,2.36333 4.65521,-2.83855 14.72438,-3.17165 30.13418,-0.99686 8.78945,1.24045 12.13369,1.08205 26.39063,-1.25 17.98139,-2.94127 26.19155,-3.31488 31.17864,-1.41879 3.27965,1.24692 3.28888,1.28884 2.43647,11.06066 -0.74546,8.54584 -0.58357,9.91341 1.25713,10.61975 3.90085,1.49688 5.67704,-2.15741 5.67704,-11.67973 0,-8.54184 0.12112,-8.90902 2.8125,-8.52679 2.53511,0.36005 2.77165,0.98362 2.3983,6.32252 -0.22781,3.25769 0.22562,7.86178 1.00765,10.23132 1.33155,4.03466 1.85398,4.36223 8.2267,5.15845 l 6.80485,0.85021 0,7.264305 c 0,5.86729 0.42069,7.37426 2.1875,7.83597 1.64614,0.43018 1.49146,0.60754 -0.625,0.71666 -2.61448,0.13479 -2.8125,-0.37293 -2.8125,-7.21097 l 0,-7.355965 -6.87945,-0.85953 c -8.35984,-1.04449 -9.37055,-2.52448 -9.37055,-13.72135 0,-4.63812 -0.54359,-8.20718 -1.25,-8.20718 -0.71917,0 -1.25,3.875 -1.25,9.125 0,9.27116 -1.17945,12.125 -5.01109,12.125 -1.1061,0 -3.01759,-0.73597 -4.24775,-1.63548 -1.97155,-1.44164 -2.09727,-2.55641 -1.06069,-9.40519 1.66286,-10.98648 0.58522,-12.13653 -11.14967,-11.899 -5.03569,0.10192 -15.62455,1.30912 -23.5308,2.68265 -12.97781,2.2546 -15.28621,2.3341 -23.75,0.81793 -17.91462,-3.20914 -30.04429,-1.74175 -29.95547,3.62387 0.0245,1.47962 0.85945,6.06522 1.85547,10.19022 2.26826,9.39395 2.27058,10.03016 0.0298,8.17045 -1.00113,-0.83087 -2.50296,-1.08872 -3.33741,-0.573 -1.04535,0.64605 -1.26895,0.29078 -0.71899,-1.14239 0.43895,-1.14403 0.25329,-2.08006 -0.41263,-2.08006 -0.66592,0 -1.21077,-3.375 -1.21077,-7.5 0,-7.2619 -0.10413,-7.5 -3.28125,-7.5 -3.00276,0 -3.21546,-0.32892 -2.50617,-3.87537 l 0.77507,-3.87538 -5.67016,0.45097 c -5.18764,0.41259 -5.73364,0.18392 -6.41618,-2.68713 -0.41032,-1.72595 -1.29985,-3.84121 -1.97672,-4.70059 -1.45944,-1.85291 -5.92459,-2.09954 -5.92459,-0.32723 0,0.67939 -1.26563,1.10127 -2.8125,0.9375 -2.72121,-0.2881 -2.8226,0.0877 -3.12363,11.57723 -0.45906,17.52124 -0.44971,17.5 -7.70395,17.5 -7.58396,0 -7.81282,-0.51031 -7.51114,-16.74873 0.27046,-14.55854 -0.11563,-14.98379 -12.43352,-13.69631 l -7.24572,0.75733 0.58113,16.09386 c 0.41509,11.49514 0.17657,16.09385 -0.83476,16.09385 -0.77875,0 -1.41887,-0.70312 -1.42249,-1.5625 -0.014,-3.33467 -6.21163,-47.57238 -6.7386,-48.09934 -0.91622,-0.91622 -24.8613,-4.01539 -25.92842,-3.35587 -0.54128,0.33453 -1.02508,6.91599 -1.07511,14.62547 -0.05,7.70948 -0.49268,17.95474 -0.98364,22.76724 -0.85296,8.36103 -1.04546,8.76759 -4.33015,9.14553 l -3.4375,0.39553 -0.24349,-22.89553 c -0.13392,-12.59254 -0.36349,-24.30178 -0.51013,-26.02053 -0.14665,-1.71875 -0.31834,-3.85752 -0.38152,-4.75282 -0.0824,-1.16786 -1.9692,-1.52107 -6.67736,-1.25 l -6.5625,0.37782 -0.0421,5.625 c -0.0231,3.09375 -0.16377,15.32813 -0.3125,27.1875 l -0.27041,21.5625 -3.125,0 -3.125,0 0,-24.375 0,-24.375 -4.86089,0 c -4.50286,0 -4.91399,0.29922 -5.58177,4.0625 -0.3965,2.23438 -1.10464,13.20313 -1.57365,24.375 -0.46903,11.17188 -1.32304,20.3125 -1.89782,20.3125 -0.57477,0 -1.19484,-15.04687 -1.37796,-33.4375 l -0.33291,-33.4375 -5,0 -5,0 -0.33572,29.94058 c -0.32889,29.33168 -0.67093,31.84013 -4.35178,31.91528 -0.51563,0.0105 -0.9375,-18.26211 -0.9375,-40.60586 l 0,-40.6250007 -3.73269,0 -3.73267,0 -0.32983,40.3125007 c -0.28515,34.85342 -0.58372,40.3125 -2.20481,40.3125 -1.6,0 -1.96666,-4.58333 -2.5,-31.25 l -0.625,-31.25 -5.3125,-0.38437 -5.3125,-0.38437 0,32.57187 c 0,27.93321 -0.26364,32.57187 -1.85119,32.57187 -2.56146,0 -3.04482,-3.13814 -3.43461,-22.29873 -0.32855,-16.15041 -0.43975,-16.76012 -3.54273,-19.42628 -1.76193,-1.51391 -3.57241,-3.71386 -4.02327,-4.88878 -1.0601,-2.76257 -3.24681,-2.73657 -4.31415,0.0513 -0.46061,1.20313 -1.98264,3.11636 -3.38228,4.25162 -2.4943,2.02315 -3.32171,10.3748 -4.3466,43.87338 -0.0941,3.07521 -0.56627,3.4375 -4.48017,3.4375 -3.99183,0 -4.375,-0.31672 -4.375,-3.61626 0,-2.26853 -0.8022,-3.9241 -2.15246,-4.44224 -1.58433,-0.60796 -1.7446,-1.07807 -0.60722,-1.78101 1.20177,-0.74273 1.11143,-1.82471 -0.40637,-4.8672 -2.07674,-4.16293 -5.19825,-5.8425 -8.50214,-4.57468 -2.28931,0.87849 -6.11852,7.80621 -5.16636,9.34685 0.34394,0.55649 -0.006,1.40223 -0.77851,1.87942 -0.99466,0.61473 -0.90951,1.18085 0.29211,1.94223 1.24791,0.79072 1.28316,1.07967 0.13345,1.09375 -0.90649,0.0111 -1.5625,1.63007 -1.5625,3.85608 0,3.26407 -0.41992,3.7773 -2.8125,3.4375 -2.01376,-0.286 -2.92482,-1.37568 -3.20802,-3.83694 -0.37453,-3.25493 -0.73965,-3.43823 -6.875,-3.45125 -3.56372,-0.008 -8.53853,-0.35425 -11.05514,-0.77041 -3.9953,-0.66068 -4.67631,-1.29311 -5.36914,-4.98624 -0.43641,-2.32628 -1.34255,-4.2296 -2.01364,-4.2296 -0.67109,0 -1.87005,-1.42635 -2.66436,-3.16968 l -1.4442,-3.16968 -17.45939,0.16503 -17.45939,0.16504 -3.51092,3.84397 c -1.93101,2.11418 -3.22289,4.31002 -2.87084,4.87965 0.35204,0.56962 0.0444,1.03567 -0.68369,1.03567 -0.72807,0 -1.32377,1.125 -1.32377,2.5 0,1.375 -0.14063,2.53427 -0.3125,2.57616 -0.17188,0.0419 -3.82813,0.37862 -8.125,0.74831 -7.50324,0.64556 -7.8125,0.55893 -7.8125,-2.18841 0,-1.57331 -0.65963,-6.05415 -1.46583,-9.95742 -2.62537,-12.71076 -9.44297,-12.71076 -12.06835,0 -0.8062,3.90327 -1.46582,8.60987 -1.46582,10.45911 0,3.3508 -0.0319,3.36225 -9.375,3.36225 l -9.375,0 0,-5 c 0,-5 0,-5 -5,-5 -4.5,0 -5,-0.3125 -5,-3.125 0,-3.00935 -0.29746,-3.125 -8.03806,-3.125 -7.38408,0 -8.07056,0.22883 -8.43749,2.8125 -0.31963,2.25056 -1.398451,2.93738 -5.399442,3.4375 -4.81725,0.60216 -5.013491,0.80775 -5.369102,5.625 l -0.369103,5 5.681603,0 c 4.974653,0 5.681604,-0.33331 5.681604,-2.67876 0,-3.13167 2.18235,-4.19624 8.60222,-4.19624 4.93108,0 7.6483,1.75446 7.64695,4.9375 -5.9e-4,1.40576 1.28587,1.9375 4.6875,1.9375 4.37571,0 4.71443,0.27089 5.08002,4.0625 0.21544,2.23438 -0.0657,4.10126 -0.625,4.14863 -0.55919,0.0474 -2.51991,0.28559 -4.35716,0.52938 -2.23977,0.2972 -3.60053,-0.23449 -4.12974,-1.6136 -0.64822,-1.68923 -0.98004,-1.74819 -1.85659,-0.32991 -1.63353,2.64311 -13.51467,2.83882 -15.02808,0.24755 -1.083434,-1.85506 -1.197623,-1.84181 -1.232111,0.14295 -0.05447,3.13481 -7.540602,3.0726 -8.362277,-0.0695 -0.598713,-2.28947 -6.711613,-5.55513 -10.77695,-5.75729 -1.22442,-0.0609 -2.747739,-0.94954 -3.385154,-1.97478 -0.637414,-1.02524 -1.885616,-1.92394 -2.773783,-1.99711 -0.888166,-0.0732 -3.19708,-0.21871 -5.13092,-0.32343 -2.53938,-0.1375 -3.454262,-0.79803 -3.293557,-2.37789 0.122387,-1.20313 0.157741,-3.73438 0.07858,-5.625 l -0.14395,-3.4375 -13.75,0 -13.75,0 -0.148104,3.4375 c -0.08146,1.89063 -0.05584,4.14481 0.05694,5.0093 0.254716,1.95267 -5.902292,4.41187 -9.010695,3.599 -1.325659,-0.34667 -2.602499,0.18379 -3.01218,1.25141 -0.391115,1.01923 -2.852335,2.70989 -5.469377,3.75702 -3.181497,1.27298 -4.533063,2.49072 -4.078681,3.67482 0.373768,0.97403 0.0569,1.84126 -0.704158,1.9272 -0.761064,0.0859 -1.946245,0.29688 -2.633745,0.46875 -0.6875,0.17188 -1.882154,0.38281 -2.654788,0.46875 -0.928321,0.10326 -1.2114153,2.48807 -0.8346595,7.031245 l 0.5701285,6.875 -5.1028407,-0.20005 C 0.53693681,110.94787 0.43695261,110.8802 4.1090174,110.4245 Z M 97.945967,92.266255 c -0.262177,-1.84602 -1.258532,-2.8125 -2.899439,-2.8125 -1.640907,0 -2.637262,0.96648 -2.899439,2.8125 -0.32766,2.3071 0.193362,2.8125 2.899439,2.8125 2.706077,0 3.227099,-0.5054 2.899439,-2.8125 z m 17.015543,-0.41881 c 1.16937,-4.65915 -0.24364,-7.89668 -3.84048,-8.79943 -4.60549,-1.15591 -9.19951,1.35432 -9.19951,5.0267 0,5.78539 1.19589,7.00404 6.87323,7.00404 4.7173,0 5.45243,-0.3852 6.16676,-3.23131 z m 9.80109,0.81204 c 0.37819,-1.44623 -0.1113,-2.70476 -1.21702,-3.12906 -2.53802,-0.97393 -4.12406,0.22677 -4.12406,3.1221 0,3.22429 4.49819,3.23014 5.34107,0.007 z m 373.40892,-3.83073 c 0,-2.0625 -0.5625,-3.75 -1.25,-3.75 -0.6875,0 -1.25,1.6875 -1.25,3.75 0,2.0625 0.5625,3.75 1.25,3.75 0.6875,0 1.25,-1.6875 1.25,-3.75 z m -316.02915,5.55897 c 0.56534,-2.71514 2.78378,-2.88128 3.29119,-0.24647 0.2635,1.36825 -0.34959,2.1875 -1.63704,2.1875 -1.20091,0 -1.88996,-0.80855 -1.65415,-1.94103 z m 7.27915,-0.65063 c 0,-3.2033 4.13729,-2.83991 4.7648,0.41851 0.28887,1.5 -0.38428,2.17315 -2.17315,2.17315 -1.78886,0 -2.59165,-0.80278 -2.59165,-2.59166 z m 10.22556,-0.22084 c 0.21969,-1.54688 1.24319,-2.8125 2.27444,-2.8125 1.03125,0 2.05475,1.26562 2.27444,2.8125 0.30742,2.16462 -0.21652,2.8125 -2.27444,2.8125 -2.05793,0 -2.58186,-0.64788 -2.27444,-2.8125 z m 3.52444,-0.3125 c 0,-1.03125 -0.5625,-1.875 -1.25,-1.875 -0.6875,0 -1.25,0.84375 -1.25,1.875 0,1.03125 0.5625,1.875 1.25,1.875 0.6875,0 1.25,-0.84375 1.25,-1.875 z m 6.4852,0.95185 c 0.62751,-3.25842 4.7648,-3.62181 4.7648,-0.41851 0,1.78888 -0.80279,2.59166 -2.59165,2.59166 -1.78887,0 -2.46203,-0.67315 -2.17315,-2.17315 z m 3.5148,-0.32685 c 0,-0.6875 -0.5957,-1.25 -1.32378,-1.25 -0.72807,0 -0.97612,0.5625 -0.55122,1.25 0.4249,0.6875 1.0206,1.25 1.32377,1.25 0.30318,0 0.55123,-0.5625 0.55123,-1.25 z m 5.22085,0.55897 c 0.56534,-2.71514 2.78378,-2.88128 3.29119,-0.24647 0.2635,1.36825 -0.34959,2.1875 -1.63704,2.1875 -1.20091,0 -1.88996,-0.80855 -1.65415,-1.94103 z m 181.55555,-20.17169 c 1.28571,-16.96546 1.58066,-17.88728 5.72342,-17.88728 3.43509,0 3.57808,0.25541 4.3734,7.8125 0.45222,4.29687 0.91887,10.625 1.03699,14.0625 l 0.21479,6.25 -6.09158,0.38728 -6.09157,0.38728 0.83455,-11.01228 z m 10.27234,7.42522 c -0.34085,-1.20313 -0.9998,-6.82813 -1.46434,-12.5 -0.71984,-8.78918 -1.17735,-10.3125 -3.0972,-10.3125 -1.75584,0 -2.40683,1.30941 -2.95192,5.9375 -0.38463,3.26562 -1.05269,8.89062 -1.48459,12.5 l -0.78529,6.5625 5.20154,0 c 4.3566,0 5.10086,-0.35534 4.5818,-2.1875 z"
       id="path3408"
       inkscape:connector-curvature="0" />
    <path
       inkscape:connector-curvature="0"
       id="path3357"
       d="m 617.30419,109.75066 4.0625,-0.50416 0,-7.4208 c 0,-7.082176 0.14259,-7.420786 3.125,-7.420786 1.71875,0 2.98437,-0.60761 2.8125,-1.35024 -0.17188,-0.74263 2.0817,-2.57076 5.00795,-4.0625 3.11478,-1.58786 5.63244,-3.87823 6.07301,-5.52476 0.79655,-2.9769 2.32353,-3.63845 3.60654,-1.5625 0.96855,1.56714 6.875,1.65663 6.875,0.10416 0,-0.63021 -0.70313,-1.44131 -1.5625,-1.80245 -1.11894,-0.47021 -0.94151,-1.04969 0.625,-2.04128 1.20312,-0.76156 2.1875,-2.62233 2.1875,-4.13505 0,-2.68009 0.38099,-2.75038 14.90625,-2.75038 l 14.90625,0 0.6875,3.4375 c 0.43543,2.17715 1.501,3.45207 2.90625,3.47725 2.10941,0.0378 2.11095,0.12159 0.0312,1.7003 -2.87068,2.17916 -2.76708,3.25995 0.3125,3.25995 1.375,0 2.5,-0.5625 2.5,-1.25 0,-2.70376 3.75018,-1.05952 4.51269,1.97855 0.58969,2.34954 1.43449,3.06533 3.10285,2.62905 1.2609,-0.32974 2.9446,0.18616 3.74156,1.14644 2.78055,3.35036 3.5443,1.67482 3.90485,-8.56654 0.20418,-5.79963 0.91007,-10.3125 1.61305,-10.3125 0.6875,0 1.43426,1.30002 1.65946,2.88893 0.94732,6.68393 7.71554,4.01544 7.71554,-3.04199 0,-4.61528 1.81932,-5.70982 2.86218,-1.72194 0.53229,2.03548 1.70502,2.5 6.31155,2.5 4.55997,0 5.81175,-0.4851 6.45126,-2.5 1.32489,-4.17438 2.95891,-2.80891 3.36563,2.8125 0.34229,4.73083 0.72653,5.3125 3.50937,5.3125 2.47987,0 3.20665,-0.70964 3.52053,-3.4375 0.76962,-6.68875 2.72947,-3.32298 2.72947,4.6875 l 0,8.125 8.125,0 8.125,0 0,-6.17623 c 0,-3.39693 0.6115,-6.55416 1.3589,-7.01608 0.74739,-0.46191 1.09595,-1.84534 0.77457,-3.07428 -0.37777,-1.4446 0.68839,-3.17539 3.0161,-4.89635 l 3.60043,-2.66191 3.78444,2.79796 c 2.08144,1.53887 3.70416,3.66509 3.60605,4.72492 -0.0981,1.05983 -0.0433,2.34884 0.12187,2.86447 0.74103,2.31423 0.93517,3.71667 1.08144,7.8125 l 0.1562,4.375 7.1875,-0.0397 c 6.59195,-0.0365 6.98645,-0.19183 4.76109,-1.875 -2.11582,-1.60033 -2.15582,-1.83525 -0.3125,-1.83525 1.16265,0 2.11391,-0.80585 2.11391,-1.79077 0,-0.98492 1.08591,-2.13542 2.41312,-2.55666 1.32723,-0.42124 2.74728,-2.28727 3.15569,-4.14673 l 0.74255,-3.38084 19.91224,0 c 19.6951,0 19.92006,0.0311 20.62881,2.85501 0.3941,1.57025 2.12325,3.49594 3.84255,4.2793 2.28229,1.03989 2.6947,1.70316 1.52801,2.45752 -1.15727,0.74828 -0.81428,1.2479 1.24366,1.8116 2.66562,0.73017 2.70433,0.88254 0.625,2.46022 -1.90896,1.44839 -0.61173,1.68736 9.34587,1.72159 l 11.5625,0.0397 0,3.67623 c 0,2.02193 0.56647,4.02633 1.25882,4.45423 1.97719,1.22197 3.04817,-3.20153 1.41014,-5.82441 -1.19009,-1.90564 -1.10872,-2.50356 0.42055,-3.0904 1.04288,-0.40018 1.56969,-1.25581 1.1707,-1.90138 -0.39899,-0.64558 -0.0456,-1.99289 0.78523,-2.99402 1.19673,-1.44197 1.15723,-1.82025 -0.19004,-1.82025 -0.93539,0 0.40199,-1.49609 2.97195,-3.32464 2.56996,-1.82855 4.67265,-4.07855 4.67265,-5 0,-2.36326 0.20976,-2.25168 6.25,3.32464 2.97879,2.75 4.97225,5 4.42994,5 -0.54233,0 -0.30625,0.81911 0.52462,1.82025 0.83087,1.00113 1.16915,2.37281 0.75176,3.04817 -0.4174,0.67536 0.2373,1.85765 1.45489,2.62731 1.57966,0.99853 1.76623,1.58746 0.65129,2.05599 -2.67837,1.12554 -1.71238,2.94828 1.5625,2.94828 l 3.125,0 0,-15.39542 c 0,-18.48217 1.76747,-29.48112 5.11415,-31.82522 1.31221,-0.91911 2.38585,-2.48297 2.38585,-3.47524 0,-0.99226 0.5625,-1.80412 1.25,-1.80412 0.70512,0 1.25,-3.54166 1.25,-8.125 0,-4.58333 0.54487,-8.125 1.25,-8.125 0.70512,0 1.25,3.54167 1.25,8.125 0,4.58334 0.54487,8.125 1.25,8.125 0.6875,0 1.25,0.80293 1.25,1.78428 0,0.98135 1.54687,2.99975 3.4375,4.48534 l 3.4375,2.70107 0.40256,18.63966 c 0.67364,31.19187 2.72259,21.45985 2.72074,-12.92285 l -10e-4,-31.5625 6.87671,0.42819 6.8767,0.42819 0.19601,31.44681 c 0.1648,26.43757 0.34994,29.3561 1.16232,18.32181 0.53146,-7.21875 0.98331,-23.53125 1.00412,-36.25 0.0208,-12.71875 0.0602,-25.2343699 0.0878,-27.8124999 0.0429,-4.11064 0.42103,-4.68749996 3.0718,-4.68749996 7.30806,0 6.97724,-1.93253034 6.97724,40.75873986 0,24.8453 0.45028,39.24126 1.22737,39.24126 0.75932,0 1.35518,-11.3215 1.5625,-29.6875 l 0.33513,-29.6875 6.5625,-0.37782 6.5625,-0.37783 0.0987,13.50283 c 0.0983,13.44168 0.24746,14.10941 1.69079,7.56532 0.70322,-3.18844 1.20926,-3.4375 6.98433,-3.4375 5.94268,0 6.22923,0.15653 6.29302,3.4375 0.0367,1.89063 0.17737,12.95204 0.3125,24.58093 0.18722,16.11297 0.63406,21.27346 1.87808,21.68997 1.31744,0.44109 1.55863,-4.66145 1.25,-26.44363 -0.42685,-30.1259 -1.01898,-28.26477 8.99258,-28.26477 10.00967,0 9.41929,-1.84695 8.99359,28.1373 -0.3234,22.78054 -0.1066,26.8627 1.42698,26.8627 2.7268,0 3.4851,-4.96 4.0989,-26.81054 0.3079,-10.96454 0.8138,-20.18942 1.1241,-20.49973 1.1202,-1.12015 27.1117,2.74415 28.6231,4.25555 0.8521,0.85204 2.272,8.03438 3.1555,15.96075 2.1296,19.1068 3.9709,26.21786 3.0506,11.78147 l -0.6972,-10.9375 4.4284,0 c 2.4356,0 5.9028,-0.67178 7.7048,-1.49284 2.5396,-1.15713 3.814,-1.15713 5.6669,0 1.3147,0.82106 3.2574,1.49284 4.3172,1.49284 1.6203,0 1.7964,1.27216 1.1072,7.99928 -0.4508,4.3996 -0.426,11.1496 0.055,15 l 0.8747,7.00072 4.91,0 4.9101,0 0,-14.41423 c 0,-16.29102 -0.3406,-15.76239 10.3344,-16.04042 6.3938,-0.16653 6.5682,-0.0763 7.773,4.02148 1.1968,4.07084 1.3897,4.17409 6.6838,3.57737 5.3826,-0.6067 5.4449,-0.56997 4.9342,2.90979 -0.6799,4.63238 2.8235,5.64202 8.2005,2.36333 4.6552,-2.83855 14.7244,-3.17165 30.1342,-0.99686 8.7894,1.24045 12.1337,1.08205 26.3906,-1.25 17.9814,-2.94127 26.1916,-3.31488 31.1787,-1.41879 3.2796,1.24692 3.2888,1.28884 2.4364,11.06066 -0.7454,8.54584 -0.5835,9.91341 1.2572,10.61975 3.9008,1.49688 5.677,-2.15741 5.677,-11.67973 0,-8.54184 0.1211,-8.90902 2.8125,-8.52679 2.5351,0.36005 2.7717,0.98362 2.3983,6.32252 -0.2278,3.25769 0.2256,7.86178 1.0077,10.23132 1.3315,4.03466 1.8539,4.36223 8.2267,5.15845 l 6.8048,0.85021 0,7.264306 c 0,5.86729 0.4207,7.37426 2.1875,7.83597 1.6461,0.43018 1.4915,0.60754 -0.625,0.71666 -2.6145,0.13479 -2.8125,-0.37293 -2.8125,-7.21097 l 0,-7.355966 -6.8794,-0.85953 c -8.3599,-1.04449 -9.3706,-2.52448 -9.3706,-13.72135 0,-4.63812 -0.5436,-8.20718 -1.25,-8.20718 -0.7192,0 -1.25,3.875 -1.25,9.125 0,9.27116 -1.1794,12.125 -5.0111,12.125 -1.1061,0 -3.0176,-0.73597 -4.2477,-1.63548 -1.9716,-1.44164 -2.0973,-2.55641 -1.0607,-9.40519 1.6628,-10.98648 0.5852,-12.13653 -11.1497,-11.899 -5.0357,0.10192 -15.6245,1.30912 -23.5308,2.68265 -12.9778,2.2546 -15.2862,2.3341 -23.75,0.81793 -17.9146,-3.20914 -30.0443,-1.74175 -29.9555,3.62387 0.024,1.47962 0.8595,6.06522 1.8555,10.19022 2.2683,9.39395 2.2706,10.03016 0.03,8.17045 -1.0011,-0.83087 -2.503,-1.08872 -3.3374,-0.573 -1.0454,0.64605 -1.269,0.29078 -0.719,-1.14239 0.439,-1.14403 0.2533,-2.08006 -0.4126,-2.08006 -0.6659,0 -1.2108,-3.375 -1.2108,-7.5 0,-7.2619 -0.1041,-7.5 -3.2812,-7.5 -3.0028,0 -3.2155,-0.32892 -2.5062,-3.87537 l 0.7751,-3.87538 -5.6702,0.45097 c -5.1876,0.41259 -5.7336,0.18392 -6.4162,-2.68713 -0.4103,-1.72595 -1.2998,-3.84121 -1.9767,-4.70059 -1.4594,-1.85291 -5.9246,-2.09954 -5.9246,-0.32723 0,0.67939 -1.2656,1.10127 -2.8125,0.9375 -2.7212,-0.2881 -2.8226,0.0877 -3.1236,11.57723 -0.4591,17.52124 -0.4497,17.5 -7.704,17.5 -7.5839,0 -7.8128,-0.51031 -7.5111,-16.74873 0.2704,-14.55854 -0.1156,-14.98379 -12.4335,-13.69631 l -7.2458,0.75733 0.5812,16.09386 c 0.4151,11.49514 0.1765,16.09385 -0.8348,16.09385 -0.7787,0 -1.4189,-0.70312 -1.4225,-1.5625 -0.014,-3.33467 -6.2116,-47.57238 -6.7386,-48.09934 -0.9162,-0.91622 -24.8613,-4.01539 -25.9284,-3.35587 -0.5413,0.33453 -1.0251,6.91599 -1.0751,14.62547 -0.05,7.70948 -0.4927,17.95474 -0.9836,22.76724 -0.853,8.36103 -1.0455,8.76759 -4.3302,9.14553 l -3.43747,0.39553 -0.24349,-22.89553 c -0.13392,-12.59254 -0.36349,-24.30178 -0.51013,-26.02053 -0.14665,-1.71875 -0.31834,-3.85752 -0.38152,-4.75282 -0.0824,-1.16786 -1.9692,-1.52107 -6.67736,-1.25 l -6.5625,0.37782 -0.0421,5.625 c -0.0231,3.09375 -0.16377,15.32813 -0.3125,27.1875 l -0.27041,21.5625 -3.125,0 -3.125,0 0,-24.375 0,-24.375 -4.86089,0 c -4.50286,0 -4.91399,0.29922 -5.58177,4.0625 -0.3965,2.23438 -1.10464,13.20313 -1.57365,24.375 -0.46903,11.17188 -1.32304,20.3125 -1.89782,20.3125 -0.57477,0 -1.19484,-15.04687 -1.37796,-33.4375 l -0.33291,-33.4375 -5,0 -5,0 -0.33572,29.94058 c -0.32889,29.33168 -0.67093,31.84013 -4.35178,31.91528 -0.51563,0.0105 -0.9375,-18.26211 -0.9375,-40.60586 l 0,-40.6249999 -3.73269,0 -3.73267,0 -0.32983,40.3124999 c -0.28515,34.85342 -0.58372,40.3125 -2.20481,40.3125 -1.6,0 -1.96666,-4.58333 -2.5,-31.25 l -0.625,-31.25 -5.3125,-0.38437 -5.3125,-0.38437 0,32.57187 c 0,27.93321 -0.26364,32.57187 -1.85119,32.57187 -2.56146,0 -3.04482,-3.13814 -3.43461,-22.29873 -0.32855,-16.15041 -0.43975,-16.76012 -3.54273,-19.42628 -1.76193,-1.51391 -3.57241,-3.71386 -4.02327,-4.88878 -1.0601,-2.76257 -3.24681,-2.73657 -4.31415,0.0513 -0.46061,1.20313 -1.98264,3.11636 -3.38228,4.25162 -2.4943,2.02315 -3.32171,10.3748 -4.3466,43.87338 -0.0941,3.07521 -0.56627,3.4375 -4.48017,3.4375 -3.99183,0 -4.375,-0.31672 -4.375,-3.61626 0,-2.26853 -0.8022,-3.9241 -2.15246,-4.44224 -1.58433,-0.60796 -1.7446,-1.07807 -0.60722,-1.78101 1.20177,-0.74273 1.11143,-1.82471 -0.40637,-4.8672 -2.07674,-4.16293 -5.19825,-5.8425 -8.50214,-4.57468 -2.28931,0.87849 -6.11852,7.80621 -5.16636,9.34685 0.34394,0.55649 -0.006,1.40223 -0.77851,1.87942 -0.99466,0.61473 -0.90951,1.18085 0.29211,1.94223 1.24791,0.79072 1.28316,1.07967 0.13345,1.09375 -0.90649,0.0111 -1.5625,1.63007 -1.5625,3.85608 0,3.26407 -0.41992,3.7773 -2.8125,3.4375 -2.01376,-0.286 -2.92482,-1.37568 -3.20802,-3.83694 -0.37453,-3.25493 -0.73965,-3.43823 -6.875,-3.45125 -3.56372,-0.008 -8.53853,-0.35425 -11.05514,-0.77041 -3.9953,-0.66068 -4.67631,-1.29311 -5.36914,-4.98624 -0.43641,-2.32628 -1.34255,-4.2296 -2.01364,-4.2296 -0.67109,0 -1.87005,-1.42635 -2.66436,-3.16968 l -1.4442,-3.16968 -17.45939,0.16503 -17.45939,0.16504 -3.51092,3.84397 c -1.93101,2.11418 -3.22289,4.31002 -2.87084,4.87965 0.35204,0.56962 0.0444,1.03567 -0.68369,1.03567 -0.72807,0 -1.32377,1.125 -1.32377,2.5 0,1.375 -0.14063,2.53427 -0.3125,2.57616 -0.17188,0.0419 -3.82813,0.37862 -8.125,0.74831 -7.50324,0.64556 -7.8125,0.55893 -7.8125,-2.18841 0,-1.57331 -0.65963,-6.05415 -1.46583,-9.95742 -2.62537,-12.71076 -9.44297,-12.71076 -12.06835,0 -0.8062,3.90327 -1.46582,8.60987 -1.46582,10.45911 0,3.3508 -0.0319,3.36225 -9.375,3.36225 l -9.375,0 0,-5 c 0,-5 0,-5 -5,-5 -4.5,0 -5,-0.3125 -5,-3.125 0,-3.00935 -0.29746,-3.125 -8.03806,-3.125 -7.38408,0 -8.07056,0.22883 -8.43749,2.8125 -0.31963,2.25056 -1.39845,2.93738 -5.39944,3.4375 -4.81725,0.60216 -5.01349,0.80775 -5.3691,5.625 l -0.3691,5 5.6816,0 c 4.97465,0 5.6816,-0.33331 5.6816,-2.67876 0,-3.13167 2.18235,-4.19624 8.60222,-4.19624 4.93108,0 7.6483,1.75446 7.64695,4.9375 -5.9e-4,1.40576 1.28587,1.9375 4.6875,1.9375 4.37571,0 4.71443,0.27089 5.08002,4.0625 0.21544,2.23438 -0.0657,4.10126 -0.625,4.14863 -0.55919,0.0474 -2.51991,0.28559 -4.35716,0.52938 -2.23977,0.2972 -3.60053,-0.23449 -4.12974,-1.6136 -0.64822,-1.68923 -0.98004,-1.74819 -1.85659,-0.32991 -1.63353,2.64311 -13.51467,2.83882 -15.02808,0.24755 -1.08343,-1.85506 -1.19762,-1.84181 -1.23211,0.14295 -0.0545,3.13481 -7.5406,3.0726 -8.36227,-0.0695 -0.59872,-2.28947 -6.71162,-5.55513 -10.77695,-5.75729 -1.22442,-0.0609 -2.74774,-0.94954 -3.38516,-1.97478 -0.63741,-1.02524 -1.88561,-1.92394 -2.77378,-1.99711 -0.88817,-0.0732 -3.19708,-0.21871 -5.13092,-0.32343 -2.53938,-0.1375 -3.45426,-0.79803 -3.29356,-2.37789 0.12239,-1.20313 0.15774,-3.73438 0.0786,-5.625 l -0.14395,-3.4375 -13.75,0 -13.75,0 -0.14811,3.4375 c -0.0815,1.89063 -0.0558,4.14481 0.0569,5.0093 0.25472,1.95267 -5.90229,4.41187 -9.01069,3.599 -1.32566,-0.34667 -2.6025,0.18379 -3.01218,1.25141 -0.39112,1.01923 -2.85234,2.70989 -5.46938,3.75702 -3.18149,1.27298 -4.53306,2.49072 -4.07868,3.67482 0.37377,0.97403 0.0569,1.84126 -0.70416,1.9272 -0.76106,0.0859 -1.94624,0.29688 -2.63374,0.46875 -0.6875,0.17188 -1.88216,0.38281 -2.65479,0.46875 -0.92832,0.10326 -1.21141,2.48807 -0.83466,7.031246 l 0.57013,6.875 -5.10284,-0.20005 c -4.61242,-0.18083 -4.71241,-0.2485 -1.04034,-0.7042 z m 93.83694,-18.158246 c -0.26218,-1.84602 -1.25853,-2.8125 -2.89944,-2.8125 -1.6409,0 -2.63726,0.96648 -2.89944,2.8125 -0.32766,2.3071 0.19337,2.8125 2.89944,2.8125 2.70608,0 3.2271,-0.5054 2.89944,-2.8125 z m 17.01554,-0.41881 c 1.16937,-4.65915 -0.24364,-7.89668 -3.84048,-8.79943 -4.60549,-1.15591 -9.19951,1.35432 -9.19951,5.0267 0,5.78539 1.19589,7.00404 6.87323,7.00404 4.7173,0 5.45243,-0.3852 6.16676,-3.23131 z m 9.80109,0.81204 c 0.37819,-1.44623 -0.1113,-2.70476 -1.21702,-3.12906 -2.53802,-0.97393 -4.12406,0.22677 -4.12406,3.1221 0,3.22429 4.49819,3.23014 5.34107,0.007 z m 373.40894,-3.83073 c 0,-2.0625 -0.5625,-3.75 -1.25,-3.75 -0.6875,0 -1.25,1.6875 -1.25,3.75 0,2.0625 0.5625,3.75 1.25,3.75 0.6875,0 1.25,-1.6875 1.25,-3.75 z m -316.02917,5.55897 c 0.56534,-2.71514 2.78378,-2.88128 3.29119,-0.24647 0.2635,1.36825 -0.34959,2.1875 -1.63704,2.1875 -1.20091,0 -1.88996,-0.80855 -1.65415,-1.94103 z m 7.27915,-0.65063 c 0,-3.2033 4.13729,-2.83991 4.7648,0.41851 0.28887,1.5 -0.38428,2.17315 -2.17315,2.17315 -1.78886,0 -2.59165,-0.80278 -2.59165,-2.59166 z m 10.22556,-0.22084 c 0.21969,-1.54688 1.24319,-2.8125 2.27444,-2.8125 1.03125,0 2.05475,1.26562 2.27444,2.8125 0.30742,2.16462 -0.21652,2.8125 -2.27444,2.8125 -2.05793,0 -2.58186,-0.64788 -2.27444,-2.8125 z m 3.52444,-0.3125 c 0,-1.03125 -0.5625,-1.875 -1.25,-1.875 -0.6875,0 -1.25,0.84375 -1.25,1.875 0,1.03125 0.5625,1.875 1.25,1.875 0.6875,0 1.25,-0.84375 1.25,-1.875 z m 6.4852,0.95185 c 0.62751,-3.25842 4.7648,-3.62181 4.7648,-0.41851 0,1.78888 -0.80279,2.59166 -2.59165,2.59166 -1.78887,0 -2.46203,-0.67315 -2.17315,-2.17315 z m 3.5148,-0.32685 c 0,-0.6875 -0.5957,-1.25 -1.32378,-1.25 -0.72807,0 -0.97612,0.5625 -0.55122,1.25 0.4249,0.6875 1.0206,1.25 1.32377,1.25 0.30318,0 0.55123,-0.5625 0.55123,-1.25 z m 5.22085,0.55897 c 0.56534,-2.71514 2.78378,-2.88128 3.29119,-0.24647 0.2635,1.36825 -0.34959,2.1875 -1.63704,2.1875 -1.20091,0 -1.88996,-0.80855 -1.65415,-1.94103 z m 181.55557,-20.17169 c 1.2857,-16.96546 1.5806,-17.88728 5.7234,-17.88728 3.4351,0 3.5781,0.25541 4.3734,7.8125 0.4522,4.29687 0.9188,10.625 1.037,14.0625 l 0.2148,6.25 -6.0916,0.38728 -6.0916,0.38728 0.8346,-11.01228 z m 10.2723,7.42522 c -0.3409,-1.20313 -0.9998,-6.82813 -1.4643,-12.5 -0.7199,-8.78918 -1.1774,-10.3125 -3.0972,-10.3125 -1.7559,0 -2.4069,1.30941 -2.952,5.9375 -0.3846,3.26562 -1.0527,8.89062 -1.4846,12.5 l -0.7852,6.5625 5.2015,0 c 4.3566,0 5.1009,-0.35534 4.5818,-2.1875 z"
       style="fill:#f2f2f2;stroke:none"
       inkscape:transform-center-x="3.5666185"
       inkscape:transform-center-y="-77.03896" />
  </g>
</svg>
