<?xml version="1.0" encoding="UTF-8" standalone="no"?>
<!-- Generator: Adobe Illustrator 15.0.2, SVG Export Plug-In . SVG Version: 6.00 Build 0)  -->

<svg
   xmlns:dc="http://purl.org/dc/elements/1.1/"
   xmlns:cc="http://creativecommons.org/ns#"
   xmlns:rdf="http://www.w3.org/1999/02/22-rdf-syntax-ns#"
   xmlns:svg="http://www.w3.org/2000/svg"
   xmlns="http://www.w3.org/2000/svg"
   xmlns:sodipodi="http://sodipodi.sourceforge.net/DTD/sodipodi-0.dtd"
   xmlns:inkscape="http://www.inkscape.org/namespaces/inkscape"
   version="1.1"
   id="Layer_1"
   x="0px"
   y="0px"
   width="1024px"
   height="1024px"
   viewBox="0 0 1024 1024"
   enable-background="new 0 0 1024 1024"
   xml:space="preserve"
   inkscape:version="0.91 r13725"
   sodipodi:docname="school.svg"><metadata
     id="metadata13"><rdf:RDF><cc:Work
         rdf:about=""><dc:format>image/svg+xml</dc:format><dc:type
           rdf:resource="http://purl.org/dc/dcmitype/StillImage" /></cc:Work></rdf:RDF></metadata><defs
     id="defs11" /><sodipodi:namedview
     pagecolor="#ffffff"
     bordercolor="#666666"
     borderopacity="1"
     objecttolerance="10"
     gridtolerance="10"
     guidetolerance="10"
     inkscape:pageopacity="0"
     inkscape:pageshadow="2"
     inkscape:window-width="640"
     inkscape:window-height="480"
     id="namedview9"
     showgrid="false"
     inkscape:zoom="0.26828003"
     inkscape:cx="512"
     inkscape:cy="512"
     inkscape:window-x="0"
     inkscape:window-y="0"
     inkscape:window-maximized="0"
     inkscape:current-layer="Layer_1" /><g
     id="g3"
     style="fill:#ffffff"><path
       d="M516.4,463c-30.801-29.2-207-131.2-448.2-27.4c0,1.601,0,30.4,0,74.4v495.6H433.6C446.2,1016.4,476,1024,510.8,1024   c35,0,64.8-7.8,77.4-18.4h367.6V510c0-44,0-72.8,0-74.4C724.4,333.8,539.8,441.6,516.4,463z M483.6,970.2   C483.6,950.6,312.2,836.4,114,961V477.8c39.2-22.6,92-36.399,150.2-36.399C385.4,441.4,483.6,481.2,483.6,555V970.2z M912.8,477.8   v483C714.8,836.2,543.4,950.4,543.4,970V555c0-73.8,98.199-113.6,219.199-113.6C820.8,441.4,873.6,455.2,912.8,477.8z"
       id="path5"
       style="fill:#ffffff" /><polygon
       points="512.6,0.6 512.4,0 512,0.2 511.6,0 511.4,0.6 0,254.8 42.6,340.6 512,107.2 981.4,340.6 1024,254.8  "
       id="polygon7"
       style="fill:#ffffff" /></g></svg>