<?xml version="1.0" encoding="UTF-8" standalone="no"?>
<!-- Created with Inkscape (http://www.inkscape.org/) -->

<svg
   xmlns:dc="http://purl.org/dc/elements/1.1/"
   xmlns:cc="http://creativecommons.org/ns#"
   xmlns:rdf="http://www.w3.org/1999/02/22-rdf-syntax-ns#"
   xmlns:svg="http://www.w3.org/2000/svg"
   xmlns="http://www.w3.org/2000/svg"
   xmlns:sodipodi="http://sodipodi.sourceforge.net/DTD/sodipodi-0.dtd"
   xmlns:inkscape="http://www.inkscape.org/namespaces/inkscape"
   id="svg3681"
   version="1.1"
   inkscape:version="0.91 r13725"
   width="195"
   height="258"
   viewBox="0 0 195 258"
   sodipodi:docname="snow2.svg">
  <metadata
     id="metadata3687">
    <rdf:RDF>
      <cc:Work
         rdf:about="">
        <dc:format>image/svg+xml</dc:format>
        <dc:type
           rdf:resource="http://purl.org/dc/dcmitype/StillImage" />
        <dc:title></dc:title>
      </cc:Work>
    </rdf:RDF>
  </metadata>
  <defs
     id="defs3685" />
  <sodipodi:namedview
     pagecolor="#ffffff"
     bordercolor="#666666"
     borderopacity="1"
     objecttolerance="10"
     gridtolerance="10"
     guidetolerance="10"
     inkscape:pageopacity="0"
     inkscape:pageshadow="2"
     inkscape:window-width="1045"
     inkscape:window-height="690"
     id="namedview3683"
     showgrid="false"
     inkscape:zoom="1.8151647"
     inkscape:cx="97.5"
     inkscape:cy="129"
     inkscape:window-x="96"
     inkscape:window-y="84"
     inkscape:window-maximized="0"
     inkscape:current-layer="svg3681" />
  <path
     style="fill:#ffffff"
     d="m 74.101828,255.86827 c -1.375,-0.22566 -6.55,-1.07437 -11.5,-1.88604 -11.135493,-1.82592 -27.618846,-6.79592 -33.144603,-9.99364 -6.713806,-3.88524 -9.355397,-7.73438 -9.355397,-13.63205 0,-4.5023 0.405469,-5.44639 3.79475,-8.83567 2.58078,-2.58078 5.597666,-4.31888 9.430483,-5.43311 l 5.635732,-1.63835 -2.393844,-5.16687 c -1.316614,-2.84177 -2.948904,-7.33259 -3.62731,-9.97959 -0.954303,-3.7235 -1.754731,-4.91903 -3.536639,-5.28239 -1.266745,-0.25831 -3.428172,-0.70322 -4.803172,-0.9887 -3.548545,-0.73675 -3.130873,-1.64971 2,-4.37163 3.144228,-1.66801 4.504114,-3.02326 4.513655,-4.49828 0.0075,-1.16107 0.268455,-3.0603 0.579879,-4.2205 0.467642,-1.74219 -0.378179,-2.64245 -4.858071,-5.17074 -9.698716,-5.47362 -15.337872,-14.59861 -14.487973,-23.44368 0.77029,-8.01656 6.241678,-13.62607 14.161233,-14.51872 2.550457,-0.28747 4.878421,-0.91299 5.173253,-1.39004 0.877811,-1.42033 5.159353,-0.98383 5.762313,0.58746 0.307047,0.80015 2.492692,2.39914 4.856989,3.5533 l 4.298722,2.09848 -3.172431,-2.8033 c -4.082147,-3.60716 -7.319077,-9.0937 -7.323831,-12.41375 -0.0021,-1.43575 1.109254,-4.25054 2.469577,-6.25509 1.985161,-2.9253 2.286099,-4.13705 1.524751,-6.13955 -0.596859,-1.56986 -0.597794,-3.4175 -0.0025,-4.98319 0.814972,-2.14354 0.638363,-2.55048 -1.274751,-2.93725 -1.221436,-0.24694 -3.436934,-0.70543 -4.923329,-1.01886 -1.486395,-0.31344 -3.961395,-1.65283 -5.5,-2.97642 -2.494063,-2.145516 -2.799771,-3.074556 -2.818735,-8.566026 -0.01746,-5.05667 -0.399357,-6.45972 -2.13296,-7.83633 -2.816512,-2.23649 -4.345791,-5.4032 -4.345791,-8.99888 0,-2.81218 4.50515,-10.53723 9.382359,-16.08808 2.045631,-2.32817 2.049631,-2.38399 0.117641,-1.64155 -8.796422,3.38038 -13.148895,3.03744 -19.4584548,-1.53318 -8.2230914,-5.95678 -10.511475,-17.20542 -5.037498,-24.76203 2.502527,-3.45464 3.992987,-4.42191 8.9276948,-5.79389 4.457943,-1.23941 6.05611,-2.17468 6.458991,-3.77989 0.294437,-1.17313 2.227247,-4.10958 4.295132,-6.52544 8.71109,-10.1769504 36.389331,-18.2560704 51.673277,-15.0831304 3.10692,0.64499 10.297288,3.55603 15.978595,6.46896 l 10.329655,5.2962504 6.10345,-1.49106 c 12.46745,-3.0457804 22.61682,0.51533 25.03778,8.78502 1.94082,6.62956 2.41668,7.26687 7.25473,9.71604 2.44016,1.23528 5.22415,3.19764 6.18665,4.36078 3.15146,3.80844 1.81054,12.2467 -2.96879,18.68232 -2.39089,3.21944 -2.40913,3.38727 -0.8619,7.92814 0.86938,2.55149 1.58069,5.85139 1.58069,7.33312 0,2.33641 0.49782,2.77623 3.75,3.31309 6.16971,1.01848 11.25,2.67032 11.25,3.6579 0,1.14767 -4.89853,3.73153 -11.47176,6.0511 -3.7385,1.31925 -5.13957,2.38188 -5.64825,4.2839 -0.59779,2.23524 -0.31028,2.6086 2.47177,3.20979 8.49494,1.8357 18.12387,9.5413 21.23884,16.996486 1.54659,3.70151 0.88802,6.55213 -2.6672,11.54498 l -2.0268,2.84637 2.5517,3.75516 c 2.88713,4.24879 3.34787,9.70918 1.09111,12.93116 -1.26839,1.81088 -1.27234,2.33361 -0.0301,3.9725 1.35126,1.7827 1.75898,1.53592 7.36085,-4.4553 6.7006,-7.1663 8.68102,-7.55096 11.3516,-2.20482 0.94698,1.89573 2.59668,3.9194 3.66601,4.49706 3.11142,1.68082 5.95361,5.92861 7.27666,10.87534 1.04101,3.89221 0.97261,5.39883 -0.44997,9.91177 -2.00187,6.35068 -8.11416,13.16774 -14.2334,15.87457 -4.17206,1.8455 -4.20647,1.90406 -4.85827,8.26597 -0.79185,7.72894 -3.36787,15.51123 -8.05814,24.34409 -3.43671,6.47213 -3.69356,8.27855 -1.1771,8.27855 2.25097,0 10.06097,5.77701 11.79745,8.7265 1.25743,2.13579 2.99051,3.19668 6.82944,4.18057 6.53595,1.67511 11.98554,6.77752 11.98554,11.22197 0,8.7014 -10.34864,14.83588 -25.0685,14.86014 -6.35055,0.0105 -16.19605,-2.1858 -18.60517,-4.15031 -0.75011,-0.61167 -2.55859,-0.58414 -5.01125,0.0763 -9.91292,2.66927 -35.80032,5.0817 -53.103323,4.94866 -9.741449,-0.0749 -18.836739,-0.32082 -20.211739,-0.54647 z m 36.000002,-2.34549 c 13.26139,-1.00518 32.68806,-3.5312 35.52271,-4.61896 1.06272,-0.4078 1.18313,-1.03404 0.45898,-2.38713 -0.53993,-1.00886 -0.98169,-3.62388 -0.98169,-5.81114 0,-3.20485 0.59158,-4.47464 3.04742,-6.54109 3.81953,-3.21392 11.31157,-5.48541 20.75244,-6.29188 l 7.29986,-0.62357 -3.23404,-3.33668 c -1.77872,-1.83517 -5.13596,-4.06303 -7.46054,-4.9508 l -4.2265,-1.61411 -3.83932,4.29545 c -7.44685,8.33157 -12.90733,12.90856 -21.0369,17.6332 -4.51876,2.62616 -8.23539,5.28899 -8.25918,5.9174 -0.024,0.63462 -3.48861,-0.5811 -7.79324,-2.73464 -13.6658,-6.83678 -29.436436,-7.44968 -46.556899,-1.80935 -9.930774,3.27169 -11.003242,3.45073 -8.266104,1.37996 1.05985,-0.80183 1.73485,-1.60827 1.5,-1.79209 -0.234849,-0.18382 -3.623753,-2.42932 -7.530896,-4.99 -6.61842,-4.3376 -11.805385,-9.1959 -17.113679,-16.02929 l -2.200606,-2.83285 -5.430788,1.57877 c -2.986933,0.86833 -6.830343,2.88615 -8.540909,4.48406 -2.581789,2.41175 -3.110121,3.6636 -3.110121,7.36922 0,5.59892 2.472538,8.92593 9.147076,12.30818 6.84442,3.46833 29.221127,8.99417 41.852924,10.33542 5.775,0.61319 11.85,1.26687 13.5,1.45264 5.969319,0.67204 9.224899,0.61551 22.500002,-0.39072 z m 73.27733,-3.032 c 5.09613,-1.4152 10.72267,-6.46334 10.72267,-9.62039 0,-3.41944 -4.79714,-7.90144 -10.09198,-9.42901 -10.43969,-3.01186 -28.13334,-0.70694 -33.65802,4.38457 -4.66187,4.29635 -0.96975,12.53775 6.50662,14.52383 5.07,1.34684 21.85714,1.43609 26.52071,0.141 z m -51.48508,-11.835 c 28.54857,-14.41127 45.18003,-46.85451 39.11677,-76.30565 -1.04462,-5.07404 -7.31663,-19.31507 -8.9518,-20.32566 -0.43102,-0.26638 -4.09165,1.29997 -8.13474,3.48078 -4.04309,2.18081 -10.26963,4.63238 -13.83677,5.44792 -9.87458,2.2576 -26.40324,3.41912 -36.98571,2.5991 -5.225003,-0.40487 -9.690323,-0.56799 -9.922943,-0.36247 -0.23261,0.20551 -0.52454,9.70833 -0.64871,21.11738 -0.17546,16.1204 -0.60172,21.96956 -1.912528,26.24373 -1.948718,6.35421 -6.122459,14 -7.642429,14 -0.573265,0 -3.591796,-1.9729 -6.707846,-4.38422 -3.11605,-2.41132 -6.642746,-4.88326 -7.837101,-5.4932 -4.656951,-2.37824 -16.683783,-6.28736 -24.801397,-8.06128 l -8.514811,-1.86073 0.589113,2.64972 c 1.134342,5.10204 7.24989,16.70076 11.794249,22.3689 4.871601,6.07631 12.065385,12.20854 19.286212,16.44023 l 4.399766,2.57843 8.336471,-1.74946 c 12.119336,-2.54331 28.855204,-1.76004 37.081954,1.73553 7.79526,3.31222 8.50591,3.30669 15.29225,-0.11905 z m -12.37706,-0.47861 c -12.43765,-5.60755 -9.47175,-23.56625 4.17139,-25.258 10.29581,-1.27668 17.86249,10.46285 12.45742,19.32741 -3.68999,6.05175 -10.76411,8.5747 -16.62881,5.93059 z m 13.44773,-5.03463 c 1.89227,-1.89227 2.47041,-3.51928 2.47041,-6.95219 0,-5.84703 -2.33623,-9.29386 -7.18408,-10.59925 -6.95319,-1.8723 -11.97235,1.32492 -13.58153,8.65149 -2.10213,9.57094 11.16852,16.02663 18.2952,8.89995 z m -3.84299,-23.29378 c -8.65923,-4.47348 -10.44021,-14.34424 -3.78831,-20.99613 8.33373,-8.33374 22.10171,-2.67675 22.10171,9.08116 0,9.90689 -9.82586,16.29975 -18.3134,11.91497 z m 9.96903,-2.79214 c 3.96591,-2.05085 6.01104,-5.28497 6.01104,-9.50571 0,-4.22074 -2.04513,-7.45486 -6.01104,-9.50571 -3.49238,-1.80598 -6.03508,-1.88603 -9.5169,-0.2996 -5.41253,2.46611 -7.22577,11.30611 -3.33394,16.25377 3.56334,4.53005 7.97374,5.5793 12.85084,3.05725 z m -10.96903,-27.25726 c -6.76724,-3.39998 -9.73565,-11.05021 -6.61494,-17.04811 3.97805,-7.6457 12.21212,-10.31384 18.59501,-6.02545 9.40165,6.31657 8.50209,19.21042 -1.63578,23.44629 -4.31673,1.80365 -6.14348,1.73782 -10.34429,-0.37273 z m 9.31894,-2.18719 c 7.17915,-2.72951 9.0469,-11.35957 3.74316,-17.29548 -6.29582,-7.04625 -18.08203,-2.62271 -18.08203,6.78645 0,8.09514 7.06629,13.27406 14.33887,10.50903 z m -51.860012,27.68874 c 1.302516,-2.8875 2.890711,-8.78562 3.529322,-13.10693 l 1.161109,-7.85693 -2.834645,-2.96943 c -5.797515,-6.07318 -22.10529,-11.81671 -33.551549,-11.81671 -2.776527,0 -3.943349,0.60103 -5.338751,2.75 -3.68772,5.67922 -9.938591,12.3889 -14.125212,15.162 -4.464464,2.95714 -4.156094,4.088 1.114742,4.088 4.63614,0 23.296369,5.28769 30.066124,8.51975 3.85,1.83809 9.248561,4.94809 11.996803,6.91111 2.748241,1.96303 5.135637,3.56914 5.305323,3.56914 0.169687,0 1.374217,-2.3625 2.676734,-5.25 z m -43.192043,-30.25 3.087784,-4 -2.9373,2.63766 c -1.615516,1.45071 -3.949801,2.94353 -5.187301,3.31738 -1.2375,0.37386 -2.256145,0.98691 -2.263655,1.36235 -0.0075,0.37543 -0.299179,1.80761 -0.648154,3.18261 l -0.634499,2.5 2.74767,-2.5 c 1.511219,-1.375 4.137173,-4.3 5.835455,-6.5 z m 47.165887,-1.75 c -0.584051,-6.71379 0.607275,-21.13677 2.058189,-24.91779 1.467856,-3.82517 -10.715189,-10.67768 -20.573003,-11.57156 -5.845249,-0.53003 -5.961815,-0.49064 -6.955758,2.35014 -0.779361,2.22749 -7.64119,18.20935 -11.582642,26.97709 -0.308451,0.68615 2.389412,1.502 7.305732,2.2093 11.165091,1.60629 17.106237,3.6254 23.862128,8.10959 3.262957,2.16577 6.063915,3.97274 6.224351,4.0155 0.160435,0.0428 0.0079,-3.18477 -0.338997,-7.17227 z m -48.054418,-0.84865 c 3.26862,-2.5711 6.915151,-9.64893 8.552053,-16.59933 1.076351,-4.57027 1.011781,-5.55756 -0.534681,-8.17551 -0.967377,-1.63764 -3.497291,-3.76145 -5.622033,-4.71957 -2.124742,-0.95813 -4.966173,-2.76428 -6.314292,-4.01367 l -2.451125,-2.27163 -1.514104,2.16169 c -1.968112,2.80987 -1.925463,6.68436 0.105497,9.58396 1.310639,1.8712 1.400123,2.794 0.469082,4.83742 -0.632784,1.38881 -0.864382,3.42664 -0.514661,4.52851 0.451535,1.42266 0.243089,1.87123 -0.719083,1.54744 -0.852462,-0.28687 -1.377874,-2.09228 -1.416785,-4.86831 -0.03402,-2.42679 -0.596515,-5.39527 -1.25,-6.59661 -0.653485,-1.20134 -1.188154,-3.84132 -1.188154,-5.86663 0,-3.33075 -0.214848,-3.6248 -2.25,-3.0794 -1.2375,0.33164 -2.777974,0.60913 -3.423275,0.61664 -0.645301,0.008 -2.533111,1.15788 -4.195134,2.55638 -3.347121,2.81641 -4.850415,8.81207 -3.720114,14.83709 0.743332,3.9623 7.430757,11.97012 11.946551,14.30532 7.168908,3.70719 10.505998,3.99626 14.040258,1.21621 z m 138.401376,-1.31893 c 3.73466,-1.96056 9.86466,-8.50693 11.1408,-11.89752 1.80222,-4.78833 1.28225,-11.05865 -1.22563,-14.78009 -2.99097,-4.4383 -4.96616,-4.7266 -6.39778,-0.93381 -0.62883,1.66595 -1.62127,3.029 -2.20544,3.029 -0.7269,0 -0.75432,-0.80955 -0.0869,-2.5651 1.46492,-3.85304 1.1745,-9.02465 -0.58899,-10.48821 -1.34081,-1.11278 -2.4179,-0.44455 -7.54072,4.67827 l -5.97647,5.97647 3.04085,6.49816 c 1.67247,3.57399 3.59224,9.96367 4.26616,14.19928 0.67391,4.23562 1.5962,7.70113 2.04952,7.70113 0.45332,0 2.03937,-0.63791 3.52456,-1.41758 z m -125.293606,-17.1681 3.393677,-7.80663 -3.661586,-1.25879 c -4.15288,-1.42769 -5.100705,-1.09315 -3.243379,1.1448 1.319469,1.58986 0.969913,10.93407 -0.561367,15.0063 -1.865053,4.95985 1.013044,-0.0475 4.072655,-7.08568 z m 58.043996,-7.9062 c 2.12284,-5.55857 1.5957,-10.20495 -2.08933,-18.41629 l -2.7629,-6.15657 -2.25594,2.11934 c -4.12379,3.8741 -11.336703,19.73368 -11.430013,25.13204 -0.0139,0.8035 4.39104,1.42834 11.655423,1.65332 l 5.16729,0.16004 1.71547,-4.49188 z m 24.50167,1.981 c 3.94369,-0.82958 7.57038,-1.75556 8.05931,-2.05774 1.28446,-0.79384 1.09343,-10.17404 -0.2596,-12.74712 -0.63171,-1.20134 -2.20987,-3.46004 -3.50702,-5.01933 -1.29715,-1.55929 -2.86507,-4.847 -3.48425,-7.30602 -0.87972,-3.49369 -1.47929,-4.332 -2.74298,-3.83527 -0.88945,0.34963 -6.79218,1.34995 -13.11718,2.22293 -6.325,0.87298 -11.61898,1.66861 -11.76439,1.76806 -0.14542,0.0995 0.88417,2.68961 2.28797,5.75592 3.37796,7.37842 4.07038,14.01779 2.04698,19.62759 l -1.58637,4.39813 8.44859,-0.64941 c 4.64673,-0.35718 11.67525,-1.32816 15.61894,-2.15774 z m 17.0731,-6.35333 c 8.71904,-5.52945 10.95308,-11.12396 6.68911,-16.75093 -1.20235,-1.58667 -2.3133,-3.05832 -2.4688,-3.27032 -0.45186,-0.61608 -5.64322,3.03843 -7.54272,5.30978 l -1.73587,2.07568 -0.0333,-2.21104 c -0.0361,-2.39823 2.90755,-5.64142 7.12843,-7.85384 3.57354,-1.87311 6.8383,-6.17903 6.8383,-9.01909 0,-2.90438 -5.55652,-7.30872 -10.15704,-8.05091 -3.25954,-0.52585 -3.34483,-0.44981 -3.41796,3.04705 -0.0848,4.05427 -2.96514,7.7405 -7.52378,9.62874 -1.77589,0.7356 -2.90122,1.94589 -2.90122,3.12025 0,2.12863 2.78021,7.54301 6.54014,12.73672 1.8835,2.60174 2.45986,4.65192 2.45986,8.75 0,2.94367 0.3619,5.35212 0.80422,5.35212 0.44232,0 2.83659,-1.28889 5.3206,-2.86421 z M 64.639084,129.55091 c 2.532671,-5.775 4.846026,-11.0625 5.140789,-11.75 0.294763,-0.6875 -0.123798,-1.25 -0.930135,-1.25 -0.806337,0 -4.004482,-1.2804 -7.106989,-2.84534 -5.611753,-2.83063 -5.640921,-2.83398 -5.640921,-0.64922 0,1.20786 0.507976,3.65329 1.128835,5.43429 0.981775,2.81632 0.849792,3.58485 -1.013099,5.89923 -4.52963,5.62741 -5.358431,8.294 -3.926524,12.63326 1.561253,4.73123 5.836647,7.62388 7.026988,4.75432 0.393909,-0.9496 2.788385,-6.45154 5.321056,-12.22654 z m 28.463533,12.25 c 9.6e-4,-2.13583 5.23308,-13.36533 8.109183,-17.40444 1.81389,-2.54737 1.93285,-3.32797 0.89065,-5.84407 -1.13575,-2.74195 -4.848253,-6.00149 -6.835473,-6.00149 -0.49788,0 -1.48687,2.07742 -2.19776,4.61648 -2.696688,9.63162 -9.45088,13.3982 -13.894809,7.74866 -2.148507,-2.73138 -2.823317,-7.36514 -1.07258,-7.36514 0.55,0 1,0.81399 1,1.80887 0,6.0538 5.953999,6.45247 8.75153,0.58599 1.478104,-3.09962 1.486878,-3.58502 0.09005,-4.98186 -0.851193,-0.85119 -3.301263,-2.17071 -5.4446,-2.93227 -3.77492,-1.34128 -3.967347,-1.30003 -6.143805,1.31731 -2.267559,2.72689 -8.538592,14.91215 -9.680269,18.80976 -0.56251,1.92037 -0.130526,2.15805 4.858032,2.67292 5.635177,0.5816 16.661026,4.92023 18.677,7.34933 1.567921,1.88923 2.891911,1.71529 2.892861,-0.38005 z m -42.470373,-3.20079 c -1.582854,-2.56111 -0.715342,-8.17486 1.831132,-11.84942 2.492673,-3.59693 2.635896,-4.36178 2.019679,-10.78563 -0.573619,-5.97978 -1.047354,-7.22663 -3.505499,-9.22635 l -2.842248,-2.3122 -2.51674,2.51674 c -3.278978,3.27898 -3.173942,5.09511 0.539266,9.32422 2.287592,2.60542 2.979062,4.273 2.75,6.63201 -0.35051,3.60974 -2.043112,3.88309 -2.851091,0.46044 -0.745958,-3.15993 -3.143855,-2.9018 -4.781344,0.51471 -1.858591,3.87782 -0.762352,7.32278 3.77364,11.85877 3.419137,3.41914 7.089272,5.30358 5.583205,2.86671 z m 65.437466,-21.04921 c 3.31184,0 4.03212,-0.34357 4.03212,-1.92327 0,-2.95374 -4.53095,-7.67189 -9.13754,-9.51509 -4.72233,-1.8895 -8.52335,-1.40283 -12.310573,1.57621 l -2.54204,1.99956 3.03099,2.55041 c 1.667053,1.40273 3.689573,3.82396 4.494503,5.38051 1.43535,2.77568 1.5302,2.80223 4.93196,1.38089 1.90765,-0.79707 5.28292,-1.44922 7.50058,-1.44922 z m 22.78768,-4.71286 c 6.71785,-2.68934 8.55519,-4.76171 8.05609,-9.08659 -0.23768,-2.05958 -1.37401,-3.23623 -4.7876,-4.957476 l -4.47594,-2.25692 -4.02406,4.153136 c -2.21323,2.28423 -5.82405,5.30613 -8.02405,6.71534 -2.2,1.4092 -4.17307,2.67897 -4.3846,2.82171 -0.21153,0.14274 0.19729,1.66436 0.9085,3.38137 1.25194,3.02244 1.4386,3.10002 5.86251,2.43661 2.51318,-0.37687 7.40429,-1.8201 10.86915,-3.20718 z m -46.604473,-2.23958 1.65108,-3.9321 -2.797494,-0.61443 c -1.667516,-0.36625 -4.354056,0.045 -6.651084,1.01815 l -3.853591,1.63258 3.685202,1.91477 c 2.026861,1.05312 3.965919,2.36897 4.309017,2.92412 1.09953,1.77907 1.967281,1.0807 3.65687,-2.94309 z m -17.721021,0.74882 c 4.307491,-6.1498 13.415111,-9.32654 19.790091,-6.90277 1.63689,0.62234 2.92891,0.47056 4.25623,-0.5 1.04823,-0.76649 3.282363,-1.42532 4.964743,-1.46407 l 3.05887,-0.0705 -3.79304,-1.3921 c -5.096213,-1.870326 -9.303303,-4.975016 -11.283069,-8.326486 -1.27032,-2.15048 -2.224273,-2.67659 -4.300666,-2.37184 -1.794378,0.26336 -3.286596,-0.29165 -4.556276,-1.69463 -2.286575,-2.52664 -1.531428,-3.69325 1.261576,-1.94899 3.277133,2.0466 7.171473,-0.24825 7.171473,-4.226 0,-2.68118 0.220763,-2.96066 1.499999,-1.89899 1.76113,1.46161 1.97421,5.12579 0.39019,6.70981 -1.657625,1.65763 1.67857,6.67954 6.08124,9.15397 8.371443,4.705016 19.878183,3.21994 26.520963,-3.42284 4.58758,-4.58757 4.68854,-6.64001 0.26421,-5.37113 -9.80032,2.81069 -15.7566,-0.4238 -15.7566,-8.55647 0,-5.92436 2.24889,-11.21399 5.37276,-12.63732 1.98856,-0.90605 4.79103,-0.61102 14.21946,1.49693 6.45854,1.44395 11.83155,2.51325 11.94002,2.37621 0.9174,-1.15894 -3.08947,-13.94244 -5.59299,-17.84383 -2.87675,-4.48302 -3.48008,-4.90533 -7.00804,-4.90533 -5.94406,0 -22.66835,3.52238 -30.157883,6.35169 C 82.627,60.040644 63.67492,71.950304 49.76595,84.763294 l -6.825447,6.28762 3.246132,4.85754 c 3.809085,5.699946 11.381205,11.982696 18.415193,15.279466 6.225193,2.91769 7.978357,2.94583 9.930068,0.15937 z M 97.174407,66.916054 c -2.59866,-3.30366 -2.6511,-7.43933 -0.13321,-10.50436 1.83521,-2.23399 2.09031,-2.27846 4.750003,-0.82798 3.83494,2.09142 5.30938,7.79398 2.94728,11.39899 -2.15696,3.29194 -4.941503,3.26741 -7.564073,-0.0666 z m 23.716733,-2.70664 c -5.00529,-3.86654 -3.89629,-12.1585 1.62613,-12.1585 2.31913,0 3.26762,0.73058 4.81196,3.70645 1.68389,3.24478 1.75721,4.05442 0.58867,6.5 -1.49303,3.12469 -4.4466,3.9452 -7.02676,1.95205 z m 2.04183,41.928816 c 4.15459,-2.14842 12.06399,-11.096006 14.32314,-16.203196 1.10706,-2.50269 1.82211,-4.74106 1.589,-4.97417 -0.23311,-0.23311 -1.88091,-0.13242 -3.66178,0.22375 -2.251,0.4502 -3.53761,1.44294 -4.22106,3.25695 -2.49969,6.63465 -11.82467,12.976226 -19.36044,13.166336 l -4,0.1009 3,1.05914 c 1.65,0.58252 4.125,1.88274 5.5,2.88937 3.04833,2.23167 3.39796,2.25629 6.83114,0.48092 z m -77.457984,-4.83732 c -0.409681,-0.6875 -1.662914,-2.510556 -2.784962,-4.051236 -1.877642,-2.5782 -2.140711,-2.66363 -3.303809,-1.073 -1.662508,2.27361 -2.690751,1.12946 -1.881747,-2.09387 1.646848,-6.56156 28.55476,-27.92935 46.59736,-37.00334 17.634122,-8.86855 48.091812,-15.2257 55.065742,-11.49337 2.78236,1.48908 2.39432,3.11839 -0.56574,2.37546 -2.95026,-0.74046 -3.12724,0.21595 -0.63872,3.45171 l 1.81681,2.36235 2.16138,-2.74775 c 1.18876,-1.51126 2.67544,-4.46351 3.30373,-6.56056 1.71993,-5.74061 -0.0392,-9.01852 -6.43916,-11.99863 -4.35266,-2.02678 -5.41285,-3.0646 -6.55615,-6.41776 -2.9461,-8.64062 -3.53412,-9.64859 -6.53874,-11.20866 -5.22995,-2.71552 -15.65423,-2.08305 -25.4452,1.54383 -19.257338,7.13352 -51.686306,26.80619 -62.510514,37.92132 -9.059406,9.30288 -16.251172,20.78486 -15.164049,24.21008 0.323434,1.01905 1.259701,2.41023 2.080593,3.09151 1.216194,1.00935 1.751997,0.88721 2.893953,-0.65969 2.613735,-3.5406 3.48064,-0.50189 2.25681,7.91065 -1.242661,8.54198 -0.766137,10.29521 3.377411,12.426216 3.301318,1.69785 13.285115,1.70984 12.275002,0.0147 z M 156.09544,98.490234 c -3.34633,-2.78426 -12.58185,-6.93932 -15.42413,-6.93932 -2.66822,0 -2.51848,2.79599 0.1861,3.47479 1.44234,0.362 3.84434,1.52827 5.3378,2.5917 1.49345,1.06343 3.77089,1.94946 5.06099,1.96895 1.2901,0.0195 3.46995,0.657656 4.84412,1.418166 3.87378,2.14386 3.87099,0.71058 -0.005,-2.514286 z m -34.61935,-15.81804 c -0.73934,-3.6967 0.98885,-4.81453 2.45807,-1.58992 0.92454,2.02914 1.84074,2.46864 5.14623,2.46864 3.31402,0 4.02144,-0.34144 4.02144,-1.94098 0,-2.51045 1.61361,-3.50833 2.39219,-1.47937 0.33097,0.86249 1.38853,1.41664 2.35015,1.23146 1.36601,-0.26307 1.67796,-1.15404 1.4264,-4.07391 -0.18967,-2.20148 0.12044,-3.7372 0.75464,-3.7372 0.59214,0 1.08351,0.7875 1.09193,1.75 0.0362,4.13361 1.34969,4.52086 8.093,2.38593 3.51543,-1.11298 6.1244,-2.04887 5.79771,-2.07976 -0.32669,-0.0309 -7.07669,-1.34977 -15,-2.93084 -22.97227,-4.58404 -22.42584,-4.55124 -24.83329,-1.49066 -4.24046,5.39087 -1.76717,14.36533 3.95897,14.36533 2.6819,0 2.87166,-0.23319 2.34256,-2.87872 z M 28.351828,56.378634 c 1.166476,-0.59863 1.75,-2.07495 1.75,-4.42752 0,-1.94119 0.981197,-5.81029 2.180437,-8.598 1.957004,-4.54918 2.033858,-5.3285 0.75,-7.6052 -0.78674,-1.39516 -2.055575,-2.74361 -2.819633,-2.99656 -0.904751,-0.29952 -1.121616,-0.027 -0.621884,0.78163 1.645899,2.66312 -6.426235,4.19221 -10.531743,1.99501 -2.918194,-1.56177 -4.482374,-5.00604 -2.810422,-6.18845 0.916379,-0.64806 0.223346,-0.76929 -2.146755,-0.37552 -2.21997,0.36883 -4.6885988,1.85714 -6.7499998,4.06951 -2.779679,2.98325 -3.25,4.22089 -3.25,8.55236 0,8.0032 3.396497,12.93112 10.6838038,15.50094 3.837366,1.35321 10.196164,1.02126 13.566196,-0.7082 z m 28.657714,-20.01675 c 11.77875,-7.88025 36.022605,-20.81097 39.018565,-20.81097 2.92347,0 0.17621,-2.07764 -8.676279,-6.5615204 l -9.75,-4.93848 -11,0.0801 c -12.442009,0.0906 -20.057146,1.77801 -31.169725,6.9066204 -5.172046,2.38697 -7.965814,4.4079 -10.02691,7.25315 -3.873246,5.34687 -6.68758,11.81646 -5.962374,13.70631 1.026665,2.67545 5.547761,1.83944 8.403004,-1.55382 2.279829,-2.70942 3.094743,-3.04324 6.360023,-2.60527 2.949936,0.39567 4.173132,0.0469 5.760779,-1.6424 2.279995,-2.42603 8.135203,-6.10008 8.135203,-5.10472 0,0.3592 -1.8,2.698 -4,5.19733 -4.547507,5.16624 -5.399713,7.94234 -1.25,4.07194 2.89522,-2.70035 7.25,-5.28367 7.25,-4.3008 0,0.31836 -2.387652,2.92169 -5.305894,5.78518 -5.598617,5.49357 -9.049275,11.63872 -10.16693,18.10591 l -0.673922,3.89957 4.823373,-4.25905 c 2.652855,-2.34248 10.856844,-8.29558 18.231087,-13.22912 z m -21.450419,-4.88007 c -0.316431,-0.51199 -1.278871,-0.9309 -2.138757,-0.9309 -1.271193,0 -1.332442,0.27832 -0.327676,1.48899 1.291144,1.55573 3.468373,1.06308 2.466433,-0.55809 z"
     id="path3691"
     inkscape:connector-curvature="0" />
</svg>
