<?xml version="1.0" encoding="UTF-8" standalone="no"?>
<!-- Created with Inkscape (http://www.inkscape.org/) -->

<svg
   xmlns:dc="http://purl.org/dc/elements/1.1/"
   xmlns:cc="http://creativecommons.org/ns#"
   xmlns:rdf="http://www.w3.org/1999/02/22-rdf-syntax-ns#"
   xmlns:svg="http://www.w3.org/2000/svg"
   xmlns="http://www.w3.org/2000/svg"
   xmlns:sodipodi="http://sodipodi.sourceforge.net/DTD/sodipodi-0.dtd"
   xmlns:inkscape="http://www.inkscape.org/namespaces/inkscape"
   id="svg3456"
   version="1.1"
   inkscape:version="0.91 r13725"
   width="842"
   height="842"
   viewBox="0 0 842 842"
   sodipodi:docname="train.svg">
  <metadata
     id="metadata3462">
    <rdf:RDF>
      <cc:Work
         rdf:about="">
        <dc:format>image/svg+xml</dc:format>
        <dc:type
           rdf:resource="http://purl.org/dc/dcmitype/StillImage" />
        <dc:title></dc:title>
      </cc:Work>
    </rdf:RDF>
  </metadata>
  <defs
     id="defs3460" />
  <sodipodi:namedview
     pagecolor="#ffffff"
     bordercolor="#666666"
     borderopacity="1"
     objecttolerance="10"
     gridtolerance="10"
     guidetolerance="10"
     inkscape:pageopacity="0"
     inkscape:pageshadow="2"
     inkscape:window-width="1111"
     inkscape:window-height="764"
     id="namedview3458"
     showgrid="false"
     inkscape:zoom="0.63721051"
     inkscape:cx="421"
     inkscape:cy="421"
     inkscape:window-x="20"
     inkscape:window-y="42"
     inkscape:window-maximized="0"
     inkscape:current-layer="svg3456" />
  <path
     style="fill:#ffffff"
     d="m 504.0651,825.3319 1.4e-4,-12.75 13.4786,-6.3799 c 7.77795,-3.6815 13.21077,-6.8132 12.84534,-7.4045 -0.34828,-0.5635 -0.15558,-0.7294 0.42824,-0.3686 1.25619,0.7764 13.47563,-4.7855 12.54917,-5.712 -1.40836,-1.4084 -4.73488,-0.3731 -16.9848,5.286 -7.04926,3.2566 -20.46684,9.3608 -29.81684,13.5649 -9.35,4.2041 -18.125,8.3853 -19.5,9.2917 -1.375,0.9063 -2.95,1.6647 -3.5,1.6852 -2.09958,0.078 -7.45201,2.8058 -6.98591,3.56 0.26877,0.4349 -0.31715,0.58 -1.30203,0.3224 -1.01484,-0.2654 -2.59905,0.425 -3.65637,1.5933 -1.02612,1.1338 -2.95039,2.0615 -4.27617,2.0615 -2.11889,0 -29.23577,-8.9597 -38.02952,-12.5653 l -3.25,-1.3326 0,-16.5758 0,-16.5758 2.75,-1.0425 c 1.5125,-0.5735 10.175,-4.4998 19.25,-8.7253 18.71033,-8.7118 19.29039,-11.2062 0.84719,-3.6431 -44.82601,18.382 -62.39183,25.835 -62.6826,26.5956 -0.18448,0.4825 -0.69599,0.6544 -1.13669,0.3821 -0.44071,-0.2724 -1.35737,0.1748 -2.03704,0.9937 -0.67966,0.819 -2.50153,1.489 -4.04858,1.489 -4.26319,0 -26.19915,-7.9587 -28.19228,-10.2285 -1.50316,-1.7119 -1.75,-4.1457 -1.75,-17.2547 l 0,-15.2617 -18.20663,6.7408 c -12.45895,4.6129 -18.65344,7.4138 -19.62197,8.8725 -0.77844,1.1724 -2.4029,2.1316 -3.60992,2.1316 -1.20701,0 -8.14926,-2.0379 -15.42721,-4.5286 -7.27796,-2.4907 -13.6097,-4.2956 -14.07055,-4.0108 -0.46085,0.2849 -0.81783,-0.04 -0.79328,-0.7213 0.0245,-0.6816 -0.0263,-7.6077 -0.11291,-15.3914 l -0.15753,-14.1521 -4.25,1.3169 c -10.91188,3.3811 -30.39131,10.7577 -31.81829,12.0491 -0.87406,0.791 -2.18425,1.4382 -2.91154,1.4382 -1.84074,0 -25.23916,-8.1195 -26.77017,-9.2896 -0.86616,-0.6619 -1.25,-4.3283 -1.25,-11.9398 0,-8.3665 -0.29793,-10.8748 -1.25,-10.5242 -0.6875,0.2532 -5.075,1.7183 -9.75,3.2558 -4.675,1.5375 -8.65093,3.1813 -8.83541,3.6529 -0.18448,0.4716 -0.7593,0.5954 -1.27739,0.2752 -0.51809,-0.3202 -3.02499,0.4262 -5.5709,1.6587 -4.17986,2.0234 -5.02603,2.1181 -8.7226,0.9765 -2.25154,-0.6954 -5.37306,-1.3732 -6.93672,-1.5064 -1.56366,-0.1331 -3.13866,-0.7027 -3.5,-1.2658 -0.73533,-1.1458 -4.14209,-2.358 -7.73561,-2.7524 -4.77084,-0.5238 -5.42137,-2.0513 -5.42137,-12.7307 0,-9.8583 -0.0196,-9.9387 -2.25,-9.2305 -1.2375,0.393 -6.93663,1.9825 -12.66473,3.5322 -5.72811,1.5497 -10.88061,3.2835 -11.45,3.8529 -1.74052,1.7405 -4.84644,1.1944 -16.17829,-2.8445 -11.784429,-4.2001 -14.466282,-6.3659 -12.479674,-10.0779 0.618826,-1.1563 0.989589,-4.2721 0.823917,-6.924 l -0.30122,-4.8218 -10,2.8187 c -5.5,1.5502 -11.191869,3.507 -12.648598,4.3483 -2.490606,1.4384 -3.355547,1.287 -14.5,-2.5388 -16.307295,-5.5982 -16.351402,-5.6331 -16.351402,-12.9478 0,-3.8934 -0.407439,-5.977 -1.168777,-5.977 -0.642828,0 -5.644878,1.1807 -11.115668,2.6237 -8.604131,2.2694 -10.471248,2.4665 -13.8312232,1.4598 -3.8339144,-1.1487 -3.884332,-1.2281 -3.884332,-6.1236 0,-5.3099 0.6478548,-5.8047 5.289488,-4.0399 2.8013342,1.0651 22.3105972,-3.3915 24.5319412,-5.6039 0.726785,-0.7238 2.215843,-1.3161 3.309017,-1.3161 1.247748,0 1.721992,-0.4297 1.274062,-1.1545 -0.4442,-0.7187 -0.274088,-0.8829 0.45068,-0.435 0.640313,0.3958 7.122341,-1.1606 14.404508,-3.45863 l 13.240304,-4.17817 -15.5,-4.77047 -15.5,-4.77047 -12.5,3.22026 c -6.875,1.77114 -13.9857882,3.51218 -15.8017517,3.86898 l -3.3017515,0.64873 0.3017515,-5.17068 0.3017515,-5.17068 6.5000002,-1.44541 6.5,-1.44542 -6.7500002,-2.01824 -6.75,-2.01825 0,-4.85101 c 0,-3.16637 0.4262252,-4.85101 1.2273375,-4.85101 0.6750357,0 7.7625357,2.00312 15.7500007,4.45138 40.501416,12.41421 82.777589,25.31688 111.522659,34.03669 17.6,5.3389 41.45,12.6136 53,16.1661 23.58648,7.2544 39.16292,12.0195 84,25.6967 17.05,5.201 49.675,15.1647 72.5,22.1415 64.00318,19.5636 100.92782,30.8329 131.5,40.1337 15.4,4.685 31.375,9.5772 35.5,10.8715 4.125,1.2943 25.5,7.8311 47.5,14.5261 38.74896,11.7919 84.12746,25.6541 99.5,30.3951 4.125,1.2722 21.38449,6.5359 38.35442,11.6971 l 30.85442,9.3841 -16.1624,0.2751 c -15.5523,0.2646 -16.53245,0.1608 -25.96527,-2.75 -5.39157,-1.6638 -10.42798,-3.025 -11.19201,-3.0248 -0.76404,1e-4 -3.86416,1.3322 -6.88916,2.9603 -5.07336,2.7305 -6.31236,2.9631 -15.97251,2.9997 -10.2314,0.039 -10.41558,-4e-4 -8,-1.703 1.35988,-0.9585 2.69751,-1.7679 2.97251,-1.7988 0.275,-0.031 3.61407,-1.6537 7.42016,-3.6062 6.51671,-3.3431 6.76181,-3.5898 4.20401,-4.2318 -1.49388,-0.3749 -3.21498,-0.3734 -3.82467,0 -0.65228,0.4032 -0.8277,0.2308 -0.42622,-0.4188 0.42877,-0.6938 -0.72146,-1.3847 -3.09549,-1.8594 -4.70691,-0.9412 -4.42887,-0.865 -6.54575,-1.7959 -2.17073,-0.9547 -7.95873,1.2744 -7.06482,2.7208 0.35299,0.5711 0.17481,0.7498 -0.39596,0.3971 -1.3114,-0.8105 -17.58309,9.6872 -16.57616,10.6941 0.40916,0.4092 -0.10367,0.4187 -1.13963,0.021 -1.20868,-0.4638 -1.65172,-0.3477 -1.2365,0.3242 0.43159,0.6983 -2.6503,1.1038 -9.25446,1.2176 -9.02627,0.1555 -9.87489,0.012 -9.60018,-1.6271 0.16574,-0.9887 0.85545,-1.668 1.53269,-1.5096 0.67724,0.1585 7.32892,-3.6437 14.78151,-8.4493 l 13.55015,-8.7375 -7.91434,-2.3661 c -4.35289,-1.3013 -19.38578,-5.8724 -33.40642,-10.1579 -16.66419,-5.0935 -26.01427,-7.4991 -27,-6.9465 -0.82936,0.465 -8.65693,4.2239 -17.39461,8.3531 -8.73768,4.1293 -16.53355,8.2972 -17.32416,9.262 -0.7906,0.9648 -1.15572,1.1968 -0.81137,0.5156 0.41151,-0.814 0.0962,-1.0352 -0.9201,-0.6452 -0.85041,0.3264 -1.25425,1.0657 -0.89743,1.6431 0.37463,0.6061 0.16965,0.7536 -0.48507,0.3489 -0.62362,-0.3854 -2.04315,-0.2141 -3.15451,0.3807 -1.80906,0.9685 -2.02067,2.073 -2.02067,10.5466 l 0,9.4648 -5,0 -5,0 1.5e-4,-12.75 z m -31.60068,-13.8862 c 9.40529,-4.1999 17.32553,-7.9124 17.60053,-8.25 0.275,-0.3376 1.175,-0.7612 2,-0.9413 0.825,-0.1802 8.79549,-3.5919 17.71221,-7.5817 l 16.2122,-7.2542 -28.47692,-8.6699 -28.47693,-8.67 -16.73528,7.6083 c -9.2044,4.1845 -18.87278,8.7568 -21.48528,10.1606 l -4.75,2.5523 0,9.3625 c 0,8.7509 0.14699,9.4268 2.25,10.3471 4.28897,1.8768 24.2567,8.7909 25.64947,8.8815 0.76971,0.05 9.09471,-3.3453 18.5,-7.5452 z M 369.8037,787.4546 c 1.23132,-0.33 1.94929,-1.0684 1.59549,-1.6409 -0.35379,-0.5724 -0.18426,-0.7571 0.37674,-0.4104 0.91928,0.5681 15.83364,-4.9029 20.78902,-7.6261 1.1,-0.6045 2.45,-1.1819 3,-1.2831 0.55,-0.1011 7.525,-2.8733 15.5,-6.1604 7.975,-3.2871 16.63581,-6.8259 19.24625,-7.8641 2.61044,-1.0382 4.74794,-2.1751 4.75,-2.5264 0.004,-0.6671 -6.0545,-2.0421 -7.09256,-1.6097 -0.32796,0.1366 -1.22796,-0.25 -2,-0.8592 -0.77203,-0.6091 -9.82829,-3.671 -20.12502,-6.8042 l -18.72134,-5.6967 -16.77866,6.9212 c -9.22827,3.8066 -17.80558,7.2409 -19.0607,7.6318 -2.22042,0.6914 -2.27441,1.0116 -2,11.8596 l 0.28203,11.1489 7,2.6682 c 7.43464,2.8339 9.65618,3.2117 13.23875,2.2515 z m -72.17658,-26.2152 c 2.16581,-1.0134 9.42547,-3.7966 16.13258,-6.1849 6.73166,-2.397 11.92629,-4.7767 11.59549,-5.312 -0.33735,-0.5458 -0.078,-0.6474 0.59342,-0.2325 0.65598,0.4054 8.83816,-2.0876 18.18263,-5.54 10.14755,-3.7491 16.46554,-6.5706 15.68784,-7.0058 -0.71616,-0.4008 -11.07635,-3.7167 -23.02264,-7.3688 l -21.72052,-6.6401 -10.75548,4.2173 c -5.91552,2.3195 -14.35549,5.6365 -18.75549,7.371 l -8,3.1537 0,9.9094 0,9.9094 8,2.7086 c 4.4,1.4897 8.02798,2.742 8.06217,2.7829 0.0342,0.041 1.83419,-0.7548 4,-1.7682 z m -51.56223,-29.3703 c 11.27503,-3.967 20.72506,-7.4545 21.00006,-7.75 0.275,-0.2954 0.95,-0.5438 1.5,-0.5519 1.07206,-0.016 8.62341,-2.5113 17.42293,-5.7577 l 5.42293,-2.0007 -5.92293,-1.853 c -3.25761,-1.0192 -6.58421,-1.609 -7.39245,-1.3106 -0.80823,0.2983 -1.13636,0.2093 -0.72917,-0.1979 0.4072,-0.4072 -6.22116,-2.8818 -14.72968,-5.499 l -15.47005,-4.7586 -9.30079,3.101 c -5.11543,1.7056 -9.52579,3.3688 -9.80079,3.6961 -0.275,0.3273 -0.9564,0.5951 -1.51423,0.5951 -0.55783,0 -4.49533,1.0918 -8.75,2.4261 l -7.73577,2.426 0,9.6664 0,9.6664 7.25,2.5506 c 3.9875,1.4028 7.47497,2.5987 7.74994,2.6575 0.27496,0.059 9.72496,-3.1387 21,-7.1058 z m -58.84721,-19.9945 c 10.28995,-3.4141 18.49174,-6.5589 18.2262,-6.9886 -0.26554,-0.4296 0.10307,-0.5633 0.81913,-0.2971 0.71607,0.2662 6.47694,-1.2552 12.80194,-3.3811 l 11.5,-3.8651 -11.5,-3.574 c -6.325,-1.9657 -16.24878,-5.0123 -22.05285,-6.7703 l -10.55284,-3.1962 -13.71252,5.1392 c -7.54189,2.8266 -15.39311,5.9289 -17.44716,6.8941 l -3.73463,1.7549 -0.29066,7.0896 c -0.21217,5.1752 0.0914,7.4067 1.1244,8.2639 1.78488,1.4814 11.51696,4.9678 14.13812,5.065 1.08453,0.04 10.39092,-2.7203 20.68087,-6.1343 z m -59.96743,-18.2243 c 16.42331,-4.4611 41.8147,-13.2905 41.8147,-14.5403 0,-0.7147 -33.03581,-11.0281 -35.32516,-11.0281 -0.74239,0 -9.18544,2.8626 -18.76232,6.3613 l -17.41252,6.3613 0,6.8024 0,6.8024 5,1.7588 c 2.75,0.9674 5.75839,1.7937 6.6853,1.8363 0.92692,0.043 9.02692,-1.9167 18,-4.3541 z M 74.564953,676.681 c 14.626695,-3.8271 29.289797,-8.3564 30.999997,-9.5758 0.55,-0.3921 3.14909,-1.2945 5.77576,-2.0053 2.62667,-0.7108 4.96644,-1.6008 5.19949,-1.9779 0.23306,-0.3771 -7.33762,-3.0237 -16.82371,-5.8813 -14.099934,-4.2474 -17.786172,-5.0235 -20.199493,-4.2526 -1.623624,0.5187 -9.027044,2.8057 -16.452044,5.0822 -7.425,2.2766 -14.9625,4.5954 -16.75,5.153 -3.144839,0.9809 -3.25,1.19 -3.25,6.4609 0,4.984 0.227277,5.5336 2.672449,6.4633 1.469846,0.5588 3.36863,0.7489 4.219519,0.4224 0.850889,-0.3265 1.20667,-0.2533 0.790624,0.1628 -0.836925,0.8369 7.225252,4.4265 8.817408,3.9259 0.55,-0.173 7.3,-1.9629 15,-3.9776 z M 823.56495,832.0106 c -11,-3.2293 -21.25333,-5.8843 -22.78518,-5.9 -1.53185,-0.016 -3.78185,-0.6416 -5,-1.3908 -1.21815,-0.7492 -11.88982,-4.1037 -23.71482,-7.4545 -42.39535,-12.0133 -176.87373,-50.2846 -195.5,-55.6373 -31.23031,-8.9749 -117.61956,-33.571 -123,-35.0197 -5.19803,-1.3995 -46.21559,-13.0918 -66.87193,-19.0623 -6.52956,-1.8873 -12.22862,-3.2109 -12.66459,-2.9415 -0.43596,0.2694 -0.94359,0.1263 -1.12807,-0.318 -0.18448,-0.4444 -3.71041,-1.7782 -7.83541,-2.9641 -53.53425,-15.3906 -166.98062,-47.4509 -168.5423,-47.6307 -1.12327,-0.1292 -2.47402,-0.5018 -3.00167,-0.8279 -2.41704,-1.49384 -68.88955,-19.82949 -70.14354,-19.34829 -0.779,0.29893 -1.19325,0.1825 -0.92055,-0.25873 0.42143,-0.68189 -87.18079,-26.27338 -94.391937,-27.57498 -1.375,-0.24819 -2.5,-0.51331 -2.5,-0.58915 0,-0.0758 -4.95,-1.6125 -11,-3.41479 L 3.5649528,598.40098 3.2597485,593.15655 c -0.2714815,-4.66497 -0.1057432,-5.18319 1.5,-4.6901 0.9928624,0.30489 14.6302045,4.19533 30.3052045,8.64541 15.675,4.45009 42.675,12.14767 60,17.10574 17.324997,4.95807 38.474997,10.96411 46.999997,13.34675 12.91311,3.60908 61.46824,17.4218 67.17941,19.11086 1.34241,0.39702 1.07985,-0.66616 -1.30843,-5.2983 -1.64331,-3.18724 -3.41154,-5.68248 -3.9294,-5.54498 -0.51787,0.1375 -0.82908,-0.24811 -0.69158,-0.8569 0.14819,-0.65615 -6.26566,-2.69495 -15.75,-5.00653 -8.8,-2.14479 -41.65,-10.17458 -73,-17.84397 -31.349997,-7.66939 -69.262497,-16.93121 -84.249997,-20.58182 l -27.2500002,-6.63746 0,-4.91166 c 0,-2.70141 0.3900388,-4.91166 0.866753,-4.91166 0.4767141,0 16.5642142,3.83779 35.7500002,8.52842 19.185786,4.69064 46.808247,11.4441 61.383244,15.00769 14.575,3.5636 42.25,10.32156 61.5,15.0177 19.25,4.69615 35.74382,8.75915 36.65294,9.0289 1.43434,0.42559 1.53668,-0.0103 0.77386,-3.29613 -0.4835,-2.08262 -0.88982,-5.41898 -0.90294,-7.41414 -0.0131,-1.99515 -0.58636,-4.06023 -1.27386,-4.58906 -2.44409,-1.88001 -99.98412,-22.7262 -106.749997,-22.81454 -7.474682,-0.0976 -21.005471,-3.09445 -22.540888,-4.99245 -0.572489,-0.70768 -14.747489,-4.27333 -31.5,-7.92367 -16.752512,-3.65034 -31.2466122,-6.87335 -32.2091122,-7.16224 -1.3591546,-0.40794 -1.75,-1.62691 -1.75,-5.45787 0,-2.71293 0.245018,-4.93261 0.5444844,-4.93261 0.2994664,0 3.3369666,0.67306 6.7499998,1.49568 3.413034,0.82262 16.780516,3.77245 29.705516,6.55518 12.925,2.78273 24.5125,5.30845 25.75,5.61273 l 2.25,0.55323 0,-17.54939 c 0,-9.65217 -0.401265,-17.79739 -0.8917,-18.1005 -0.490435,-0.3031 -2.476045,-0.66716 -4.412465,-0.80901 -2.169669,-0.15894 -3.222862,-0.64167 -2.744471,-1.25792 0.426962,-0.55 1.056721,-60.78845 1.399465,-133.86323 0.59028,-125.85063 0.531491,-132.8373 -1.113829,-132.37191 -4.729259,1.33771 -4.691157,1.36509 -5.238831,-3.76486 -0.293589,-2.75 -0.893814,-5.56893 -1.333833,-6.26429 -1.871589,-2.95767 -9.158713,-5.48787 -17.261191,-5.99337 l -8.193361,-0.51117 -0.689584,-7.35889 c -1.17284,-12.51594 -1.094898,-12.39447 -9.82096,-15.30581 -4.230832,-1.41156 -7.750036,-2.91294 -7.8204532,-3.3364 -0.477791,-2.87326 1.3535502,-8.65894 2.8723112,-9.07438 0.961896,-0.26311 53.847036,-8.2658 117.522529,-17.78375 l 115.77363,-17.30537 36.96485,7.32812 c 20.33067,4.03047 37.66841,7.05815 38.52831,6.72817 0.8599,-0.32997 1.33687,-0.23333 1.05994,0.21476 -0.27694,0.44809 2.51219,1.39624 6.19806,2.10699 3.68587,0.71076 18.85158,3.69287 33.70158,6.62692 14.85,2.93405 49.05,9.65281 76,14.93058 26.95,5.27777 49.675,9.83325 50.5,10.12329 1.01566,0.35707 0.23148,1.14848 -2.42856,2.45097 -2.16071,1.058 -4.54977,1.92363 -5.30902,1.92363 -0.78882,0 -1.07465,0.4948 -0.66693,1.15451 0.42937,0.69474 0.27561,0.88386 -0.38611,0.4749 -0.78685,-0.48631 -18.12533,5.19059 -20.93461,6.85432 -0.12387,0.0734 -0.51775,3.28084 -0.87528,7.12773 -0.63043,6.78322 -0.56995,7.04683 2.00347,8.733 1.45944,0.95626 3.16035,1.42543 3.77979,1.04259 0.69065,-0.42684 0.84826,-0.24625 0.40751,0.4669 -0.41442,0.67055 0.0494,1.47695 1.0955,1.90451 1.84244,0.75307 12.31424,8.17787 12.31424,8.73115 0,0.1661 -3.0375,3.38639 -6.75,7.1562 l -6.75,6.85419 0.28789,21.75 0.28788,21.75 12.48117,0 12.48116,0 -0.76905,-2.75 c -1.25067,-4.47218 -0.58651,-21.56424 0.80452,-20.70453 0.35476,0.21925 1.37965,-1.47159 2.27755,-3.75741 l 1.63254,-4.15605 -3.12538,-2.60918 c -2.85029,-2.37953 -3.06307,-2.95746 -2.41745,-6.56601 1.6527,-9.2374 1.69511,-17.74818 0.12363,-24.81169 l -1.60515,-7.21484 3.09928,-5.7222 c 3.5122,-6.48459 5.37753,-7.87301 8.82862,-6.57139 2.24815,0.84792 2.3551,1.25446 1.83599,6.97928 -0.30317,3.34341 -0.17712,7.27257 0.28012,8.73147 0.45723,1.4589 1.09152,3.84786 1.40953,5.30879 l 0.57819,2.65625 5.54821,-3.00504 c 9.69447,-5.25075 21.08961,-4.88013 28.75384,0.93519 3.53324,2.68089 3.63503,2.94305 3.67047,9.45257 l 0.0364,6.69521 4.75,0.30479 4.75,0.30479 0.29414,7.26617 0.29413,7.26618 -3.04413,0.60882 c -1.67428,0.33486 -3.04557,0.89008 -3.04731,1.23383 -0.0156,3.07565 4.74952,15.98156 6.41246,17.36764 1.45436,1.21223 1.73964,1.97316 0.93729,2.5 -0.63437,0.41655 -1.63189,3.34644 -2.21669,6.51088 -0.58481,3.16443 -1.54908,6.66123 -2.14283,7.77066 -0.59375,1.10944 -0.76421,2.52738 -0.3788,3.151 0.44339,0.71741 0.25202,0.8565 -0.52106,0.37871 -0.77057,-0.47624 -1.41411,-0.0198 -1.74247,1.23588 -0.28637,1.09505 -3.18343,3.92003 -6.43792,6.27774 l -5.91725,4.28674 3.75522,1.42834 c 2.06537,0.78559 5.33022,1.61947 7.25522,1.85306 13.46161,1.63349 24.34142,5.17735 30.75588,10.01805 1.79074,1.35138 3.77277,2.13761 4.40451,1.74717 0.63967,-0.39533 0.87851,-0.27283 0.53903,0.27645 -0.33527,0.54249 1.6555,3.19952 4.42395,5.90451 2.76845,2.70499 5.6924,6.17038 6.49767,7.70087 0.8401,1.59667 1.93805,2.4898 2.57606,2.09549 0.61155,-0.37796 0.84713,-0.25877 0.5235,0.26487 -0.32363,0.52365 0.95684,4.02235 2.84549,7.77491 l 3.43391,6.82282 0,-69.68039 0,-69.68038 -3.60417,-4.69001 c -1.9823,-2.57951 -4.04075,-4.56636 -4.57433,-4.41523 -0.53359,0.15112 -0.73608,-0.10398 -0.44998,-0.5669 0.4181,-0.67649 -7.0254,-11.24547 -9.30203,-13.20788 -0.31903,-0.275 -3.24794,-4.1 -6.5087,-8.5 -3.26075,-4.4 -9.31091,-12.26504 -13.44481,-17.47788 l -7.51618,-9.47788 -0.5499,-14.4103 -0.5499,-14.4103 3.99366,-3.41631 3.99366,-3.41631 -4.49366,-4.19557 c -2.47151,-2.30756 -5.31965,-6.04183 -6.32919,-8.29837 l -1.83552,-4.10282 -7.66448,3.31148 c -13.36151,5.77292 -19.10572,6.90274 -34.66447,6.8181 -10.22764,-0.0557 -15.482,-0.53737 -19.5,-1.78778 -3.025,-0.94139 -6.175,-1.80712 -7,-1.92384 -0.825,-0.11672 -1.725,-0.48927 -2,-0.82789 -0.275,-0.33861 -2.3,-1.54933 -4.5,-2.69048 -10.59338,-5.49483 -20.46883,-16.33374 -24.45888,-26.84511 l -1.65019,-4.34729 -3.3178,3.4231 c -4.34238,4.4802 -13.09974,7.71277 -21.44552,7.91612 l -6.53957,0.15933 -1.54402,4.03343 c -0.84917,2.21839 -1.54398,4.33433 -1.54398,4.70209 0,0.36776 -2.01462,3.5506 -4.47693,7.07297 -2.46232,3.52237 -4.14982,6.80643 -3.75,7.29791 0.39981,0.49148 0.33084,0.57251 -0.15326,0.18007 -0.48411,-0.39243 -4.18935,2.33566 -8.23387,6.06243 -8.71064,8.02632 -19.33551,14.34283 -30.66363,18.22958 -10.86984,3.72951 -18.76626,4.90484 -33.01447,4.91397 -17.08114,0.0109 -31.11299,-3.22935 -45.83863,-10.58525 -3.64694,-1.82175 -6.98159,-2.99614 -7.41033,-2.60974 -0.42874,0.3864 -0.49774,0.20786 -0.15333,-0.39675 0.3444,-0.6046 -0.59595,-1.72143 -2.08968,-2.48183 -1.49373,-0.7604 -4.89972,-3.30113 -7.56887,-5.64607 -2.66914,-2.34495 -5.32617,-3.97109 -5.9045,-3.61366 -0.60109,0.37149 -0.75659,0.17267 -0.36302,-0.46414 0.37867,-0.61271 -0.82541,-2.81974 -2.67573,-4.90451 -12.35151,-13.91655 -18.21776,-32.93342 -16.59539,-53.79802 0.67323,-8.65809 0.63073,-8.90988 -1.83075,-10.84607 -7.77866,-6.1187 -6.89621,-22.03374 1.83042,-33.01169 2.12713,-2.6759 3.57849,-5.33293 3.22524,-5.9045 -0.36313,-0.58756 -0.16024,-0.74132 0.46682,-0.35377 0.61001,0.377 3.39459,-0.9565 6.18796,-2.96333 4.22915,-3.03835 6.15753,-3.73538 11.52635,-4.16634 l 6.44749,-0.51754 2.95074,-5.22842 c 5.69877,-10.09766 17.4218,-17.6426799 33.66504,-21.6670199 11.26987,-2.79216 34.64157,-3.01842 46.26017,-0.44783 4.03582,0.89291 7.81785,1.32682 8.40451,0.96425 0.58958,-0.36438 0.77784,-0.1919 0.42091,0.38562 -0.37718,0.61029 0.70552,1.29836 2.60317,1.65436 1.78692,0.33523 5.39653,1.7527599 8.02136,3.1500599 2.62483,1.39731 5.2784,2.22785 5.89682,1.84564 0.64585,-0.39916 0.84829,-0.24815 0.47564,0.3548 -1.62999,2.63739 2.44545,1.72772 6.42641,-1.43442 7.76267,-6.1660099 19.51734,-10.9828899 32.347,-13.25529991 9.07851,-1.60799999 32.40061,-1.30776999 41.3585,0.53241 6.77736,1.39225001 16.24451,5.13567001 18.47559,7.30545001 0.42227,0.41066 4.02227,-0.3473 8,-1.68437 6.40187,-2.1519 8.43783,-2.37218 17.73225,-1.91851 5.775,0.28188 13.18446,1.25239 16.46548,2.15669 6.99829,1.92884 18.54263,7.4149199 19.19821,9.1233299 0.31857,0.83017 2.5877,0.29392 7.51307,-1.7755 21.58693,-9.0698699 46.46991,-10.9162899 63.5979,-4.7192299 3.14894,1.13931 6.18522,2.1631899 6.74729,2.2752799 0.56207,0.11209 2.68013,1.46855 4.70678,3.01436 2.02666,1.54581 4.16543,2.51353 4.75283,2.1505 0.5874,-0.36303 0.94434,-0.27169 0.79322,0.20298 -0.15113,0.47467 1.83977,3.34227 4.42422,6.37245 8.9643,10.51033 12.03361,23.07756 7.91194,32.39528 -1.17436,2.65484 -2.01724,4.86993 -1.87307,4.92244 0.14417,0.0525 2.82457,1.375 5.95644,2.93889 3.15537,1.57563 6.2339,2.50995 6.90451,2.09549 0.72325,-0.44699 0.95096,-0.32849 0.56593,0.2945 -0.35434,0.57334 1.45175,2.75996 4.01354,4.85916 2.56179,2.09919 6.49468,5.82017 8.73975,8.26884 2.24508,2.44867 4.6766,5.05658 5.40339,5.79535 0.72678,0.73878 1.03364,1.34323 0.6819,1.34323 -0.35173,0 0.30625,1.32821 1.46219,2.95158 5.43519,7.63302 10.04875,23.17524 10.01712,33.74583 -0.0224,7.49689 -2.25951,17.96481 -4.97799,23.29348 -1.1793,2.3116 -2.00028,4.30447 -1.82441,4.42859 0.17587,0.12412 2.56976,1.05986 5.31976,2.07942 2.75,1.01956 6.2375,3.08979 7.75,4.6005 2.74599,2.74275 2.75,2.76777 2.75,17.17364 l 0,14.42688 -3,4.14138 c -3.10007,4.27953 -3.72247,5.72325 -2.01145,4.66578 0.57775,-0.35708 0.7277,0.0688 0.36083,1.02483 -0.46146,1.20255 -0.82773,1.31214 -1.38294,0.41379 -0.50544,-0.81781 -1.69941,0.22939 -3.60991,3.16616 -1.57008,2.41348 -3.33959,4.83814 -3.93226,5.38814 -3.19806,2.96784 -7.47179,9.6141 -6.83974,10.63677 0.42731,0.6914 0.29339,0.90582 -0.32647,0.52272 -0.58821,-0.36353 -4.06865,3.53917 -7.90451,8.86353 -3.76945,5.23218 -8.93147,12.16052 -11.47116,15.39629 l -4.61761,5.88324 -0.67253,15.84872 c -0.36989,8.7168 -1.55394,41.72373 -2.63122,73.34873 l -1.95869,57.5 3.0146,2.75 c 2.44343,2.22895 3.95898,2.75 7.99884,2.75 l 4.98422,0 0,-5.5 0,-5.5 3.5,0 3.5,0 0,-5.94098 c 0,-3.41203 -0.49145,-6.24472 -1.15451,-6.65451 -0.76393,-0.47214 -0.88081,-0.27068 -0.34549,0.59549 0.53934,0.87268 0.41874,1.06781 -0.3618,0.58541 -0.64395,-0.39798 -0.96298,-1.05991 -0.70894,-1.47095 0.54297,-0.87855 -4.86886,-9.34153 -5.54272,-8.66766 -0.25188,0.25188 -0.50625,-0.30811 -0.56526,-1.24442 -0.059,-0.93631 -1.28831,-4.94279 -2.73178,-8.90329 -3.97044,-10.89382 -5.18154,-21.55584 -3.7073,-32.63755 1.99989,-15.03299 10.36947,-37.26967 13.56609,-36.04301 1.14018,0.43753 1.51081,-0.66723 1.74921,-5.2139 0.28313,-5.39958 0.48551,-5.81774 3.15995,-6.5291 6.16817,-1.64064 8.25838,-6.1236 5.01451,-10.75487 -1.30015,-1.85622 -1.82265,-2.05209 -2.59433,-0.97251 -0.72727,1.01745 -0.82345,0.90959 -0.38882,-0.436 0.32871,-1.0177 0.0104,-2.00547 -0.739,-2.29304 -1.54497,-0.59286 -1.48773,-0.28656 -2.28014,-12.20062 -0.50952,-7.66065 -0.29626,-10.10551 1.22115,-14 1.01116,-2.59517 1.70438,-5.16849 1.54049,-5.71849 -0.16389,-0.55 0.002,-0.7 0.36869,-0.33333 0.6772,0.6772 5.1488,-3.22027 4.82143,-4.20238 -0.0982,-0.29465 0.57678,-0.60214 1.5,-0.68332 0.92321,-0.0812 4.32747,-0.89297 7.56502,-1.80399 l 5.88645,-1.6564 11.11355,3.26205 c 6.11245,1.79412 11.78855,3.34584 12.61355,3.44825 0.825,0.10242 2.83244,0.72483 4.46097,1.38313 1.62853,0.6583 4.10353,0.93328 5.5,0.61107 1.64326,-0.37915 2.07202,-0.27362 1.2153,0.29913 -1.06896,0.71464 -0.956,1.48965 0.58692,4.02679 1.05086,1.728 2.28119,2.80593 2.73406,2.39541 0.45287,-0.41053 0.52992,-0.23282 0.17123,0.39491 -0.35869,0.62772 0.30506,3.30529 1.475,5.95014 2.20001,4.97349 5.00614,16.61904 3.82928,15.89171 -1.0714,-0.66216 -6.07787,5.07062 -5.23676,5.99649 0.4202,0.46254 0.25249,0.5488 -0.37269,0.19168 -0.62518,-0.35713 -1.69254,0.0204 -2.37189,0.839 -1.00536,1.21138 -0.61501,2.86654 2.09778,8.89495 l 3.33298,7.40663 5.09396,-0.52574 c 15.12304,-1.56084 25.76428,15.59951 27.18255,43.83533 0.78251,15.57862 -1.3577,27.74692 -6.77789,38.53615 -4.22311,8.40635 -4.34629,8.72334 -3.08747,7.94535 0.45834,-0.28327 0.83334,0.13303 0.83334,0.9251 0,1.10222 -0.31974,1.17478 -1.36265,0.30924 -1.04507,-0.86733 -1.8802,-0.6597 -3.58334,0.89091 -3.30612,3.01005 -6.29497,4.31664 -10.21117,4.46386 l -3.50951,0.13194 0,5.91211 0,5.91211 5.25,-0.28287 5.25,-0.28288 0.30078,5.16595 0.30077,5.16595 7.04317,0.29279 7.04318,0.29278 -0.002,9 -0.002,9 -21.48611,0.26921 -21.48612,0.26921 5.27915,5.40723 c 12.97302,13.28778 19.73075,34.09775 19.8265,61.05435 0.0544,15.3314 -1.1545,25.08037 -4.87895,39.34358 -1.3419,5.13896 -2.14476,9.82099 -1.78413,10.4045 0.38561,0.62393 0.18015,0.76703 -0.49881,0.34741 -0.64702,-0.39988 -1.15988,-0.13811 -1.16672,0.59549 -0.007,0.71996 -1.61186,4.90902 -3.56699,9.30902 -1.95513,4.4 -3.79778,8.5625 -4.09478,9.25 -0.40512,0.93778 1.36007,1.25 7.06699,1.25 l 7.60699,0 0,21 c 0,11.55 0.1956,21 0.43467,21 0.23906,0 6.20156,-2.05704 13.25,-4.5712 l 12.81441,-4.5712 13.5,1.67052 c 7.425,0.91879 13.725,1.80764 14,1.97522 0.275,0.16757 -0.0259,11.48538 -0.66857,25.15067 -0.64272,13.6653 -1.20522,27.26474 -1.25,30.22099 -0.0894,5.90157 -0.30101,5.80357 7.63964,3.53997 2.20927,-0.6297 2.22255,-0.5595 2.5,13.226 l 0.27893,13.859 20.29268,4.9961 c 19.938,4.9088 20.28756,5.0398 20,7.4993 -0.23407,2.0018 -2.20551,3.6048 -9.84389,8.0039 -5.25316,3.0254 -10.76091,6.2955 -12.23943,7.2669 -1.47852,0.9713 -3.03048,1.8506 -3.44879,1.9539 -1.98994,0.4916 -26.88075,15.3979 -27.1006,16.2298 -0.13808,0.5224 4.95096,2.1352 11.30896,3.584 11.90162,2.712 12.10611,2.7036 16.42357,-0.6781 0.21588,-0.1691 -0.20948,-1.1058 -0.94523,-2.0816 -1.25931,-1.6702 -1.23024,-1.676 0.49587,-0.1001 1.72788,1.5776 2.31224,1.4367 10.13498,-2.443 4.56576,-2.2644 8.03397,-4.5497 7.70712,-5.0786 -0.32684,-0.5288 -0.0879,-0.6486 0.53088,-0.2661 0.61883,0.3824 2.48836,-0.01 4.15451,-0.8712 l 3.02937,-1.5665 0,5.5365 0,5.5366 -5.44649,2.6712 c -2.99557,1.4691 -5.2222,3.0341 -4.94806,3.4776 0.27413,0.4436 -0.15443,0.556 -0.95236,0.2498 -0.79793,-0.3062 -1.72784,-0.1084 -2.06646,0.4395 -0.65551,1.0606 -0.0435,1.2969 8.16337,3.1526 l 5.25,1.187 0,4.9003 c 0,2.6951 -0.3375,4.8997 -0.75,4.899 -1.54207,0 -64.53002,-14.0538 -65.39461,-14.5882 -0.49574,-0.3063 -3.86244,1.1634 -7.48157,3.2662 -3.61912,2.1028 -8.22128,4.6638 -10.22702,5.6912 -2.00574,1.0274 -3.8718,2.1524 -4.1468,2.5 -0.275,0.3476 -2.075,1.438 -4,2.423 -6.44728,3.2992 -7.99274,4.383 -7.27455,5.1011 0.39247,0.3925 0.0119,0.4444 -0.84572,0.1153 -0.85761,-0.3291 -2.10133,0.055 -2.76381,0.8529 -1.02362,1.2334 0.41647,1.8325 9.58979,3.9892 5.93686,1.3957 29.3743,7.1057 52.0832,12.6888 l 41.28892,10.151 -0.28892,8.0564 -0.28891,8.0564 -8.5,5.9054 c -4.675,3.2479 -8.4125,6.2549 -8.30556,6.6823 0.10695,0.4273 -0.3698,0.7769 -1.05944,0.7769 -1.13427,0 -13.635,7.9876 -13.635,8.7124 0,0.1674 7.19644,2.2882 15.9921,4.7127 l 15.99209,4.4082 0.008,5.25 c 0.004,2.8875 -0.3296,5.2051 -0.7421,5.1501 -0.4125,-0.055 -9.75,-2.7421 -20.75,-5.9714 z m -17.12699,-21.2589 c 7.52068,-5.3153 20.71703,-14.4484 27.12081,-18.7703 l 4.76605,-3.2166 -30.37994,-7.4046 -30.37993,-7.4046 -4,2.0544 c -2.2,1.13 -7.6,3.9961 -12,6.3692 -4.4,2.3731 -12.13311,6.5317 -17.1847,9.2413 l -9.18469,4.9266 7.68469,2.262 c 4.22659,1.2441 8.8097,2.4302 10.1847,2.6359 1.375,0.2057 3.32607,0.7211 4.33571,1.1453 1.42056,0.5969 40.87743,12.1208 42.5373,12.4236 0.20515,0.037 3.13015,-1.8806 6.5,-4.2622 z m -81.98325,-19.0334 c 0.61063,-0.75 5.16024,-3.495 10.11024,-6.1 4.95,-2.6051 9.675,-5.3344 10.5,-6.0652 0.825,-0.7308 1.83977,-1.3562 2.25505,-1.3899 0.41528,-0.034 3.98644,-1.6885 7.93592,-3.6774 5.04366,-2.54 6.75351,-3.8446 5.74495,-4.3834 -0.78976,-0.422 -8.55764,-2.4436 -17.26196,-4.4926 l -15.82605,-3.7255 -6.17395,3.2467 c -3.39568,1.7856 -8.10902,4.5301 -10.47409,6.0987 -2.36507,1.5687 -4.51291,2.8522 -4.77298,2.8522 -0.26006,0 -4.13992,2.1307 -8.62191,4.735 l -8.14906,4.7349 3.42204,0.946 c 1.88212,0.5203 9.04704,2.6238 15.92204,4.6745 14.7383,4.3961 13.98489,4.2715 15.38976,2.546 z M 683.689,775.3948 c 2.68177,-1.4779 11.85095,-6.7191 20.37595,-11.6472 8.525,-4.9281 17.16867,-9.8673 19.20816,-10.9761 2.03949,-1.1088 3.50683,-2.3417 3.26076,-2.7399 -0.24607,-0.3981 0.14124,-0.6622 0.86069,-0.5868 2.12199,0.2224 27.54499,-14.7487 26.92065,-15.853 -0.314,-0.5554 -0.22167,-0.6953 0.20518,-0.3108 1.14642,1.0327 10.6532,-4.2143 9.8857,-5.4561 -0.39298,-0.6359 -0.16687,-0.7533 0.57164,-0.2969 0.70908,0.4383 3.6065,-0.6837 6.90451,-2.6735 3.12549,-1.8857 11.19521,-6.5158 17.93271,-10.289 6.7375,-3.7732 12.25,-7.2521 12.25,-7.731 0,-0.4788 0.38185,-0.6346 0.84856,-0.3462 0.4667,0.2885 1.7042,-0.2727 2.75,-1.247 1.04579,-0.9743 2.27353,-1.7983 2.72831,-1.8311 0.45478,-0.033 4.2641,-2.0262 8.46514,-4.4298 l 7.63827,-4.3703 -14.3041,-3.3761 -14.3041,-3.376 -41.84864,20.8084 c -23.01674,11.4447 -41.58218,21.2396 -41.25653,21.7665 0.32566,0.5269 0.11295,0.6619 -0.47269,0.3 -0.9441,-0.5835 -72.24422,33.6607 -72.24422,34.6977 0,0.9517 17.15872,5.6757 18.27873,5.0323 0.70928,-0.4075 0.86856,-0.32 0.37993,0.2087 -0.64173,0.6943 15.39897,6.7259 19.46539,7.3193 0.34322,0.05 2.81822,-1.1182 5.5,-2.5961 z m -60.37455,-20.7316 -0.7495,-8.9187 -7,-1.4057 c -3.85,-0.7732 -9.95817,-2.6452 -13.57372,-4.1602 l -6.57372,-2.7544 -3.26137,2.7227 c -4.1544,3.4683 -10.91529,5.368 -16.41904,4.6137 -4.35965,-0.5976 -48.20345,-12.8155 -94.67215,-26.3823 -14.025,-4.0947 -26.27833,-7.5523 -27.22963,-7.6836 -0.95129,-0.1313 -2.07629,-0.62 -2.5,-1.0861 -0.4237,-0.466 -0.20787,-0.5236 0.47963,-0.128 1.83782,1.0576 1.48169,-0.4203 -1.12142,-4.654 l -2.309,-3.7553 -1.90979,2.1138 c -1.05038,1.1625 -4.30129,3.3239 -7.22424,4.8029 l -5.31444,2.6893 32.31444,9.2158 c 17.77295,5.0687 60.43945,17.2388 94.81445,27.0446 34.375,9.8059 62.61227,17.5623 62.7495,17.2365 0.13722,-0.3257 -0.0878,-4.6057 -0.5,-9.511 z m 45.00621,-9.7009 c 18.83436,-9.4157 34.46929,-17.4032 34.74429,-17.75 0.275,-0.3467 0.96803,-0.7114 1.54007,-0.8104 2.95345,-0.5112 27.32224,-13.1355 26.69444,-13.8291 -0.40398,-0.4464 -0.22379,-0.5198 0.40043,-0.1633 1.20916,0.6906 57.35794,-26.8172 58.59975,-28.7086 0.40408,-0.6154 0.74158,-0.7264 0.75,-0.2465 0.008,0.4798 0.69031,0.3122 1.51531,-0.3725 1.10104,-0.9138 1.5,-3.3401 1.5,-9.1224 0,-4.3327 -0.36984,-7.8776 -0.82186,-7.8776 -1.85936,0 -10.91544,3.5104 -18.05608,6.9991 -4.19213,2.0481 -17.74706,8.57 -30.12206,14.4931 -12.375,5.9232 -31.725,15.2672 -43,20.7646 -11.275,5.4974 -23.2,11.2193 -26.5,12.7154 -3.3,1.496 -6.61349,3.4593 -7.36331,4.3629 -0.74982,0.9036 -1.71792,1.4237 -2.15133,1.1559 -0.43341,-0.2679 -3.41993,0.7952 -6.63669,2.3623 -3.21677,1.5672 -10.4888,5.0353 -16.16007,7.707 l -10.3114,4.8576 0.23633,10.2911 c 0.12998,5.66 0.38518,10.291 0.56711,10.291 0.18194,0 15.74072,-7.7038 34.57507,-17.1196 z m -39.82715,-15.1304 c 1.31336,-13.9659 4.57144,-56.161 4.57144,-59.2043 l 0,-3.2624 -10.75,-0.6192 c -5.9125,-0.3405 -11.91509,-0.8929 -13.33908,-1.2274 l -2.58909,-0.6083 -0.66091,18.2461 c -0.36351,10.0354 -0.66092,24.911 -0.66092,33.057 l 0,14.811 6.75,1.9769 c 8.32549,2.4383 10.04389,2.8179 13.42041,2.9646 2.56278,0.1114 2.69409,-0.1359 3.25815,-6.134 z m -43.13482,2.6964 c 2.13959,-1.4539 3.46499,-3.0277 3.07762,-3.6545 -0.37792,-0.6115 -0.22657,-0.8204 0.34048,-0.47 1.04084,0.6433 2.87826,-1.1786 4.93537,-4.8937 0.72626,-1.3116 1.41686,-12.01 1.88209,-29.156 l 0.73488,-27.0842 -3.29445,-1.7036 c -4.63379,-2.3963 -9.53802,-0.7613 -14.78234,4.9282 -8.84541,9.5961 -13.70808,24.8682 -12.92317,40.5874 0.48782,9.7693 3.02086,18.5599 4.99627,17.339 0.58372,-0.3607 0.75431,-0.1719 0.38483,0.4259 -0.81754,1.3228 2.15554,4.4762 3.46008,3.67 0.51928,-0.321 0.87971,-0.2126 0.80096,0.2408 -0.33209,1.9117 0.26468,2.3243 3.36151,2.3243 1.85627,0 4.89118,-1.103 7.02587,-2.5536 z m 73.72996,-9.8957 c 2.27065,-0.2199 16.74186,-8.121 16.27059,-8.8835 -0.33299,-0.5388 -0.0895,-0.6587 0.54339,-0.2675 0.63069,0.3898 8.23772,-2.7186 16.90451,-6.9074 8.6668,-4.1889 21.4709,-10.3708 28.45357,-13.7375 6.98267,-3.3667 12.42564,-6.5583 12.09549,-7.0925 -0.33015,-0.5342 -0.0843,-0.6524 0.5464,-0.2626 0.96861,0.5986 17.98725,-7.169 43.61371,-19.906 l 6.04864,-3.0064 1.25078,-25.49361 c 0.68793,-14.02151 1.13793,-27.32849 1,-29.57105 l -0.25078,-4.07739 -10.5,4.50367 c -5.775,2.47702 -10.77531,4.91278 -11.1118,5.4128 -0.3365,0.50002 -1.0115,0.87644 -1.5,0.83649 -1.92741,-0.15764 -9.31572,3.21008 -8.81608,4.01852 0.29247,0.47321 -0.0566,0.63463 -0.77562,0.3587 -1.11729,-0.42874 -36.71591,14.20742 -43.10287,17.72149 -1.2065,0.66381 -2.64363,1.2937 -3.19363,1.39977 -0.9321,0.17975 -40.48925,17.18261 -50.5,21.70641 -2.475,1.1185 -4.725,2.0854 -5,2.1487 -1.58975,0.3661 -10.6181,3.9782 -11.22905,4.4926 -0.66454,0.5594 -5.77095,58.9491 -5.77095,65.9883 l 0,3.009 12.25,-6.1701 c 6.7375,-3.3936 12.48566,-6.193 12.7737,-6.2209 z m -101.55671,3.1993 c -2.42112,-7.2893 -4.46699,-28.8296 -4.46699,-47.0315 l 0,-17.4551 -3.75,-0.5356 c -2.0625,-0.2946 -21.89962,-3.7329 -44.08249,-7.6406 l -40.33249,-7.105 -1.88424,2.25892 c -1.03633,1.2424 -1.89921,2.61463 -1.91751,3.0494 -0.0183,0.43478 -0.98627,2.07948 -2.15104,3.65488 -1.23719,1.6734 -1.79665,3.3841 -1.34549,4.1141 0.46556,0.7533 0.36396,0.9972 -0.25582,0.6141 -1.57398,-0.9727 -4.28092,10.068 -4.28092,17.4605 0,7.7015 2.17296,15.7501 5.82706,21.5833 2.17986,3.4799 3.43162,4.3998 7.15742,5.2603 2.48354,0.5735 23.86552,6.6181 47.51552,13.4323 23.65,6.8143 43.53519,12.4347 44.1893,12.4898 0.88017,0.074 0.82239,-1.0045 -0.22231,-4.1498 z M 426.29509,704.4433 c 2.18211,-0.3607 3.46676,-1.0428 3.09549,-1.6435 -0.37031,-0.5992 -0.14237,-0.7226 0.54725,-0.2964 1.61094,0.9956 9.13743,-2.779 12.4633,-6.2505 2.71129,-2.83 2.71345,-2.8444 1.49376,-9.9571 l -1.22147,-7.1231 -2.22009,3.9085 c -5.21593,9.1829 -14.28772,17.6078 -22.00578,20.4367 l -3.8826,1.4231 4,0.06 c 2.2,0.033 5.67856,-0.218 7.73014,-0.5572 z m -12.20163,-7.8714 c 2.35398,-0.8306 6.43715,-3.1552 9.07371,-5.1659 6.38901,-4.8723 15.10881,-17.5931 13.24042,-19.3157 -0.46345,-0.4272 -12.34505,-3.5488 -26.40355,-6.9368 -14.05851,-3.3879 -26.54601,-6.4175 -27.75,-6.7324 -1.94663,-0.509 -2.18909,-0.1817 -2.18909,2.9555 l 0,3.5279 -6.14455,-1.4334 c -3.37951,-0.7884 -6.35541,-1.2225 -6.61313,-0.9648 -0.83733,0.8373 7.05371,15.7705 10.9144,20.6547 9.59535,12.139 24.10349,17.563 35.87179,13.4109 z m -41.08051,-7.6482 c -2.81871,-3.387 -6.25928,-8.4711 -7.64571,-11.298 -2.41057,-4.915 -2.76747,-5.1956 -8.16155,-6.4164 -3.1024,-0.7021 -18.46574,-4.4101 -34.14074,-8.2401 -15.675,-3.8299 -31.55393,-7.6612 -35.2865,-8.5138 l -6.7865,-1.5504 -2.2135,2.8191 c -1.21743,1.5505 -2.101,3.1653 -1.9635,3.5884 0.1375,0.4232 -0.0875,0.6796 -0.5,0.5699 -0.4125,-0.1098 -2.325,0.7886 -4.25,1.9962 -2.48311,1.5579 -2.99155,2.2405 -1.75,2.3496 0.9625,0.085 2.3125,0.1987 3,0.2537 0.6875,0.055 1.475,0.3404 1.75,0.6343 0.275,0.2938 18.5,5.6339 40.5,11.8669 32.13864,9.1055 49.27041,14.0596 62.28646,18.0118 0.15755,0.048 -2.01976,-2.6842 -4.83846,-6.0712 z m 192.10746,-17.4496 c 6.93678,-11.2766 15.00782,-16.82 24.44454,-16.7893 l 6,0.019 0.25251,-19.65451 0.25251,-19.65449 -17.21945,2.89359 c -9.4707,1.59147 -17.41836,3.09249 -17.66148,3.3356 -0.66958,0.66959 -3.00828,42.49991 -3.04467,54.45741 l -0.032,10.5 2.30687,-5.6079 c 1.26877,-3.0843 3.38428,-7.3593 4.70112,-9.5 z m -120.71175,-6.5985 c 0.31733,-1.2135 0.48231,-2.2816 0.36663,-2.3736 -0.33855,-0.2692 -61.13491,-13.4522 -61.96034,-13.43537 -0.4125,0.008 -0.75,0.84123 -0.75,1.85069 0,1.54018 2.45292,2.42448 15.25,5.49798 8.3875,2.0144 21.55,5.2021 29.25,7.0838 16.90667,4.1315 17.11897,4.1479 17.84371,1.3765 z m -85.34371,-4.2551 c 0,-0.4271 -3.50333,-1.4379 -10.25,-2.9573 -2.30781,-0.5198 -2.75,-1.1412 -2.75,-3.8645 l 0,-3.24505 -26.75,-8.87951 c -14.7125,-4.88374 -27.2,-9.04436 -27.75,-9.24583 -0.55,-0.20147 -1.9287,2.28858 -3.06379,5.53345 l -2.06379,5.89977 9.06379,2.17735 c 4.98509,1.19755 20.53879,5.03953 34.56379,8.53772 24.51922,6.1158 29,7.0496 29,6.0439 z m 282,-1.0426 c 0.825,-0.5169 1.95,-1.0199 2.5,-1.1179 1.63065,-0.2905 47.95492,-20.60568 48.5,-21.26932 0.275,-0.33481 1.175,-0.68434 2,-0.77674 3.09999,-0.34717 48.53441,-20.55811 49.31146,-21.93559 0.4463,-0.79117 1.25539,-1.16412 1.79797,-0.82879 1.18068,0.7297 29.89057,-11.47928 29.89057,-12.71106 0,-0.47111 -1.60156,-0.85657 -3.55902,-0.85657 -1.95746,0 -3.35064,0.3375 -3.09596,0.75 0.25469,0.4125 -0.50626,0.8128 -1.69098,0.88955 -1.18472,0.0768 -18.12904,5.86172 -37.65404,12.8555 -19.525,6.99378 -42.475,15.18379 -51,18.20003 -8.525,3.01623 -18.425,6.52019 -22,7.78656 -3.575,1.26638 -7.85,2.87022 -9.5,3.56409 -1.65,0.69387 -3.45124,1.36129 -4.00277,1.48316 -0.77573,0.1714 -26.9564,9.31658 -34.39036,12.01288 -1.88846,0.685 -0.86198,1.5241 3.09238,2.5281 4.31062,1.0944 27.8618,0.6408 29.80075,-0.5739 z m -376.62287,-2.191 c 5.44601,-2.8162 10.69025,-8.66151 14.13752,-15.75782 1.88287,-3.87593 3.68843,-8.19424 4.01236,-9.59625 0.54682,-2.36673 0.18323,-2.67699 -5.08224,-4.33679 -3.11916,-0.98322 -6.00907,-1.41113 -6.42202,-0.9509 -0.41296,0.46024 -1.29336,3.08679 -1.95644,5.83679 -0.66309,2.75 -2.51361,7.42272 -4.11227,10.38383 -1.59866,2.96111 -2.62278,5.84314 -2.27584,6.40451 0.35109,0.56807 0.14111,0.71802 -0.47352,0.33816 -0.60738,-0.37538 -1.6003,0.24421 -2.20648,1.37687 -0.60619,1.1327 -2.89612,3.3589 -5.08874,4.9473 -3.23758,2.3452 -3.65055,2.9808 -2.19802,3.3828 2.59248,0.7173 8.26229,-0.2685 11.66569,-2.0285 z m 110.62287,-1.1464 c 0,-1.0129 0.6896,-11.64825 1.53245,-23.63426 0.84285,-11.98601 1.30503,-22.02017 1.02706,-22.29813 -0.76566,-0.76566 -20.69468,-2.42434 -21.34269,-1.77633 -0.31066,0.31065 -1.12174,6.97403 -1.8024,14.80749 -0.68067,7.83346 -1.55835,17.66304 -1.95041,21.84349 -0.6962,7.42344 -0.65742,7.61564 1.66158,8.23634 1.30592,0.3495 3.97191,0.6417 5.92441,0.6492 1.9525,0.01 3.98527,0.4489 4.51727,0.9809 0.78967,0.7897 6.42326,2.4957 9.68273,2.9323 0.4125,0.055 0.75,-0.7282 0.75,-1.741 z m 66.39301,-1.7404 c 0.33385,-0.8699 0.60699,-3.51146 0.60699,-5.87 0,-4.19864 -0.0888,-4.31219 -4.25,-5.43381 -7.77782,-2.09645 -53.67623,-13.11436 -54.63183,-13.11436 -0.51729,0 -1.093,2.76171 -1.27935,6.13713 -0.40631,7.3596 -1.71194,6.57988 18.16118,10.84576 7.975,1.71188 20.125,4.39373 27,5.95968 6.875,1.5659 12.78936,2.8944 13.14301,2.9523 0.35366,0.058 0.91616,-0.6067 1.25,-1.4767 z m 112.01162,-2.6682 c 1.07596,-8.67418 1.74791,-30.75 0.93601,-30.75095 -0.46235,-5.4e-4 -8.26564,-1.3144 -17.34064,-2.91969 -9.075,-1.60529 -27.075,-4.7641 -40,-7.01958 -12.925,-2.25548 -24.43548,-4.30587 -25.57883,-4.55641 -2.00286,-0.43887 -2.12697,0.16573 -3.39554,16.5417 -0.72418,9.34847 -1.13871,17.17423 -0.92116,17.39056 0.21754,0.21633 7.14553,1.57705 15.39553,3.02382 8.25,1.44676 21.525,3.77242 29.5,5.16811 7.975,1.3957 20.125,3.57274 27,4.83774 6.875,1.2651 12.80993,2.353 13.18873,2.4175 0.3788,0.064 0.92595,-1.7953 1.2159,-4.1328 z m -310.30385,2.1084 c 3.85788,-1.2956 7.07982,-3.75714 6.3864,-4.87911 -0.25611,-0.4144 0.29552,-0.69176 1.22584,-0.61636 3.5716,0.28948 13.65699,-20.39204 12.00934,-24.62685 -0.26451,-0.67983 -12.67538,-5.27341 -27.57972,-10.20797 -20.45636,-6.77272 -27.38131,-8.68941 -28.25131,-7.81941 -0.87,0.87 -0.7254,3.52451 0.58989,10.82949 3.33741,18.53559 13.27326,33.38222 24.51878,36.63711 7.0319,2.0353 7.0679,2.0375 11.10078,0.6831 z m 208.89922,-7.0495 c 0,-0.44488 -0.5625,-0.80855 -1.25,-0.80816 -0.6875,3.8e-4 -1.3215,1.23142 -1.40888,2.73563 -0.15039,2.58862 -0.0835,2.63185 1.25,0.80816 0.77488,-1.05972 1.40888,-2.29075 1.40888,-2.73563 z m 158.23469,-1.19365 c 0.40408,-0.61337 0.74158,-0.81724 0.75,-0.45304 0.0157,0.67899 6.62026,-1.58162 56.01531,-19.17285 15.675,-5.58239 31.32734,-11.10699 34.78298,-12.27688 4.57232,-1.54794 6.39495,-2.68323 6.69422,-4.16976 0.83188,-4.13211 1.25131,-29.72145 0.46634,-28.45134 -0.44637,0.72224 -0.60893,1.64105 -0.36125,2.04181 0.24769,0.40075 -0.0765,1.05427 -0.72049,1.45225 -0.73122,0.45192 -0.90292,0.29014 -0.45729,-0.4309 1.3752,-2.22513 -0.9368,-1.115 -4.36141,2.09417 -6.49405,6.0855 -15.00999,9.19786 -37.57056,13.73108 -44.52173,8.94599 -58.6643,11.87866 -59.02546,12.23983 -0.20601,0.20601 -0.68757,8.39395 -1.07013,18.19544 l -0.69557,17.82087 2.40931,-0.75273 c 1.32512,-0.414 2.73992,-1.25458 3.144,-1.86795 z m -263.48482,-6.19869 c -0.22034,-0.22034 -30.2917,-10.49403 -66.82525,-22.83043 -36.53354,-12.3364 -69.01212,-23.34075 -72.17462,-24.4541 -5.40818,-1.90394 -5.75,-1.91895 -5.75,-0.25245 0,2.8685 4.01962,5.8206 11.5,8.44584 3.85,1.35115 33.1,11.14276 65,21.75913 31.9,10.61636 60.25,20.05315 63,20.97064 l 5,1.66815 0.32524,-2.45308 c 0.17889,-1.34919 0.14497,-2.63335 -0.0754,-2.8537 z m 110.09244,-0.80954 c 0.2837,-1.49421 -0.0834,-1.77719 -1.74282,-1.34326 -1.15624,0.30237 -1.89102,0.20797 -1.63284,-0.20977 0.25817,-0.41773 -2.7787,-1.48518 -6.74862,-2.3721 -3.96992,-0.88693 -19.33619,-4.55318 -34.14727,-8.14723 -14.81108,-3.59404 -27.52358,-6.53463 -28.25,-6.53463 -0.72642,0 -1.32076,0.88266 -1.32076,1.96146 0,2.27937 -2.06889,1.64396 33,10.13529 14.025,3.39592 27.75,6.74809 30.5,7.44928 6.70505,1.70963 9.89441,1.42005 10.34231,-0.93904 z m 1.32236,-14.19528 c 0.22473,-4.41525 -0.077,-6.9294 -0.91467,-7.62245 -0.6875,-0.56878 -1.25,-1.62191 -1.25,-2.34028 0,-0.71837 -0.69107,-1.99719 -1.53571,-2.84184 -0.84465,-0.84464 -1.47305,-1.79608 -1.39645,-2.11432 0.38692,-1.60752 -2.43506,-6.39024 -3.4339,-5.81979 -0.62367,0.35619 -0.81227,0.29131 -0.41912,-0.14419 1.05697,-1.17082 -1.13053,-4.69897 -2.4195,-3.90234 -0.66578,0.41148 -0.82136,0.22465 -0.39176,-0.47045 1.15013,-1.86096 -8.8582,-11.58549 -15.68036,-15.23572 -5.61085,-3.00211 -7.15798,-3.35777 -15.7232,-3.61449 -5.225,-0.1566 -8.825,-0.003 -8,0.34221 0.825,0.34482 3.7864,1.46893 6.58089,2.49803 13.98893,5.15153 26.47754,20.12511 31.98883,38.35392 2.15668,7.13332 2.88323,8.24517 5.7529,8.80378 6.42716,1.25113 6.48084,1.2049 6.84205,-5.89207 z m -109.71772,2.94365 c 0.36507,-1.45456 0.29587,-3.01254 -0.15378,-3.46219 -0.44964,-0.44964 -12.51205,-3.55863 -26.80535,-6.90885 -14.2933,-3.35023 -35.41712,-8.30044 -46.94182,-11.00048 -11.52471,-2.70004 -21.10651,-4.75666 -21.2929,-4.57028 -1.30491,1.30492 83.26013,26.96973 93.88849,28.4944 0.35288,0.0506 0.94029,-1.09805 1.30536,-2.5526 z m 90.09623,-3.10536 c -1.52622,-6.23049 -8.34302,-17.98167 -13.87699,-23.92193 -7.77726,-8.34826 -14.63022,-11.67724 -24.16619,-11.73927 -5.07128,-0.033 -8.23989,0.53011 -11.5,2.04369 -4.76328,2.21145 -16.19718,12.43079 -14.5,12.95975 0.55,0.17141 2.8,0.47664 5,0.67827 l 4,0.36662 -0.1619,4.68143 c -0.089,2.57479 0.13595,4.68582 0.5,4.69117 0.36404,0.005 12.5869,2.90133 27.1619,6.4355 14.575,3.53417 26.88628,6.45479 27.35841,6.49027 0.47212,0.0355 0.55527,-1.173 0.18477,-2.6855 z m -88.54318,-14.75 0.5,-7 7.75,0.35543 c 4.80385,0.22031 7.75,-0.03 7.75,-0.65834 0,-1.99612 8.99067,-12.00244 13.42066,-14.93674 2.48349,-1.645 4.20604,-3.30032 3.82787,-3.67848 -0.37816,-0.37817 0.0479,-0.40535 0.94681,-0.0604 1.05044,0.40309 3.00462,-0.58456 5.46952,-2.76431 5.49883,-4.8627 13.53528,-7.9753 22.04466,-8.53812 12.44517,-0.82314 23.17894,3.27853 33.62238,12.84805 3.52093,3.2263 6.75878,5.54355 7.19522,5.14946 0.43644,-0.3941 0.4523,-0.12568 0.0352,0.59647 -0.43034,0.74516 -0.10121,2.04261 0.76103,3 0.83562,0.92785 2.67428,3.71199 4.08591,6.18699 l 2.56661,4.5 0.012,-4.69098 c 0.007,-2.58004 0.45449,-4.96443 0.99525,-5.29864 0.54076,-0.3342 4.25326,-1.19698 8.25,-1.91728 3.99674,-0.7203 15.40536,-2.79466 25.35249,-4.60969 l 18.08569,-3.30006 22.41431,4.6405 c 12.32787,2.55228 32.23661,6.65617 44.24165,9.11976 l 21.82735,4.47925 24.67265,-5.04836 c 13.57004,-2.7766 25.34774,-5.19982 26.17274,-5.38493 0.825,-0.1851 1.725,-0.38467 2,-0.44348 1.14336,-0.24449 -3.69519,-2.49921 -6,-2.79593 -1.375,-0.17702 -10.15,-1.45857 -19.5,-2.84789 -9.35,-1.38932 -24.425,-3.60152 -33.5,-4.91601 -9.075,-1.31448 -31.8,-4.66594 -50.5,-7.44768 -18.7,-2.78174 -44.575,-6.61601 -57.5,-8.52059 -12.925,-1.90458 -49.6,-7.31368 -81.5,-12.0202 -31.9,-4.70653 -63.0557,-9.30074 -69.23489,-10.20934 -6.17919,-0.90861 -11.4172,-1.45771 -11.64002,-1.22024 -0.22282,0.23748 0.2033,14.60678 0.94693,31.93178 0.74362,17.325 1.36913,33.11805 1.39001,35.09567 l 0.038,3.59567 8.75,2.06097 c 4.8125,1.13353 9.875,1.99048 11.25,1.90433 2.36169,-0.14797 2.52766,-0.54392 3,-7.15664 z m 223.40139,4 c 8.11665,-1.375 15.05929,-2.53731 15.42808,-2.5829 0.665,-0.0822 -51.04596,-10.98034 -68.32947,-14.40048 l -9,-1.78097 -18.32827,3.40538 -18.32827,3.40538 25.32827,4.42097 c 13.93055,2.43154 32.07827,5.63721 40.32827,7.12371 8.25,1.4865 15.70736,2.74912 16.57191,2.80582 0.86456,0.0567 8.21282,-1.02191 16.32948,-2.39691 z M 318.17747,580.84486 c -0.56694,-13.20799 -1.26384,-24.24759 -1.54869,-24.53243 -0.47069,-0.47069 -38.61455,3.4529 -39.12693,4.02471 -0.12065,0.13463 1.4192,2.75476 3.42187,5.8225 2.00268,3.06774 3.75883,5.99274 3.90256,6.5 0.14374,0.50726 1.60958,4.82575 3.25743,9.59664 1.64785,4.7709 3.27741,11.36587 3.62124,14.6555 0.34384,3.28964 0.903,6.40711 1.24258,6.92772 0.33958,0.52062 6.24242,2.26117 13.11742,3.8679 l 12.5,2.92133 0.32166,-2.88466 c 0.17691,-1.58657 -0.1422,-13.69122 -0.70914,-26.89921 z m 406.46527,24.8173 6.92221,-2.41977 0.27256,-18.08023 0.27256,-18.08023 -5.98738,0 c -5.01604,0 -6.16568,0.33316 -7.08644,2.05363 -0.60449,1.1295 -1.31,7.767 -1.5678,14.75 -0.2578,6.983 -0.62746,15.28387 -0.82148,18.44637 -0.19402,3.1625 -0.0318,5.75 0.3604,5.75 0.39224,0 3.82816,-1.0889 7.63537,-2.41977 z m -440.19565,-6.83023 c -1.35705,-7.76679 -4.62449,-18.28713 -7.36707,-23.72014 -3.08649,-6.11431 -7.61913,-11.71087 -9.13552,-11.27986 -0.48375,0.1375 -0.76705,-0.3125 -0.62955,-1 0.26012,-1.3006 -0.42744,-1.32026 -8.56257,-0.24487 l -4.81256,0.63618 3.59592,4.38834 c 4.6725,5.70218 9.49898,16.10411 11.57134,24.93835 l 1.64959,7.032 4.90414,1.154 c 8.5895,2.02122 9.43992,1.83693 8.78628,-1.904 z m -22.92278,-5 c -2.19855,-10.2142 -9.17478,-22.14295 -15.98962,-27.34088 -4.4225,-3.3732 -14.15748,-5.64586 -18.65679,-4.35547 -3.44076,0.98679 -7.01735,3.80661 -6.30013,4.96709 0.25611,0.4144 -0.28042,0.69176 -1.19229,0.61636 -1.96772,-0.16271 -6.5786,6.11476 -8.96067,12.19948 -2.0923,5.34453 -2.18486,5.27386 10.52229,8.03363 5.28982,1.14886 15.91785,3.61842 23.61785,5.48792 18.29222,4.4412 17.82866,4.43049 16.95936,0.39187 z m -64.96649,0.22753 c -0.93845,-2.9568 0.29055,-7.36732 2.8069,-10.07318 1.21013,-1.30126 2.22538,-2.82457 2.25612,-3.38514 0.0307,-0.56056 1.07262,-2.97136 2.31527,-5.35731 2.05691,-3.94936 2.09671,-4.29391 0.44411,-3.84494 -0.9984,0.27125 -19.34666,2.44581 -40.77391,4.83238 -21.42726,2.38656 -38.30226,4.47632 -37.5,4.6439 0.80225,0.16759 16.30864,3.61022 34.45864,7.65029 18.15,4.04007 33.81782,7.39303 34.81739,7.45103 1.38468,0.0803 1.66455,-0.3761 1.17548,-1.91703 z m 490.45604,-9.55442 c 6.59487,-3.01923 12.11111,-7.07571 11.78756,-8.66823 -0.13006,-0.64018 0.43853,-1.20488 1.26353,-1.25488 0.825,-0.05 1.37635,-0.6664 1.22522,-1.36978 -0.15112,-0.70339 0.11507,-1.03794 0.59155,-0.74346 2.48546,1.5361 13.88542,-15.07543 20.2119,-29.45191 15.76694,-35.82923 15.41888,-80.07905 -0.82408,-104.76708 -3.94292,-5.99293 -11.77086,-12.30416 -17.56056,-14.15809 -5.90217,-1.88995 -14.19871,-0.84179 -21.64403,2.73443 -7.56729,3.63482 -19.69372,14.32441 -18.47916,16.28962 0.48738,0.78858 0.38693,1.0273 -0.26319,0.62551 -1.45548,-0.89954 -10.70398,12.80956 -9.71796,14.40498 0.46187,0.74732 0.3597,0.99163 -0.25564,0.61133 -1.32482,-0.81878 -7.30729,12.29061 -10.70871,23.46597 -9.3567,30.7415 -8.29787,63.19555 2.75284,84.37638 10.00708,19.18052 24.86934,25.57425 41.62073,17.90521 z m -9.44891,-21.32096 c -1.65,-0.42216 -4.40545,-1.4999 -6.12322,-2.39498 -1.71776,-0.89507 -3.40526,-1.42035 -3.75,-1.16729 -0.34473,0.25307 -0.45084,0.20918 -0.2358,-0.0975 0.21504,-0.3067 -0.93068,-1.9942 -2.54603,-3.75 -13.94903,-15.16179 -15.47177,-50.15181 -3.32655,-76.43855 1.93393,-4.18574 4.60471,-9.03749 5.93507,-10.78168 2.28014,-2.98943 2.32215,-3.27707 0.73268,-5.01692 -1.58696,-1.73709 -1.58395,-1.76877 0.0512,-0.53851 1.51901,1.14291 2.41971,0.6835 7.16783,-3.65601 2.98677,-2.72975 7.48757,-5.93012 10.00177,-7.11193 5.96545,-2.80409 15.18208,-2.90923 20.42786,-0.23304 3.89575,1.98747 12.16521,10.22685 12.16521,12.12096 0,0.59475 0.51953,0.76028 1.15451,0.36784 0.63583,-0.39296 0.88578,-0.27871 0.55635,0.25431 -0.32898,0.5323 0.55378,4.08933 1.9617,7.9045 1.99819,5.41471 2.6707,9.45988 3.06509,18.43668 0.60795,13.83756 -0.74579,23.51815 -4.89442,35 -1.68918,4.675 -3.07686,9.625 -3.08374,11 -0.007,1.375 -0.23083,1.89924 -0.49767,1.16497 -0.3009,-0.82797 -1.36018,0.11481 -2.78899,2.48223 -1.26709,2.0995 -2.04731,4.23229 -1.73381,4.73954 0.3135,0.50725 0.0505,0.60119 -0.58451,0.20875 -0.635,-0.39247 -1.15453,-0.22744 -1.15453,0.3667 0,2.09777 -10.56565,11.84794 -15.53104,14.33233 -5.64821,2.82602 -12.4794,3.95628 -16.96896,2.8076 z m 12.11597,-6.58616 c 1.95345,-0.8162 4.94503,-2.9537 6.64796,-4.75 1.70292,-1.79629 2.75988,-2.59099 2.3488,-1.76599 -0.41108,0.825 1.08875,-0.525 3.33295,-3 2.2442,-2.475 6.12655,-8.55 8.62744,-13.5 2.5009,-4.95 3.57333,-7.7499 2.38318,-6.222 -2.69364,3.45806 -6.43803,5.44248 -10.96893,5.81321 -10.04317,0.82175 -16.39544,-11.65782 -13.88109,-27.27053 0.94812,-5.88726 4.81004,-15.03289 6.89102,-16.31901 0.56943,-0.35193 0.73084,-1.17127 0.35869,-1.82077 -0.37215,-0.64949 -0.33159,-0.8705 0.0901,-0.49112 0.42173,0.37938 1.73138,-0.22633 2.91033,-1.34603 6.39253,-6.07123 14.87611,-4.7484 19.60167,3.05646 l 2.17954,3.59979 -0.60903,-3 c -0.33497,-1.65 -0.63781,-3.675 -0.67297,-4.5 -0.14907,-3.49764 -3.03118,-13.13982 -5.06839,-16.95647 -8.77188,-16.43382 -23.70003,-17.0597 -37.50363,-1.5724 -17.07066,19.15284 -22.73277,56.92181 -11.77513,78.54567 1.38885,2.74076 2.99416,4.9832 3.56735,4.9832 0.5732,0 0.76406,0.45 0.42414,1 -0.33992,0.55 -0.22633,1 0.25242,1 0.47875,0 1.84992,0.91251 3.04704,2.02779 4.42593,4.12339 11.52884,5.11536 17.81651,2.4882 z m 18.14431,-32.39926 c 6.19735,-6.01433 9.43202,-17.97819 7.28289,-26.93676 -1.62088,-6.75661 -4.25523,-9.44932 -8.66333,-8.85527 -4.21476,0.56799 -5.84605,1.87954 -8.82543,7.09558 -3.21182,5.62298 -4.91794,13.76855 -4.24649,20.27423 0.58847,5.70174 3.0765,10.80397 4.76079,9.76303 0.53946,-0.33341 0.9164,-0.23525 0.83765,0.21813 -0.66825,3.84681 4.15959,2.99675 8.85392,-1.55894 z m -70.98896,47.65221 c -1.79923,-3.42708 -3.73556,-7.81458 -4.30296,-9.75 l -1.03164,-3.51894 -43.96836,-6.23662 c -24.1826,-3.43014 -46.68807,-6.35514 -50.01216,-6.5 -5.49859,-0.23962 -6.06179,-0.47114 -6.24319,-2.56639 -0.10966,-1.26665 -0.61968,-3.08835 -1.13338,-4.0482 -0.5137,-0.95986 -1.91111,-5.54851 -3.10535,-10.197 -8.31889,-32.38063 -6.08687,-60.26448 6.60704,-82.5394 2.40575,-4.22154 4.08959,-8.13585 3.74188,-8.69846 -0.34772,-0.56262 -0.15496,-0.72798 0.42836,-0.36747 0.58332,0.36051 2.99574,-1.65586 5.36094,-4.48083 2.36519,-2.82496 6.93082,-7.3254 10.14584,-10.00096 3.21502,-2.67557 5.70963,-4.87367 5.54358,-4.88466 -0.16606,-0.011 -4.11341,-0.63951 -8.7719,-1.39669 l -8.46998,-1.3767 -4.12798,2.84012 c -7.54001,5.18767 -19.09761,19.06737 -17.72573,21.28712 0.33148,0.53633 0.14749,0.69383 -0.40886,0.34999 -2.51456,-1.55409 -10.95541,20.28303 -13.71312,35.47688 -0.83247,4.5866 -1.69545,11.39271 -1.91773,15.1247 -0.22228,3.73199 -0.59755,6.97883 -0.83392,7.21521 -0.23638,0.23637 -4.90794,1.37578 -10.38124,2.53202 l -9.95146,2.10224 -55,-7.56895 c -30.25,-4.16292 -61.975,-8.51326 -70.5,-9.66741 -8.525,-1.15415 -20.95909,-2.87066 -27.63131,-3.81448 -13.38557,-1.89344 -17.83962,-1.3969 -15.11272,1.68475 1.2024,1.35882 1.66951,5.71049 2.17164,20.23119 0.35186,10.175 0.87806,20.53751 1.16934,23.0278 l 0.5296,4.52779 28.68673,4.24931 c 15.77769,2.33712 45.33672,6.7174 65.68672,9.73394 20.35,3.01655 58.6,8.67602 85,12.57659 26.4,3.90058 68.475,10.14959 93.5,13.88669 25.025,3.7371 46.29709,6.84044 47.27132,6.8963 1.52013,0.0872 1.30743,-0.78202 -1.5,-6.12948 z m -551.999724,-16.97869 -0.271593,-19.20975 -3.25,-0.66395 -3.25,-0.66395 0,19.30415 c 0,21.21344 -0.446886,19.6411 5.771593,20.30707 0.997755,0.10685 1.213105,-4.00064 1,-19.07357 z m 32.443884,16.67122 c 12.25649,-1.39619 36.00952,-4.1142 52.78452,-6.04002 16.775,-1.92581 33.425,-3.76885 37,-4.09564 7.1593,-0.65444 10.62044,-1.81845 8,-2.69048 -1.94733,-0.64803 -122.106002,-21.67005 -123.749997,-21.65033 -0.954415,0.0115 -1.25,4.38966 -1.25,18.515 l 0,18.5 2.465479,0 c 1.356014,0 12.493508,-1.14234 24.749998,-2.53853 z m 125.16154,-80.71147 c 3.2675,-311.42383 3.31817,-303.49837 -1.93409,-302.49434 -1.30577,0.24961 -48.43494,7.35977 -104.73149,15.80034 l -102.357351,15.34651 1.220764,2.54874 c 0.671421,1.40181 1.522592,5.53978 1.891492,9.19548 l 0.670728,6.64674 4.64217,0.69613 c 10.445496,1.5664 17.848039,5.87782 21.171404,12.33074 0.978539,1.90001 1.861137,2.26305 4.872186,2.00408 l 3.67717,-0.31627 -0.39899,135.18948 -0.39899,135.18948 2.39899,0.54371 c 1.319444,0.29904 30.748987,5.52935 65.398987,11.62291 34.65,6.09356 71.325,12.579 81.5,14.41209 10.175,1.83308 19.22538,3.37818 20.11194,3.43353 1.45987,0.0911 1.67357,-5.77238 2.26508,-62.14935 z M 101.56495,385.33267 c -13.749997,-0.79836 -25.11439,-1.55827 -25.254204,-1.68869 -0.554416,-0.51717 2.055473,-122.10616 2.634394,-122.73066 0.519392,-0.56028 45.48395,-4.2799 61.48479,-5.08623 l 4.86497,-0.24516 -0.1338,11.5 c -0.0736,6.325 -0.59538,35.47301 -1.15955,64.77336 -0.56417,29.30035 -0.75414,53.71285 -0.42216,54.25 0.78483,1.26989 -10.36954,1.06477 -42.01444,-0.77262 z m 33.64539,-6.50074 c 0.08,-0.1375 0.64247,-26.01305 1.25,-57.50122 l 1.10461,-57.25121 -3.5,-10e-4 c -3.78606,-0.001 -47.350813,3.1458 -47.73053,3.44783 -0.413075,0.32856 -2.475763,105.24538 -2.107143,107.17801 0.325776,1.70801 2.028396,1.97601 18.847903,2.96681 19.23199,1.13291 31.88556,1.58999 32.13516,1.16081 z m 72.85461,-2.9288 c -9.075,-0.37334 -23.82381,-0.98425 -32.77513,-1.35756 l -16.27514,-0.67876 0.48265,-3.14244 c 0.26546,-1.72834 0.75703,-21.81744 1.09238,-44.64244 0.5916,-40.26657 1.23107,-64.1138 1.73134,-64.566 0.13415,-0.12125 13.5189,-1.17875 29.7439,-2.34999 16.225,-1.17124 30.70152,-2.51662 32.17004,-2.98972 2.22209,-0.71588 2.61565,-0.57775 2.34582,0.82335 -0.17832,0.92595 -0.4651,27.33428 -0.63728,58.68518 -0.17219,31.35089 -0.55281,57.87813 -0.84582,58.9494 -0.51034,1.8658 -1.2272,1.91921 -17.03276,1.26898 z m 10.22743,-59.0712 c 0.27616,-28.1875 0.34929,-51.42618 0.16251,-51.6415 -0.18678,-0.21533 -11.32458,0.4199 -24.75065,1.4116 l -24.41104,1.80311 -0.662,39.58839 c -0.3641,21.77362 -0.75296,43.8634 -0.86413,49.0884 l -0.20212,9.5 13,0.54584 c 7.15,0.30021 18.45069,0.63771 25.11265,0.75 l 12.11265,0.20416 0.50213,-51.25 z m 66.12299,232.71567 c 16.58227,-1.94388 30.71208,-3.72976 31.39958,-3.96861 0.6875,-0.23886 1.25,-1.51416 1.25,-2.83401 0,-2.05167 -0.59212,-2.47913 -4.08259,-2.9473 -2.24542,-0.30118 -4.22692,-0.69793 -4.40332,-0.88167 -0.17641,-0.18374 -0.83129,-11.5335 -1.45528,-25.22169 l -1.13454,-24.88761 -4.90233,-5.58886 c -2.69628,-3.07388 -4.74464,-5.74656 -4.55191,-5.93928 0.19273,-0.19273 3.3181,-1.55332 6.94528,-3.02353 l 6.59487,-2.67311 0.43326,-15.5 c 0.65362,-23.38296 4.16704,-41.10575 11.53861,-58.20426 2.16336,-5.01795 3.65526,-9.6123 3.31534,-10.20965 -0.33992,-0.59735 -0.2344,-0.73709 0.2345,-0.31055 1.04353,0.9493 7.55138,-9.33179 6.73899,-10.64626 -0.31894,-0.51606 -0.0795,-0.62905 0.53202,-0.25109 0.63878,0.39478 1.72659,-0.49689 2.55645,-2.09549 1.75267,-3.37631 13.27103,-14.50454 20.14065,-19.45849 2.75,-1.98313 8.0414,-5.2733 11.75868,-7.31149 5.7028,-3.12686 7.34316,-4.66712 10.5,-9.85926 l 3.74132,-6.15346 -0.1015,-26.31262 c -0.11327,-29.36263 0.70841,-25.72994 -8.14852,-36.02491 l -4.25001,-4.94007 9.04625,-4.299 c 8.15885,-3.87729 9.47965,-4.90637 13.46446,-10.49057 2.43001,-3.40536 5.04612,-6.43251 5.81356,-6.72701 0.76744,-0.2945 5.97629,-1.30143 11.57521,-2.23764 10.18181,-1.70252 32.44635,-1.67428 37.85055,0.048 2.11183,0.67303 2.25,0.43374 2.25,-3.8967 0,-4.26341 0.24679,-4.71564 3.25,-5.95533 4.204,-1.73538 6.62108,-1.10701 -37.25,-9.684 -31.74692,-6.20667 -83.44936,-16.3845 -145.33938,-28.61064 -9.81166,-1.93826 -18.03977,-3.32371 -18.28469,-3.07879 -0.24492,0.24492 -0.0176,2.3491 0.50525,4.67597 0.81246,3.61598 0.1316,110.51822 -2.12587,333.78404 l -0.25531,25.25074 2.35042,-7.4e-4 c 1.29272,-4.1e-4 15.91772,-1.5912 32.5,-3.53508 z m 26.64958,-188.62209 c -11.275,-0.46932 -27.925,-1.18862 -37,-1.59844 l -16.5,-0.74514 0.39845,-28.86192 c 1.00428,-72.74603 1.54721,-89.14943 2.94105,-88.85825 0.73673,0.15391 19.41173,2.97829 41.5,6.27639 22.08828,3.2981 41.23907,6.23483 42.55733,6.52607 l 2.39683,0.52952 -0.6524,29.69409 c -0.35882,16.33176 -0.94042,40.6066 -1.29244,53.9441 l -0.64003,24.25 -6.6044,-0.15155 c -3.63241,-0.0834 -15.82939,-0.53555 -27.10439,-1.00487 z m 26.3764,-12.59358 c 0.31503,-3.1625 0.86608,-24.3125 1.22456,-47 0.63048,-39.90259 0.59048,-41.25091 -1.22459,-41.27777 -1.03201,-0.0153 -7.27637,-0.85499 -13.87637,-1.86605 -38.83955,-5.94984 -55.61537,-8.32414 -56.01206,-7.92746 -0.64578,0.64579 -2.74524,99.89732 -2.1262,100.51635 0.50268,0.50268 48.41006,2.87829 63.79007,3.16319 l 7.65182,0.14174 0.57277,-5.75 z m 291.27744,201 c -0.31862,-1.5125 -1.09885,-7.9749 -1.73383,-14.3609 -1.88838,-18.9912 1.19765,-42.37014 8.1412,-61.67557 1.72369,-4.79244 3.18649,-9.4796 3.25067,-10.41591 0.0642,-0.93631 0.3201,-1.49897 0.56872,-1.25035 0.24862,0.24861 2.73969,-3.80727 5.53572,-9.01307 2.79602,-5.20581 7.77625,-12.74315 11.06718,-16.74965 3.29092,-4.0065 5.86727,-7.6555 5.72522,-8.10888 -0.14205,-0.45338 0.15189,-0.57084 0.6532,-0.26101 0.5013,0.30983 1.46755,-0.10673 2.14722,-0.92567 1.07727,-1.29803 0.16201,-1.49408 -7.1367,-1.5287 -4.60484,-0.0218 -10.84744,-0.23948 -13.87244,-0.48366 -3.025,-0.24418 -21.38163,-1.34915 -40.79251,-2.45549 -33.25893,-1.89563 -35.44852,-1.91376 -38,-0.3146 -6.0739,3.80684 -10.29527,7.62233 -9.81574,8.87196 0.3048,0.7943 -0.0172,1.11874 -0.80875,0.81498 -2.53149,-0.97143 -14.54035,14.67539 -18.68593,24.34663 -1.01036,2.3571 -1.8189,4.39234 -1.79675,4.52276 0.0222,0.13042 -0.469,1.57664 -1.09146,3.21383 -6.36969,16.75356 -5.54006,45.4047 2.02388,69.89388 1.70175,5.50963 2.42089,6.63938 4.25744,6.68836 1.2154,0.0324 20.65982,2.6897 43.20982,5.90506 22.55,3.21537 42.51496,5.88884 44.36658,5.94106 3.16153,0.0892 3.33129,-0.0726 2.78726,-2.65506 z m -150.14646,-59.5 c -0.84255,-5.82086 1.06383,-39.90023 2.9508,-52.75 3.73496,-25.43416 9.53749,-43.40039 19.10953,-59.16839 2.8942,-4.76761 4.96296,-8.96761 4.59724,-9.33333 -0.36572,-0.36572 -0.1932,-0.51495 0.38338,-0.33161 1.35132,0.42967 12.87887,-9.79074 11.78045,-10.44464 -0.99681,-0.5934 -11.31157,-2.21534 -13.07878,-2.05656 -0.6875,0.0618 -1.25,-0.23521 -1.25,-0.65995 0,-3.10365 -9.50266,-0.98248 -27,6.02689 -11.1864,4.48124 -17.14312,5.54468 -22.69055,4.05092 -6.30682,-1.69825 -9.07219,-4.33983 -8.5153,-8.13413 0.45915,-3.12843 0.42555,-3.15662 -2.91482,-2.44477 -5.81006,1.23815 -15.85072,4.73263 -15.45441,5.37864 0.20816,0.33931 -0.81479,0.6766 -2.27322,0.74953 -1.45844,0.0729 -4.9017,1.16117 -7.6517,2.41832 -2.75,1.25714 -5.225,2.34228 -5.5,2.41141 -7.47434,1.87903 -15.66478,2.70935 -22.26381,2.25704 -9.69701,-0.66465 -12.76708,-2.50536 -14.2581,-8.5487 l -1.0219,-4.14195 -7.62504,4.88532 c -10.09737,6.46934 -22.15486,18.81105 -28.14458,28.80802 -11.28342,18.83228 -17.68657,45.1739 -17.68657,72.75997 0,8.98194 0.13624,9.61528 2.25,10.45978 1.2375,0.49441 36,5.45925 77.25,11.03297 41.25,5.57373 75.675,10.28236 76.5,10.46363 0.825,0.18127 1.86507,0.38179 2.31127,0.44559 0.4462,0.0638 0.53445,-1.7965 0.19611,-4.134 z m 17.08785,1.90646 c 0.0524,-0.0861 0.63,-4.6407 1.2836,-10.12144 2.1692,-18.18969 7.00588,-33.03921 15.24683,-46.81068 2.3777,-3.97339 4.18463,-7.67434 4.01538,-8.22434 -0.16924,-0.55 -0.0564,-0.74871 0.25072,-0.44157 0.30714,0.30713 3.83214,-2.63519 7.83333,-6.53851 9.27991,-9.05288 15.92404,-13.52351 20.07504,-13.50786 1.75993,0.007 9.88093,1.13164 18.04667,2.5 8.16575,1.36837 17.91749,2.48794 21.67055,2.48794 6.6327,0 6.84045,-0.077 7.42069,-2.75 1.66272,-7.65974 1.00153,-11.62933 -3.44648,-20.69166 -3.34853,-6.82228 -6.06012,-10.61466 -11.44017,-16 -18.11425,-18.13209 -40.18537,-19.11734 -58.6933,-2.62004 -6.35015,5.66029 -13.3382,15.47586 -12.25992,17.22055 0.40548,0.65607 0.27348,0.87986 -0.30727,0.52093 -1.26476,-0.78166 -6.29012,10.11399 -9.60284,20.82022 -5.52009,17.84014 -8.4458,38.44849 -9.35392,65.88784 l -0.6582,19.88784 4.91203,-0.73138 c 2.70162,-0.40226 4.95488,-0.80179 5.00726,-0.88784 z m 190.06608,-77.15646 c 3.16739,-0.825 7.91434,-1.5 10.54879,-1.5 3.55776,0 4.7899,-0.37992 4.7899,-1.47693 0,-1.23684 2.8854,-1.52131 17.75,-1.75 l 17.75,-0.27307 0.3075,-4.25 0.3075,-4.25 -5.5575,0 -5.5575,0 0,-11.36408 0,-11.36407 -4.63957,-0.63593 c -7.05155,-0.96652 -8.08326,-0.80383 -8.65018,1.36408 -0.4993,1.90935 -1.36401,2 -19.0777,2 l -18.55468,0 -0.28894,8.75 c -0.26186,7.93026 -0.4763,8.76346 -2.28893,8.8937 -1.1,0.079 -2.60408,0.19154 -3.3424,0.25 -0.9979,0.079 -1.25453,1.57286 -1,5.821 l 0.3424,5.7147 -4.75,-0.29023 c -4.48171,-0.27383 -4.75,-0.14851 -4.75,2.21888 0,1.96955 0.59136,2.59869 2.75,2.9257 6.56346,0.99428 18.59964,0.59976 23.91131,-0.78375 z m -46.66131,-4.8 c 0,-2.365 -0.54,-4.84 -1.2,-5.5 -0.82247,-0.82247 -5.74044,-1.2 -15.63197,-1.2 -12.8751,0 -14.79529,0.22455 -17.8,2.08156 -2.2639,1.39917 -3.36803,2.84496 -3.36803,4.41023 0,2.2011 0.45196,2.36186 8.25,2.93445 11.55346,0.84835 17.3551,1.18521 24,1.39351 l 5.75,0.18025 0,-4.3 z m -6.59356,-23.95 c 0.33206,-6.1875 1.2799,-31.95 2.10631,-57.25 0.82641,-25.3 1.79101,-53.69252 2.14355,-63.0945 l 0.64097,-17.0945 -2.39863,-0.64184 c -3.06226,-0.81943 -16.25331,-0.83646 -21.14864,-0.0273 l -3.75,0.61983 0,74.36916 0,74.36916 10.90135,0 10.90135,0 0.60374,-11.25 z m 68.54026,-13 c 1.07737,-1 1.20556,-1 0.64099,0 -0.43135,0.76401 -0.10793,1.25 0.83185,1.25 1.27197,0 1.34328,-0.42646 0.41279,-2.46864 -0.61863,-1.35776 -1.57851,-2.18823 -2.13307,-1.84549 -0.55455,0.34273 -0.71777,0.1531 -0.36271,-0.4214 0.35506,-0.57451 -0.54128,-3.16806 -1.99187,-5.76345 -1.45059,-2.59539 -4.10002,-8.91907 -5.88761,-14.05261 -2.96635,-8.51865 -3.25017,-10.37947 -3.25017,-21.30902 0,-12.59278 1.54869,-19.30227 6.76564,-29.31121 l 2.14801,-4.12104 -5.31028,0.63774 c -2.92065,0.35075 -9.91519,0.64165 -15.54342,0.64643 l -10.23316,0.009 -2.6153,5.16104 c -3.90209,7.70041 -7.42095,22.77526 -7.40361,31.71718 0.0136,7.03117 2.0581,18.83109 3.72424,21.495 0.38761,0.61973 0.77408,1.57678 0.85884,2.12678 0.37799,2.45284 4.68779,10.39086 7.48199,13.7807 l 3.06576,3.7193 13.72719,0 c 9.59685,0 14.13241,-0.37611 15.0739,-1.25 z m 18.89673,-8.5 c -5.05074,-10.3147 -6.34145,-17.21723 -6.31094,-33.75 0.0304,-16.47225 1.32095,-23.02975 6.64217,-33.75 l 2.85413,-5.75 -6.47921,0 c -5.30378,0 -6.66063,0.33898 -7.47921,1.86852 -0.55,1.02768 -0.67834,2.19018 -0.28519,2.58333 0.39315,0.39315 0.12493,0.56482 -0.59605,0.38148 -1.15369,-0.29336 -7.00214,8.54391 -7.64347,11.54962 -0.13109,0.61438 -0.85359,2.46705 -1.60555,4.11705 -0.94092,2.06462 -1.36671,7.20921 -1.3656,16.5 10e-4,12.40198 0.23261,14.11001 2.84181,21 3.9597,10.45617 9.4988,19.81895 12.02077,20.31878 1.1346,0.22487 3.89869,0.47014 6.14241,0.54504 l 4.0795,0.13618 -2.81557,-5.75 z m 23.4955,2.75728 c 7.30392,-6.41293 11.11355,-21.1598 10.33527,-40.00728 -0.49002,-11.86659 -1.47475,-16.77841 -5.02899,-25.08465 -2.20276,-5.14782 -6.97443,-9.91535 -9.92398,-9.91535 -2.64759,0 -5.19009,2.19781 -3.96255,3.42534 0.40772,0.40773 0.11053,0.59133 -0.66043,0.40799 -2.04547,-0.48641 -5.81236,5.52298 -8.19872,13.07961 -2.55488,8.09025 -3.5677,24.89811 -2.07474,34.43056 1.58941,10.1483 5.67385,20.00911 9.782,23.61612 4.3097,3.78397 5.47025,3.78965 9.73214,0.0477 z m -326.83893,-10.006 c 6.05,-2.4072 14.825,-5.37282 19.5,-6.59025 l 8.5,-2.21352 0,-6.34876 0,-6.34875 -27,-0.26158 -27,-0.26157 -2.80832,5.0127 c -1.54458,2.75699 -2.52363,5.47335 -2.17567,6.03635 0.34796,0.56301 0.0367,0.9 -0.69168,0.74888 -0.79677,-0.16532 -1.29483,0.60172 -1.25027,1.9255 0.0407,1.21015 -0.23663,2.00826 -0.61635,1.77358 -0.37973,-0.23468 -1.42897,0.38939 -2.33164,1.38683 -2.19358,2.42389 -1.1308,7.9698 1.76588,9.21489 1.15943,0.49836 6.83305,0.77029 12.60805,0.60427 9.70194,-0.27889 11.33606,-0.63449 21.5,-4.67857 z m 60.55508,-2.26637 c 6.35529,-2.53437 13.63621,-5.13199 16.17983,-5.77248 3.03903,-0.76523 4.45654,-1.60292 4.13414,-2.44308 -0.62226,-1.62159 4.25286,-5.51935 6.90331,-5.51935 1.61185,0 1.26958,-0.58257 -1.75398,-2.98539 -2.06615,-1.64197 -4.16417,-2.73352 -4.66228,-2.42567 -0.49811,0.30784 -0.782,-0.0362 -0.63088,-0.76461 0.21879,-1.05447 -3.24882,-1.35267 -17.01695,-1.46342 -14.87678,-0.11967 -17.81903,0.11568 -21.0674,1.68512 -2.07663,1.00332 -4.98285,2.12719 -6.45828,2.4975 l -2.68259,0.67329 0,9.92381 c 0,9.34073 0.1322,9.98013 2.25,10.88222 4.48559,1.91067 12.91534,0.45346 24.80508,-4.28794 z m 57.44492,-3.73491 c 2.16567,-0.93062 1.4601,-1.17488 -4,-1.38471 -2.58845,-0.0995 -2.99459,-0.49255 -2.96058,-2.86529 0.0389,-2.71268 -0.0459,-2.75 -6.25,-2.75 l -6.28942,0 0,3.10699 c 0,2.57505 -0.29961,2.97994 -1.75,2.36494 -4.84972,-2.05642 -8.82306,-3.23579 -9.49738,-2.81904 -1.60048,0.98915 -0.65067,2.55371 1.24876,2.057 1.10076,-0.28785 1.76668,-0.14362 1.47982,0.32053 -1.38782,2.24554 23.3327,3.98327 28.0188,1.96958 z m -1.55071,-14.47378 c 4.11714,-2.12905 9.53434,-8.85936 10.95946,-13.616 0.67643,-2.25771 1.04556,-4.28925 0.82028,-4.51452 -0.22527,-0.22527 -1.8343,-0.12465 -3.57562,0.22362 -2.50815,0.50163 -3.73614,1.68592 -5.90972,5.69943 -1.50903,2.78643 -2.62004,5.46306 -2.46891,5.94807 0.15112,0.48501 -0.10832,0.64508 -0.57654,0.3557 -0.46822,-0.28938 -3.03063,0.57717 -5.69425,1.92567 -5.84862,2.96095 -7.67159,3.01102 -13.50399,0.3709 -13.0566,-5.91026 -17.80734,-19.22641 -13.17144,-36.91909 1.08084,-4.125 1.84929,-7.62479 1.70767,-7.7773 -0.14163,-0.15252 -1.49933,3.22248 -3.01711,7.5 -1.51779,4.27751 -3.3805,8.66493 -4.13936,9.74981 -4.80304,6.86645 2.22522,21.97337 13.79342,29.6483 3.94053,2.61434 5.11244,2.87101 13.12648,2.87491 5.80399,0.003 9.76988,-0.49744 11.64963,-1.4695 z m -77.94929,-31.96495 0,-24.43872 -4.75,-0.81128 c -5.55702,-0.9491 -57.78703,-1.10964 -58.71497,-0.18046 -0.34649,0.34694 -0.31387,11.70944 0.0725,25.25 l 0.70245,24.61919 31.34501,0 31.34501,0 0,-24.43873 z m 69.90116,22.98984 c 1.54101,-0.79689 3.55404,-2.59689 4.47339,-4 l 1.67156,-2.55111 -7.88349,0 c -4.33591,0 -10.08378,-0.28617 -12.77305,-0.63593 l -4.88957,-0.63593 2.8758,3.07195 c 5.41397,5.78326 11.27226,7.46751 16.52536,4.75102 z m 7.09884,-12.58623 c 9.50229,-1.49114 9.94755,-1.74154 7.02143,-3.94871 -1.35603,-1.02286 -2.76479,-1.67478 -3.13057,-1.44872 -0.36578,0.22606 -0.62592,-0.14663 -0.57809,-0.82821 0.0478,-0.68158 -1.24048,-3.93924 -2.86291,-7.23924 -2.75646,-5.60663 -2.94986,-6.76699 -2.94986,-17.69875 0,-13.37389 -0.0835,-13.4895 -8.28165,-11.46591 l -4.71835,1.16466 -0.28535,8.50439 -0.28535,8.5044 -4.36668,-0.3473 -4.36669,-0.34729 -1.59796,5.49681 c -1.99365,6.8579 -2.14988,17.53997 -0.2671,18.26246 1.58826,0.60948 12.93008,2.12367 17.16913,2.29217 1.65,0.0656 5.925,-0.33975 9.5,-0.90076 z m 8.91911,-14.29568 c -0.56468,-2.04508 -0.88998,-5.84478 -0.7229,-8.44377 0.25898,-4.02834 0.63571,-4.77257 2.55379,-5.04498 1.39926,-0.19873 2.25,-1.01298 2.25,-2.15349 0,-1.48789 -0.94357,-1.89932 -5.00062,-2.18045 l -5.00062,-0.34651 6.2e-4,5.12427 c 6.8e-4,5.63927 2.14741,12.77547 4.68749,15.58221 2.19183,2.42196 2.45304,1.88411 1.23224,-2.53728 z m 158.78545,-13.26011 2.95456,-0.59091 -1.89331,-3.82673 c -2.77698,-5.61277 -3.36178,-13.79415 -1.39796,-19.55764 0.89448,-2.62514 1.46367,-4.93562 1.26489,-5.13441 -0.19879,-0.19878 -5.06913,0.37178 -10.82297,1.26793 l -10.46154,1.62936 1.93531,3.9116 c 1.37101,2.77106 1.74601,4.92065 1.28609,7.37222 -0.7329,3.90673 -4.674,9.10045 -7.61355,10.03343 -1.23523,0.39205 -1.95608,1.5173 -1.95608,3.05345 l 0,2.43261 11.875,0 c 6.53125,0 13.20455,-0.26591 14.82956,-0.59091 z m -192.66016,-2.40909 3.87773,0 0.28894,-8.75 0.28893,-8.75 3,-0.16579 c 1.65,-0.0912 5.47826,-0.48037 8.50725,-0.86485 4.03574,-0.51227 6.50729,-0.28121 9.25,0.86476 4.35076,1.81787 4.8934,0.71614 1.1122,-2.25815 -5.54962,-4.36533 -12.07025,-4.63916 -21.61945,-0.90787 -2.67842,1.04657 -2.75,1.28092 -2.75,9.00312 l 0,7.92859 -5.5031,-0.29991 -5.5031,-0.2999 -0.37012,-10.73204 c -0.26657,-7.72915 -0.82531,-11.42674 -1.9969,-13.21482 -0.89473,-1.36553 -1.66231,-3.28611 -1.70573,-4.26796 -0.0487,-1.10251 -0.27603,-1.29455 -0.59433,-0.50219 -0.28346,0.70564 -0.19508,2.05564 0.1964,3 1.91627,4.62255 2.5058,20.63995 1.01423,27.55615 l -0.82796,3.83913 3.59167,-0.30944 c 1.97541,-0.17019 3.94393,0.0428 4.37447,0.47337 0.43054,0.43054 0.94218,0.30468 1.13697,-0.2797 0.19479,-0.58438 2.09915,-1.0625 4.2319,-1.0625 z m 215.31943,-3.49426 c -0.31537,-0.82184 -1.04578,-1.20231 -1.62312,-0.84549 -0.60152,0.37176 -0.75412,0.17046 -0.3574,-0.47145 0.38078,-0.61611 -0.24165,-2.95097 -1.38319,-5.18857 -4.41747,-8.65894 -4.45477,-8.32819 1.62509,-14.40805 5.93571,-5.93571 6.03327,-6.43605 2.55267,-13.09218 -0.86281,-1.65 -1.66927,-3.58487 -1.79213,-4.29971 -0.3062,-1.78164 -2.33004,-4.10011 -4.67418,-5.35465 -1.54876,-0.82888 -1.7889,-0.76584 -1.16035,0.30459 0.48455,0.8252 0.0457,0.71615 -1.12933,-0.2806 -1.05704,-0.8967 -4.22443,-2.29235 -7.03864,-3.10143 l -5.11675,-1.47105 3.91296,8.46957 c 3.84676,8.32631 5.70211,16.41382 3.66136,15.95997 -0.56062,-0.12468 -1.97063,1.01566 -3.13336,2.53408 -2.81638,3.67796 -3.54123,13.80796 -1.36135,19.02516 l 1.55184,3.71407 8.01964,0 c 6.70403,0 7.92557,-0.24513 7.44624,-1.49426 z m -186.65657,-5.74408 c -0.23919,-1.24391 -0.44398,-0.46166 -0.45508,1.73834 -0.0111,2.2 0.18461,3.21775 0.4349,2.26166 0.25029,-0.95609 0.25937,-2.75609 0.0202,-4 z m -74.18281,-8.7221 c -0.39971,-0.64675 -1.37961,-0.92538 -2.17754,-0.61919 -0.79793,0.3062 -1.20979,0.16679 -0.91525,-0.30979 0.29454,-0.47659 -1.26726,-2.05955 -3.47066,-3.51769 -2.20341,-1.45815 -5.58673,-4.85116 -7.51849,-7.54003 -4.11003,-5.72086 -6.49994,-6.43479 -20.94251,-6.25604 -17.23381,0.2133 -28.71596,3.59206 -27.04093,7.95712 0.28491,0.74246 0.10759,1.09627 -0.39406,0.78624 -0.50164,-0.31003 -1.88438,0.80178 -3.07276,2.4707 -1.18837,1.66892 -3.92278,3.93336 -6.07646,5.03208 -4.41805,2.25392 -4.77113,3.41767 -1.94849,6.42223 1.85989,1.97976 2.52874,2.04792 12.25,1.24829 10.76524,-0.8855 43.04818,-0.13786 50.7827,1.17607 4.18416,0.7108 4.73692,0.53851 7.8756,-2.45481 1.98822,-1.89614 3.0769,-3.70257 2.64885,-4.39518 z m 228.91495,-13.13946 c 7.18333,-1.15494 13.1779,-2.20975 13.32128,-2.34401 0.64614,-0.60508 -3.11458,-9.44621 -5.96082,-14.0134 -5.08096,-8.15308 -7.14745,-8.9879 -14.73418,-5.95229 -4.41383,1.76606 -7.36569,5.86478 -8.47241,11.76413 -0.85732,4.56992 0.2345,12.64547 1.70967,12.64547 0.59173,0 6.95313,-0.94495 14.13646,-2.0999 z M 626.23278,241.9281 c 11.87209,0.0213 13.76518,-0.19695 14.40876,-1.66085 0.40751,-0.92692 0.65834,-2.05627 0.55739,-2.50965 -0.10094,-0.45338 0.20605,-0.58355 0.68222,-0.28927 1.24413,0.76892 5.41161,-5.20878 4.57507,-6.56233 -0.41698,-0.67468 -0.25491,-0.85783 0.40059,-0.45271 1.24756,0.77103 6.41725,-6.224 5.58958,-7.56319 -0.29155,-0.47175 -0.0904,-0.73407 0.44694,-0.58295 0.92441,0.25998 20.17162,-24.70416 20.17162,-26.16312 0,-0.37836 1.334,-1.96597 2.96444,-3.52803 3.45353,-3.30869 3.26868,-4.05917 -1.19016,-4.83207 -1.80085,-0.31216 -8.67428,-1.53092 -15.27428,-2.70835 -15.06056,-2.68679 -50.41443,-3.84438 -64,-2.09555 -12.19414,1.56972 -24.50086,4.06015 -27.32998,5.53059 -2.30013,1.1955 -2.19123,1.38822 8.5,15.042 5.95649,7.60704 14.11112,18.1506 18.1214,23.43014 4.01027,5.27955 7.83527,9.44917 8.5,9.26584 0.66472,-0.18334 0.88438,-0.009 0.48813,0.38712 -0.39626,0.39625 0.22171,2.04361 1.37325,3.6608 1.72108,2.41704 2.56122,2.82171 4.72046,2.27372 1.44471,-0.36664 8.77726,-0.65561 16.29457,-0.64214 z m -27.55474,-12.02915 c 0.28881,-0.4673 0.94401,-0.59075 1.45601,-0.27431 1.30838,0.80862 1.16106,1.12396 -0.52511,1.12396 -0.80081,0 -1.21971,-0.38234 -0.9309,-0.84965 z M 578.56495,180.1859 c 17.00263,-3.5294 37.05162,-4.67908 56.82179,-3.25835 9.44802,0.67896 22.12821,2.1177 28.17821,3.1972 6.05,1.0795 12.6875,2.24399 14.75,2.58776 l 3.75,0.62504 0,-10.10476 c 0,-12.02529 -0.16859,-12.22421 -12.60594,-14.87383 -11.75618,-2.50451 -67.88752,-2.48279 -81.14827,0.0314 -11.00501,2.08651 -21.84052,5.8464 -21.50779,7.46314 0.13359,0.6491 -0.41481,0.90595 -1.25,0.58546 -1.24726,-0.47862 -1.488,0.84039 -1.488,8.15257 0,8.53605 0.0484,8.71224 2.25,8.19687 1.2375,-0.28967 6.75,-1.4608 12.25,-2.60249 z m -222,-13.0487 c 7.52152,-1.96224 20.04995,-7.2559 25.38189,-10.72465 1.91601,-1.24648 2.1116,-1.73656 1,-2.5056 -0.97252,-0.67282 -0.69365,-0.76166 0.94137,-0.29989 4.81896,1.361 26.17674,-23.80021 26.17674,-30.83833 0,-0.75362 -1.9003,-1.93957 -4.22289,-2.63543 -6.8291,-2.04605 -13.04065,-5.72527 -17.72636,-10.49966 -2.41013,-2.45574 -4.87001,-4.18735 -5.4664,-3.84802 -0.59639,0.33933 -0.78748,0.28544 -0.42464,-0.11974 0.36284,-0.40519 -0.4776,-3.22092 -1.86765,-6.25718 -3.2714,-7.14569 -3.33172,-14.64308 -0.18365,-22.82677 1.26944,-3.3 2.23657,-6.27085 2.1492,-6.60189 -0.30105,-1.14055 4.90746,0.36847 5.36221,1.55355 0.25055,0.6529 -0.68202,3.63088 -2.07237,6.61772 -4.56411,9.8049 -2.70804,18.89512 5.48065,26.84198 4.81293,4.67079 16.13569,10.6235 18.48926,9.72035 0.87259,-0.33484 1.33207,-0.1971 1.02107,0.3061 -0.78337,1.26753 9.62477,2.43988 15.49207,1.74498 5.79304,-0.6861 13.33892,-4.27604 12.35031,-5.87564 -0.39868,-0.64508 -0.23961,-0.83792 0.37689,-0.4569 0.58669,0.36259 2.39112,-1.03038 4.00985,-3.09549 2.29087,-2.92262 3.08962,-5.1953 3.60411,-10.25476 0.71398,-7.02134 2.41838,-12.83716 4.49557,-15.34003 0.71772,-0.8648 0.97168,-2.1116 0.56435,-2.77068 -0.46851,-0.75807 -0.31645,-0.93617 0.41391,-0.48478 0.63498,0.39244 1.15451,0.30032 1.15451,-0.20471 0,-0.50502 1.78523,-2.94635 3.96717,-5.42517 2.18195,-2.47882 3.75695,-4.79218 3.5,-5.14079 -0.25694,-0.34861 -0.19585,-0.43752 0.13577,-0.19757 0.33161,0.23994 3.59411,-1.72621 7.25,-4.36923 11.61729,-8.39871 17.14706,-10.26121 17.14706,-5.77536 0,1.77287 -1.19649,2.87849 -5.28511,4.88374 -6.20634,3.04387 -11.9545,7.62787 -11.16563,8.90427 0.30504,0.49357 -0.0866,0.65135 -0.87025,0.35063 -1.72649,-0.66252 -9.39641,8.08515 -12.77463,14.56968 -1.99433,3.82812 -2.34884,5.99306 -2.37437,14.5 -0.0274,9.12389 0.2287,10.51105 2.92297,15.83315 6.91523,13.65997 21.79968,23.93034 39.55778,27.29514 14.01633,2.6558 33.10356,-0.26652 45.32995,-6.94019 l 5.84071,-3.1881 0.18813,-7.5 c 0.23185,-9.24282 2.96519,-14.7085 9.53025,-19.05702 8.25272,-5.46638 15.96443,-6.34131 17.12552,-1.94298 0.60229,2.28152 0.36568,2.51579 -2.7075,2.68064 -15.05677,0.80769 -22.24696,13.8139 -16.32602,29.53185 2.93142,7.78186 12.17267,17.03997 15.16373,15.19139 0.68391,-0.42268 2.1662,-0.87333 3.29397,-1.00144 1.12778,-0.12812 7.2255,-1.23269 13.5505,-2.45462 10.03366,-1.93841 15.00646,-2.23611 39,-2.33475 15.125,-0.0622 31.60299,0.25356 36.61775,0.70166 l 9.11775,0.81472 2.79726,-6.81472 c 3.28075,-7.99261 4.45144,-22.48742 2.53875,-31.43339 C 673.18091,96.13968 661.7873,79.76559 649.29332,71.38623 638.62403,64.23064 629.95144,61.21177 617.29281,60.24707 c -7.83948,-0.59744 -8.72786,-0.86872 -8.72786,-2.66514 0,-1.88559 0.66667,-2 11.65387,-2 6.40963,0 11.44558,0.3375 11.19099,0.75 -0.25459,0.4125 0.003,0.75 0.57307,0.75 1.40001,0 3.93229,-4.00578 5.13774,-8.12731 1.20003,-4.10303 -0.49482,-12.4435 -2.70064,-13.28995 -0.81499,-0.31274 -1.19664,-1.03 -0.84812,-1.59392 1.43358,-2.31959 -9.21522,-14.90517 -11.44528,-13.52691 -0.61115,0.37771 -0.98753,0.16083 -0.83641,-0.48195 0.41095,-1.74786 -9.80305,-6.69875 -17.42263,-8.44503 -21.08205,-4.8316599 -48.00652,1.23948 -73.05665,16.47338 -3.41324,2.07571 -5.74594,1.64569 -5.74594,-1.05924 0,-1.15864 2.00792,-3.03794 5.43767,-5.08936 2.99071,-1.78882 5.20887,-3.62261 4.92923,-4.07508 -0.98504,-1.59382 -10.08386,-5.65697 -16.4383,-7.34063 -8.58779,-2.2754199 -25.0609,-2.3689999 -30.15788,-0.17133 -5.61808,2.42235 -8.97136,6.02181 -9.67699,10.3874 -0.48193,2.98167 -1.12154,3.91148 -2.86166,4.16006 -2.94577,0.42082 -3.56274,-1.4955 -2.22232,-6.90257 1.81691,-7.32916 1.87679,-7.19612 -4.36759,-9.7032499 -12.98463,-5.21337 -32.00495,-6.63126 -49.02309,-3.65449 -8.95312,1.56606 -20.77925,5.6052599 -23.69781,8.0939599 -0.86831,0.74042 -2.08438,1.34622 -2.70238,1.34622 -0.618,0 -3.35158,2.22793 -6.07461,4.95096 -4.93866,4.93866 -8.63614,12.71855 -7.95304,16.73401 0.22673,1.33279 -0.42188,1.8991 -2.44123,2.13145 -2.62692,0.30226 -2.74902,0.12323 -2.72804,-4 0.0121,-2.37403 0.91672,-6.28842 2.01031,-8.69864 1.89126,-4.16826 1.90239,-4.44799 0.22804,-5.72906 -3.53755,-2.70664 -17.38112,-7.41003 -26.45228,-8.98724 -6.82525,-1.1867099 -12.90896,-1.4829899 -22.80803,-1.1107599 -15.13337,0.56906 -24.54628,2.7511799 -34.30547,7.9527799 -6.38558,3.40347 -15.10211,12.25197 -14.25188,14.46764 0.29394,0.766 0.13675,1.14695 -0.34932,0.84654 -0.48607,-0.30041 -1.14565,0.13628 -1.46574,0.97042 -0.36017,0.93859 0.91734,3.06155 3.35195,5.57025 2.16366,2.22951 4.2108,4.92598 4.54919,5.99217 0.33839,1.06618 1.0268,1.68417 1.52979,1.37331 0.54281,-0.33547 0.57092,0.36994 0.0692,1.73548 -1.4705,4.00196 -4.62367,3.4361 -7.27203,-1.30502 -3.24852,-5.81556 -6.81081,-8.22763 -12.15105,-8.22763 -5.07326,0 -13.40046,4.14591 -12.87127,6.40829 0.18334,0.78377 -2.6e-4,1.09145 -0.40799,0.68372 -1.03905,-1.03905 -3.54477,1.23907 -2.75982,2.50914 0.35996,0.58243 0.16352,0.74456 -0.44583,0.36796 -2.58696,-1.59883 -9.2238,11.17656 -9.21595,17.73995 0.008,6.96117 7.05162,12.9504 16.83444,14.31512 4.60817,0.64284 6.15447,2.40816 4.18648,4.77945 -1.20859,1.45625 -4.48534,1.30673 -10.15881,-0.46355 -2.45931,-0.76738 -2.6743,-0.57916 -3.239,2.83566 -1.03492,6.25836 -0.65569,16.35705 0.88839,23.6576 1.62098,7.66412 7.81959,21.26869 11.8463,26 1.40428,1.65 3.35991,4.01073 4.34585,5.24606 0.98593,1.23533 2.37848,2.02798 3.09455,1.76145 0.71606,-0.26653 1.05037,-0.0776 0.7429,0.41994 -1.5794,2.55552 16.59499,14.43882 29.01264,18.96986 17.50082,6.38583 39.82421,7.62386 56.94252,3.15796 z m 34.37244,-63.80527 c -1.24387,-1.58606 -1.2085,-1.62143 0.37756,-0.37756 1.66575,1.30637 2.19548,2.12756 1.37244,2.12756 -0.20765,0 -0.99515,-0.7875 -1.75,-1.75 z m 21.12756,714.37247 c 0,-0.2077 0.7875,-0.9952 1.75,-1.75 1.58606,-1.2439 1.62143,-1.2085 0.37756,0.3775 -1.30637,1.6658 -2.12756,2.1955 -2.12756,1.3725 z M 388.39828,161.62592 c 0,-0.80081 0.38234,-1.21971 0.84965,-0.9309 0.4673,0.28881 0.59075,0.94401 0.27431,1.45601 -0.80862,1.30838 -1.12396,1.16106 -1.12396,-0.52511 z m -122.82625,-7.53254 c -0.35034,-0.56686 0.0511,-0.7345 0.94098,-0.39301 1.73242,0.66479 2.04939,1.38156 0.61096,1.38156 -0.51754,0 -1.21592,-0.44485 -1.55194,-0.98855 z"
     id="path3468"
     inkscape:connector-curvature="0" />
  <path
     style="fill:#000000"
     d=""
     id="path3466"
     inkscape:connector-curvature="0" />
</svg>
