<?xml version="1.0" encoding="UTF-8" standalone="no"?>
<!-- Created with Inkscape (http://www.inkscape.org/) -->
<svg id="svg3891" xmlns:rdf="http://www.w3.org/1999/02/22-rdf-syntax-ns#" xmlns="http://www.w3.org/2000/svg" height="405" viewBox="0 0 405 405" width="405" version="1.1" xmlns:cc="http://creativecommons.org/ns#" xmlns:dc="http://purl.org/dc/elements/1.1/">
 <metadata id="metadata3897">
  <rdf:RDF>
   <cc:Work rdf:about="">
    <dc:format>image/svg+xml</dc:format>
    <dc:type rdf:resource="http://purl.org/dc/dcmitype/StillImage"/>
    <dc:title/>
   </cc:Work>
  </rdf:RDF>
 </metadata>
 <g>
  <path id="path3913" d="m47.043 96.91c-0.9-.158-3.726-.413-6.28-.566-2.554-.154-4.731-.428-4.839-.608-.10759-.18036.42761-.33868 1.1893-.35182 1.2036-.02076 1.277-.06881.56063-.36696-.45338-.18870-2.0642-.50257-3.5796-.6975-1.9779-.25441-2.9874-.58038-3.5781-1.1553-.76603-.74561-1.0834-.78493-4.6014-.57004-4.5151.27578-5.3452-.0985-7.4284-3.3493-2.0969-3.2722-2.3284-5.6883-1.1166-11.657.85113-4.1922.94666-5.3135.73017-8.5703-.21706-3.2653-.17560-3.747.32249-3.747.58484 0 1.714 3.2231 1.714 4.8925 0 .45156.12272.75558.27270.67559 2.0184-1.0765 3.4807-1.5456 4.9127-1.5759 1.6896-.03579 1.7296-.06387 1.6618-1.1668-.14007-2.2786.06012-3.5788.55104-3.5788.26941 0 .65738.38143.86215.84762.29627.67450.41947.07823.60322-2.9196.17859-2.9137.57128-4.8767 1.7332-8.6645 1.9057-6.2124 2.7351-8.1499 5.4031-12.623 2.3388-3.9208 3.6369-6.6965 3.7794-8.0814.0497-.48301.36467-1.1624.69992-1.5097.60039-.62205.81210-1.3312.39743-1.3312-.11666 0-1.5247.34722-3.1289.77159-1.6042.42438-3.0868.71288-3.2945.64113-.30241-.10444 3.7321-1.4793 7.0901-2.4161.34996-.09763.63630-.43628.63630-.75256 0-.46873-.33610-.53368-1.818-.35133-.99990.12304-2.677.30742-3.7269.40972l-1.9089.18602 1.4544-.72315c1.0195-.50694 2.2856-.73151 4.2344-.75109l2.78-.02794 1.1737-1.895c.64552-1.0423 2.1761-2.8215 3.4012-3.9538 1.2251-1.1324 1.9821-2.0662 1.6821-2.0752-.64935-.01951-2.466-2.4966-3.7349-5.0929-1.3644-2.7915-2.0827-5.675-2.0827-8.3608 0-4.4244 1.1006-4.9317 4.0884-1.8846 2.5019 2.5515 4.7608 6.1683 5.9998 9.6063.54136 1.5022 1.1551 2.7312 1.3638 2.7312.20876 0 1.5737-.34286 3.0332-.76191 4.9779-1.4292 7.6559-1.3797 14.021.25940 2.5812.66469 2.7497.50917 2.7578-2.5452.0073-2.7597 1.5832-6.0723 4.22-8.8706 1.6869-1.7902 2.1104-2.0533 3.14-1.9506l1.1901.11870.10703 2.9677c.05887 1.6322-.06916 3.8471-.28451 4.9218-.48463 2.4187-2.1848 6.184-3.2255 7.1434-1.0186.93908-.98541.57361.09823-1.0808.95775-1.4622 2.3978-5.5398 2.3922-6.7734-.0022-.44872-.39484.096492-.93383 1.2963-.51166 1.1389-1.1426 2.3256-1.402 2.637-.25944.31147-.57412 1.0139-.69927 1.5609-.18965.82899-.51570 1.0542-1.9577 1.3525l-1.7302.35790 1.0351.44141c.56929.24277 1.121.78198 1.2261 1.1982.15004.59445.29852.66441.69201.32606.33468-.28778.50099-.29802.50099-.03085 0 .21996.64082 1.1671 1.424 2.1046.78322.93759 1.9695 2.6414 2.6361 3.7862 1.0398 1.7856 1.3412 2.0576 2.121 1.9134 1.8462-.34143 6.7194-.66123 6.5068-0.427-.12088.13318-1.5764.48925-3.2344.79128-3.2509.59219-3.4695.68325-3.1055 1.2934.14417.24168 1.7041.40178 3.9148.40178 4.3243 0 4.4281.48296.16190.75344-2.3176.14694-2.9709.31262-2.9709.75344 0 .43183.67710.62866 2.8714.83470 3.99.37465 4.2176.60738.62826.64243l-3.0451.02976.22896 1.2243c.12593.67338 1.6321 4.0899 3.347 7.5923 1.8416 3.761 3.3967 7.4967 3.7986 9.1249 1.433 5.8053 1.749 16.028.65931 21.331-.35737 1.7391-1.0234 2.459-1.0457 1.1302-.01007-.60158-.0456-.59766-.40590.04486-.29130.51947-.28019.77753.04236.98407.32298.20682.34421.71178.08124 1.9329l-.35597 1.653-.04999-1.3185c-.04189-1.1047-.11136-1.2093-.42837-.64486-.20811.37050-.27188 1.176-.14172 1.79.49931 2.3554-2.2892 8.7066-5.4164 12.337-1.1223 1.3028-2.0406 2.5562-2.0406 2.7854 0 .29162.89938.33893 2.9974.15764 2.3902-.20653 2.9058-.16406 2.5451.20964-.24877.25775-1.7203.57862-3.2701.71306-1.5498.13443-2.3065 0.27-1.6815.30127 1.6988.085 3.4087.49075 3.4087.80885 0 .15460-.83610.39601-1.858.53646s-2.2081.49091-2.6361.77881c-1.72 1.1571-14.54 2.0961-27.684 2.0277-4.7995-.02498-9.4627-.17456-10.363-.33243zm22.697-3.7875c4.7001-.87449 11.533-4.4905 14.144-7.4857.76992-.88296 1.3979-2.0679 1.548-2.9208.13887-.78934.89774-2.9609 1.6864-4.8256 2.8258-6.6816 2.9355-7.1395 2.7142-11.326-.13103-2.479-.49196-4.6959-1.0427-6.4042l-.841-2.612-1.736-.115c-1.1381-.07552-1.6517-.25653-1.4913-.52552.16250-.27241-.08184-.34564-.72695-.21786-1.2457.24671-1.6086-.30268-.40645-.61529.49857-.12965.90648-.37851.90648-.55302 0-.17452.40905-.23628 0.909-.13726 1.0497.20791 1.2024.72720.27270.92743-.53354.11491-.51068.17274.14155.35816 1.4702.41795 1.6155-.14294.72276-2.7899-1.1592-3.437-1.7544-4.2533-3.6482-5.0026-1.3865-.54862-1.9739-.58358-3.8999-.23209-1.2471.22760-2.3454.33306-2.4407.23437-.29947-.31028 1.0492-1.6124 2.3142-2.2344 1.1328-.55696 1.3368-.54655 3.0575.15619 1.0141.41412 1.8437.66730 1.8437.56261s-.40549-.85586-.90109-1.6693c-.71483-1.1732-1.5979-1.8365-4.2723-3.2087l-3.3712-1.7298-9.4536-.0801c-8.0608-.06829-9.8286.0191-11.999.59315-3.2784.86718-5.0793 1.8388-7.0154 3.7848-3.3054 3.3224-4.9955 6.842-7.5717 15.768-1.2017 4.1634-1.3403 5.0879-1.3559 9.0403-.01069 2.7069-.15159 4.3167-.36583 4.1795-.55257-.35383.0461 2.1226.66920 2.7682.53523.55455.72822 1.4826.60531 2.9109-.07388.85851 1.982 3.8932 4.4589 6.5818 1.8998 2.0622 4.2251 4.0142 3.6667 3.0781-.19907-.33372.14176-.24824.93424.23428.91372.55635 1.2172.97962 1.1339 1.5815-.08493.61356.0734.82178.62489.82178.53887 0 .68341-.17830.53441-.65926-.16064-.51855-.06121-.48785.46591.14384 1.5013 1.7992 13.004 2.7708 19.186 1.6207zm-29.252-33.68c1.3149-1.4501 2.7163-1.762 5.9872-1.3323 3.1141.40908 3.3156.48805 2.9233 1.1457-.17637.29568-.87243.36129-2.1271.2005-1.2397-.15887-2.4745-.04658-3.6829.33492-.99990.31566-2.2965.57576-2.8813 0.578l-1.0633.0041.84405-.93086zm13.827-.52027c0-.22484-.24543-.31123-.54540-.19197-1.2201.48507-.42015-.25944 1.5046-1.4004l2.05-1.2152 2.4844.82902c1.3664.45596 2.5667.96710 2.6674 1.1359.10066.16876-1.2444.41040-2.9891.53697s-3.6221.33912-4.172.47233c-.62014.15021-.99990.08693-.99990-.16661zm15.842-1.1432c-.30312-.50815.49792-1.0224 2.7028-1.7352 1.6472-.53247 2.2714-.57145 3.5297-.22039 1.8388.51299 2.3653 1.1594.94454 1.1595-.56175.000037-2.3038.25432-3.8712.56508-3.3648.66711-3.0585.64570-3.3058.23098zm-26.023-6.996c0-.65866 2.5127-2.2241 4.5721-2.8485 1.3496-.40916 1.6491-.36117 3.3633.53880 1.035.54338 1.8818 1.0672 1.8818 1.164 0 .09682-1.1862.16806-2.6361.15832-1.7645-.01187-3.3462.23924-4.7837.75941-2.5575.92547-2.3974.91024-2.3974.22793zm16.362-1.3402c-.48480-.32973-.48480-.41266 0-.74635.29997-.20647 1.6137-.73636 2.9195-1.1775l2.3741-.80213 2.2618 1.183c1.244.65063 2.2618 1.35 2.2618 1.5543 0 .50626-.38899.47188-2.9245-.25850-2.0433-.58858-2.2698-.58858-3.461 0-1.4363.70964-2.6258.79536-3.4316.24730zm-11.964 43.473c.42172-.52648.39502-.58997-.19805-.47090-.37702.0757-.75359.34953-.83682.60853-.21596.67202.45813.58238 1.0349-.13763zm-20.396-2.794c0-.83543.22953-2.0881.51007-2.7838.68496-1.6985 2.8816-4.1655 4.2206-4.7402.59778-.25654 1.0869-.53739 1.0869-.62410s-.32885-.82551-.73076-1.6418c-.95576-1.941-2.3113-2.6298-5.1757-2.6298-1.9591 0-2.601.18446-4.2607 1.2243-2.7715 1.7365-3.3139 2.6664-3.7674 6.4588-.37799 3.1609-.36772 3.2473.50229 4.2241 1.2841 1.4417 2.7625 1.9998 5.3422 2.0165l2.2725.01473v-1.519zm-6.2864-8.535c.20666-.55796 1.4117-.67001 1.7162-.15957.10975.18399-.27268.40633-.84984.49410-.75862.11536-.99868.02268-.86639-.33452zm4.3214-1.0172c.24826-.67030 1.4297-.82289 1.7832-.23030.12360.20720-.01698.37672-.31240.37672-.29541 0-.79778.10364-1.1164.23030-.42397.16856-.51899.06757-.35444-.37672zm4.1466-.60702c0-.20720.40905-.37672 0.909-.37672s0.909.16952 0.909.37672c0 .20719-.40905.37672-0.909.37672s-0.909-.16952-0.909-.37672zm-8.3628-5.2337c0-.18503-.24543-.43399-.54540-.55326-.33222-.13208-.54540-.000754-.54540.33641 0 .30429.24543.55326.54540.55326s.54540-.15139.54540-.33641zm8.3628-.98210c-.25697-.32081-.54903-.49852-.64902-.39492s.02843.45084.28542.77164c.25697.32081.54903.49852.64902.39492s-.02843-.45084-.28542-.77164zm-3.636-.27479c0-.22050-.23103-.18388-.54540.08643-.29997.25794-.54540.52766-.54540.59938s.24543.03285.54540-.08643c.29997-.11926.54540-.38898.54540-.59938zm2.0983-.21991c.08857-.27529-.07766-.35948-.43177-.21869-.31668.12591-.57578.39443-.57578.59672 0 .49515.82638.18510 1.0076-.37804zm-.24692-5-.35094-.90952-.02305.97319c-.01269.53526.09625 1.0968.24208 1.2479.43176.44734.51009-.33142.13191-1.3115zm61.54-25.789c-.11842-.31973-.29329-.50053-.38860-.40178s-.06544.36034.06637.58132c.35853.60104.56808.48428.32222-.17954zm-5.2159-3.1859c-.29997-.20085-.70902-.36518-0.909-.36518s-.11817.16433.18180.36518.70902.36518 0.909.36518.11817-.16433-.18180-.36518zm-29.205-11.396c1.0386-1.1955 1.2712-2.0919.78902-3.041-.59160-1.1646-1.0116-1.3731-2.7787-1.3796-1.1782-.0044-1.7811.22137-2.4543.91890-1.0366 1.074-1.1025 1.7057-.33774 3.2379.49741.99659.73509 1.1114 2.3 1.1114 1.3493 0 1.9123-.1923 2.4817-.84762zm-2.002-.606c-0.274-.18297-.43160-.79506-.36360-1.4122.09669-.87759.29667-1.0893 1.029-1.0893.79578 0 0.909.16359 0.909 1.3134 0 1.3597-.61848 1.8265-1.5744 1.1881zm24.683.75931c1.1186-.93844 1.126-2.9399.01433-3.8726-1.9741-1.6562-4.7625-1.1245-5.2788 1.0067-.62937 2.5981 3.1386 4.6493 5.2644 2.8658zm-4.1973-1.5513c-.33802-1.1034.44013-2.3424 1.3837-2.2032 1.5329.22610 1.0721 2.9424-.49912 2.9424-0.362 0-.76007-.33264-.88462-.73920zm8.788-21.935c-.116-.3006-.202-.2113-.220.2276-.01578.39712.07015.61962.19097.49444s.13374-.45010.02869-.72204zm-78.403 88.156c-2.1874-.838-3.1828-7.233-2.0197-12.975.3570-1.762.9293-3.563 1.2718-4.001.61921-.79228.62853-.78661 1.6358.99419l1.0131 1.791 1.5276-1.7239c1.8807-2.1224 2.5857-2.1939 3.0677-.31121 1.7101 6.6799 3.3024 13.415 3.3024 13.969 0 1.5775-.74878 1.9111-4.9974 2.227-2.2486.16717-4.4092.18101-4.8012.03074zm7.7988-1.0265c1.049-.24096 1.0871-.32154.99539-2.1022-.05247-1.0184-.27222-1.9649-.48832-2.1032-.27688-.17730-2.3987-9.6663-2.5005-11.183-.03093-.46044-.95997.14682-1.8731 1.2243-1.5157 1.7886-2.6227 1.7592-3.5478-.09418l-.70518-1.4127-.36337.97622c-.19985.53692-.47904 1.7754-.62042 2.7522-.22403 1.5479-.14839 1.8958.58893 2.709l.84599 0.933-.98346.94482c-1.0679 1.0259-1.254 2.3905-.63245 4.636.79265 2.8635 1.1146 3.0641 4.8387 3.0146 1.8452-.02452 3.8458-.15732 4.4457-.29513zm-4.9335-7.792c-.4877-.608-.1530-1.664.6114-1.928.7458-.258 1.6909.867 1.4338 1.706-.2937.959-1.3622 1.075-2.0452.222zm1.4797-.511c0-.19497-.16362-.45926-.36360-.58731s-.36360.03146-.36360.35448.16362.58731.36360.58731.36360-.15952.36360-.35448zm-5.0904-.02223c0-.20719-.16362-.37672-.36360-.37672s-.36360.16952-.36360.37672.16362.37672.36360.37672.36360-.16952.36360-.37672zm30.037-49.344c.46721-.46836 4.9173-1.9643 5.1442-1.7293.21923.22715.02269.30935-3.1444 1.3153-1.2775.40576-2.1774.59206-1.9998.41402z"/>
  <path id="path3911" d="m52.133 96.901c-6.0565-.26585-12.754-1.0204-13.09-1.4745-.56550-.76636-3.081-1.5256-5.0544-1.5256-1.2196 0-2.2175-.13547-2.2175-.30104 0-.79266-2.5865-1.218-5.927-.97474-3.1388.22860-3.5724.17773-4.7137-.55310-1.386-.88751-2.8074-2.8266-3.768-5.1404-.86839-2.0918-.79220-6.0459.19598-10.171.69061-2.8832.77617-3.9618.57186-7.209-.17115-2.7202-.11946-3.8959.17970-4.0874.58944-.37744.64322-.27195 1.3538 2.655.34898 1.4376.65142 2.6551.67206 2.7055.02065.05037.67952-.22293 1.4641-.60734 1.7232-.84424 4.0612-1.2624 4.3502-.77796.53112.89037.85540.16382.84590-1.8952-.01207-2.6121.23630-3.2702.98967-2.6224.57727.49637.71465 2.0293.14943 1.6674-.21857-.13996-.36360.35092-.36360 1.2306 0 1.0739.24195 1.6989 0.909 2.3482l0.909.88477-.0022-.91328c-.0011-.50230-.24840-1.4023-.54926-2-.32280-.64131-.41856-1.2589-.23361-1.5069.17237-.23108.34967-2.1991.39398-4.3735.06816-3.3441.27794-4.5923 1.3614-8.0994 1.6884-5.4657 3.3184-9.1821 5.8991-13.45 1.9492-3.2235 4.9387-10.044 4.5699-10.426-.13272-.13751-3.8222.77070-5.6216 1.3838-.37459.12764-.43153.05996-.1818-.21609.19998-.22106 1.7948-.82904 3.5441-1.3511 3.5135-1.0485 3.9097-1.2324 3.9097-1.8148 0-.38455-4.737-.15513-6.2721.30377-.34996.10462-.63630.04443-.63630-.13376 0-.52532 3.1128-1.2337 5.4213-1.2337h2.1385l1.1084-1.7894c.60960-.98418 1.6493-2.321 2.3104-2.9707 1.3142-1.2916 6.5284-4.6578 7.2149-4.6578.23537 0 .33440-.25256.22008-.56124-.14322-.38669.09912-.63354.77920-.79371.54288-.12786 2.296-.57230 3.8958-.98763 2.3929-.62123 3.6181-.71660 6.9084-.53777 2.1998.11956 4.9596 0.488 6.133.81874 2.9322.82650 3.1387.68133 3.1387-2.2059 0-1.9766.21088-2.8312 1.1781-4.7744 2.1532-4.3256 5.568-7.2606 7.0075-6.0228 1.2944 1.113.33708 8.9415-1.5275 12.491-1.2627 2.4037-1.5521 2.019-.39230-.52165.49973-1.0947 1.0942-2.8888 1.321-3.9868.42354-2.0504.57451-7.61.20666-7.61-.83754 0-1.5971.87329-1.4147 1.6265.13896.57362-.13767 1.3318-.86594 2.3734-1.4085 2.0145-3.6949 6.6135-3.6949 7.4321 0 .35563-.24543.74417-.54540.86344-.83994.33394-.64697 1.4875.36360 2.1735.49995.33940 0.909.78270 0.909.98512 0 .56499-.94673.43672-1.4544-.19704-.24895-.31079-.80893-.56508-1.2444-.56508s-.96810-.18270-1.1836-0.406c-.72202-.74808-3.1336-1.0835-4.7531-.66107-.84991.22169-1.5453.52961-1.5453.68427s.33363.72063.74139 1.2577c.5433.71562 1.3205 1.0946 2.9088 1.4183 1.1921.24299 2.1674.60902 2.1674.81342 0 .20439-.43061.28634-.95690.18210-.68297-.13527-1.4121.14287-2.5468.97156-1.8383 1.3425-1.6419 1.8662.63641 1.6971 1.4181-.10523 1.5821-.21218 1.481-.96561-.09942-.74086-.0081-.80697.72720-.52638.46249.17649 1.4428.24396 2.1785.14994 2.9652-.37898 5.0994 1.2578 5.1907 3.9806.03396 1.013.22278 1.4178.70635 1.5143 1.2002.23947 1.3037-.48293.36876-2.5736-.50542-1.1302-.83311-2.395-.72822-2.8106.12388-.49081-.13751-1.1106-.74585-1.7684-.51511-.55706-.82648-1.1974-.69195-1.4229.30232-.50681 3.0836 2.7884 4.6797 5.5444 1.1005 1.9002 1.2141 1.9847 2.4271 1.805 2.8934-.42856 5.9849-.66541 5.78-.44282-.12068.13107-1.5009.49234-3.0671.80281-3.1061.61574-3.2638.68507-2.9096 1.2788.14118.23668 1.6876.41266 3.7633.42826 4.0283.03025 3.66.65702-.41172.70048-2.1592.02305-2.4652.11198-2.3596.68574.09736.52876.73238.73382 3.2082 1.036l3.0868.37672-3.0194.10975c-2.9292.10646-3.0118.13461-2.7649.94179.54580 1.7839 2.7339 6.8021 3.378 7.7472 1.3901 2.0396 3.3879 6.632 4.0476 9.3045 1.5064 6.1025 1.7192 18.556.37881 22.164-.60857 1.6382-.69994 1.0834-.30328-1.8417.52694-3.8858.11336-17.167-.62172-19.966-1.3552-5.1596-5.7271-12.427-7.4815-12.436-.48708-.0026-1.1114.16357-1.3874.36933-.41441.30896-.44698.14581-.18704-.93701.62695-2.6116.37117-3.9973-1.1617-6.2935-1.4287-2.1402-1.4775-2.1732-3.0216-2.0511-1.2268.09705-1.5075.0148-1.2858-.37672 0.156-.27548-.0893-.16184-.54513.25255-1.261 1.1464-4.7548 1.0459-6.0068-.17277-.50875-.49520-.92501-1.1998-.92501-1.5659 0-.78125-.56614-1.2343-1.1085-.88705-.26467.16948-.26168.39340.0098.73229.29950.37389.15468.55619-.61864.77881-.55532.15986-1.2551.37097-1.5551.46914-.29997.09817-1.5872.25652-2.8605.35191-1.8917.14171-2.3483.30498-2.4967.89276-.09986.39563-.32610.71934-.50275.71934-.63795 0-.30382 1.0851 0.406 1.3185 1.5617.51353 0.553 3.5827-1.4913 4.5379-2.3559 1.1007-2.0693 1.3648 1.1842 1.0913 2.5398-.21351 3.2723-.14142 4.489.44180l1.4539.69696-2.2725.11866c-4.6857.24467-1.8319.97736 5.5892 1.435 2.0032.12353 2.6925.03115 3.0442-.40794.29803-.37206 1.1038-.56764 2.3388-.56764 1.9857 0 4.2918 1.1781 6.4805 3.3106 1.1264 1.0974 1.2909.89023.40524-.51026-1.4318-2.264 1.2146-1.1966 2.7442 1.1069 1.5091 2.2726 1.5117 2.9407.0081 2.1069-.92317-.51190-.93351.12323-.02382 1.462.37372.54997.80644 1.4238.96159 1.9417.15515.51799.74928 1.8951 1.3203 3.0603.57101 1.1652 1.0382 2.2137 1.0382 2.33 0 .11627.16633.66468.36962 1.2187.27980.76249.48321.9096.83702.60537.49188-.42296 2.0657-.17679 2.0657.32310 0 .16057-.40905.39831-0.909.52832-1.5662.40728-1.1205 2.6343.69071 3.4513.97020.43759 1.0133.51049.30918.52318-1.0693.01929-1.0979 1.2758-.04641 2.0389.71322.51759.76042.82685.62299 4.0823-.10906 2.5835-.35216 3.9484-.91203 5.1208-.74393 1.5579-.74596 1.6111-.07991 2.0945.88511.64233.52423.98270-1.0996 1.0372-.71659.02403-1.0165.12125-.66637.21602.47558.12876.57935.40832.41042 1.1057-.15640.64562-.03545 1.0778.39236 1.4019.57846.43824.56754.62585-.16879 2.9003-1.1744 3.6275-2.7037 6.3678-5.1424 9.2142-1.5408 1.7983-2.0535 2.6384-1.7348 2.8425.30420.19479.17443.33173-.39618.41806-.46671.07061-.91592.34028-.99824.59928-.10885.34244.45956.47090 2.0837.47090 2.5001 0 2.6649.51855.28960.91135-.85434.14128-1.9624.54498-2.4623.89710-.81886.57673-2.1465.63052-13.388.54240-7.6659-.06009-12.715.04447-13.09.27108-.41846.25295 1.0754.37250 4.7528.38035 3.3256.0071 5.3631.15458 5.3631.38817 0 .41741-5.9334.41225-15.635-.0136zm19.089-4.0978c4.5038-1.2054 9.24-3.8033 12.19-6.6864 1.3818-1.3506 2.7912-3.1103 3.132-3.9106.34078-.80026.71422-1.3947.82987-1.3211.11565.07366.24460-.35813.28654-.95953.10075-1.4445-.09497-1.3794-.9605.31924-1.2899 2.5315-.78957.66061.74147-2.7727 2.7127-6.0831 2.9678-7.0366 2.6915-10.059-.32636-3.5706-1.1791-7.9017-1.8934-9.6166-.31589-.75837-.69617-1.7179-.84508-2.1323-1.8669-5.1955-2.2076-5.7727-3.8914-6.5927-1.4206-.69184-2.0543-.77388-4.4242-.57281l-2.7662.23470 1.0908-.96904c1.5196-1.35 2.6139-1.5543 4.5205-.84389.89886.33489 1.6932.54786 1.7652.47327.21904-.22694-.8957-2.2387-1.6126-2.9103-.371-.346-2.135-1.356-3.92-2.243l-3.2464-1.6136-6.1637-.24380c-5.1779-.20481-6.2171-.34276-6.4979-.86254-.41128-.76143-1.0253-.80980-1.0253-.08077 0 .37875-.61876.60184-2.0907.75379-8.2949.85629-12.245 3.1351-15.69 9.0528-2.9267 5.0265-5.9339 15.275-5.9436 20.255-.0055 2.8422-.61413 3.872-.65980 1.1164-.01876-1.1321-.07982-1.2451-.32859-.60807-.35680.91362.66344 5.7687 1.6113 7.6678.34014.68149.43290 1.1203.20614.97506-.55225-.35362.46552 2.1415 1.5042 3.6876 2.7465 4.0883 8.0258 8.9316 9.1119 8.3594.25429-.13396.16251.0098-.20397.31956-.64301.54341-.64066.57734.067.96973.40332.22364 1.194.40757 1.7571.40872.56309.0011 1.5965.16686 2.2964.36825 4.5342 1.3046 13.561 1.3237 18.362.03888zm-30.764-33.105c.67940-1.3153 1.9981-1.6922 5.2938-1.5129 3.8738.21066 5.1829 1.0576 1.6346 1.0576-1.2912 0-2.9192.17648-3.6178.39217-.69861.21569-1.8076.46968-2.4643.56442-1.0563.15237-1.154.0945-.84625-.50126zm14.331-.96372c.19935-.53824.12317-.57622-.48228-.24051-.39546.21928-.71901.25852-.71901.0872s.89148-.76449 1.9811-1.3182l1.9811-1.0067 2.0995.74841c1.1547.41162 2.2362 0.89 2.4032 1.063.16702.17305-1.1375.40572-2.8989.51705s-3.5173.33436-3.902.49562c-.56203.23561-.65292.16764-.46268-.34599zm15.524-1.1566c0-.14049.69538-.58247 1.5453-.98218 1.8644-.87682 4.591-.96129 5.5663-.17244.67283.54420.66068.56029-.26024.34468-.53132-.12440-1.2756-.05451-1.654.15531-.83574.46341-5.1973 1.0128-5.1973.65462zm13.453-1.5371c1.0151-.60120 2.5452-.74275 2.5452-.23545 0 .33020-1.7535.81225-2.8633.78717-.40556-.0092-.30579-.18218.31815-.55173zm-39.222-5.71c.74608-.93447 3.9703-2.3808 5.3167-2.385.88228-.0026 1.1831.16336 1.1873.65558.0045.53643.06649.55952.33257.12397.27838-.45569.46678-.44039 1.267.10286 1.3557.92036 1.1708 1.1011-.83426.81537-1.3152-.18741-2.407-.05035-4.2197.52972-3.0912.98922-3.7404 1.0228-3.0496.15753zm16.588-.76481c-1.0516-.28473-.73053-.73640 1.0908-1.5344 3.0317-1.3283 3.1533-1.329 5.7905-.03556 2.2354 1.0964 2.3797 1.2315 1.4558 1.3626-.56405.08003-1.5293-.03643-2.145-.25879-1.545-.55802-3.2391-.48629-4.0801.17275-.7179.56258-.98230.59932-2.1121.29341zm-12.273 43.592c.46634-.30545.44049-.43682-.18180-.92404-1.0673-.83567-1.6344-.71427-1.6344.34986 0 1.0006.78585 1.2491 1.8162.57418zm-8.179-.763c-.12359-.20719-.37868-.37672-.56686-.37672s-.34214.16952-.34214.37672.25509.37672.56686.37672.46573-.16952.34214-.37672zm-13.274-.713c.78332-.22585.89099-.44604.79319-1.6221-.20330-2.4449 1.8494-5.7768 4.3907-7.127.74992-.39844 1.3635-.89893 1.3635-1.1122 0-.64168-.96956-2.3802-1.7197-3.0835-1.0317-.96737-4.4682-1.5393-6.2545-1.041-1.7906.49955-4.3144 2.4513-5.1989 4.0204-.72139 1.2798-1.2455 5.5001-.87359 7.0351.51758 2.1366 4.6507 3.7516 7.4993 2.9303zm-5.451-10.212c0-.20719.32724-.37672.72720-.37672s.72720.16952.72720.37672-.32724.37672-.72720.37672-.72720-.16952-.72720-.37672zm4.3632-1.1302c0-.20719.31758-.37672.70574-.37672s.80686.16952.93046.37672c.12745.21366-.17802.37672-.70574.37672-.51175 0-.93046-.16952-.93046-.37672zm4.1814-.37672c.12360-.20720.46049-.37672.74866-.37672s.52394.16952.52394.37672c0 .20719-.33690.37672-.74866.37672s-.64753-.16952-.52394-.37672zm54.043 11.584c.91209-.77933 4.1496-5.5782 5.5488-8.2249 1.3567-2.5663 1.7483-3.7969.72794-2.2875-.32072.47441-.80725.77345-1.0812.66454-.27393-.10891-.63735.05987-.80760.37506s-.55270.61006-.84989.65525-1.6583 1.31-3.0246 2.8106c-1.3663 1.5007-2.2179 2.6226-1.8923 2.4931.84194-.33474 2.9721-2.4525 3.4756-3.4555.74387-1.4817 1.2313-1.008.96897.94180-.17710 1.3164-.53254 2.0694-1.3445 2.8485-2.025 1.9429-3.3279 3.6499-2.7858 3.6499.28246 0 .76157-.21190 1.0647-.47090zm-3.8663-.28254c.12360-.20719.05144-.37672-.16034-.37672s-.38506.16952-.38506.37672.07215.37672.16034.37672.26146-.16952.38506-.37672zm8.181-9.8869c0-.21014-.24116-.16935-.54540.09225-.29997.25794-.54540.63850-.54540.84569 0 .21014.24116.16935.54540-.09225.29997-.25794.54540-.63850.54540-.84569zm-.36360-1.7913c.21405-.41439.30738-.75344.20739-.75344s-.35693.33904-.57098.75344c-.21405.41439-.30738.75344-.20738.75344.09999 0 .35693-.33905.57098-.75344zm-66.776-5.302c-.84020-.31653-1.0058-.17230-.71217.62041.19406.52395.32324.54446.80737.12817.52117-.44814.51205-.51981-.0952-.74858zm2.1869.21751c.22062-.59569 1.3229-.79616 1.3229-.24060 0 .17846.40905.24346 0.909.14444.72713-.14402 0.909-.40442 0.909-1.3015 0-.81984.20387-1.1767.75793-1.3269 1.423-.38554-.10138-.84248-2.8306-.84849-2.0188-.0044-2.6921.13130-2.9415.59306-.17790.32936-.46828.57093-.64528.53682-0.177-.03409-.38914.14724-.47143.40299-.09494.29511.06395.38010.43489.23262.71876-.28577 1.6963.66286 1.6963 1.6461 0 .86098.56056.96638.85868.16145zm7.1324.28254c-.014-.48921-1.4297-2.1883-1.4382-1.726-.0044.24205-.10191.69341-.21658 1.003-.12876.34764.04506.63086.45450.74054 1.0597.28387 1.2089.28169 1.2003-.01752zm-2.1735-1.5788c0-.40216-.16362-.83597-.36360-.96403-.19998-.12805-.36360-.06716-.36360.13532 0 .20247-.09931.63629-.2207.96402-.14482.39103-.01982.59589.36360.59589.33598 0 .5843-.31076.5843-.73120zm63.462-10.089c-.37718-1.557-.65354-.66413-.33839 1.0934.21534 1.2009.32780 1.3946.42983.74050.076-.48726.03487-1.3125-.09144-1.8339zm-33.645-24.244 0.909-.28320-0.909-.01537c-.49995-.0085-1.3999.22428-1.9998.51722l-1.0908.53260 1.0908-.23401c.59994-.12871 1.4998-.36146 1.9998-.51722zm-2.026-4.4619c.60322-.69060.59615-.74328-.15569-1.1602-.64406-.35712-.91903-.31350-1.5087.23936-.68275.64018-.68711.70179-.08206 1.1602.84125.63733.99960.61563 1.7464-.23936zm29.296-2.595c0-.16759-.24809-.63378-.55131-1.036-.51122-.67809-.52020-.65593-.12344.30472.42810 1.0365.67474 1.3038.67474.73126zm-33.724-2.2051c-.24997-.10450-.65902-.10450-0.909 0-.24997.10451-.04545.19001.45450.19001s.70447-.08551.45450-.19001zm3.636-2.0158c1.1383-1.2944 1.2445-2.1026.43388-3.3016-.4598-.68014-.91597-.83726-2.4309-.83726-2.1337 0-3.5479 1.0121-3.5479 2.5391 0 3.0687 3.3924 4.0474 5.5449 1.5998zm-2.1998-.44705c-1.0357-1.0731.09611-3.1341 1.1999-2.185.29997.25794.54540.75336.54540 1.1009 0 .61586-.65347 1.5361-1.0908 1.5361-.11999 0-.41450-.20343-.65448-.45206zm24.85.65754c1.1127-1.1528 1.1306-2.1369.06237-3.4236-.59969-.72234-1.2899-1.0536-2.4868-1.1933-1.4834-.17323-1.7389-.08524-2.4423.84130-.43208.56912-.78561 1.4033-.78561 1.8538 0 2.5204 3.8207 3.8196 5.6523 1.9219zm-4.1612-1.1015c-.61876-.77246.11058-2.4945 1.0565-2.4945.95474 0 1.2974.92030.78038 2.096-.44950 1.0221-1.2059 1.1862-1.8369.39852zm-24.943.14254c.12359-.20720.05144-.37672-.16034-.37672s-.38506.16952-.38506.37672c0 .20719.07215.37672.16034.37672s.26146-.16952.38506-.37672zm18.907 0c-.12360-.20720-.38833-.37672-.58831-.37672s-.26248.16952-.13888.37672c.12359.20719.38833.37672.58831.37672s.26248-.16952.13888-.37672zm1.6362-.77567c0-.19497-.16362-.35448-.36360-.35448s-.36360.26429-.36360.58731.16362.48254.36360.35448c.19998-.12805.36360-.39234.36360-.58731zm12.738-.89975c-1.0882-1.8243-1.3444-1.6983-.33402.16433.44832.82646.88650 1.4287.97374 1.3383.08724-.09038-.20064-.76658-.63972-1.5027zm-24.934-.937c.11506-.19288.0429-.45717-.16034-.58731s-.36953.02767-.36953.35069c0 .66172.21818.75915.52987.23662zm7.1057-7.1837c.425-.28457.32467-.36645-.45450-.37095-.54994-.0032-.99990.16375-.99990.37095 0 .47632 0.743.47632 1.4544 0zm-61.013 75.043c-1.8043-1.87-2.363-7.155-1.3131-12.421.92871-4.6584 1.7118-5.3995 2.8768-2.7228.36071.82878.76945 1.5069.90830 1.5069s.92254-.76285 1.7415-1.6952c1.6532-1.882 2.4218-2.1172 2.7701-.84762 1.4066 5.1264 3.4715 14.584 3.322 15.216-.26053 1.0992-.73164 1.2296-5.4471 1.5087-3.8399.22722-4.1469.19282-4.8585-.54444zm8.1994-.30274c1.3932-.17599 1.5453-.29609 1.5453-1.2202 0-.56374-.2453-1.9519-.54511-3.0848s-1.0536-4.1789-1.6752-6.7688c-.62154-2.5899-1.1978-4.7832-1.2805-4.8738-.08274-.09068-.84858.54504-1.7019 1.4127-.85329.86766-1.7994 1.5776-2.1025 1.5776-.30309 0-.90007-.63271-1.3266-1.406l-.7758-1.407-.4136 1.124c-.22743.61792-.50846 1.9497-.62450 2.9596-.16888 1.4697-.090974 1.9057.39040 2.1848.84444.48962.76268 1.845-.12581 2.0857-.59561.16138-.72683.51287-.72517 1.9425.00265 2.2927.59929 4.4404 1.4899 5.3632.63288.65572 1.0481.71755 3.5215.52438 1.5422-.12045 3.4994-.30684 4.3493-.41420zm-4.6323-7.867c-.24684-.30815-.35382-.81672-.23773-1.1302.27394-.73962 2.0118-.73962 2.2858 0 .24097.65062-.46204 1.6904-1.1429 1.6904-0.251 0-.65832-.25213-.90515-.56028zm1.4505-.548c0-.19497-.16362-.45926-.36360-.58731s-.36360.03146-.36360.35448.16362.58731.36360.58731.36360-.15952.36360-.35448zm-5.0904 0c0-.19497-.16362-.45926-.36360-.58731s-.36360.03146-.36360.35448.16362.58731.36360.58731.36360-.15952.36360-.35448zm33.746-50.76c.26247-.10882.57608-.09544.69690.02972.12082.12518-.09393.21422-.47722.19786-.42357-.01808-.50973-.10734-.21968-.22760zm27.227-.36028c-.41212-.42699.12943-.88925 1.0418-.88925.99789 0 1.1895.55279.3124.90149-.73356.29165-1.0637.28867-1.3542-.01224zm-17.355-15.487c-2.058-3.226-3.617-7.8602-3.578-10.642.036-2.6755.384-3.9221 1.136-4.0721 2.0902-.41706 8.3284 8.1677 9.1866 12.642.35779 1.8655-.33859 1.4596-.84207-.49074-.24350-.94329-.59885-1.6151-.78966-1.4929-.19081.12218-.7728-.64860-1.2933-1.7128-1.1177-2.2852-1.4979-2.2734-.71612.02227.43591 1.2801.46642 1.8705.14436 2.7932-.29958.85837-.30146 1.5707-.0071 2.6737 0.366 1.3713.32965 1.5609-.41318 2.1545-.44797.35798-.90250.65465-1.0101.65926-.10757.0046-.92567-1.1359-1.818-2.5345zm4.5762-6.0867c-.71168-1.4259-1.0419-1.5287-.54295-.16909.48298 1.3162.74312 1.7294.95230 1.5127.09471-.09813-.08949-.70274-.40934-1.3436zm-3.418-4.6543c-.771-1.2927-2.235-2.8634-2.235-2.3981 0 .40561 2.6686 4.0018 2.8388 3.8255.08411-.087148-.18769-.72947-0.604-1.4274z"/>
  <path id="path3909" d="m47.225 96.318c-.39996-.06452-2.0362-.23775-3.636-.38496-2.419-.22259-2.7067-.31370-1.7086-.54116 1.7628-.40172 1.7643-.63041.006-.93226-.86339-.14823-1.8607-.42785-2.2163-.62138-.83113-.45237-.42179-1.1706.49528-.86908.82883.27255.95753-.49504.13766-.82101-.30742-.12222-.89330.09129-1.302.47446-1.0692 1.0025-7.2157 1.012-9.0002.01382-1.0374-.58029-1.4671-.62264-2.7971-.27564-3.4781.90740-5.7618.30196-7.7614-2.0576-2.8981-3.4198-3.3155-6.8872-1.7029-14.146.80834-3.6389.90916-4.648.60224-6.0275-0.42-1.8877-.49861-4.2404-.15364-4.5978.12803-.13265.54576.36383.92829 1.1033.54258 1.0489.83872 2.6938.83872 4.6589 0 .000754.80492-.42206 1.7887-.93918 2.0513-1.0782 3.9483-1.2751 3.615-.37514-.11511.31079-.64429.56508-1.176.56508-1.1439 0-2.8495.91590-4.39 2.3574-.88820.83109-1.1103 1.3423-1.1103 2.5561 0 1.4212.04797 1.4906.75834 1.0967 1.0076-.55873 1.1265-.36022.85146 1.4219-.32536 2.1081-.67870 2.6301-1.3749 2.0315-.45348-.38993-.62284-.32563-.98403.37362-.51291.99296-.24386 5.6087.38691 6.6375.32476.52967.36544.33770.19876-.93791-.16470-1.2604-.01287-2.0061.70903-3.4821.50524-1.033.91641-1.9641.91373-2.0691-.0025-0.105-.0049-.31906-.0049-.47567 0-.15662.44995-.49727.99990-0.757.54994-.25974 1.4089-.82031 1.9089-1.2457.81913-.69701.83318-.75168.14212-.55296-1.077.30967-1.9601-.12602-1.9601-.96704 0-.39222-.16050-.71313-.35667-.71313-.58296 0-.85792-1.8402-.36661-2.4536 1.0744-1.3412 2.957-.10996 2.259 1.4774l-.38923.88509 1.6993-.57465c.93460-.31606 2.1648-.55541 2.7338-.53188.86579.03579.96295-.04658.59569-.50507-.63530-.79312-.14429-2.4412.72731-2.4412.96345 0 1.6008 1.2843 1.1095 2.2355-.52420 1.0148-.48027 1.1549.36222 1.1549.86978 0 1.3894 1.0755.72515 1.5009-.34704.22222-.29301.40204.21972.73127 0.558.35830.41258.39574-0.811.20878-2.9181-.44587-3.7227-.30919-5.8099.98690-2.745 1.7045-3.6651 3.213-4.19 6.8698-.39076 2.7221-.36896 3.027.28282 3.9545 1.416 2.0149 5.0188 3.1984 7.572 2.4874.59844-.16666.72720-.52118.72720-2.0022 0-2.5044 1.6019-5.1313 4.061-6.6594l1.8533-1.1517-.68189-1.4525c-.37504-.79886-.93858-1.7463-1.2523-2.1055-.35936-.41141-.42462-.7034-.17638-.78913.23629-.08161-.10594-1.1906-.85486-2.7703-1.5601-3.2906-2.0399-6.0087-2.0399-11.556 0-3.9151.13196-4.8089 1.3037-8.8302 1.5571-5.3437 3.2151-9.0896 6.4621-14.6 1.3282-2.254 2.4149-4.3258 2.4149-4.604 0-.27824.41117-1.4692.91370-2.6465.50254-1.1773.83567-2.2214.74030-2.3203-.09537-.09881-1.2632.10396-2.5951.45059-3.0046.78196-3.5275.51632-.63118-.32066 3.3716-.97432 4.593-1.501 4.7721-2.0578.13765-.42785-.36277-.47168-2.8347-.24826-1.651.14922-3.2676.36751-3.5924.48508-.39624.14344-.47089.08845-.22691-.16717.54905-.57524 3.5453-1.2368 5.6014-1.2368 1.8141 0 1.8339-.01319 3.2527-2.1661 1.7159-2.6039 3.1319-4.0304 3.6631-3.6902.21478.13753.39052.07281.39052-.14383 0-.37936 2.2543-1.5342 2.9949-1.5342.19848 0-.63959 1.1081-1.8624 2.4624s-2.2233 2.6258-2.2233 2.8254c0 .19961-.18112.36294-.4025.36294-.22137 0-.30832-.25428-.19321-.56508.11511-.31079.12680-.56508.02596-.56508-.35896 0-1.6374 3.5315-1.4559 4.0216.11346.30630-.08201.49899-.50620.49899-1.1049 0-3.3514 3.8108-3.8412 6.5159-.13894.76734-.39169 1.3952-.56167 1.3952s-.55409.85492-.85358 1.8998-1.3502 3.2911-2.3349 4.9915c-.98469 1.7004-2.143 3.8182-2.5741 4.7061-.43105.88790-.91588 1.5297-1.0774 1.4263-.39567-.25336-1.8564 3.0499-2.0465 4.628-.0838.69546-.31993 1.4737-.52474 1.7293-.20480.25568-.56916 3.3537-.80967 6.8844-.40035 5.8771-0.385 6.5022.18162 7.3982.73508 1.1624 2.7406 2.3301 3.1944 1.86.43697-.45274 2.1445-5.7271 2.1445-6.6241 0-.66681-.06117-.65311-.71510.16016-.98937 1.2304-.91695.83443.39608-2.1659.62446-1.4269 1.185-3.1473 1.2456-3.823.17002-1.8953.81079-3.6533 3.1714-8.7006l2.1766-4.654 3.1348-2.405c1.9557-1.5004 4.3324-2.9026 6.3188-3.7279 3.4036-1.4142 5.4101-1.791 2.9972-.56292-1.5208.77403-1.4217.76494 2.2851-.20952 1.2568-.33039 2.525-.54702 2.8184-.48141.29332.06561-1.1822.56474-3.2789 1.1092-2.0967.54443-3.7214.83770-3.6105.65170.21014-.35228-2.3111 1.0343-4.6708 2.5688-4.0073 2.6059-7.6803 9.6863-9.9322 19.146-.54255 2.2791-1.2241 4.4295-1.5145 4.7786-.34548.41526-.54513 1.5875-.57745 3.3905-.11613 6.4771 3.8753 14.343 9.3713 18.468.78926.59236 1.4702 1.3256 1.5133 1.6295.0994.70168-.45636.71911-.83923.02633-.15992-.28937-.90553-.90018-1.6569-1.3573-.78767-.47924-2.4599-2.339-3.9493-4.392-1.4207-1.9584-2.658-3.4831-2.7495-3.3883-.09153.09483-.0055.48560.19123.86836.63344 1.2326 2.1281 4.8113 2.4147 5.7816.15301.51799.74296 1.6623 1.311 2.5428.95057 1.4736.99882 2.014.11771 1.3185-.19686-.15540.03941.11176.52506.59368.52792.52388.97544.72123 1.1129.49078.14596-.24468.42559-.25724.76572-.03439.91202.59756 3.875.42788 4.5389-.25993.52656-.54556.85570-.56678 2.6621-.17166 6.7132 1.4685 14.707 1.4903 19.833.05413 7.9624-2.2307 13.87-6.9444 17.251-13.764.69763-1.4074 1.127-1.9676 1.1379-1.4847.02054.91059-2.0181 4.5299-3.8714 6.8733-.71558.90477-2.7512 2.8302-4.5236 4.2788s-3.2226 2.7155-3.2226 2.8154c0 .09991.14965.08584.33254-.03127.18290-.11712.39726-.01179.47636.23409.16427.51060 3.9355.62544 5.3723.16359.83747-.26921.81196-.19746-.32428.91188-1.1111 1.0848-1.3813 1.1787-2.727.94755-2.398-.41184-2.5751-.41290-2.7663-.01669-.11146.23096.93076.41970 2.6937.48782 2.5091.09694 2.7871.17458 2.1816.6093-.83564.59998-9.4352 1.1599-11.91.77544-2.0287-.3152-1.8823-.91365.23842-.97446.83811-.02404 1.2375-.12123.88754-.21598s-.63630-.30064-.63630-.45754c0-.15689-1.0226-.06323-2.2725.20813s-2.7128.49692-3.2509.50124c-.53814.0043-1.0938.20124-1.2348.43759-.18029.30225-1.3198.35753-3.8411.18634-2.0419-.13864-3.8578-.09115-4.2192.11035-1.6855.93973-7.0075 1.4342-10.088.93725zm-9.5604-5.758.98397-.23797-2.0748-3.6546c-1.1411-2.01-2.285-3.6629-2.5421-3.673-.25701-.01013-.88861.26760-1.4035.61717-.91365.62024-.91796.64260-.17865.92596l.75760.29037-.87850 1.9646c-.97332 2.1766-.78871 3.1962.63558 3.5104.44418.09798 1.1348.24984 1.5348.33746 1.0168.22278 2.0171.19738 3.1656-.08038zm-8.553-1.2504c-.11607-.30052-.20223-.21126-.21967.22760-.01578.39712.07015.61962.19097.49444s.13374-.45010.02869-.72204zm7.1444-9.881c-.139-.432-.430-1.766-.646-2.964-.357-1.982-.450-2.135-1.031-1.695-.58394.4425-.59331.61261-.10966 1.9907.29086.82878.61731 1.9448.72543 2.4801.10829.53607.44765.97319.75554.97319.40508 0 .4892-.21605.30558-.78483zm-14.021-4.67c.07916-.24605-.12479-.44735-.45323-.44735s-.49438-.17229-.36878-.38286c.12561-.21057.40598-.26914.62304-.13015.23001.14728.29052.07813.14503-.16576-.35591-.59665-1.3171-.11770-1.3171.65630 0 1.1623 1.0343 1.5167 1.3711.46984zm6.6281-1.5553c0-.40216-.16362-.83597-.36360-.96403-.19998-.12805-.36360-.06716-.36360.13532 0 .20247-.09931.63629-.2207.96402-.14482.39103-.01982.59589.36360.59589.33598 0 .5843-.31076.5843-.73120zm-25.001 18.719c-1.7349-1.9188-2.3229-6.5892-1.4349-11.396.99981-5.4115 1.779-6.3462 2.9835-3.5788.36071.82878.76945 1.5069.90830 1.5069s.92254-.76285 1.7415-1.6952c1.5463-1.7604 2.0314-2.0044 2.4824-1.2484.63596 1.0661 3.6493 14.251 3.4992 15.31-.18578 1.3114-.45548 1.4089-4.8136 1.7391-1.8083.13699-2.482.08911-1.9998-.14213.39996-.19180 1.6271-.36296 2.727-.38035 3.122-.04936 3.636-.28850 3.636-1.6918 0-.66323-.32703-2.4658-.72673-4.0058-.39970-1.5399-1.1475-4.4883-1.6619-6.5519-.51432-2.0636-1.0243-3.9015-1.1333-4.0841-.10897-.18267-.88491.47651-1.7243 1.4649-1.7638 2.0768-2.3501 2.0583-3.4314-.10808l-.7146-1.432-.4252 1.13c-.23387.62158-.51811 2.0413-.63165 3.1549-.16722 1.6402-.092286 2.0909.39452 2.3732.94725.54924.74296 1.7666-.34389 2.0492-.91708.23848-.93754.30788-.69626 2.3617.32497 2.7661 1.3881 5.2384 2.4409 5.676.51897.21575.61894.35676.26343.37157-.31510.01315-.91778-.35755-1.3393-.82374zm-.3784-9.022c-.33936-.35160-.43632-.25115-.43632.45206s.09696.80366.43632.45206.33936-.55252 0-.90412zm75.738 7.986c.12359-.20720.38833-.37672.58831-.37672s.26248.16952.13888.37672c-.12359.20719-.38833.37672-.58831.37672s-.26248-.16952-.13888-.37672zm6.732-0.483c-.0029-.16205.89860-1.6313 2.0035-3.265 2.0943-3.0967 4.0433-7.1248 4.2605-8.8057.19510-1.5094.64012-1.6674.62908-.22329-.01214 1.5904-1.665 5.6817-3.1955 7.9098-1.4562 2.12-3.6906 4.7693-3.6976 4.3842zm-78.351-6.431c-.82113-.62209-.51240-1.7497.47905-1.7497 1.0495 0 1.7157.98490 1.1467 1.6952-.55685.69517-.77063.70233-1.6258.05448zm1.2622-.80791c0-.31079-.24029-.56508-.53399-.56508-.32527 0-.45218.22087-.32470.56508.11511.31079.35540.56508.53399.56508.17858 0 .32470-.25428.32470-.56508zm13.749-1.953c.26247-.10882.57607-.09544.69690.02972.12082.12518-.09393.21422-.47722.19786-.42357-.01808-.50973-.10734-.21968-.22760zm3.886-.87281c.12359-.20719.46049-.37672.74866-.37672s.52394.16952.52394.37672-.33690.37672-.74866.37672-.64753-.16952-.52394-.37672zm63.84-5.1171c.01745-.43886.10360-.52812.21967-.22760.10503.27194.09212.59686-.02869.72204-.12082.12518-.20676-.09732-.19097-.49444zm.42713-1.3813c-.19822-.25899-.45174-2.5052-.56338-4.9915-.21249-4.7325-.99630-9.3656-1.903-11.249-.29405-.61070-.53463-1.3243-.53463-1.5858s-.59451-1.8422-1.3211-3.5127c-1.2995-2.9875-1.3536-3.0498-3.3065-3.8069-1.5922-.61720-2.2419-.69625-3.2806-.39910-1.5987.45734-2.3143.0911-1.1399-.58335 1.0328-.59316 3.1816-.66863 4.4795-.15734 1.0545.41538 1.1799.11526.39883-.95465-.29360-.40219-.53904-.94912-.54540-1.2154-.02611-1.0936 1.4727.39902 2.4826 2.4723.57750 1.1856 1.7157 3.4882 2.5294 5.1167 2.2572 4.5176 3.1268 8.7268 3.1436 15.215l.01385 5.368 1.385.00023c.83067.000139 1.295.151 1.1602.37695-.32054.53736-2.569.46674-2.9983-.09418zm4.0696-3.2963c.720-8.288.507-15.654-.586-20.299-.619-2.63-2.273-6.224-4.608-10.011-1.306-2.118-2.427-4.511-2.962-6.326-.474-1.606-1.143-3.233-1.487-3.616s-.685-1.019-.758-1.413c-.0728-.39538-.49162-.76972-.93455-.83527-.67719-.10022-.73824-.22562-.39062-.80233.33306-.55255.21827-1.0261-.59903-2.471-.55607-.98310-1.5649-2.4226-2.2418-3.1989-1.2832-1.4716-1.4746-1.8852-.87243-1.8852.47534 0 3.492 3.9504 4.4166 5.7836.70742 1.4027.78296 1.4442 2.2508 1.2394 6.3269-.88305 7.6973-.67148 2.3309.35987-2.3853.45843-3.0794 0.726-2.9299 1.1296.1484.40067 1.0455.53523 3.702.55530 4 .03021 3.64.65687-.4025.70048-1.3499.01458-2.4518.15362-2.4487.30902.01604.81350.80737 1.157 3.4486 1.4969l2.9088.37431-2.8573.0533-2.8573.0533.24801 1.0238c.13640.56309 0.645 1.8933 1.1302 2.9559.48521 1.0627.88220 2.0256.88220 2.1398 0 .11423.68228 1.3693 1.5162 2.789 3.4894 5.9408 4.4046 9.1327 5.0175 17.498.38568 5.2645.04633 11.744-.70933 13.543-.31637.75334-.35483.54117-.20805-1.1478zm-67.792-.964c0-.32302.16362-.48254.36360-.35448.19998.12805.36360.39234.36360.58731s-.16362.35448-.36360.35448-.36360-.26429-.36360-.58731zm.92028-3.5377c-.13383-.22436-.39565-.31040-.58181-.19119-.42469.27194-.42926-.22607-.0084-.91460.25362-.41492.40746-.35045.75109.31480.43549.84308.29174 1.5498-.16089.79098zm13.233-6.9371c.48482-.54611 1.0366-.99292 1.2262-.99292 0.488 0-.44647 1.0922-1.3506 1.5786-.67559.36343-.66220.30038.12438-.58564zm.88689.59715c.75898-1.2724 4.1141-1.9742 5.8672-1.2273.95566.40713.31341.65098-2.3634.89731-1.0999.10121-2.3935.30962-2.8747.46311-.59659.19030-.79673.14795-.62907-.13311zm13.122-1.1842c.13315-.22321.99599-.40583 1.9174-.40583 2.0688 0 1.927.19672-.39358.54592-1.2266.18459-1.692.14181-1.5238-.14009zm3.5074-.99144c-.68019-.30586-1.1618-.63368-1.0704-.72848.22715-.23534 2.9511.54836 3.3797.97238.54235.53652-.91641.38246-2.3093-.24389zm12.69-.52380c.96364-.80297 1.4485-.87198 2.9088-0.414l0.909.28508-0.909.22074c-.49995.12140-1.5635.32084-2.3634.44318l-1.4544.22244 0.909-.75743zm4.3632-.77419c-.45163-.30240-.42037-.36518.18180-.36518.39996 0 .97263.16433 1.2726.36518.45163.30240.42037.36518-.18180.36518-.39996 0-.97263-.16433-1.2726-.36518zm-31.269-5.6609c0-.52313 3.5697-2.2417 4.6662-2.2465 1.3347-.0058.73588.86596-1.0604 1.5438-2.477.93464-3.6057 1.1546-3.6057.70270zm22.361-1.7339c-1.1282-.43505-1.7492-.47133-2.7692-.16182-3.0658.93036-3.9848.0909-1.0181-.93001 1.9468-.66995 3.0423-.58917 5.3073.39134 1.0854.46986 1.2627.67087.83743.94945-.65678.43026-.57301.43911-2.3574-.24896zm13.453-5.627c-1.8347-1.0878-3.6627-1.911-6.6877-3.0115-.27860-.10135-.42816-.26549-.33236-.36475.48964-.50731 8.0691 2.9667 8.9952 4.123.62831.78438.56997.76232-1.9752-.74676zm-13.964-3.222c-1.4808-.17790-2.7898-.43221-2.9088-.56512-.30887-.34504 7.5274.22347 8.4607.61381 1.014.42409-1.8237.3992-5.5519-.04869zm-24.759-2.75c0-.81690.40352-1.726.76610-1.726.17858 0 .32470.50857.32470 1.1302 0 .75344-.18180 1.1302-.54540 1.1302-.29997 0-.54540-.24042-.54540-.53426zm23.561-5.5686c.33936-.35160.53328-.35160.87264 0s.2424.45206-.43632.45206-.77568-.10046-.43632-.45206zm-14.38-2.573c-.450-.187-.818-.534-.818-.770 0-.26234.24734-.32227.63630-.15416 2.1201.91631 2.6054 1.0254 3.512.78968 1.3753-.35763 2.7601-1.9995 2.7601-3.2725 0-1.6023-.86156-2.2322-3.0532-2.2322-2.2894 0-3.4916 1.0136-3.4916 2.9438 0 .66003-.16362 1.2001-.36360 1.2001-.55752 0-.43184-2.161.19922-3.4254.71853-1.4396 1.9748-1.9257 4.1901-1.6212 1.8463.25376 2.764.95885 2.8908 2.2212.17570 1.7495-.06722 2.5679-1.0709 3.6078-.89121.92336-1.3462 1.0973-2.8179 1.0773-.96528-.01315-2.1232-.17719-2.5732-.36458zm24.346.0249c-1.8548-.46665-2.6212-1.3993-2.6212-3.1898 0-2.8292 1.5979-3.999 4.396-3.2184 2.0151.56219 2.876 1.5547 2.876 3.3156 0 2.4054-2.0264 3.7528-4.6508 3.0926zm3.4456-1.209c1.7417-1.6953.42577-4.3318-2.355-4.7182-1.3002-.18069-1.7077-.07208-2.4537.65404-1.5254 1.4848-1.0494 3.8644.92344 4.616 1.2991.49490 3.068.24366 3.8853-.55185zm-4.1072-1.2254c-.10953-.29572-.14530-.93143-.07949-1.4127.15872-1.1607 1.5978-1.4193 1.9266-.34613.46358 1.5133-1.3118 3.2039-1.8471 1.7588zm-11.777 1.3107c-.45826-.33302-.40978-.43479.30343-.63696.54380-.15415.69617-.33837.42402-.51264-.29979-.19196-.25532-.33942.15106-.50099.31674-.12593.57589-.08575.57589.08929s.89972.39555 1.9994.49003c1.9864.17067 2.695.45739 2.2556.91264-.41909.43421-5.1493.56564-5.7094.15863zm-9.0172-.84839c-.55233-.57226-.56011-1.5293-.01702-2.092.56021-.58043 1.7623.08469 1.7623.97509 0 .64260-.64403 1.569-1.0908 1.569-.11999 0-.41450-.20343-.65448-.45206zm-6.049-10.273c-2.964-4.628-4.224-9.0357-3.626-12.685.219-1.337.521-2.0493.899-2.1241.621-.1225 3.225 1.8587 3.769 2.8674.187.3451-.269.0765-1.012-.5969-.743-.6733-1.495-1.2243-1.671-1.2243-.17596 0-.43156 1.2343-0.568 2.7428-.22630 2.5021-.14936 3.0063.87676 5.7449.61866 1.6512 1.7022 3.7519 2.408 4.6684.70572.91645 1.2278 1.8382 1.1602 2.0484-.30296.94168-.99359.49613-2.2353-1.4421zm6.9565.69008c-.57104-.59164-.10275-.84603 3.1096-1.6893 4.395-1.1537 10.442-1.1749 14.347-.05049 1.4416.41507 2.7096.66289 2.8179.55070.10828-.11219.19687-1.2548.19687-2.5392 0-1.9102.22880-2.8091 1.2571-4.9388 1.4334-2.9686 4.0605-6.0178 5.5092-6.3946 1.6596-.43157 2.0658.58302 1.8275 4.5646-.22033 3.6808-.87873 6.3258-2.073 8.3279-1.1803 1.9787-1.1389 1.5225.11347-1.2504 1.0183-2.2546 1.1592-2.9899 1.2992-6.7809.13170-3.5648.07065-4.2521-.37771-4.2521-.54683 0-1.544.97302-2.2514 2.197-.21773.37669-.91742 1.4939-1.5549 2.4827-.63744.98880-1.4415 2.7561-1.7868 3.9273-.34528 1.1712-.75118 2.2997-0.902 2.5077-.15083.20803-.32850.97088-.39484 1.6952-.14220 1.5529.01883 1.542-5.3928.36241-3.47-.75638-4.133-.79271-7.278-.39879-3.1458.39402-6.1759 1.0673-7.6485 1.6996-.31042.13327-.67856.12402-.81810-.02055zm-1.118-3.237c-.309-1.698-1.989-5.0853-3.576-7.2095-.864-1.157-.943-1.3639-.305-.8043 2.0568 1.8059 4.7772 7.4486 4.2997 8.9184-.08927.27475-.27735-.13212-.41795-.90413z"/>
  <path id="path3907" d="m48.316 96.171c-1.3999-.13812-3.1997-.59759-3.9996-1.0211-.79992-.42346-2.1089-.90545-2.9088-1.0711-.83446-.17278-1.1832-.36684-.81810-.45528.77637-.18805.81189-.60908.10282-1.2188-.42441-.36494-.88779-.31852-2.2665.22703-2.2445.88810-6.2327.83605-8.4715-.11055-1.3846-.58543-1.6486-.86539-1.7169-1.8208-.19228-2.6886 1.7486-6.147 4.2348-7.5461 1.9973-1.124 1.9781-1.0615.96535-3.1321-.51859-1.0603-.90867-2.0584-.86684-2.2179.22926-.87450-.57374-3.162-1.3173-3.7527-.61741-.49047-.92190-1.2087-1.0873-2.5648-.19127-1.5682-.15645-1.7574.20797-1.1302.24074.41439.92127 1.2242 1.5123 1.7995.97353.94771 1.1469.99614 1.8438.51487.94672-.65384 1.911-2.6035 2.2095-4.4673.12325-.76971 0.351-1.4807.50610-1.5801.15510-.09931.08807 1.1003-.14896 2.6657-.23804 1.5721-.65542 2.9936-.93238 3.1753-.39682.26041-.36869.33025.13488.33482.41995.0038.63630.30037.63630.87222 0 .47655.14351 1.0275.31890 1.2243.17540.19684.60688 1.2903.95884 2.4298.35196 1.1396.96102 2.75 1.3535 3.5788l.71353 1.5069-.93724-.94214c-.62101-.62426-1.1491-1.8316-1.5652-3.5784-.53740-2.2563-.66888-2.5006-.91201-1.6949-.22946.76040-.25129.70324-.11353-.29724.20834-1.513-.51172-1.9421-1.796-1.0703-.77177.52393-.84140.74888-.55360 1.7886.18106.65409.56225 1.4626.84709 1.7966.28484.33404.51611 1.0312.51394 1.5491-.0088 2.1079 4.7003 10.567 6.9977 12.569 1.0045.87573 1.4535.99237 3.8203.99237 1.4751 0 3.0877-.19151 3.5835-.42557.69725-.32915 1.5678-.28647 3.8423.18836 3.6403.75997 12.154.80042 16.016.0761 3.047-.57159 6.7506-1.9351 9.7929-3.6053l2.024-1.1112-1.4544 1.3375c-1.4174 1.3035-1.4359 1.3519-.72720 1.9027.52987.41177 1.4035.52776 3.2196.42748l2.4924-.13763-.96742.86216c-1.2079 1.0765-1.6737 1.0682-4.3639-.07757-2.0318-.86535-2.2588-.88867-3.7036-.38045-4.3077 1.5153-8.6537 2.1372-15.948 2.2822-3.9996.0795-6.8855.02057-6.4131-.13092.75616-.24251.65107-.33306-.87843-.75690-.98507-.27297-1.8293-.33616-1.9497-.14593-.11680.18452-.45780.43230-.75776.55061-.42436.16737-.39942.22171.11236.24484.36177.01635.55663.19926.43304.40646-.12815.21484.18812.37672.73604.37672.58003 0 .90372.17727.81683.44735-.19009.59083-.38962.60950-3.3709.31535zm-12.181-4.958c1.0999-.22452 2.2009-.46782 2.4467-.54067.28796-.08534-.04943-.90823-.94852-2.3134-.76750-1.1995-1.7435-2.8899-2.1688-3.7564-.42536-.86652-.91540-1.6664-1.089-1.7776-.70401-.45081-3.5299 1.934-4.5125 3.8081-1.1204 2.1371-1.2482 3.3423-.47538 4.4854.44874.66377.82958.75614 2.6361.63933 1.1614-.0751 3.0115-.32024 4.1114-.54475zm41.814 3.4411c0-.20720.23577-.37672.52394-.37672s.62506.16952.74866.37672c.12359.20719-.11218.37672-.52394.37672s-.74866-.16952-.74866-.37672zm-70.44-2.144c.35377-.09551.84463-.08923 1.0908.01398.24617.10319-.04328.18134-.64322.17366-.59994-.0077-.80135-.09211-.44758-.18762zm14.943.0011c-1.346-.27330-3.69-2.6958-4.6564-4.8122-.70298-1.5398-.93084-2.6413-.93084-4.5002 0-2.4688 1.2458-9.3347 1.8859-10.394.23445-.38786.26763-.21065.10581.56508-1.2827 6.1487-1.579 11.488-.75160 13.539 1.2688 3.1462 4.1549 5.0796 7.6919 5.1526 1.7533.0362 1.9532.09848 1.0669.33215-1.1874.31303-3.1843.36582-4.4117.11661zm-18.861-.872c-.3630-.416-.5929-.823-.5108-.905.082099-.08203.44324.25805.80254.75574.79351 1.0992.61696 1.1894-.29169.14915zm8.0921.50608c.24997-.10450.65902-.10450 0.909 0 .24997.10450.04545.19001-.45450.19001s-.70447-.08551-.45450-.19001zm1.9675-1.8225c-.03767-.82878-.15268-1.9307-.25558-2.4487l-.18709-.94179.39095.92832c.21503.51058.33004 1.6125.25558 2.4487l-.13538 1.5203-.06849-1.5069zm-11.103-.768c-.1247-.336-.2127-.895-.1955-1.24.017187-.34564.17540-.12840.35158.48277.34275 1.189.22153 1.7774-.15611.75781zm42.133-.536c-1.1184-.74483-3.0052-2.9495-4.5257-5.2884-0.967-1.4874-.95282-1.4738 3.2458 3.1079 1.4715 1.6058 2.6069 2.9167 2.5231 2.9132-.08379-.0034-.64321-.33324-1.2431-.73277zm43.437-1.6154c.96116-1.4973 3.8038-7.3788 4.1633-8.6139.14380-.49405.34218-.69790.44084-0.453.30638.76050-2.023 6.2345-3.5377 8.3134-1.5875 2.1788-2.3084 2.6882-1.0665.75344zm-69.172-1.319c-.10746-.98418-.0519-2.0437.12346-2.3545.20750-.36777.32269.25703.32988 1.7894.0061 1.295-.04947 2.3545-.12346 2.3545-.07398 0-.22243-.80523-.32988-1.7894zm65.214-.317c2.233-2.4789 3.7117-4.5314 4.6566-6.4635.85862-1.7557 1.3145-2.1479.76905-.66158-.80474 2.193-4.2862 6.9841-5.9142 8.139-1.017.72144-.95060.58370.48854-1.0139zm-82.131-.719c-.048649-2.0443.73248-6.8072 1.1901-7.2564.15571-.15286.15444.14588-.00284.66387-.15727.51799-.26777 2.0861-.24555 3.4846.022216 1.3986-.10449 2.5428-.28158 2.5428s-.38797.55095-.46862 1.2243c-.10345.86372-.15985.66954-.19147-.65926zm9.3415-4.8829c-.71226-2.8202-1.1729-4.9943-1.0237-4.8313.37541.41002 2.5924 9.1083 2.4413 9.5781-.06739.20947-.70528-1.9266-1.4175-4.7468zm-4.1206 3.5984c-.34633-.58059.20402-1.5409.88310-1.5409.93963 0 1.6913 1.0412 1.1537 1.5982-.31881.33032-.42091.23506-.42091-.39268 0-.50138-.22513-.82878-.56990-.82878-.40444 0-.50289.21875-.33910.75344.22940.74885-.31615 1.0658-.70692.41071zm-3.4459-.630c.017446-.43886.10360-.52812.21967-.22760.10503.27194.092115.59686-.028706.72204s-.20676-.09732-.19097-.49444zm16.696-2.363c0-.22059.31514-.70434.70031-1.075 1.0277-.98897 4.7429-3.2594 4.962-3.0323.10346.10720-.56206.65041-1.4789 1.2071-.91689.55672-2.2332 1.5273-2.9252 2.1567-.69198.62949-1.2581.96405-1.2581.74346zm6.1812-.43042c0-.20719.17328-.37672.38506-.37672s.28393.16952.16034.37672-.29687.37672-.38506.37672-.16034-.16952-.16034-.37672zm9.7021-.89747c-.13669-.36906-.23816-.95382-.22548-1.2995.01527-.41623.14155-.32131.37398.28107.19301.50023.29448 1.085.22548 1.2995-.069.21447-.23729.08799-.37398-.28107zm-31.399-2.284c-.5942-1.291-.6749-1.341-1.139-.705-.47538.65063-.49329.64726-.37095-.06979.070701-.41439.36256-.75344.64858-.75344.56578 0 2.0523 2.3474 1.7107 2.7014-.11533.11949-.49748-.40804-.84924-1.1723zm2.8533-.184c1.214-1.5852 1.9726-1.7783.81645-.20782-.53130.72171-1.1227 1.3122-1.3141 1.3122-.19145 0 .032491-.49697.49765-1.1044zm20.957.0936c.26247-.10882.57608-.09544.69690.02972.12082.12518-.09393.21422-.47722.19786-.42357-.01808-.50973-.10734-.21968-.22760zm-8.3155-2.0434c-.29656-.57412-.30010-.90782-.0128-1.2055.28731-.29768.39728-.18836.39728.39493 0 .99398.64602 1.4625 1.2103.87785.31731-.32875.29925-.51211-.07398-.75110-.36782-.23553-.39647-.49576-.11231-1.0203.35757-.66005.39681-.66281.62691-.04402 0.135.36306.14289 1.0835.01752 1.6011-.28406 1.1727-1.479 1.2583-2.053.14707zm6.9293-1.0897c-.27816-.53851-.27482-.97485.01174-1.5296.48948-.94761 1.5758-.81192 1.7246.21541.09931.68588.07512.69346-.28659.08986-.21728-.36259-.57782-.65926-.80119-.65926s-.29847.11155-.16688.24788c.13158.13633.06924.46010-.13853.71950-.27544.34386-.15418.63388.44766 1.0706.65490.47526.69869.59902.21193.59902-.33743 0-.78864-.33905-1.0027-.75344zm-7.9992-1.4146c0-.20720.24543-.58776.54540-.84569.30424-.26160.54540-.30240.54540-.09225 0 .20720-.24543.58776-.54540.84569-.30424.26160-.54540.30240-.54540.09225zm71.15-2.918c-.810-9.265-2.302-14.428-6.271-21.703-.68733-1.2599-1.2497-2.3651-1.2497-2.4561 0-.09098.34579.02633.76843.26067 1.1714.64954 5.2889 9.8484 6.3523 14.192.76295 3.1161.88359 4.3841.79777 8.3845l-.10111 4.7131-.29646-3.3905zm4.2866 1.3185c.84604-7.5788.51934-16.745-.76454-21.45-.67886-2.4881-2.3688-5.9794-4.8357-9.9901-1.807-2.9378-2.1955-3.971-1.4934-3.971.39860 0 1.1605 1.3223 1.0223 1.7741-.05012.16379.42501 1.0708 1.0558 2.0157 1.8763 2.8103 4.0882 7.6702 4.9149 10.799.68180 2.5805.77749 3.9818.80444 11.782.02236 6.4663-.09391 9.1068-.43126 9.7947-.42403.86466-.44635.80296-.27261-.75344zm-76.295-.111c-.11503-.47484-.31334-1.8734-.44069-3.1079l-.23155-2.2446.91187 1.3396c1.0462 1.537 1.2365 2.3802.86652 3.8402-.31953 1.2611-.82343 1.3397-1.1061.17262zm2.5119.12957c.56987-.58909 3.0724-1.5631 3.0724-1.1958 0 .18748-.65779.61356-1.4618.94685-1.6703.69243-2.1046.75956-1.6107.24891zm8.3244-3.5775c-.13689-.75602-.15799-1.4688-.04689-1.5839.11110-.11511.314.40927.45089 1.1653.13689.75602.15799 1.4688.04689 1.5839-.11110.11511-.314-.40927-.45089-1.1653zm7.7945-1.9359c-.02367-.18993-.000218-.51485.05214-.72204.05236-.20720.13727-1.4402.18868-2.7401.05718-1.4457.33359-2.7431.71184-3.3412.40366-.63830.54436-1.3611.40524-2.0818-.16285-.84364.18311-1.9215 1.4668-4.5699.92395-1.9062 1.985-3.6874 2.3579-3.9581.37291-.27074.67802-.72122.67802-1.0011 0-1.0404 6.4415-6.2105 7.7568-6.2259.61180-.0071-.0011.87584-.67971.97901-.38549.05862-.75487.27439-.82086.47948-.06599.20510-.92796.91009-1.9155 1.5667-.98754.65657-1.7955 1.4041-1.7955 1.6612 0 .25708-.36532.79036-.81183 1.1851-.80372.71048-.80645.71012-.27270-.03579.50258-.70236.49488-.71742-.11371-.22218-.35906.29219-.57332.74598-.47611 1.0084.19046.51424-.62252 1.4174-.96059 1.0671-.11256-.11662-.32392.3506-.46969 1.0383-.14577.68766-.99047 3.195-1.8771 5.5718s-1.9209 5.6612-2.2984 7.2986c-.64608 2.8026-1.0272 3.8327-1.1257 3.0425zm4.1249-6.4006c.34520-.37446.72736-.57752.84924-.45125.12188.12628-.16056.43266-.62764.68084-.81186.43139-.82162.42128-.22160-.22959zm1.7358.23585c.29997-.21171 1.0363-.39012 1.6362-.39646.83897-.0089.96488-.09584.54540-.37672-.46610-.31208-.45288-.36602.0909-.37095.63738-.0058.87605.56155.36360.86432-.14998.08862-.92718.27443-1.7271.41293-1.0423.18046-1.2998.14273-0.909-.13311zm3.9314-.65380c.26247-.10882.57608-.09544.69690.02972.12082.12518-.09393.21422-.47722.19786-.42357-.01808-.50973-.10734-.21968-.22760zm-17.37-.42532c-.02745-.93266 3.2481-10.838 3.8281-11.576.57410-.73070.57716-.73054.30886.01544-.14904.41439-.28511 1.1936-.30238 1.7315-.01727.53794-.20576 1.216-.41886 1.5069-.21310.29084-.84543 1.9697-1.4052 3.7309-1.0572 3.3264-1.9854 5.446-2.0106 4.5914zm30.346-.3394c-.39996-.09967-.89082-.35335-1.0908-.56372-.45449-.47811 1.2901.0046 1.7998.49796.18998.18391.27179.31471.1818.29068s-.49086-.12525-.89082-.22493zm-22.355-.369c.0029-.16762.16418-.55906.35803-.86985.30375-.48698.35323-.47703.35803.07195.0029.35036-.15805.74180-.35803.86985s-.36109.09568-.35803-.07194zm34.333-.69347c.38818-.30420.87904-.54771 1.0908-.54112.21175.0066.0674.26088-.32079.56508-.38818.30420-.87904.54771-1.0908.54112-.21175-.0066-.0674-.26088.32079-.56508zm-26.38-6.979c.50820-.43851 1.1438-.65917 1.5316-.53167.36453.11987.99621.03308 1.4037-.19289.42132-.23362.74093-.25852.74093-.05772 0 .42745-2.1441 1.2487-2.5618.98124-.16319-.10449-.39948-.01771-.52509.19287-.12561.21057-.50506.37722-.84322.37033-.49591-.0101-.44679-.15753.25394-.76216zm21.796-.99893c-1.0453-.16595-1.755-1.2401-.81940-1.2401.59593 0 2.6975 1.0348 2.6975 1.3282 0 .18448-.22912.17374-1.8781-.08807zm-5.258-.408c.37957-.63631 2.7527-1.0047 3.2374-.50253.30314.31408.06829.42392-.90642.42392-.72357 0-1.6012.11357-1.9504.25238-.42278.16809-.54988.11005-.38058-.17377zm20.318-.16167c-.44995-.22484-.81810-.56383-.81810-.75333 0-.45311 1.4902.02 2.1686.68846.46748.46067.46748.52154 0 .49915-.29283-.01401-.90056-.20945-1.3505-.43428zm-3.5451-.29366c.12360-.20720.50140-.37412.83956-.37095.52986.005.53946.05624.06944.37095-.71206.47677-1.1934.47677-0.909 0zm-44.542-3.345c0-.20720.16362-.48149.36360-.60954s.36360-.0633.36360.14390-.16362.48149-.36360.60954-.36360.0633-.36360-.14390zm46.337-1.351c-.38818-.30420-.54217-.55309-.34219-.55309s.68120.24889 1.0694.55309c.38818.30420.54217.55310.34219.55310s-.68121-.24889-1.0694-.55310zm-44.875-.437c.0043-.18076.49547-1.261 1.0914-2.4006.59596-1.1396 1.2732-2.4534 1.5049-2.9196.23173-.46619.55868-.84762.72656-.84762s.30683-.38143.30879-.84762c.0018-.46619 0.411-1.7544 0.909-2.8628 1.2349-2.7483 1.1982-3.1049-.27385-2.6675-1.3526.40192-1.9454.44849-1.6366.12861.11775-0.122.91577-.38516 1.7734-.58480 1.6442-.38276 2.4969-.91394 2.4969-1.5554 0-.25146-1.1098-.30769-3.1815-.16118-2.3708.16766-2.9499.12541-2.2725-.16577.49995-.21492 2.1609-.48375 3.6911-.59742 2.372-.17620 2.8339-.32404 3.1336-1.003.51791-1.1732 3.3173-4.7519 3.7172-4.7519.18930 0-.07653.63571-.59075 1.4127-.51421.77698-1.3357 2.3434-1.8256 3.4808-.48987 1.1375-1.2012 2.4106-1.5807 2.8292-.89734.98964-2.5452 4.8599-2.5452 5.9778 0 .53553-.31485 1.0215-.81810 1.2626-.44995.21561-1.3626 1.3829-2.0281 2.594-.90252 1.6425-1.0174 2.0215-.45227 1.4916 1.1514-1.0796 1.2746-.46488.17754.88598-.53305.65635-1.0565 1.1029-1.1632.99236-.10670-.11055-.41358-.01221-.68196.21858-.26838.23076-.48442.27168-.48009.09091zm41.715-1.109c-1.4098-.7924-1.2501-1.0659.1818-.31137 1.3706.72219 1.6132.90937 1.1514.88847-.18332-.0083-.78325-.26799-1.3332-.57710zm-25.725-1.2914c.71206-.47677 1.1934-.47677 0.909 0-.12359.20720-.50140.37412-.83956.37095-.52986-.005-.53946-.05624-.06944-.37095zm1.4544-.52477c0-.08143.25393-.24901.56428-.37240.32357-.12864.46952-.06549.34214.14805-.21353.35796-.90642.52946-.90642.22435zm32.938-8.076c-.50959-1.0419-1.0933-2.0012-1.297-2.1316-.20378-.13049-.37052-.57161-.37052-.98028s-.24449-.84023-.54331-.95904c-.29882-.11880-.45575-.36279-.34874-.54219.28038-.47002-.65320-2.1922-2.7803-5.1288l-1.8582-2.5655 1.5199 1.5069c.83597.82878 2.1097 2.4919 2.8305 3.6957l1.3106 2.1889 2.3891-.23403c1.314-.12872 2.8799-.30232 3.4799-.38578l1.0908-.15174-1.0908.35296c-.59994.19413-2.0316.53904-3.1815.76646-1.3837.27367-2.0907.59554-2.0907.95186 0 .4273.73137.54611 3.5451.57592 3.8965.04127 3.4372.61252-.54540.67833-1.2499.02064-2.27.16469-2.2669.32009.01702.86337.86504 1.2643 3.2902 1.5554l2.7036.32459-2.6489.04887c-2.5666.04736-2.6363.07328-2.243.83458.22322.43213.32178.87280.21904.97925s-.60375-.65892-1.1133-1.7008zm-49.663-.81755c.29997-.20085.70902-.36518 0.909-.36518s.11817.16433-.1818.36518-.70902.36518-0.909.36518-.11817-.16433.18180-.36518zm17.25-1.8794c2.494-.49736 3.9202-3.2345 2.6346-5.0561-.59902-.84876-3.4702-1.2329-4.5869-.61376-.44372.24604-1.1125 1.1553-1.4862 2.0205l-.67947 1.5732.20922-1.3185c.11507-.72518.55540-1.7159.97850-2.2016.68666-.78825 1.0181-.86694 3.0857-.73268 2.6604.17274 3.3242.75656 3.3112 2.9121-.01294 2.1484-1.759 3.8356-3.8767 3.746-.83774-.03545-.76324-.09528.40996-.32925zm23.455-.38734c2.9592-.72181 2.8849-4.1248-.11978-5.4797-.72320-.32611-.89550-.51717-.47484-.52657 0.829-.01852 2.1117.67702 2.6915 1.4595 1.2981 1.7517-.14257 4.96-2.1964 4.8914l-1.1553-.03856 1.2548-.30607zm-3.5315-.24445c-.25226-.10530-.64261-.55810-.86744-1.0062-.37834-.75410-.33064-.74464.64046.12701.57709.51799 1.1174.98418 1.2007 1.036.26539.16498-0.497.04225-.97376-.15675zm-10.085-.489c-.67568-.28688-.65469-.33838.29637-.72696 1.2571-.51364 2.4356-.52697 3.1578-.03572 1.2481.84886-1.7119 1.5024-3.4542.76268zm-10.231-1.333c-.31909-.86155.12793-1.6952 0.909-1.6952.38484 0 .79388.25428 0.909.56508.31909.86155-.12793 1.6952-0.909 1.6952-.38484 0-.79389-.25428-0.909-.56508zm21.097.022c-.51978-1.4034.96928-3.2589 1.6804-2.094.56522.92591-.20020 2.6111-1.1952 2.6313-.15626.0032-.37462-.23861-.48525-.53730zm-1.594-2.381c0-.43180.98847-1.5966 1.3549-1.5966.11670 0-.09777.38143-.47660.84762s-.73142.91825-.78355 1.0046c-.05213.08633-.09478-.0287-.09478-.25563zm-25.549-8.283c-2.1208-3.6514-2.7844-5.3066-3.2004-7.9831-.35568-2.2883.0072-5.6015.58016-5.2962.19444.10360.35353 1.7141.35353 3.5788 0 3.2395.06964 3.5354 1.5641 6.646.86027 1.7906 1.8829 3.5544 2.2725 3.9197.69896.65537.983 2.0543.41711 2.0543-.16019 0-1.0543-1.3138-1.987-2.9196zm7.3687 1.0956c0-.35772 1.6921-.90816 4.9086-1.5967 4.1235-.88275 10.943-.41768 14.451.98555.45581.18233.73031.0043.97685-.63340.31866-.82431.34452-.79763.36594.37765.01934 1.0622-.07882 1.2206-.61325.98975-.34996-.15119-2.1907-.61093-4.0905-1.0216-4.1145-.8895-8.4097-.73941-12.875.44990-3.3287.88659-3.1233.85707-3.1233.44894zm26.543-1.7108c0-.40429 1.0818-2.4927 1.2913-2.4927.09999 0-.08864.55095-.41918 1.2243-.67492 1.375-.87209 1.6618-.87209 1.2684zm-5.985-2.8299c.22045-2.1704 1.4366-5.0999 1.9742-4.7557.17849.11430.44293.00933.58764-.23326.164-.2758.105-.3405-.157-.1726-.882.5643-.361-.4932 1.076-2.1839 1.429-1.6827 3.461-3.1295 3.841-2.7358.09853.10209-.16294.37530-.58105.60714s-1.7262 1.9832-2.907 3.8919c-1.1807 1.9087-2.407 3.767-2.7251 4.1296-.31810.36259-.58987.95592-.60393 1.3185-.01407.36259-.17997.99830-.36871 1.4127-.23947.52579-.28078.13936-.13672-1.279zm-22.85-1.3628c-.33257-.72258-.52972-1.3138-.4381-1.3138.24880 0 1.3526 2.3066 1.1862 2.4789-.07889.08174-.41555-.44258-.74812-1.1652zm30.737-1.6907c0-.72518.07483-1.0218.16628-.65926.09145.36259.09145.95592 0 1.3185-.09145.36259-.16628.06593-.16628-.65926zm.37827-3.7672c0-.93238.07091-1.3138.15757-.84761.08667.46619.08667 1.229 0 1.6952-.08666.46619-.15757.084761-.15757-.84761zm-36.374-1.8946c-.653-.6155-1.052-1.1191-.886-1.1191.16572 0 .77158.50857 1.3464 1.1302 1.3364 1.4452 1.0783 1.439-.46024-.011042z"/>
  <path id="path3905" d="m48.316 95.82-1.0908-.25242 0.909-.26294c1.28-.37026 1.5352-.33680 1.2375.16230-.18572.31134.06735.36773.88754.19778.65978-.13672 1.1473-.08167 1.1473.12955 0 .40499-1.4013.41666-3.0906.02573zm-4.545-1.149c-1.3-.538-2.415-1.228-2.479-1.534-.267-1.287-.954-1.544-2.268-.847-1.7143.90994-8.0881 1.2141-7.7759.37112.13801-.37262.95748-.63488 2.4564-.78614 3.8129-.38476 5.3399-.67648 5.3399-1.0201 0-.18141-.55029-1.2231-1.2229-2.3149-.67257-1.0918-1.657-2.8751-2.1877-3.9629-.53067-1.0878-1.1354-1.9778-1.3438-1.9778-.20842 0-.28516-.15720-.17056-.34932.11460-.19213-.12117-1.2155-.52394-2.2743-.40277-1.0587-.72698-2.3848-.72046-2.947.0098-.84474.14221-.69529.76331.86156 2.9905 7.4959 4.7904 10.8 7.4541 13.685l2.2299 2.4151 2.4968-.19355c1.3733-.10645 2.865-0.316 3.3149-.46566 1.5569-.51785.81037.41610-1.0908 1.3646l-1.9089.95237-2.3634-.97824zm12.354.01706c-2.2248-.32394-5.9587-1.511-5.6756-1.8044.09954-.10314.80553.04128 1.5688.32092 1.0002.36642 3.5714.50844 9.2052.50844 8.8769 0 10.407-.27890 15.596-2.8419 3.0439-1.5036 4.3621-1.7995 2.2454-0.504-.61378.37566-1.116.79757-1.116.93760 0 .38535 2.8026 1.4666 3.8015 1.4666.48288 0 1.3386-.17045 1.9015-.37877l1.0236-.37877-.85838.75549c-1.1039.97160-2.5549.95672-4.8122-.04936l-1.805-.805-2.625.806c-5.521 1.697-14.055 2.607-18.449 1.967zm-33.261-2.267c-0.6-.150-1.464-.480-1.921-.734-.875-.488-2.988-3.275-2.988-3.943 0-.21636.39555.16210.87901.84103 1.2311 1.7289 2.8831 2.9045 4.7752 3.3981 1.6355.42668 2.151.82024.98148.74937-.34996-.02121-1.1272-.16130-1.7271-.3113zm6.2721-.28654c-.34996-.09475-.63630-.32937-.63630-.52137 0-.53222.58411-.41657 1.0908.21598.24895.31079.39170.54541.31722.52138s-.42175-.12123-.77172-.21598zm-15.487-2.377c0-.51799.08253-.72989.18339-.47090.10087.25899.10087.68280 0 .94180-.10087.25899-.18339.04709-.18339-.47090zm30.632-1.1885-.69265-.81175.99990.66672c1.031.68746 1.226.95678.69265.95678-.16899 0-.61894-.36529-.99990-.81175zm-15.759.13749c-.03156-.66530 1.3196-3.3536 1.8592-3.6991.24103-.15434.08651.30902-.34337 1.0297-.42989.72067-.94162 1.7254-1.1372 2.2328-.19557.50739-.36595.70386-.37863.43662zm13.766-2.2453-.88148-1.036.99990.91328c.93455.8536 1.1666 1.1587.88148 1.1587-.06513 0-.51508-.46619-.99990-1.036zm-25.019.03081c-.0232-.24205-.14807-.75062-.27749-1.1302-.18258-.53542-.13419-.59350.21590-.25918.24817.23698.37304.74555.27749 1.1302-.09555.38460-.19270.50123-.21590.25918zm67.204-1.0213c.68916-.75020 1.3104-1.364 1.3805-1.364.30904 0-1.2498 1.856-1.9063 2.2697-.39996.25204-.16334-.15555.52582-.90574zm5.4812-.99432c.65660-1.3429 1.505-3.2892 1.8853-4.3252.56556-1.5405.65377-1.6465.48426-.58206-.25755 1.6172-2.2967 6.2596-3.0243 6.8853-.29653.25498-.0018-.63513.65467-1.978zm-70.881 1.2942c.01745-.43886.10360-.52812.21967-.22760.10503.27194.09212.59686-.02869.72204-.12082.12518-.20676-.09732-.19097-.49444zm-17.037-1.099c.00373-.82878.13168-2.0154.28434-2.637.24913-1.0144.27825-.95648.28434.56508.00373.93238-.12422 2.119-.28434 2.637-.24782.80174-.29010.71770-.28434-.56508zm14.927-1.6952c0-.93238.07091-1.3138.15757-.84762.08667.46619.08667 1.229 0 1.6952-.08666.46619-.15757.08476-.15757-.84762zm-9.7189.40275c-.11505-.19288-.0429-.45717.16034-.58731s.36953.02765.36953.35069c0 .66172-.21818.75915-.52987.23662zm79.831-1.045c.26476-.45677.55963-.74939.65529-.65029.09565.09911-.12096.47282-.48137.83048-.62610.62132-.63384.61329-.17392-.18020zm-75.636-1.838c.01745-.43886.10360-.52812.21968-.22760.10503.27194.09212.59686-.02871.72204-.12082.12518-.20676-.09732-.19097-.49444zm26.588.12347c-.20839-.26015-.47483-.98063-.59210-1.601-.11726-.62043-.10797-.87376.02065-.56297.12863.31079.46104 1.0313.73871 1.601.53517 1.0982.46112 1.3475-.16727.56297zm-20.937-.939c.34246-1.479.50118-1.5287.50118-.15697 0 .65612-.16674 1.1929-.37052 1.1929-.21996 0-.27305-.42097-.13065-1.036zm-14.377-.314c.017446-.43886.10360-.52812.21967-.22760.10503.27194.092115.59686-.028706.72204-.1208.126-.2067-.097-.1910-.494zm86.376-.722c.11511-.31079.27359-.56508.35219-.56508.07859 0 .14290.25428.14290.56508 0 .31079-.15848.56508-.35219.56508-.1937 0-.25801-.25428-.14290-.56508zm-84.196-1.972c-.44630-1.0149-.46493-1.0201-1.017-.28413-.49428.65892-.53442.66614-.33163.0596.12689-.37954.23072-.76096.23072-.84762 0-.08665.15985-.15755.35522-.15755.42096 0 1.6383 1.8273 1.3893 2.0853-.094594.09801-.37657-.28701-.62662-.85560zm3.2453.08882c.46968-.51799.93577-.94179 1.0358-.94179.09999 0-.20248.42381-.67216.94179-.46968.51799-.93577.94179-1.0358.94179-.09999 0 .20248-.42381.67216-.94179zm24.361-1.453c0-.31056-.39974-.89042-.88830-1.2886-.48857-.39818-.98975-1.2157-1.1137-1.8168-.18709-.90688-.15587-.97929.18345-.42562.22489.36695.55115.57609.72502.46475.40504-.25936.82302.44079.87289 1.4621.04355.89188 1.1384 1.1191 1.1144.23131-.0084-.31079.35974-.94045.81810-1.3992.79746-.79821.83337-.80227.83337-.09418 0 .40699.16362.73998.36360.73998.76704 0 .31395.68334-.75816 1.1434-.61697.26478-1.3533.72126-1.6362 1.0144-.44351.45951-.51443.45515-.51443-.03164zm62.421-4.3865c.12681-.93238.35267-4.1533.50192-7.1576l.27136-5.4624-.10822 6.0275c-.05952 3.3151-.28539 6.5361-.50192 7.1576-.35273 1.0126-.36971.95376-.16314-.56508zm-4.1842-1.2702c-.22532-6.7653-1.8677-12.749-5.5415-20.188-.96798-1.9601-1.6936-3.6325-1.6126-3.7165.55593-.57599 5.209 9.5037 6.2078 13.448.68557 2.7071 1.3448 8.8803 1.1542 10.808-.13962 1.412-.14967 1.3951-.20784-.35145zm-72.286.70424c-.26195-.70725.13744-2.4478.56168-2.4478.34908 0 .69936 1.8885.47793 2.5768-.19831.61639-.79078.54291-1.0396-.12894zm19.358-9.0781c-.12940-.34938-.15347-0.72-.05348-.82360s.28768.0975.41708.44689c.12940.34938.15347 0.72.05348.82360s-.28768-.0975-.41708-.44688zm.69084-2.411c-.12360-.20720-.05144-.37672.16034-.37672s.38506.16952.38506.37672-.07215.37672-.16034.37672-.26146-.16952-.38506-.37672zm.58538-2.5428c.06381-1.5538 1.0894-4.3582 2.6823-7.3346.73291-1.3694.82697-.60206.19237 1.5695-.83659 2.8628-2.564 7.5545-2.7814 7.5545-.09172 0-.13370-.80523-.09328-1.7894zm-9.1189.57615c-.02702-.66331 2.9569-9.5431 3.3234-9.8899.29634-.28048.33422-.17975.13790.36673-.14887.41439-.84354 2.5334-1.5437 4.709-1.1865 3.6866-1.8914 5.4563-1.9176 4.8142zm65.137-2.0522c-.03494-.86363-.15769-1.8808-.27278-2.2603-.19662-.64841-.18440-.64998.20248-.02599.22645.36525.3492 1.3824.27278 2.2603l-.13896 1.5962-.06352-1.5702zm-27.879-6.53c-.12359-.20720.02072-.37672.32068-.37672.29997 0 .64652.16952.77011.37672.12359.20719-.02072.37672-.32068.37672-.29997 0-.64652-.16952-.77011-.37672zm15.271-.37672c-.59282-.26393-.61358-.32866-.11236-.35024.33816-.01458.71596.14304.83956.35024.25840.43318.24576.43318-.72720 0zm10.51-1.9706c-.381-.880-1.47-2.836-2.42-4.347-.94990-1.5104-1.7229-2.9528-1.7178-3.2054.0051-.25258.58982.47313 1.2993 1.6127 1.5595 2.5047 3.8859 7.1753 3.6802 7.3884-.08153.08447-.46018-.56713-.84143-1.448zm-49.597.95632c0-.50315 3.2048-3.5063 3.7417-3.5063.20183 0-.29469.49659-1.1034 1.1035-.80869.60694-1.7331 1.4923-2.0543 1.9674-.32120.47513-.58401.67104-.58401.43535zm-6.5448-6.3365c0-.39867 1.8631-3.5584 2.2408-3.8002.19464-.12464-.06318.62614-.57294 1.6684-.83040 1.6978-1.6679 2.7683-1.6679 2.1318zm50.767-3.8745c-.0986-.16529-.04403-.52724.12126-.80433.23235-.38951.39478-.32134 0.716.30053.33702.65245.31412.80433-.12126.80433-.29520 0-.61740-.13524-0.716-.30053zm-47.989-1.018c-.12672-.34214-.0015-.56508.31777-.56508.57658 0 1.1121-1.6076.74209-2.2278-.12699-.21288.04285-.93552.37743-1.6059.47048-.94262.50334-1.2551.14505-1.3788-.25480-.088.05082-.38395.67914-.65767 2.0666-.90030 1.3891-1.3789-1.7435-1.2315-1.8888.08887-2.6788.01571-2.2866-.21174.32965-.19114 1.7279-.38382 3.1073-.42817l2.5079-.08065 1.4619-2.3047c.80402-1.2676 1.6155-2.3047 1.8032-2.3047.18773 0 .02516.46619-.36126 1.036-.38643.56978-.92727 1.6888-1.2019 2.4867-.27461.79792-.87961 1.8448-1.3445 2.3264-.96721 1.0021-2.9572 5.599-2.9719 6.8651-.01102.95078-.90841 1.1566-1.2321.28254zm46.672-4.3545c0-.21942.16362-.29418.36360-.16612.19998.12805.36360.30758.36360.39895s-.16362.16612-.36360.16612-.36360-.17953-.36360-.39895zm-47.268-1.108c.29997-.20085.70902-.36518 0.909-.36518s.11817.16433-.18180.36518-.70902.36518-0.909.36518-.11817-.16433.18180-.36518zm45.964-.72204c-.52486-.54802.14289-.78483 2.2131-.78483 1.2999 0 2.3634.15446 2.3634.34326 0 .33664-4.2813.74973-4.5765.44157zm-20.787-1.412c-.86311-.36053-.04429-.87988 1.3872-.87988 1.56 0 1.9244.52909.61484.89271-.93526.25968-1.3561.25699-2.0021-.01283zm20.058-.44384c-.18185-.13623-.71509-1.0922-1.185-2.1245-.46989-1.0322-1.3667-2.558-1.9928-3.3905-.62616-.83251-.82720-1.2594-.44676-.94858.38044.31079 1.4191 1.7274 2.3082 3.148l1.6165 2.583 2.7752-.20409 2.7752-.20409-2.2146.47738c-1.2181.26256-2.46.57495-2.76.69419-.29993.11925-.69411.10535-.87595-.03087zm-30.816-.983c-.32714-.88328.11620-1.7137.91489-1.7137.56226 0 .68819.21772.59740 1.0328-.12735 1.1431-1.1676 1.6116-1.5123.68097zm20.85-.69960c0-1.1263.94614-2.0681 1.5006-1.4937.65730.68102.21666 2.1628-.68249 2.2952-.65718.0967-.81810-.06095-.81810-.80149zm5.0373-.07233c-.11422-.62158-.32304-1.4692-.46404-1.8836-0.141-.41439.0096-.27751.33472.30417.32510.58168.53392 1.4293.46404 1.8836-.10579.68771-.16182.63679-.33473-.30417zm-29.035-1.571c0-.48119 1.3956-1.8174 1.637-1.5673.09798.10151-.23027.58208-.72943 1.0679-.49916.48586-.90756.71058-.90756.49938zm2.477-1.5115c.26247-.10882.57607-.09544.69690.02974.12082.12518-.09393.21422-.47722.19786-.42357-.01807-.50973-.10734-.21968-.2276zm1.818 0c.26247-.10882.57607-.09544.69690.02974.12082.12518-.09393.21422-.47722.19786-.42357-.01807-.50973-.10734-.21968-.2276zm-6.969-6.566c-2.28-3.574-3.273-6.483-3.439-10.069-.08441-1.8259.0085-3.3026.22182-3.5235.24709-.25601.35794.79695.33903 3.2206-.02658 3.4072.04276 3.7495 1.2886 6.3612.72417 1.5181 1.7419 3.4094 2.2616 4.2029.51970.79344.89648 1.5696.83729 1.7247-.05919.15515-.73853-.70719-1.5097-1.9163zm7.9211.58082c.94283-.71429 3.9554-1.3294 7.2977-1.49l2.9088-.13977-2.754.35774c-1.5147.19676-3.9576.67445-5.4288 1.0615-1.8295.48137-2.469.54788-2.0237.21048zm19.296-.16123c.12359-.20720.29687-.37672.38506-.37672s.16034.16952.16034.37672-.17328.37672-.38506.37672-.28393-.16952-.16034-.37672zm-5.09-.645c-.39996-.09967-.86969-.32088-1.0438-.49156-.17415-.17068.39385-.14494 1.2622.05721.86837.20215 1.6517.44302 1.7407.53526.19856.20573-.97025.14553-1.9591-.10091zm5.6358-4.5603c0-.45528.68982-.98609.94198-.72484.09152.09482-.08299.38684-.38779.64893-.34556.29714-.55419.32571-.55419.07592zm1.231-2.3338c.030-.6240.161-1.0902.291-1.036.13018.054211.67846-.32524 1.2184-.84323.96322-.92404.95976-.90452-.18369 1.036-.64098 1.0878-1.214 1.9778-1.2735 1.9778-.05943 0-.08328-.51054-.05299-1.1345zm.58703-2.0214c0-.078228.28633-.37489.63630-.65926.57669-.46859.58955-.45526.13728.14223-.47499.62752-.77358.82708-.77358.51702zm6.2386-.98792c0-.51799.08253-.72989.18340-.47090s.10087.68280 0 .94179-.18340.04709-.18340-.47090zm-36.101-2.1662c-.45227-.59750-.43941-.61082.13728-.14223.60566.49213.79827.80149.49902.80149-.0755 0-.36184-.29667-.63630-.65926z"/>
  <path id="path3903" d="m44.134 94.622c-0.9-.420-2.132-1.26-2.739-1.867l-1.1029-1.1037-1.9417.76440c-1.4072.55397-2.6049.73402-4.351.65406l-2.4094-.11033 3.2724-.70298c1.7998-.38664 3.6405-.72569 4.0905-.75344 1.034-.06376 1.026-.30168-.05434-1.632-1.953-2.406-5.705-10.269-5.656-11.856.0084-.27627.39210.43006.85255 1.5696 2.5003 6.1881 5.7656 11.602 8.1158 13.457 1.1722.92520 1.5941 1.0353 3.6483.95213 1.2776-.05173 2.6534-.27737 3.0575-.50142.40406-.22405.81830-.32069.92054-.21476.19591.20298-2.1007 1.4968-3.3388 1.881-.40015.12416-1.4631-.11782-2.3634-.53805zm10.747-.29474c-.58866-.13088 2.1929-.23797 6.1812-.23797s6.5152.11458 5.6153.25462c-2.0351.31669-10.35.30495-11.796-.01665zm-2.0885-.68367c.26247-.10882.57607-.09544.69690.02972.12082.12518-.09393.21422-.47722.19786-.42357-.01808-.50973-.10734-.21968-.22760zm16.339.0078c.24997-.10450.65902-.10450 0.909 0 .24997.10451.04545.19001-.45450.19001s-.70447-.08551-.45450-.19001zm1.8407-.38456c.26247-.10882.57608-.09544.69690.02972.12082.12518-.09393.21422-.47722.19786-.42357-.01808-.50973-.10734-.21968-.22760zm8.1325-.68316-1.9346-.93314-2.1444.74846c-2.9495 1.0295-3.5728.90974-.87275-.16767 1.212-.48361 2.93-1.2414 3.8178-1.684.98709-.49210 1.2964-.56455.79611-.18649-1.0276.77659-1.0294 1.1361-.0085 1.7022 1.3508.74904 3.2346 1.0483 4.2015.66740.79896-.31472.85625-.28729.45252.21673-.66304.82773-2.0872.70758-4.3076-.36342zm-57.695-.894c-.59994-.38605-1.4983-1.1907-1.9963-1.788-0.766-.91873-.70299-.89309.40896.16641.72298.68888 1.9486 1.4867 2.7235 1.7729.81753.30192 1.1038.52672.68183.53550-.39996.0083-1.2181-.30073-1.818-.68678zm68.931-7.5831c.53006-1.1531 0.698-1.3669 0.698-.88822 0 .20213-.25445.69657-.56546 1.0988-.53317.68951-.54074.67749-.13255-.21054zm-56.75-9.579c0-.10360.32724-.36981.72720-.59159.39996-.22177.72720-.31847.72720-.21487s-.32724.36981-.72720.59159c-.39996.22177-.72720.31847-.72720.21487zm61.477-4.9552c.01745-.43886.10360-.52812.21967-.22760.10503.27194.09212.59686-.02869.72204-.12082.12518-.20676-.09732-.19097-.49444zm.45127-3.9241c0-1.3468.06599-1.8977.14665-1.2243.08065.67338.08065 1.7753 0 2.4487-.08066.67338-.14665.12243-.14665-1.2243zm-6.8479-8.5619c-.36042-.98879-1.4369-3.5354-2.3922-5.6592-.95527-2.1237-1.6685-3.8614-1.5849-3.8614.42132 0 5.0853 10.849 4.7938 11.151-.08879.09199-.45633-.64175-.81675-1.6306zm-49.211-.103c0-.31079.14062-.90412.31249-1.3185.19697-.47491.31249-.54454.31249-.18836 0 .31079-.14062.90412-.31249 1.3185-.19697.47490-.31249.54454-.31249.18836zm55.65-2.4487c.0074-.62158.0889-.83026.18109-.46373.09219.36654.08613.87510-.01349 1.1302-.0996.25505-.17503-.04484-.16762-.66642zm-54.237-3.518c.46530-.85775.91076-1.4924.98993-1.4104.21133.21896-.92478 2.3865-1.4156 2.7008-.23117.14802-.03961-.43266.42568-1.2904zm51.257-6.842c-.21405-.41439-.30738-.75344-.20739-.75344s.35693.33905.57098.75344.30738.75344.20738.75344c-.09999 0-.35693-.33904-.57098-.75344zm-1.5944-2.8254c-.32297-.51799-.85206-1.408-1.1758-1.9778l-.58855-1.036.73146.91691c.86416 1.0833 2.01 3.0386 1.7806 3.0386-.0883 0-.42478-.42381-.74776-.94180zm-53.665-.848c.0044-.15540.34153-.70635.74908-1.2243l0.741-.94179-.57662 1.2243c-.54794 1.1634-.93111 1.5585-.91346.94180zm1.6515-2.8416c.13654-.37153.33985-.58060.45180-.46462.11195.11599.000232.41996-.24826.67550-.35910.36928-.40086.32601-.20354-.21089zm2.8854-6.6705c.12360-.20720.29687-.37672.38506-.37672s.16034.16952.16034.37672-.17328.37672-.38506.37672-.28393-.16952-.16034-.37672zm0-1.1302c-.12359-.20720.11218-.37672.52394-.37672s.74866.16952.74866.37672-.23577.37672-.52394.37672-.62506-.16952-.74866-.37672zm1.7998-1.4862c-.18998-.19582-1.3271-.41805-2.527-.49384l-2.1816-.13781 2.5534-.07123c2.479-.06916 2.5721-.10689 3.1954-1.2956 1.3951-2.6604 1.9865-2.947.77746-.37672-.70660 1.5022-1.3269 2.7312-1.3785 2.7312-.05158 0-.24921-.16022-.43919-.35603zm21.107-.77412c.12360-.20720.78773-.37672 1.4759-.37672.68812 0 1.2511.16952 1.2511.37672s-.66414.37672-1.4759.37672c-.89131 0-1.3868-.14921-1.2511-.37672zm19.567-.65926c-.12455-.36259-.29723-.82878-.38374-1.036-.08651-.20719.14325.0017.51056.46419.54254.68312.94075.80923 2.1222.67207 1.276-.14813 1.3206-.12967.36360.15049-1.749.51202-2.3712.45230-2.6127-.25078zm-30.164-.288c-.28918-.78078.14333-1.7828.68915-1.5965.24987.08526.50386.50159.56443.92517.13150.91966-.94758 1.4975-1.2536.67135zm20.788-.16452c-.34152-.57253.10196-1.7929.74437-2.0483.60994-.2425 1.0082.50508.81707 1.5336-.14316.77017-1.201 1.1189-1.5614.51472zm13.897.10974c.24997-.10451.65902-.10451 0.909 0 .24997.10451.04545.19001-.45450.19001s-.70447-.08551-.45450-.19001zm-37.723-2.764c.21405-.41439.57241-.75344.79634-.75344.22394 0 .11101.33905-.25094.75344-.36196.41439-.72031.75344-.79634.75344s.03689-.33904.25094-.75344zm6.113-7.415c.26247-.10882.57608-.09544.69690.02974s-.09393.21422-.47722.19786c-.42358-.01808-.50973-.10734-.21968-.2276zm1.4544-.37672c.26247-.10882.57607-.09544.69690.02974.12082.12518-.09393.21422-.47722.19786-.42357-.01807-.50973-.10734-.21968-.22760zm-11.746-1.844c-.53658-.94864-.91568-1.7869-.84243-1.8628.07324-.07589.58796.70028 1.1438 1.7248 1.2725 2.3455 1.0141 2.4638-.30139.13798zm13.564 1.4675c.26247-.10882.57607-.09544.69690.02974.12082.12518-.09393.21422-.47722.19786-.42357-.01807-.50973-.10734-.21968-.2276zm2.3476-.38044c.35377-.09551.84463-.08923 1.0908.01396s-.04328.18134-.64322.17366c-.59994-.0077-.80135-.09211-.44758-.18762zm-18.051-7.1008c-.12470-.33667-.21635-.81017-.20367-1.0522.01269-.24205.17981-.034048.37141.46222s.28325.96977.20367 1.0522c-.07958.082452-.24672-.12555-.37141-.46222zm-.221-3.8468c.0029-.36259.16418-.91354.35803-1.2243.26746-.42880.35381-.26981.35803.65926.0029.67338-.15805 1.2243-.35803 1.2243s-.36109-.29667-.35803-.65926z"/>
 </g>
</svg>
