<?xml version="1.0" encoding="UTF-8" standalone="no"?>
<!-- Created with Inkscape (http://www.inkscape.org/) -->
<svg id="svg3387" xmlns:rdf="http://www.w3.org/1999/02/22-rdf-syntax-ns#" xmlns="http://www.w3.org/2000/svg" height="260" viewBox="0 0 260 260" width="260" version="1.1" xmlns:cc="http://creativecommons.org/ns#" xmlns:dc="http://purl.org/dc/elements/1.1/">
 <metadata id="metadata3393">
  <rdf:RDF>
   <cc:Work rdf:about="">
    <dc:format>image/svg+xml</dc:format>
    <dc:type rdf:resource="http://purl.org/dc/dcmitype/StillImage"/>
    <dc:title/>
   </cc:Work>
  </rdf:RDF>
 </metadata>
 <path id="path3411" d="m164.29 216.49c-12.822-3.8845-24.168-17.041-31.737-36.802-2.2764-5.9433-2.3488-6.0199-3.2799-3.4699-7.059 19.333-17.717 32.513-30.362 37.545-4.6884 1.8656-6.5509 2.1309-12.675 1.8053-15.011-.79805-26.085-7.2363-30.462-17.71-2.9468-7.0507-2.7986-10.81.80361-20.391 3.4837-9.2661 7.9035-15.972 16.203-24.586l5.879-6.1011-8.4719-1.4908c-20.495-3.6065-33.742-14.665-44.165-36.869-2.0198-4.3025-4.7509-9.0678-6.0689-10.59-1.318-1.5218-2.3964-2.9561-2.3964-3.1874 0-.23132 2.3625-.85838 5.25-1.3935 2.8875-.53510 10.538-3.1289 17.002-5.7639 24.316-9.9134 36.792-10.472 57.91-2.592 1.4716.54909 1.6021.0408 1.1397-4.4414-1.2247-11.873 3.7883-30.862 11.181-42.352 1.8874-2.9334 6.599-9.0096 10.47-13.503 3.8714-4.493 7.5811-9.4724 8.2438-11.065.66268-1.5929 1.4527-2.8961 1.7557-2.8961.30295 0 1.6662 1.8275 3.0294 4.061 1.3632 2.2336 5.3372 6.7685 8.8311 10.078 11.794 11.171 16.432 19.173 19.69 33.973.82331 3.7402 1.4969 9.1207 1.4969 11.957v5.1564l3.9695-1.7602c9.7154-4.3081 25.409-5.5885 37.677-3.0739 3.3807.69294 10.806 2.7998 16.5 4.6819 5.6943 1.8821 12.603 3.6854 15.353 4.0073 7.9527.93091 7.8872.86720 5.1479 5.008-1.348 2.0377-3.6536 7.2251-5.1235 11.528-4.7557 13.92-9.7133 21.678-18.915 29.603-6.7255 5.7914-9.4474 7.4792-15.726 9.7509-8.3919 3.0366-20.179 4.9683-26.102 4.2778l-3.8404-.44772 6.1425 5.7074c15.22 14.142 22.63 24.201 26.801 36.383 2.6684 7.7938 2.667 12.031-.006 18.24-3.736 8.6792-10.944 13.888-23.811 17.206-6.8973 1.7787-10.169 1.6875-17.335-.48354zm19.496-2.4524c16.025-4.3022 22.838-14.179 19.937-28.903-2.3202-11.779-10.4-23.187-28.361-40.04-5.632-5.2849-6.9483-6.0594-12.307-7.2413-6.2647-1.3818-20.7-7.2377-23.744-9.6317-1.438-1.1311-2.2344-1.2015-4.3072-.3806-1.3986.5539-3.8172 1.0071-5.3746 1.0071-3.9019 0-5.5979 3.7573-5.4928 12.169.0901 7.208 2.5713 16.614 8.5981 32.595 7.2058 19.107 16.012 32.412 24.798 37.466 8.6246 4.9609 15.792 5.7693 26.252 2.961zm-89.472-1.1803c12.968-2.9239 23.175-14.118 31.29-34.315l3.2252-8.0278-2.0953-6.2743c-5.8984-17.662-7.4041-26.561-5.1216-30.268.77042-1.2512-.26602-.88923-3.8352 1.3396-8.931 5.5769-24.759 10.92-32.351 10.92-4.6524 0-18.052 14.327-23.87 25.522-10.545 20.29-3.3055 36.354 18.5 41.05 6.6306 1.428 8.1371 1.4337 14.258.0537zm.24211-70.252c6.7635-1.3976 17.918-6.2362 24.289-10.536l5.6665-3.8246-2.4256-1.9807c-1.3341-1.0894-2.7025-3.0764-3.0409-4.4157-.77761-3.0773 1.7604-7.5168 5.0397-8.8155l2.4319-.9631-2.6213-4.1862c-1.4417-2.3024-5.0766-6.3374-8.0774-8.9666-11.82-10.348-25.978-16.181-40.813-16.811-11.51-.488-17.892.892-34.955 7.557-7.15 2.7931-14.183 5.3169-15.629 5.6084l-2.6287.52999 2.8309 5.0078c1.557 2.7543 5.0928 9.1812 7.8573 14.282 12.657 23.353 34.772 33.157 62.069 27.517zm98.448-6.3942c20.148-4.5615 33.313-17.167 41.328-39.571 1.6339-4.5675 3.7029-9.535 4.5976-11.039.8948-1.504 1.6269-2.8951 1.6269-3.0912 0-.19618-2.1375-.58593-4.75-.86612s-9.7-2.1476-15.75-4.1497c-15.124-5.0052-27.043-6.7293-36.692-5.3079-18.898 2.7839-38.319 15.183-46.771 29.86-2.2206 3.8563-4.0201 7.6506-3.9989 8.4318.0212.78124 1.4738 2.2052 3.2282 3.1643 4.0225 2.1993 5.5443 5.6556 4.0277 9.1479-1.0128 2.3322-.86875 2.7243 1.5443 4.2046 14.356 8.8067 36.193 12.706 51.609 9.2162zm-57.698-11.385c1.6299-.89339 2.25-2.0663 2.25-4.2554 0-4.0442-2.9029-6.4989-7.6856-6.4989-8.6929 0-11.643 8.8833-3.9148 11.79 3.2879 1.2365 5.6914.97042 9.3503-1.0352zm-10.179-.82073c-2.2519-1.9573-1.9384-4.985.74302-7.1745 2.9587-2.4159 4.8006-2.3861 7.5112.12181 4.0107 3.7108 1.8713 8.4186-3.8257 8.4186-1.5714 0-3.5643-.61464-4.4286-1.3659zm7.2286-1.4155c2.9342-2.5504-.97741-5.9503-4.8-4.1721-3.2435 1.5088-1.8221 5.2152 2 5.2152.88 0 2.14-.46936 2.8-1.043zm-1.8-13.502c0-2.9112 7.3536-14.181 12.442-19.069 2.9085-2.7936 8.0489-6.8267 11.423-8.9624l6.1348-3.8831-.0349-6.54c-.0957-17.933-6.3359-31.801-20.152-44.784-3.0524-2.8683-6.4508-6.5066-7.552-8.0851l-2.0022-2.8699-1.9482 2.8699c-1.0715 1.5785-4.7732 6.1817-8.2261 10.229-9.7218 11.397-15.475 22.618-18.033 35.173-1.1388 5.5886-1.3933 18.85-.42216 22 .33084 1.0729 3.4257 3.7025 6.8774 5.8434 7.2231 4.48 13.459 10.341 17.265 16.227 2.5796 3.9887 4.2283 4.7104 4.2283 1.851z" fill="#d0d0d0"/>
 <path id="path3409" d="m167.48 217.2c-14.496-3.4587-25.75-15.365-34.42-36.417l-2.7718-6.7301-4.1601 8.9964c-10.736 23.217-23.622 33.511-40.671 32.49-7.0378-.42161-15.335-3.1994-21.23-7.1078-3.9415-2.6131-7.9354-8.7326-9.6811-14.834-2.7169-9.4953 5.0793-26.988 17.818-39.981l6.7924-6.9276-8.4159-1.481c-11.175-1.96-18.057-5.03-26.063-11.61-7.752-6.38-11.305-11.22-18.1-24.69-2.737-5.43-5.663-10.524-6.501-11.33-2.5051-2.406-1.7917-3.2719 3.6261-4.4016 2.8332-.59076 9.7493-2.9451 15.369-5.2318 23.399-9.5212 37.133-10.713 53.686-4.6568 3.1533 1.1536 6.0229 2.0974 6.3769 2.0974.35402 0 .34289-1.7434-.02475-3.8743-.96625-5.6006 1.1712-20.49 4.1122-28.646 3.3518-9.2951 8.9483-18.503 16.422-27.019 3.3563-3.8244 7.0481-8.6159 8.2041-10.648 1.156-2.0317 2.3793-3.6941 2.7184-3.6941.33913 0 1.662 1.6167 2.9397 3.5927s5.0004 6.1606 8.2727 9.2991c14.356 13.769 19.717 24.924 21.469 44.669.39837 4.4901.98487 6.697 1.7052 6.4163 13.38-5.2125 13.741-5.2856 26.098-5.2816 11.998.0039 12.003.0048 28.644 4.9873 9.1543 2.7409 18.192 4.9834 20.083 4.9834 1.8915 0 3.6919.21972 4.0009.48827.30897.26855-.48624 2.1264-1.7671 4.1287-1.2809 2.0022-3.7559 7.5517-5.5 12.332-6.6335 18.182-16.593 30.356-29.709 36.314-9.4066 4.2728-16.399 5.8682-25.987 5.9294l-8.2372.0526 8.1394 7.9702c16.133 15.797 21.922 24.293 25.382 37.246 1.7104 6.4031 1.7106 6.9117.004 12.39-3.0163 9.6855-9.0978 15.189-20.62 18.66-7.7829 2.3445-12.783 2.7668-18.005 1.5208zm20.625-4.3883c10.693-4.2509 15.413-9.9754 16.213-19.663 1.1598-14.041-7.2129-28.093-28.476-47.791-6.2262-5.768-7.6563-6.645-12.414-7.6134-5.7674-1.1738-18.224-6.0214-22.883-8.9048-2.9053-1.7981-3.5636-1.7736-13.682.5088-1.5449.34848-3.2996 5.9103-3.3067 10.481-.0128 8.2568 6.4078 29.257 14.18 46.38 6.2576 13.786 16.832 25.203 26.089 28.167 6.3843 2.0444 16.908 1.3662 24.28-1.5647zm-87.551-1.9163c2.8771-1.3611 7.2254-4.441 9.663-6.8443 5.0721-5.0007 13.123-18.363 16.413-27.242l2.2392-6.043-3.0391-10.314c-5.8141-19.732-6.1208-21.904-3.7718-26.707.5532-1.1311-1.0655-.51504-5.3938 2.0529-8.2768 4.9107-18.323 8.4709-27.343 9.6898l-7.4174 1.0023-5.9266 6.0037c-7.4474 7.5443-13.449 15.996-16.535 23.285-3.3499 7.9128-3.3777 18.686-.06315 24.536 6.6285 11.698 27.484 17.058 41.175 10.581zm-8.5913-67.711c8.5339-1.5714 17.881-5.3084 26.231-10.488 6.6205-4.1063 7.3957-5.0606 4.8114-5.9225-.84984-.28346-2.2059-1.8898-3.0134-3.5698-1.2529-2.6064-1.269-3.4687-.10948-5.8793.74733-1.5537 2.5534-3.3799 4.0134-4.0582 1.46-.67835 2.6546-1.4971 2.6546-1.8194s-2.2658-3.3904-5.0352-6.8179c-10.92-13.525-31.134-23.019-48.958-22.997-9.8866.01228-17.781 1.9008-31.877 7.6259-6.3926 2.5963-12.973 4.9926-14.623 5.325-4.5611.91893-4.7141 1.1606-2.6143 4.127 1.073 1.5158 3.3665 5.8851 5.0965 9.7096 12.435 27.489 35.199 39.967 63.43 34.768zm101.46-6.9c9.484-2.1941 16.272-5.6784 23.658-12.143 8.1635-7.1454 11.665-12.707 17.869-28.381 2.3511-5.9396 4.5971-11.428 4.9911-12.196.58167-1.1341-.13613-1.4983-3.8174-1.9369-2.4936-.29707-8.7045-1.9437-13.802-3.6591-24.339-8.1906-38.1-8.4823-55.351-1.1733-14.692 6.2247-27.759 17.724-32.523 28.623-2.4599 5.627-2.3942 6.4457.61313 7.6366 3.6894 1.4611 6.04 6.231 4.7077 9.5529-.86175 2.1486-.74762 2.8694.62537 3.9494 3.0429 2.3936 17.764 8.3434 23.767 9.606 7.7183 1.6234 22.504 1.6847 29.261.12142zm-57.046-12.365c4.3395-4.2265.38367-9.8406-6.9339-9.8406-4.9369 0-7.8892 2.3891-7.8892 6.3842 0 6.3882 9.531 8.6107 14.823 3.4564zm-11.168-.13069c-2.1712-2.0853-2.1005-4.7442.17375-6.5331 3.7635-2.9604 10.171-.75983 10.171 3.4931 0 4.0659-7.1034 6.1534-10.345 3.04zm7.4146-1.5255c1.754-1.837.004-4.2731-3.0696-4.2731s-4.8236 2.4361-3.0696 4.2731c.72295.75715 2.1043 1.3766 3.0696 1.3766.96531 0 2.3466-.61949 3.0696-1.3766zm-2.06-12.83c0-2.3298 6.9801-13.469 11.353-18.118 2.555-2.7162 7.7958-6.9747 11.646-9.4633l7.0006-4.5248v-7.1922c0-17.827-5.9895-31.267-19.543-43.851-2.8318-2.6293-6.3029-6.2868-7.7136-8.1277-2.5362-3.3097-2.5783-3.3253-3.7674-1.3941-.66139 1.0742-4.4164 5.7095-8.3445 10.301-12.08 14.119-17.628 26.171-19.561 42.49-.98889 8.3492-.001 17.739 1.9246 18.297.56092.16251 4.054 2.3707 7.7624 4.907 6.6988 4.5815 12.473 10.447 15.662 15.911 1.5665 2.6836 3.5804 3.1139 3.5804.76495z" fill="#afafaf"/>
 <path id="path3407" d="m164.25 216.25c-12.51-3.8787-23.112-15.992-30.791-35.181l-3.2762-8.1873-2.2593 5.8216c-9.5731 24.667-25.48 38.391-42.679 36.823-12.127-1.1056-23.944-7.4774-27.791-14.984-3.4299-6.6944-4.0319-11.124-2.3623-17.382 3.2594-12.216 7.8759-19.841 18.739-30.949l5.6272-5.7544-7.4961-1.0511c-11.377-1.59-21.713-6.45-29.717-13.96-6.5911-6.1878-7.6002-7.7599-23.462-36.552-.15082-.27376 2.0042-.95489 4.789-1.5136 2.7848-.55872 10.333-3.1211 16.774-5.6942 13.678-5.464 16.401-6.2655 25.461-7.4932 10.073-1.3649 19.23.20296 33.25 5.6929.63904.25023 1.014-3.9246 1.0389-11.566.0316-9.7196.46233-13.259 2.3015-18.911 3.2504-9.9894 9.152-20.051 17.192-29.31 3.8521-4.4361 7.7573-9.5324 8.6782-11.325.92086-1.7927 1.9252-3.2484 2.2318-3.2348.30665.01356 2.0359 2.067 3.8428 4.5633 1.8069 2.4962 6.4235 7.6205 10.259 11.387 11.277 11.074 15.771 20.675 18.093 38.652.65771 5.092 1.3022 9.3832 1.4321 9.536.12997.15286 2.0657-.53329 4.3017-1.5248 13.955-6.1882 30.466-5.6231 53.088 1.8169 5.7974 1.9067 12.916 3.69 15.82 3.9629 6.1123.57436 6.9715 1.2951 4.8691 4.0841-.8382 1.1119-3.368 6.8333-5.6218 12.714-2.2538 5.8808-5.7115 13.362-7.6838 16.624-6.6422 10.987-19.221 20.423-31.843 23.888-2.75.75492-9.3409 1.6211-14.646 1.9248l-9.6465.55226 10.469 10.384c14.789 14.669 19.615 22.135 22.83 35.316 1.6668 6.8336.43826 12.977-3.8738 19.373-6.4021 9.4953-25.586 15.293-37.934 11.465zm23.802-3.38c11.28-4.5437 16.482-11.312 16.478-21.441-.005-14.14-7.135-25.896-26.952-44.443-7.3058-6.8374-9.6288-8.4828-12.679-8.9801-5.7517-.93788-15.788-4.6729-22.13-8.2355-5.3266-2.9924-5.9438-3.1417-8.7251-2.1111-1.6462.61002-4.0285 1.1268-5.294 1.1483-5.8694.10001-6.7115 13.585-1.8208 29.157 10.196 32.465 20.856 49.448 34.918 55.626 7.1066 3.1228 17.36 2.8403 26.204-.72187zm-88.137-1.4656c9.6318-4.2159 18.453-14.915 25.112-30.458 4.0943-9.5569 4.1723-10.473 1.5456-18.139-2.7566-8.0454-6.1994-23.372-5.6425-25.119.25459-.79873.75814-2.3438 1.119-3.4335.58447-1.765-.11498-1.5477-6.4072 1.9902-8.3888 4.7168-17.345 7.7912-26.738 9.1787-6.4085.94661-7.1437 1.297-11.352 5.4106-10.852 10.607-17.515 20.608-20.017 30.044-1.931 7.2822-.83432 15.843 2.6587 20.754 7.6724 10.787 26.707 15.469 39.722 9.7725zm-6.8634-68.174c7.9504-1.6384 14.576-4.2264 22.619-8.8346 9.1501-5.2426 9.5443-5.7622 6.4273-8.4716-1.8738-1.6287-2.5463-3.1252-2.5463-5.6662 0-2.9142.56773-3.8598 3.6383-6.0597l3.6383-2.6067-2.8004-4.1928c-1.5402-2.306-5.8554-6.8167-9.5893-10.024-5.3538-4.5982-8.9661-6.7473-17.088-10.166-20.287-8.5399-31.628-8.0999-57.098 2.2152-6.4894 2.6281-13.352 4.9974-15.25 5.2652-1.8981.26772-3.451.64417-3.451.83654s1.0702 2.1947 2.3782 4.4495c1.308 2.2549 3.8526 7.1888 5.6548 10.964 4.2357 8.8739 11.767 18.614 17.74 22.944 12.53 9.0819 29.842 12.621 45.727 9.3471zm101.46-7.1433c11.178-2.6812 20.36-8.126 27.397-16.246 5.3662-6.1924 7.9523-10.919 13.001-23.76 2.4061-6.1203 4.6663-11.716 5.0226-12.436.50759-1.0247-.81635-1.6203-6.115-2.7509-3.7196-.79368-12.163-3.1347-18.763-5.2022-11.636-3.6452-12.364-3.7591-24-3.7575-10.703.0015-12.679.24904-18.279 2.2905-16.417 5.9845-30.292 16.516-36.49 27.696-5.1948 9.3718-5.2576 9.7843-1.7 11.153 1.6577.6378 3.7367 2.3743 4.62 3.8588 1.3509 2.2706 1.4093 3.1718.36774 5.6753-1.4091 3.387-1.8917 2.9045 7.4806 7.478 15.779 7.7001 31.882 9.7361 47.457 6.0004zm-58.88-11.519c3.4275-2.9792 3.6718-5.0894.9389-8.1093-2.6216-2.8968-6.1923-3.5795-10.514-2.01-6.3322 2.2997-6.6171 8.8468-.50206 11.535 3.9567 1.7396 6.9266 1.3222 10.077-1.416zm-9.9115-.5855c-3.1092-1.8929-2.5704-5.5074 1.0846-7.2767 2.4696-1.1955 3.0304-1.1955 5.5 0 3.655 1.7693 4.1938 5.3838 1.0846 7.2767-1.2538.76331-2.9794 1.3878-3.8346 1.3878-.85524 0-2.5808-.62452-3.8346-1.3878zm6.9042-1.7272c1.754-1.837.004-4.2731-3.0696-4.2731s-4.8236 2.4361-3.0696 4.2731c.72295.75715 2.1043 1.3766 3.0696 1.3766.96531 0 2.3466-.61949 3.0696-1.3766zm-1.3224-14.486c2.7464-8.7308 15.127-22.357 25.074-27.597l4.1251-2.173.0269-8.0767c.0575-17.263-5.6289-30.364-18.587-42.823-4.1497-3.9899-8.2486-8.4372-9.1086-9.8828l-1.5638-2.6285-1.6068 2.1385c-.88376 1.1762-3.8496 4.6875-6.5906 7.8029-12.966 14.737-19.411 27.917-21.47 43.913-1.0489 8.1452-.68643 16.473.80032 18.389.35968.46354 2.7194 2.0639 5.2439 3.5563 6.4498 3.8131 13.474 10.215 17.642 16.077 1.954 2.7488 3.8455 4.9978 4.2033 4.9978.35775 0 1.1734-1.6623 1.8125-3.6941z" fill="#8f8f8f"/>
 <path id="path3405" d="m164.91 216.31c-12.664-3.6033-23.25-15.479-31.348-35.167l-3.3358-8.1098-2.8293 6.7453c-7.2847 17.367-16.071 28.028-27.34 33.173-6.7323 3.0734-17.236 3.1594-25.969.21267-8.5191-2.8745-15.838-9.4039-18.091-16.139-4.1817-12.503 2.3024-28.99 17.414-44.278l6.0139-6.0843-2.6838-.58824c-1.4761-.32353-5.1842-1.0191-8.2401-1.5457-18.061-3.1124-32.178-15.086-41.514-35.212-1.9283-4.1566-4.6463-9.1275-6.0399-11.046-1.3936-1.9189-2.3889-3.5662-2.2117-3.6608.17720-.09459 2.5722-.66273 5.3222-1.2625 2.75-.59981 10.175-3.1915 16.5-5.7593 15.627-6.3442 22.01-7.6805 34.5-7.2225 9.8764.36212 10.312.46239 24 5.5283.63716.23581 1.0226-3.9681 1.0623-11.586.0502-9.6319.49813-13.301 2.3041-18.874 3.1893-9.8411 8.9352-19.449 18.166-30.377 4.4046-5.2142 8.2729-10.397 8.5963-11.517.78712-2.7259 1.876-2.5663 3.3317.48827.66171 1.3886 5.2182 6.5711 10.125 11.517 13.909 14.018 18.485 23.668 19.594 41.322l.61152 9.7314 3.6041-1.5722c8.3735-3.6527 14.416-4.8296 24.604-4.7916 10.672.03976 15.289.93250 31.029 5.9997 4.9661 1.5987 11.677 3.3322 14.913 3.8521 3.236.51995 6.0536 1.0931 6.2614 1.2738.2078.18062-.49327 1.6489-1.5579 3.2628-1.0647 1.6139-3.349 6.7683-5.0762 11.454-4.0936 11.106-6.9952 16.711-11.899 22.988-9.6964 12.411-24.034 19.135-42.96 20.147l-9.2894.49675 7.6547 7.3881c19.731 19.044 27.418 32.647 26.113 46.207-.96356 10.009-6.3272 16.43-17.531 20.987-7.4916 3.0472-17.274 3.8766-23.805 2.0184zm23.861-3.4877c6.6662-2.7661 12.921-8.5052 14.61-13.406 1.6511-4.7901 1.4625-13.774-.40631-19.35-3.3375-9.9578-11.058-20.004-25.54-33.235-8.2501-7.537-8.5242-7.6966-18.064-10.516-5.3274-1.5744-12.534-4.4148-16.016-6.312-6.0873-3.3175-6.4582-3.4038-9.6952-2.2557-1.8512.65655-3.994.98423-4.7617.72816-2.6572-.88628-5.3333 4.608-5.3374 10.958-.005 7.6698 1.9888 15.645 8.0417 32.165 8.659 23.634 18.437 37.174 30.455 42.173 6.9768 2.9021 18.409 2.4951 26.714-.95088zm-91.642-.24698c3.5636-1.048 6.7382-3.0336 11.465-7.1708 7.3044-6.393 12.113-13.675 17.378-26.317l3.3786-8.1127-3.492-10.853c-2.7668-8.5986-3.5241-12.595-3.6467-19.242-.098-5.3148-.52114-8.2041-1.1547-7.8843-.55.27762-2.35 1.3694-4 2.4262-7.5816 4.8559-20.268 9.1281-30.751 10.355-4.5248.5298-5.1052.93166-12.199 8.4457-12.256 12.982-17.569 23.583-17.528 34.969.04336 12.13 6.8111 19.57 21.478 23.613 5.6476 1.5566 13.31 1.4639 19.072-.23064zm2.259-70.93c8.0066-2.4416 15.654-6.1767 21.742-10.62l3.9098-2.8531-2.7434-2.3846c-4.0818-3.5479-3.7814-7.6103.84311-11.401l3.5866-2.9401-2.7666-4.1034c-10.54-15.638-36.025-27.581-55.399-25.967-8.5675.71348-13.773 2.1583-28.545 7.9231-6.7605 2.6383-13.68 5.0383-15.378 5.3334-1.6972.29504-3.0858.73289-3.0858.97302 0 .55451 4.7244 9.3502 11.32 21.076 8.1611 14.508 18.86 22.679 34.68 26.485 8.2574 1.9868 22.563 1.3008 31.835-1.5266zm95.449-5.5403c19.425-4.957 31.348-16.653 39.729-38.975 1.7951-4.7806 4.0858-10.116 5.0906-11.857l1.8267-3.1653-4.7151-.61106c-2.5933-.33608-9.4484-2.1232-15.233-3.9713-15.578-4.9767-22.945-6.2618-33.482-5.8406-14.59.58330-27.739 6.1514-40.591 17.188-5.6995 4.8947-8.4864 8.1431-11.186 13.038-5.239 9.5007-5.3204 10.005-1.8194 11.265 4.1286 1.4864 6.4279 5.9003 4.9688 9.5383-1.3045 3.2526-.91616 3.6006 9.1269 8.1793 15.825 7.2146 31.513 8.9813 46.284 5.212zm-59.36-11.238c3.7322-2.7296 3.9455-5.4669.68286-8.7637-1.8945-1.9144-3.2494-2.419-6.495-2.419-4.6273 0-7.5754 1.9787-8.6502 5.8056-.53619 1.9092-.0786 2.8782 2.36 4.9978 3.8318 3.3306 7.8929 3.4578 12.102.37921zm-9.9233-1.2265c-1.1-.95611-2-2.3251-2-3.0422 0-1.8714 3.6512-4.7806 6-4.7806s6 2.9092 6 4.7806-3.6512 4.7806-6 4.7806c-1.1 0-2.9-.78227-4-1.7384zm7.8081-2.7503c.22773-1.7114-.22895-2.4638-1.75-2.8834-3.224-.8894-6.0581.28263-6.0581 2.5052 0 2.6684.8895 3.2567 4.4641 2.9524 2.452-.20876 3.0952-.70393 3.3441-2.5742zm-1.3717-14.361c.92528-2.4796 3.3891-6.7821 5.4752-9.5611 4.0665-5.4173 14.581-14.577 19.745-17.201 4.0059-2.0353 4.423-3.9499 3.3028-15.16-1.5894-15.905-6.4417-25.908-17.839-36.775-3.6794-3.5083-7.7235-7.8326-8.9869-9.6094-2.6962-3.7919-3.4306-3.9601-4.9163-1.126-.60679 1.1576-4.0968 5.5544-7.7556 9.7709-12.989 14.969-19.604 30.861-19.84 47.664-.0671 4.7806.21299 9.6698.62244 10.865.41593 1.2141 2.9552 3.4683 5.7543 5.1084 6.4774 3.7953 15.824 12.512 18.983 17.703 1.3648 2.2432 2.772 3.7975 3.1271 3.454.35504-.34346 1.4026-2.6532 2.3278-5.1328z" fill="#6f6f6f"/>
 <path id="path3403" d="m166.55 216.74c-4.0185-1.146-9.2583-3.6608-12.494-5.996-7.1394-5.1532-15.339-17.219-21.015-30.923l-2.8258-6.8229-3.63 8.1266c-11.549 25.856-26.337 37.007-44.751 33.747-11.504-2.0366-20.392-7.3295-24.232-14.43-7.2002-13.314-.81076-30.468 18.969-50.925l3.1211-3.2281-2.318-.37215c-1.2749-.20468-5.018-.8029-8.318-1.3294-16.044-2.5596-28.654-11.839-37.897-27.887-3.0819-5.3511-5.6034-10.209-5.6034-10.796 0-.5867-1.575-3.3401-3.5-6.1187s-3.5-5.1558-3.5-5.2826c0-.12683 1.9915-.49018 4.4255-.80744s8.4616-2.2843 13.395-4.3711c16.127-6.8224 22.49-8.474 34.18-8.8709 9.6113-.32639 11.177-.14532 18.5 2.1394 4.4 1.3728 8.675 2.7604 9.5 3.0836 1.2904.50554 1.5164-1.0828 1.617-11.37.10008-10.225.49924-13.063 2.7548-19.59 3.5456-10.26 9.2591-19.876 17.151-28.866 3.5972-4.0978 7.2845-8.807 8.194-10.465.90951-1.6578 1.9776-3.0142 2.3734-3.0142.39587 0 1.866 1.7 3.2668 3.7777 1.4009 2.0778 5.3072 6.425 8.6806 9.6605s7.61 7.8915 9.4146 10.347c6.4316 8.7501 10.548 22.525 10.548 35.299v5.0679l6.75-2.4547c16.394-5.9619 29.76-5.3906 52.545 2.246 4.8371 1.6212 11.7 3.3873 15.25 3.9247 3.5504.53740 6.4553 1.1231 6.4553 1.3014 0 .17840-.89823 1.605-1.9961 3.1702-1.0978 1.5652-3.385 6.7268-5.0826 11.47-7.258 20.28-16.499 31.316-31.78 37.953-7.2969 3.1693-16.911 5.1106-25.392 5.1267-3.7125.007-6.75.29486-6.75.63953 0 .34468 2.4166 2.7893 5.3703 5.4324 18.709 16.742 28.63 32.675 28.63 45.977 0 13.823-13.48 24.876-31.5 25.828-3.3.17445-7.1279-.004-8.5065-.39763zm19.56-2.8287c12.588-4.044 18.523-11.258 18.564-22.562.0249-6.8432-2.0054-13.725-6.1183-20.74-3.9198-6.6852-7.9756-11.41-18.999-22.135-9.2747-9.0233-9.666-9.2856-16.5-11.06-7.1902-1.8671-18.815-6.5782-23.827-9.6561-2.0911-1.2842-3.1194-1.4821-3.95-.76011-.61763.53684-2.5382.97606-4.268.97606-5.1428 0-6.8906 2.5277-7.3109 10.574-.44395 8.497 2.0314 18.44 9.0397 36.311 10.25 26.136 20.294 37.674 35.551 40.836 4.7137.97709 11.269.32108 17.819-1.7832zm-87.053-1.9314c10.273-4.1635 20.512-16.819 27.393-33.861l3.0914-7.6556-2.9557-8.6477c-3.9149-11.454-5.6316-22.181-4.2868-26.786l1.0239-3.5061-5.9957 3.539c-10.09 5.9556-18.748 8.8528-32.028 10.718-3.1438.44144-4.7779 1.5874-10 7.0129-7.3889 7.6768-12.908 15.345-15.864 22.042-2.6686 6.045-3.5928 16.915-1.8882 22.207 4.1731 12.955 26.541 21.005 41.51 14.938zm-4.9601-68.798c7.9188-1.7347 20.842-7.4344 26.627-11.744l4.6666-3.4764-2.9166-2.5351c-4.1724-3.6266-3.9683-7.2511.62027-11.013l3.5368-2.8993-1.9898-3.3901c-5.26-8.95-20.23-19.445-34.224-23.99-15.688-5.094-28.499-3.799-50.569 5.11-6.709 2.709-13.755 5.144-15.657 5.413l-3.4578.48772 2.8649 4.8968c1.5757 2.6932 5.3181 9.3949 8.3165 14.893 8.5054 15.595 18.922 24.152 33.947 27.889 7.7208 1.92 20.369 2.0804 28.232.35807zm102.78-7.46c18.612-5.3106 30.433-17.669 38.585-40.339 1.7191-4.7806 3.743-9.6491 4.4975-10.819l1.3719-2.127-8.1407-1.9065c-4.4774-1.0486-12.866-3.3851-18.641-5.1922-9.1362-2.8589-11.929-3.3348-21.5-3.6641-9.3909-.32309-11.951-.10207-17.5 1.511-18.908 5.4962-36.963 20.101-42.461 34.348-1.1478 2.9741-1.3252 4.4268-.56735 4.6464.60639.17569 2.4741 1.3226 4.1505 2.5486 2.83 2.0698 3.024 2.5766 2.713 7.0877l-.33488 4.8585 10.5 4.5561c5.9273 2.5719 13.548 5.1213 17.5 5.8539 9.0819 1.6838 21.07 1.1362 29.827-1.3623zm-60.781-10.747c3.4959-3.0386 3.2576-6.6858-.62218-9.5233-4.1674-3.048-8.2737-2.9486-12 .29047-1.6077 1.3974-2.9231 3.3832-2.9231 4.4128 0 1.0297 1.3154 3.0154 2.9231 4.4128 3.8203 3.3206 9.0756 3.4901 12.622.40724zm-10.545-1.3433c-2.3479-2.0408-2.5044-3.4141-.64155-5.6285 2.7854-3.311 10.642-1.279 10.642 2.7524 0 1.7323-3.7476 4.6144-6 4.6144-1.1 0-2.9-.78227-4-1.7384zm7.5-3.0422c0-2.3987-.2793-2.6076-3.4863-2.6076-2.5681 0-3.578.41397-3.8346 1.5718-.65745 2.9673.62604 4.2041 4.064 3.9161 2.8823-.24144 3.2569-.57269 3.2569-2.8804zm-.67488-14.619c1.1878-2.7818 3.7631-7.1576 5.723-9.7241 3.8294-5.0145 14.365-14.035 19.428-16.635 4.1089-2.1097 4.5012-3.9751 3.1899-15.17-1.9134-16.335-6.9092-26.129-19.686-38.594-3.4302-3.3464-7.1333-7.3758-8.2291-8.9543l-1.9924-2.8699-1.9482 2.8699c-1.0715 1.5785-4.7949 6.1946-8.2744 10.258-14.361 16.772-22.008 38.302-19.586 55.148.67714 4.7107.86042 4.945 6.4487 8.2435 7.21 4.2557 15.437 12.016 18.733 17.67 1.3885 2.3817 2.864 3.9895 3.2789 3.5728.41487-.41665 1.7261-3.0336 2.9139-5.8154z" fill="#4e4e4e"/>
 <path id="path3401" d="m166.05 216.34c-6.8977-1.9859-10.01-3.7933-15.652-9.0907-6.1398-5.7642-12.282-15.431-16.404-25.817-1.5178-3.8244-3.0695-7.2651-3.4483-7.6458-.37882-.38078-2.1125 2.7483-3.8527 6.9535-6.5269 15.773-16.434 27.68-26.643 32.021-10.06 4.2779-24.559 2.4932-34.776-4.2803-5.0964-3.3786-8.2821-8.0592-9.8114-14.415-2.5689-10.676 4.2519-26.629 17.172-40.16 3.8025-3.9827 6.9143-7.5346 6.9151-7.8931.000758-.35854-1.6861-.65654-3.7486-.66221-10.342-.0285-23.247-5.1458-31.68-12.562-7.0913-6.2364-11.023-11.73-17.09-23.878-2.4237-4.8532-5.3551-9.9817-6.5142-11.397-2.26-2.7588-2.2617-2.757 3.5346-3.8606 1.65-.31416 8.85-2.875 16-5.6908 24.835-9.7802 35.94-10.202 58.5-2.2215 1.2852.45463 1.5173-1.1198 1.6208-10.994.0923-8.8075.62808-13.164 2.2728-18.478 2.9618-9.5701 9.7068-21.086 17.912-30.583 3.7942-4.3913 7.4697-9.1828 8.1678-10.648.69807-1.4648 1.5818-2.6633 1.9638-2.6633s1.6764 1.5185 2.8765 3.3744c1.2 1.8559 5.5271 6.5908 9.6157 10.522 12.615 12.129 17.993 23.73 19.247 41.515.34541 4.9001.73411 8.9092.86378 8.9092s3.0988-1.1627 6.598-2.5839c3.4992-1.4211 9.7541-3.0208 13.9-3.5549 9.8459-1.2685 21.855.46064 36.574 5.266 5.864 1.9145 13.496 3.9349 16.961 4.4897l6.2988 1.0088-2.3217 3.9888c-1.277 2.1938-3.3153 6.9223-4.5296 10.508-3.0625 9.0425-9.1708 20.115-14.055 25.477-10.557 11.591-26.179 17.927-44.301 17.967l-6.8366.0151 7.626 7.1349c19.558 18.298 26.943 30.498 26.989 44.582.0277 8.5171-2.419 13.515-9.1285 18.649-7.9675 6.0958-22.176 9.1843-30.813 6.6977zm18.548-1.7955c15.573-4.6635 22.689-15.093 19.945-29.232-2.1885-11.277-9.6536-22.165-26.219-38.24-7.8232-7.5914-8.9854-8.3819-13.906-9.4582-6.587-1.4408-16.718-5.3378-23.031-8.8587-3.8282-2.1352-5.0976-2.4578-6.7137-1.706-1.0961.50989-3.0778.92707-4.4037.92707-7.6664 0-9.2065 12.883-3.6275 30.344 3.8735 12.123 9.9498 27.353 13.402 33.591 11.227 20.288 26.491 28.042 44.554 22.633zm-85.312-2.6535c9.9346-4.0202 18.498-13.953 25.511-29.589 1.9296-4.3025 3.8019-8.6568 4.1606-9.6762.37573-1.0678-.60621-5.7487-2.3167-11.043-3.9762-12.308-5.4969-21.722-4.2693-26.427 1.0697-4.1003 1.3222-4.1124-5.822.27874-8.6591 5.3223-19.274 8.935-28.928 9.8458-5.3653.50614-5.608.65228-12.355 7.4384-12.888 12.963-18.918 24.431-18.985 36.103-.02436 4.2692.55137 7.7188 1.6683 9.9957 6.0699 12.374 26.836 18.942 41.336 13.075zm-4.3809-68.778c7.8768-1.7676 20.322-7.3859 26.024-11.748l4.4486-3.4036-2.9139-2.5327c-4.6781-4.0661-3.2844-10.288 2.7512-12.282l2.4633-.81403-2.3082-3.6944c-1.2695-2.0319-5.9109-6.8683-10.314-10.748-6.7246-5.9243-9.5266-7.6847-17.506-10.998-12.105-5.0271-18.097-6.2098-28.386-5.6028-9.1458.53956-15.342 2.2385-30.564 8.3803-5.8023 2.3411-12.237 4.53-14.3 4.8642-2.0625.33418-3.75.79704-3.75 1.0286 0 .23154.84297 1.4592 1.8733 2.7281s3.7421 6.207 6.0262 10.973c9.2631 19.33 21.194 29.868 38.365 33.888 7.093 1.6603 20.602 1.6416 28.091-.0389zm98.059-6.4249c10.342-2.2991 16.859-5.4672 24.159-11.745 7.6981-6.62 12.221-13.701 17.493-27.387 2.3018-5.9757 4.7865-11.893 5.5216-13.149l1.3365-2.2836-5.8681-1.0035c-3.2274-.55190-8.5962-1.967-11.931-3.1446-26.375-9.3151-43.603-8.9783-62.653 1.2248-13.553 7.2588-24.135 17.873-28.061 28.146-1.4248 3.7287-1.4775 4.5321-.31901 4.8678.76312.22111 2.6293 1.4814 4.1471 2.8006 2.9382 2.5539 3.7878 7.3753 1.6301 9.2508-.8394.7296.35982 1.8099 4.6685 4.2056 16.048 8.9231 33.653 11.823 49.876 8.2171zm-56.869-11.714c3.9416-3.426 3.1845-8.3438-1.617-10.502-4.3608-1.9601-7.7384-1.5706-11.005 1.2691-3.6316 3.1566-3.7242 6.087-.28672 9.0748 3.5709 3.1038 9.4374 3.1756 12.909.15803zm-9.2086-.63208c-3.2622-1.3716-3.5998-4.0384-.81746-6.4568 1.3144-1.1424 2.8807-2.0772 3.4807-2.0772 2.1458 0 5.8838 4.1098 5.3505 5.8826-.40183 1.3356-4.4893 3.9554-5.6475 3.6197-.11162-.0323-1.1764-.46811-2.3662-.96834zm6.1632-3.7534c0-2.3987-.2793-2.6076-3.4863-2.6076-2.5681 0-3.578.41397-3.8346 1.5718-.65745 2.9673.62604 4.2041 4.064 3.9161 2.8823-.24144 3.2569-.57269 3.2569-2.8804zm-1.2018-12.844c3.6049-9.94 11.782-19.129 23.592-26.513l6.3905-3.9952-.64294-9.1334c-1.155-16.407-5.35-26.599-15.514-37.691-3.1773-3.4674-6.5992-6.891-7.6041-7.6081-1.005-.71708-3.0152-2.9627-4.4671-4.9903l-2.6399-3.6865-4.2553 5.4249c-2.3404 2.9837-6.2418 7.7717-8.6698 10.64-5.9961 7.0836-10.876 15.863-13.918 25.038-2.7602 8.3263-4.2486 21.454-3.1527 27.806.6335 3.6719 1.2042 4.3214 6.9007 7.8546 7.7734 4.8214 13.66 10.331 17.723 16.589 1.7325 2.6683 3.4749 4.8514 3.872 4.8514.39705 0 1.4704-2.064 2.3853-4.5866z" fill="#2e2e2e"/>
 <path id="path3399" d="m172.3 216.93c.6875-.24112 1.8125-.24112 2.5 0 .6875.24113.125.43841-1.25.43841s-1.9375-.19728-1.25-.43841zm-10.387-1.9645c-4.7189-1.8625-11.456-6.8876-14.544-10.849-1.1541-1.4802-.004-.66641 2.5549 1.8084 5.2485 5.0753 9.8427 7.8001 15.95 9.46 2.2967.62419 3.2758 1.1525 2.1758 1.174s-3.8616-.69571-6.137-1.5938zm16.387 1.0954c.6875-.24112 1.8125-.24112 2.5 0s.125.43841-1.25.43841-1.9375-.19729-1.25-.43841zm7.1148-1.6314c1.8506-.69837 3.6506-1.2559 4-1.239 1.301.0631-4.4237 2.515-5.8648 2.5119-.825-.002.0142-.57461 1.8648-1.273zm-103.59-.15c.97297-.22038 2.323-.20589 3 .0322.67703.2381-.11903.41841-1.769.40069-1.65-.0177-2.2039-.21251-1.231-.43289zm9 0c.97297-.22038 2.323-.20589 3 .0322.67703.2381-.11903.41841-1.769.40069-1.65-.0177-2.2039-.21251-1.231-.43289zm-18.121-2.0215c-2.3936-.94408-6.0708-2.8997-8.1714-4.3458-4.2044-2.8944-9.0147-10.369-8.909-13.844.04696-1.5443.44080-1.0165 1.2945 1.7347 2.5075 8.0811 7.9184 12.962 18.262 16.474 2.6816.91034 4.2006 1.6649 3.3756 1.6767s-3.4584-.75086-5.8521-1.6949zm27.849-.25c0-.20253 1.811-1.4099 4.0244-2.6831s6.0809-4.7476 8.5945-7.7209c5.4577-6.4561 6.3344-7.2444 3.7962-3.4139-2.8133 4.2459-9.7515 10.827-13.3 12.616-1.7133.86362-3.1152 1.4045-3.1152 1.202zm94.233-1.5578c1.5033-.97501 3.9023-3.0161 5.3311-4.5357s2.1286-1.9366 1.555-.9265c-1.1005 1.9378-7.6863 7.3094-8.9042 7.2625-.39336-.0151.51476-.82527 2.018-1.8003zm7.7974-8.1679c0-.47806.43621-1.4559.96937-2.173.53316-.71708.96937-.91265.96937-.43459 0 .47805-.43621 1.4559-.96937 2.173-.53316.71709-.96937.91265-.96937.4346zm-59.271-3.2595c-2.2302-2.9661-5.9412-9.476-5.5793-9.7874.17587-.1513 1.9853 2.429 4.021 5.734 3.6724 5.9622 4.3827 7.8097 1.5583 4.0534zm61.398-2.3903c0-1.1951.22698-1.6841.50439-1.0865.27741.59757.27741 1.5754 0 2.173-.27741.59756-.50439.10864-.50439-1.0865zm-84.462-4.7696c.91468-1.6672 1.8406-2.8769 2.0576-2.6883.45746.39762-2.5782 5.7196-3.2625 5.7196-.25198 0 .29023-1.3641 1.2049-3.0312zm85.5-.88011c.0204-1.4342.2445-1.9156.49804-1.0699.25354.84569.23687 2.0191-.0371 2.6076-.27393.58847-.48137-.10346-.46099-1.5376zm-151.12-1.81c.04798-1.0126.28494-1.2185.60417-.52514.28887.62745.25334 1.3771-.07895 1.666-.33229.28882-.56864-.22455-.52522-1.1408zm81.545-2.5687c-.96498-2.1858-.68031-2.7497.49853-.9877.58369.87245.8506 1.7694.59313 1.9932-.25747.22379-.74872-.22868-1.0917-1.0055zm68.571-1.7048c.0204-1.4342.2445-1.9156.49804-1.07.25354.8457.23687 2.0191-.0371 2.6076-.27393.58847-.48137-.10346-.46099-1.5376zm-81.164.86919c0-.47806.43621-1.4559.96937-2.173.53316-.71708.96937-.91265.96937-.43459 0 .47805-.43621 1.4559-.96937 2.173-.53316.71709-.96937.91265-.96937.4346zm-67.836-2.6076c.02038-1.4342.24450-1.9156.49804-1.07.25354.84569.23687 2.0191-.03705 2.6076-.27393.58847-.48137-.10346-.46099-1.5376zm76.742-5.3769-2.2685-5.9226-1.4385 3.7484c-.79116 2.0616-1.6214 3.5894-1.845 3.395-.22358-.19433.28767-2.0635 1.1361-4.1537.84845-2.0902 1.3071-4.9869 1.0192-6.4372-.28786-1.4503 1.0427 1.2463 2.9567 5.9924 1.9141 4.7461 3.3065 8.7802 3.0942 8.9647-.21225.18448-1.4067-2.3297-2.6544-5.5871zm70.263.85712c-.62427-1.768-.9695-3.3584-.76718-3.5343.20232-.17585.90755 1.1017 1.5672 2.8389.65963 1.7372 1.0049 3.3277.76718 3.5343-.23768.20659-.94291-1.0709-1.5672-2.8389zm-146.09.61c-.01704-.71709.58718-2.4772 1.3427-3.9114 1.7684-3.3569 1.7944-1.7955.03612 2.173-.74131 1.6732-1.3618 2.4555-1.3788 1.7384zm142.58-8.27c-.91467-1.6672-1.4569-3.0312-1.2049-3.0312.68426 0 3.7199 5.322 3.2625 5.7196-.21698.1886-1.1429-1.0212-2.0576-2.6884zm-139.7.98182c0-.93281 2.9754-5.7514 3.5514-5.7514.275 0-.24378 1.2712-1.1529 2.8249-1.8562 3.1725-2.3985 3.8341-2.3985 2.9266zm133.3-9.8801c-5.9223-7.2344-22.12-22.803-24.645-23.688-2.0086-.70416-1.9678-.76008.59273-.81137 1.5125-.0303 2.6375.2569 2.5.63824-.1375.38133 3.2294 4.0196 7.4819 8.0851 7.8553 7.5098 16.189 16.472 17.897 19.245 1.7893 2.9059.24902 1.5096-3.8269-3.4692zm-127.6.79191c.98646-1.5962 4.2686-5.4513 7.2936-8.5669s6.175-6.6003 7-7.7439c1.2795-1.7735 2.2351-2.0623 6.5-1.9646l5 .11459-4.548.55623c-5.4697.66895-8.9368 3.6659-21.246 18.365-1.7248 2.0597-1.7248 2.0305 0-.7603zm61.373-1.5162c.048-1.0126.28494-1.2185.60416-.52514.28887.62744.25335 1.3771-.0789 1.666-.33229.28883-.56864-.22454-.52522-1.1408zm-1.579-4.7081c-.37968-1.5025-.48187-2.9131-.22711-3.1345.25477-.22145.75072.84684 1.1021 2.374.83365 3.623.0258 4.3252-.875.76054zm-1.3421-6.0843c0-1.1951.22698-1.6841.50439-1.0865.27741.59757.27741 1.5754 0 2.173-.27741.59757-.50439.10865-.50439-1.0865zm-.96294-4.7806c.0204-1.4342.2445-1.9156.49804-1.07.25354.8457.23687 2.0191-.037 2.6076-.27393.58846-.48137-.10346-.46099-1.5376zm-49.445-1.048c1.2375-.20718 3.2625-.20718 4.5 0 1.2375.20717.225.37668-2.25.37668s-3.4875-.16951-2.25-.37668zm-8.25-1.125c-2.5482-.95177.08083-.95177 3.5 0 2.0097.55944 2.1078.70092.5.72146-1.1.0141-2.9-.3106-4-.72146zm27.312.27544c.72188-.25108 1.5844-.22021 1.9167.0686.33229.28882-.25833.49426-1.3125.45652-1.1649-.0417-1.4019-.24767-.60417-.52513zm7.6284-2.0334c2.7175-.92218 5.0986-1.5396 5.2915-1.3719.47716.41475-7.4649 3.1401-9.0026 3.0893-.67637-.0223.99362-.79517 3.7111-1.7174zm-41.441-.41496c-1.375-.68321-2.05-1.2422-1.5-1.2422s2.125.55898 3.5 1.2422c1.375.6832 2.05 1.2422 1.5 1.2422s-2.125-.55898-3.5-1.2422zm-9.6509-5.1397c-5.2022-3.4117-11.79-9.9065-13.743-13.548-.38446-.71708.08677-.32595 1.0472.86919 2.3707 2.9502 14.254 13.22 17.346 14.992 1.375.78755 2.2071 1.4524 1.8491 1.4775s-3.283-1.6806-6.5-3.7903zm57.651 3.4943c0-.18789.69837-.57454 1.5519-.85924.88992-.29682 1.2913-.15111.94098.3416-.58726.82591-2.4929 1.2216-2.4929.51764zm68.728-1.1549c1.7752-.19202 4.9252-.19517 7-.007s.6223.34526-3.2277.34912c-3.85.003-5.5475-.15009-3.7723-.3421zm-64.728-.6153c0-.23903.9-.85326 2-1.365 1.1-.51169 2-.73478 2-.49576 0 .23903-.9.85326-2 1.365-1.1.51169-2 .73478-2 .49576zm77.75-.20222c.6875-.24112 1.8125-.24112 2.5 0s.125.43841-1.25.43841-1.9375-.19729-1.25-.43841zm-27.25-1.1627c-1.2606-.47085-1.4455-.747-.5-.747.825 0 2.4.33615 3.5.747 1.2606.47086 1.4455.74701.5.74701-.825 0-2.4-.33615-3.5-.74701zm32.312.27544c.72187-.25108 1.5844-.22021 1.9167.0686.33229.28883-.25834.49426-1.3125.45652-1.165-.0417-1.4019-.24767-.60417-.52513zm-70.655-2.0138c0-1.1951.22698-1.684.50439-1.0865.27741.59757.27741 1.5754 0 2.173-.27741.59757-.50439.10865-.50439-1.0865zm-4.2293-1.4388c1.8857-1.3599 4.3014-3.0807 5.3682-3.824 1.8917-1.3182 1.8626-1.4184-1.1786-4.0618-2.1182-1.8411-3.0854-3.4983-3.0158-5.1674.0963-2.3125.15048-2.2793.91991.56412.44965 1.6617 1.8034 3.7152 3.0084 4.5633 2.9989 2.1107 9.0516 1.985 12.329-.25602 1.5948-1.0904 2.4202-1.3233 2.0973-.59177-.35934.81395 2.1628 2.5294 7.7551 5.2747 4.5582 2.2377 7.8282 4.0685 7.2667 4.0686-.5615.00002-4.5033-1.7718-8.7596-3.9374-6.2493-3.1796-8.1091-3.7652-9.6634-3.0422-1.0586.49243-3.3139.89531-5.0118.89531-2.3121 0-3.3696.53871-4.212 2.1457-.61863 1.1802-1.5063 1.9408-1.9727 1.6902-.46634-.25051-2.538.58105-4.6038 1.8479l-3.7559 2.3034 3.4286-2.4725zm37.071 1.4388c-.825-.46342-1.05-.84257-.5-.84257s1.675.37915 2.5.84257 1.05.84257.5.84257-1.675-.37915-2.5-.84257zm44.083.57416c1.5788-1.1179 11.801-5.4604 11.345-4.8197-.59584.83797-9.8455 5.1147-11.062 5.1147-.38495 0-.51241-.13276-.28325-.29503zm18.587-11.066c3.2588-3.141 7.4691-8.2993 9.3562-11.463 1.8871-3.1635 3.5964-5.6082 3.7984-5.4325 1.1119.96643-7.2204 12.083-12.702 16.948l-6.3774 5.6587 5.9252-5.7109zm-92.69-1.2636c-1.8383-1.9253-.79223-2.1466 1.2701-.26872.9625.87643 1.3551 1.5935.87244 1.5935-.48265 0-1.4468-.59615-2.1425-1.3248zm6.7701-.26872c.9625-.87644 1.9266-1.4726 2.1425-1.3248.59073.40444-2.0064 2.9183-3.0149 2.9183-.48266 0-.0901-.71708.87244-1.5935zm6.3998-2.5746c-.0935-1.787-1.1115-3.7002-2.7066-5.0868-1.4062-1.2223-1.9961-2.0599-1.3108-1.8614 2.5112.72757 5.0362 4.73 4.5987 7.2894-.42427 2.4817-.43379 2.4762-.58117-.34129zm-107.69-3.76c-1.4212-2.4378-2.4164-4.5781-2.2115-4.7563.20494-.17813 1.5803 1.8164 3.0564 4.4324 1.4761 2.6159 2.4712 4.7563 2.2115 4.7563-.25976 0-1.6351-1.9946-3.0564-4.4324zm93.55 2.8004c0-.87663 2.8922-3.134 3.3575-2.6206.17004.18763-.51583 1.0256-1.5242 1.8622-1.0083.8366-1.8333 1.1778-1.8333.75832zm7.75-1.1205c-.9625-.87643-1.3551-1.5935-.87244-1.5935 1.0086 0 3.6057 2.5139 3.0149 2.9183-.21587.1478-1.18-.44836-2.1425-1.3248zm-11.131-1.843c.343-.85427 1.9235-2.1375 3.5122-2.8516 2.8211-1.268 2.8527-1.3586 1.3531-3.8792-.8445-1.4195-1.3105-2.5808-1.0355-2.5808s1.1981 1.1734 2.0514 2.6076c.85325 1.4342 1.9186 2.6076 2.3674 2.6076.44882 0 1.3874-1.6623 2.0857-3.6941 1.3116-3.8161 4.764-10.213 5.5119-10.213.23339 0-.74426 2.2187-2.1726 4.9304s-2.6409 6.0355-2.6947 7.3862c-.0781 1.9628-.56259 2.4561-2.4135 2.4577-2.7428.003-6.1908 1.4809-7.9367 3.4034-1.1155 1.2283-1.1842 1.2092-.62882-.17413zm-93.995-7.1723c-.96498-2.1857-.68031-2.7497.49853-.98769.58369.87245.85060 1.7694.59313 1.9932-.25747.22379-.74872-.22868-1.0917-1.0055zm-2.652-5.6758c-.71370-1.4976-2.3278-4.0425-3.587-5.6553l-2.2894-2.9323 4.0533-.94868c2.2293-.52178 4.2789-.75263 4.5546-.51301.27568.23962-1.1393.70319-3.1445 1.0301-2.0051.32696-3.511.84110-3.3465 1.1425.16458.30144 1.5644 2.6404 3.1107 5.1977s2.6168 4.8189 2.3789 5.0257c-.23795.20682-1.0166-.8493-1.7303-2.3469zm95.698-1.5972c-4.5946-5.2367-12.374-10.539-21.934-14.95-3.9797-1.8363-6.8804-3.349-6.4459-3.3615.43441-.01258 2.5719.76735 4.75 1.7332 3.6998 1.6406 3.9643 1.6549 4.0236.21730.0524-1.2731.20988-1.2238.9121.28612.46679 1.0037 3.7565 3.6284 7.3104 5.8327 5.5521 3.4436 12.628 9.7315 15.103 13.42 1.5915 2.3723-.17188.86568-3.7196-3.1779zm111.36 3.8298c0-.47805.43621-1.4559.96937-2.173.53316-.71708.96937-.91265.96937-.43459 0 .47805-.43621 1.4559-.96937 2.173-.53316.71708-.96937.91265-.96937.43459zm-93.251-9.5611c2.0215-3.4289 9.4903-10.053 16.293-14.45l6.9266-4.4769.18908-5.3129.18909-5.3129.36082 4.9978c.19845 2.7488.58129 4.9978.85075 4.9978.26947 0 2.2541-.78227 4.4103-1.7384 2.1562-.95611 4.2758-1.7281 4.7102-1.7155.43441.01258-2.4663 1.5253-6.4459 3.3615-9.4048 4.3395-17.29 9.6752-22.475 15.208-5.4868 5.855-6.2321 6.5157-5.009 4.4411zm97.361-.43460c0-.71708.38674-2.0861.85943-3.0422.54172-1.0957.85943-1.2564.85943-.43460 0 .71708-.38674 2.0861-.85943 3.0422-.54172 1.0957-.85943 1.2564-.85943.43460zm-206.14-3.473c.825-.46342 1.95-.84257 2.5-.84257s.325.37916-.5.84257-1.95.84257-2.5.84257-.325-.37916.5-.84257zm11-4.2753c4.125-1.8256 8.625-3.588 10-3.9164 1.375-.32847-1.7183 1.1847-6.8739 3.3627-11.34 4.7904-13.606 5.1918-3.1261.55376zm197.03 2.1023c0-.47806.43621-1.4559.96937-2.173.53316-.71708.96937-.91265.96937-.43460 0 .47806-.43621 1.4559-.96937 2.173-.53316.71708-.96937.91265-.96937.43460zm3.5742-6.8775c.31871-.72190-.20925-1.3966-1.2814-1.6376-1.196-.26879-.86509-.44449.96175-.51062 2.4866-.09002 2.6704.08552 1.7148 1.6376-1.2251 1.9897-2.2068 2.349-1.3952.51062zm-154.1-.510c-1.3187-.49256-1.4891-.76328-.5-.79479.825-.02628 2.175.33138 3 .79479 1.828 1.0268.24908 1.0268-2.5 0zm12.855-6.5189c-.003-4.3025.16605-6.1722.37577-4.1549s.21222 5.5375.006 7.8227c-.20713 2.2852-.37873.63466-.38177-3.6678zm-41.855 5.6497c1.1-.41085 2.9-.73551 4-.72146 1.6078.02054 1.5097.16202-.5.72146-3.4192.95177-6.0482.95177-3.5 0zm24.312-.59376c.72188-.25108 1.5844-.22020 1.9167.06862.33229.28883-.25833.49426-1.3125.45652-1.1649-.0417-1.4019-.24767-.60417-.52514zm-13.562-.90861c2.0625-.18752 5.4375-.18752 7.5 0s.375.34095-3.75.34095-5.8125-.15343-3.75-.34095zm165.5.05753c.6875-.24112 1.8125-.24112 2.5 0s.125.43841-1.25.43841-1.9375-.19728-1.25-.43841zm-11.039-2.6258c-3.7338-1.2298-6.6246-2.3786-6.424-2.553.20063-.17439 3.9306.83445 8.2888 2.2419s7.249 2.5563 6.424 2.553-4.555-1.0121-8.2888-2.2419zm-15.9-5.215c.72187-.25108 1.5844-.22020 1.9167.06862.33229.28882-.25834.49426-1.3125.45652-1.165-.0417-1.4019-.24767-.60417-.52514zm-30-.86919c.72187-.25108 1.5844-.22020 1.9167.06862.33229.28882-.25834.49426-1.3125.45652-1.165-.0417-1.4019-.24767-.60417-.52514zm26 0c.72187-.25108 1.5844-.22020 1.9167.06862.33229.28882-.25834.49426-1.3125.45652-1.165-.0417-1.4019-.24767-.60417-.52514zm-21.56-.875c.9625-.21862 2.5375-.21862 3.5 0 .9625.21863.175.39750-1.75.39750s-2.7125-.17888-1.75-.39750zm14.512-.01559c1.2439-.20790 3.0439-.20001 4 .01754.95609.21755-.0617.38766-2.2617.37801-2.2-.0096-2.9822-.18764-1.7383-.39555zm-95.567-5.9042c.0204-1.4342.2445-1.9156.49804-1.0699.25354.84569.23687 2.0191-.037 2.6076-.27398.58847-.48142-.10346-.46104-1.5376zm60.037-3.9114c0-1.6732.2058-2.3577.45733-1.5211.25152.83660.25152 2.2056 0 3.0422-.25153.83660-.45733.15211-.45733-1.5211zm-59.074-.86919c0-1.1951.22698-1.6841.50439-1.0865.27741.59757.27741 1.5754 0 2.173-.27741.59757-.50439.10865-.50439-1.0865zm.92106-3.9838c.048-1.0126.28494-1.2185.60416-.52514.28887.62745.25335 1.3771-.0789 1.666-.3323.28882-.56864-.22454-.52522-1.1408zm57.044.07243c-.0824-.95611-.38139-2.7162-.66439-3.9114l-.51456-2.173 1.0711 2.1323c.58913 1.1727.8881 2.9329.66439 3.9114-.39626 1.7332-.41061 1.7343-.55658.04071zm-56.03-3.042c-.0302-.71708.38124-1.8905.9144-2.6076 1.1813-1.5889 1.1813-.21650 0 2.173-.56668 1.1462-.87815 1.2943-.9144.43460zm53.993-4.0576c-.0434-.55847-.33793-1.7319-.65446-2.6076-.54705-1.5135-.51883-1.5153.57078-.03834.63045.85461.92496 2.028.65445 2.6076-.35498.76054-.51379.77121-.57077.03834zm-52.048-.72298c0-.47806.43621-1.4559.96937-2.173.53316-.71708.96937-.91265.96937-.43460 0 .47806-.43621 1.4559-.96937 2.173-.53316.71708-.96937.91265-.96937.43460zm1.9694-4.3852c0-1.4359 8.5787-13.367 15.501-21.558 3.5744-4.2297 6.4953-7.3588 6.4908-6.9535-.004.40524-3.024 4.257-6.7102 8.5595-3.6861 4.3025-8.6325 10.747-10.992 14.321-2.3594 3.5738-4.2898 6.108-4.2898 5.6316zm47.556-1.1123c-1.1528-3.157-8.1671-11.825-14.333-17.713-3.3563-3.2048-6.5924-6.725-7.1912-7.8227-.97549-1.7882-.9037-1.7697.69012.17719.97839 1.1951 4.2695 4.5198 7.3137 7.3881 7.7822 7.3328 15.964 18.109 14.63 19.268-.26533.23063-.76459-.35340-1.1095-1.2978zm-24.31-28.542c-1.4304-.50170-1.6993-2.0319-.35699-2.0319.49116 0 1.152.58670 1.4686 1.3038.31658.71708.47722 1.2729.35699 1.2352-.12024-.03774-.78112-.26590-1.4686-.50703z" fill="#060606"/>
</svg>
