<?xml version="1.0" encoding="UTF-8" standalone="no"?>
<!-- Created with Inkscape (http://www.inkscape.org/) -->

<svg
   xmlns:dc="http://purl.org/dc/elements/1.1/"
   xmlns:cc="http://creativecommons.org/ns#"
   xmlns:rdf="http://www.w3.org/1999/02/22-rdf-syntax-ns#"
   xmlns:svg="http://www.w3.org/2000/svg"
   xmlns="http://www.w3.org/2000/svg"
   xmlns:sodipodi="http://sodipodi.sourceforge.net/DTD/sodipodi-0.dtd"
   xmlns:inkscape="http://www.inkscape.org/namespaces/inkscape"
   id="svg3387"
   height="260"
   viewBox="0 0 260 260"
   width="260"
   version="1.1"
   inkscape:version="0.91 r13725"
   sodipodi:docname="easydraw.svg">
  <defs
     id="defs13" />
  <sodipodi:namedview
     pagecolor="#ffffff"
     bordercolor="#666666"
     borderopacity="1"
     objecttolerance="10"
     gridtolerance="10"
     guidetolerance="10"
     inkscape:pageopacity="0"
     inkscape:pageshadow="2"
     inkscape:window-width="1234"
     inkscape:window-height="701"
     id="namedview11"
     showgrid="false"
     inkscape:zoom="4.5713972"
     inkscape:cx="132.99282"
     inkscape:cy="218.89454"
     inkscape:window-x="20"
     inkscape:window-y="66"
     inkscape:window-maximized="0"
     inkscape:current-layer="svg3387" />
  <metadata
     id="metadata3393">
    <rdf:RDF>
      <cc:Work
         rdf:about="">
        <dc:format>image/svg+xml</dc:format>
        <dc:type
           rdf:resource="http://purl.org/dc/dcmitype/StillImage" />
        <dc:title></dc:title>
      </cc:Work>
    </rdf:RDF>
  </metadata>
  <g
     id="g3454"
     transform="matrix(1.0494378,0,0,1.0480535,-179.49205,12.426216)">
    <g
       id="g3442">
      <g
         id="g3436"
         transform="translate(172.51546,-7.9827206)" />
    </g>
    <path
       id="path3452"
       style="fill:none;fill-rule:evenodd;stroke:#000000;stroke-width:1px;stroke-linecap:butt;stroke-linejoin:miter;stroke-opacity:1"
       d="m 338.82215,125.18071 -15.07848,-4.43484 -7.09575,-3.10439 -3.99136,-1.33046 -2.66091,-2.21742 -5.32181,-2.66091 0,0 m -56.32253,19.95681 9.31317,-0.88697 7.53924,-1.33046 6.65227,-2.21742 6.65226,-2.21742 6.20878,-3.99136 4.43485,-3.10439 4.87833,-2.66091 -3.10439,4.43485 -0.44349,7.09575 0,5.32181 0.88697,5.32181 1.77394,5.7653 1.77394,5.32182 1.77393,5.32181 1.33046,4.87833 0,0.44348 m -29.71346,-84.705527 -14.63499,-5.765299 -10.20014,-2.217422 -12.41757,0.443485 -8.4262,2.660906 -10.64363,3.547876 -12.86105,4.87833 -5.32182,1.773937 -2.6609,0 -4.43485,1.773938 3.10439,4.87833 3.99136,7.982725 4.87833,8.869681 5.7653,8.42621 9.75666,9.31317 9.31317,5.32182 11.5306,4.43484 9.75666,0.44349 4.87833,0.44348 -9.75666,8.42621 -4.87833,7.53923 -3.99136,4.87833 -4.43484,7.98272 -2.66091,5.32182 -1.77394,7.98272 0,6.20878 2.21742,6.20878 4.43485,5.7653 6.65227,4.87833 7.53923,2.21742 8.42621,1.33046 7.98272,0 7.09575,-2.21743 5.7653,-1.77393 4.87833,-3.54788 2.21742,-3.99136 6.65227,-7.53924 4.43484,-7.98272 3.10439,-4.43484 1.77394,-6.20878 2.21742,-3.1044 6.65227,12.41757 4.43485,10.20014 7.53923,8.86969 7.98272,7.09575 5.32182,2.66091 8.4262,1.77394 6.65227,0 9.31317,-2.66091 7.98272,-3.10439 4.43485,-3.54788 3.99136,-5.76529 1.77394,-4.43485 0,-3.99136 0,-4.43484 -0.44349,-5.32182 -1.33045,-3.54787 -1.77394,-4.43485 -3.10439,-5.32181 -3.10439,-4.43485 -4.87833,-6.20878 -3.10439,-3.54788 -3.99136,-4.87832 -7.09576,-6.65227 -5.76529,-5.32182 12.41756,0 14.19151,-2.21742 11.97408,-4.43484 10.64362,-7.98272 7.09576,-8.42621 5.76529,-9.756658 1.33046,-5.765298 2.6609,-5.765299 1.77394,-5.321813 0.88697,-2.660907 0.88697,-1.773938 2.21742,-2.660907 -7.98272,-1.773938 -7.98272,-1.773938 -6.65227,-2.660907 -7.53923,-1.773938 -5.32182,-1.330453 -5.32181,-0.886969 -4.87833,-0.886969 -4.87833,-0.443484 -6.65227,0 -4.43484,0.886968 -4.87833,1.330454 -5.32181,1.773938 -6.20879,1.773938 -2.6609,0.886969 -1.77394,1.773938 M 297.1346,0.5615794 l -7.98272,10.6436276 -7.09575,8.426205 -4.43484,5.765298 -2.21743,5.321814 -3.1044,6.208783 -3.10439,6.208783 -1.77393,5.765298 -0.88697,7.539236 0,6.208783 0.44348,5.765298 0.88697,4.878329 11.5306,8.869692 8.42621,7.09575 5.7653,7.095753 2.21742,2.66091 2.21742,-2.21742 4.87833,-11.087123 5.7653,-7.095748 7.53924,-4.878329 5.32181,-4.87833 7.53924,-5.321813 -1.33046,-6.208783 -0.44348,-8.86969 -0.88697,-6.208782 -1.33045,-3.991361 -0.88697,-3.99136 -1.33046,-2.660907 -2.21742,-3.104391 -0.88697,-2.660907 -4.43484,-6.652267 -3.99136,-4.87833 -5.7653,-4.8783286 -3.99136,-3.547876 -0.88697,-2.217422 z" />
  </g>
</svg>
