<?xml version="1.0" encoding="UTF-8" standalone="no"?>
<!-- Created with Inkscape (http://www.inkscape.org/) -->
<svg id="svg3644" xmlns:rdf="http://www.w3.org/1999/02/22-rdf-syntax-ns#" xmlns="http://www.w3.org/2000/svg" height="237" viewBox="0 0 302 237" width="302" version="1.1" xmlns:cc="http://creativecommons.org/ns#" xmlns:dc="http://purl.org/dc/elements/1.1/">
 <metadata id="metadata3650">
  <rdf:RDF>
   <cc:Work rdf:about="">
    <dc:format>image/svg+xml</dc:format>
    <dc:type rdf:resource="http://purl.org/dc/dcmitype/StillImage"/>
    <dc:title/>
   </cc:Work>
  </rdf:RDF>
 </metadata>
 <g id="g3654" transform="translate(-1.2238 -3.6713)">
  <path id="path3668" fill="#d0d0d0" d="m10.124 216.19c-1.4271-2.2663 1.9021-14.974 6.078-23.2 3.6988-7.2864 11.374-17.765 16.503-22.532 9.7971-9.1044 23.737-15.832 35.261-17.017l2.7452-.28236-3.3553-4.3005c-1.8454-2.3653-7.3183-7.4066-12.162-11.203-5.3329-4.1797-12.775-11.481-18.868-18.509-5.5336-6.3838-10.777-12.19-11.652-12.902-4.105-3.3438-3.7781-4.2963 4.1397-12.06 6.1318-6.0121 8.3322-9.0118 11.657-15.892 2.2545-4.6645 4.1798-8.9155 4.2785-9.4466.09872-.53111.51703-1.4091.92958-1.9511.41255-.54198 2.0446-2.9541 3.6267-5.3602s4.3923-5.8202 6.2448-7.5869c1.892-1.8044 3.3727-4.1607 3.3785-5.3765.016-3.3652-2.6887-8.9142-5.9639-12.236-4.7094-4.7761-3.4435-5.796 7.2741-5.8604 6.3035-.03786 12.128-.77602 18.666-2.3656 5.2271-1.2708 11.099-2.5807 13.049-2.9109 2.6455-.44795 4.0194-1.3893 5.4142-3.7095 2.4193-4.0245 9.3768-8.5062 17.464-11.25 5.4832-1.8599 8.3457-2.1783 19.472-2.166 12.131.013439 13.636.22146 21.509 2.9729 12.469 4.3577 18.205 8.1514 30.283 20.031 11.329 11.142 12.988 12.187 28.163 17.737 3.8894 1.4224 7.0052 3.1244 7.0052 3.8267 0 .69562-.85101 4.8193-1.8912 9.1636-1.8256 7.6253-3.9062 24.049-3.9062 30.834v3.2927l3.975-3.3395c9.0022-7.5631 23.016-11.399 39.505-10.813 13.032.46284 28.987 3.8159 28.987 6.092 0 1.9197-15.118 20.639-22.26 27.562-6.6959 6.4911-13.559 10.35-25.086 14.106-7.5654 2.4651-9.3985 2.6793-23.248 2.7164l-15.035.0402-3.2395 5.444c-7.5238 12.644-19.166 19.805-48.016 29.534-9.5782 3.23-11.933 4.3006-22.192 10.088l-4.9615 2.799-10.981-5.1103c-6.0398-2.8107-13.699-6.1886-17.02-7.5064l-6.039-2.3961v3.0902c0 6.731-12.518 20.406-25.309 27.647-7.5889 4.2963-14.712 7.1995-37.496 15.283-6.6428 2.3567-12.491 4.6724-12.996 5.146-1.2273 1.1512-3.1714 1.0909-3.9352-.12214zm14.098-7.9122c26.317-9.2552 36.989-14.094 46.12-20.909 8.8157-6.5805 15.978-15.967 15.471-20.276-.24466-2.0798-.85292-2.6062-3.2799-2.8387-1.6388-.15697-5.2259.58363-7.9714 1.6458s-4.9918 1.7488-4.9918 1.5258c0-.22299 2.5701-1.827 5.7114-3.5646l5.7114-3.1591-3.2823-2.1118c-4.1383-2.6626-8.8862-2.6986-16.919-.12834-17.991 5.7571-33.285 19.492-41.471 37.244-3.2157 6.9736-5.9779 15.778-4.95 15.778.40588 0 4.8392-1.4423 9.8518-3.2052zm105.45-35.09c6.4618-4.4123 10.525-6.244 24.444-11.019 11.889-4.0785 17.434-6.3809 23.635-9.8144 5.7838-3.2023 18.396-14.482 18.396-16.452 0-.6799.54351-1.2699 1.2078-1.3111.96136-.0596.96042-.17277-.005-.55471-.6668-.26391-2.5795.64927-4.2505 2.0293-7.3248 6.0494-23.391 12.057-36.964 13.822-6.6959.87059-11.677.85801-22.418-.0566-13.26-1.1291-14.148-1.0909-22.311.95701-6.7349 1.6898-10.032 2.0179-15.872 1.5795-7.9372-.59595-18.023-3.5493-22.396-6.5581-1.492-1.0265-2.964-1.6197-3.2711-1.3183-1.4842 1.4567 6.8625 10.549 8.6748 9.4497.56202-.34093.69670-.13523.31174.47611-.44007.69888 3.9975 3.2559 12.653 7.2912 7.3321 3.4181 17.462 8.2964 22.51 10.841 5.0486 2.5442 9.2671 4.6637 9.3745 4.7099s2.9336-1.7858 6.2805-4.0712zm-19.454-25.823c19.289-5.6129 33.752-21.476 33.752-37.018v-4.1025l-5.8463 2.9159c-11.582 5.7769-25.559 6.538-35.991 1.9598-12.208-5.357-18.081-21.26-12.443-33.696 1.1488-2.5343 1.8077-5.0541 1.4642-5.5996-.34349-.54550-.17010-.71617.38530-.37925.55541.33691 1.7081-.43342 2.5616-1.7119 4.6668-6.9908 15.258-14.015 25.648-17.01 6.3246-1.8234 15.644-1.896 20.599-.16058 4.1583 1.4565 4.3128 1.1916 1.7301-2.9659-3.4181-5.5022-13.706-14.457-20.231-17.61-5.658-2.7339-7.3539-3.0818-16.528-3.39-8.8847-.29848-11.863.04474-22.744 2.6212-6.8862 1.6305-15.601 3.0617-19.366 3.1803l-6.8461.21573 2.1745 3.3193c2.7499 4.1976 4.5887 13.009 3.698 17.72-.37620 1.9898-1.9414 7.1897-3.4781 11.556-9.2397 26.249-8.2433 45.131 3.3174 62.869 5.3182 8.16 14.545 14.631 24.89 17.457 6.1996 1.6932 17.127 1.6132 23.256-.17008zm49.977-1.8758c4.0962-.82843 10.836-2.787 14.978-4.3525 8.4814-3.2057 19.661-10.192 19.259-12.035-.14601-.66815.17409-.94816.71136-.62225 1.0821.65641 6.0975-4.5724 9.4461-9.8481 3.9633-6.2441 6.0334-14.962 7.5464-31.781.80147-8.9091 2.1371-19.399 2.968-23.311.83095-3.912 1.5797-7.6863 1.6639-8.3872.095-.79112-3.6576-2.7262-9.8944-5.1023-9.9574-3.7935-10.161-3.9351-22.729-15.796-16.71-15.754-25.99-20.65-43.4-22.883-13.69-1.7563-30.96 2.744-38.8 10.108l-2.8816 2.7087 8.1958.59159c4.7406.34218 10.539 1.4707 13.754 2.6769 10.475 3.93 20.832 13.863 26.754 25.657 4.1193 8.2038 7.0665 13.544 7.8504 14.225.30079.26119 1.9622 2.5163 3.692 5.0112 7.9836 11.515 9.3766 21.036 4.3939 30.03-2.7034 4.8797-9.7215 11.382-14.695 13.614-1.2084.54237-2.4557 2.0866-2.7718 3.4315-1.7108 7.2814-10.711 18.79-18.704 23.916-2.4071 1.5438-2.3953 1.5515 3.3818 2.2036 3.1886.35989 6.2322.80139 6.7636.98109 2.6784.90573 15.935.29918 22.506-1.0297zm-98.719-10.11c-8.082-11.06-11.358-20.08-11.962-32.96-.595-12.677.804-21.445 5.586-35.015 2.1-5.96 3.644-11.007 3.43-11.217-.859-.843-8.35 11.364-13.844 22.56-5.098 10.386-6.641 12.627-12.215 17.745l-6.3802 5.858 7.0013 7.495c3.8507 4.1222 9.6102 10.295 12.799 13.717 8.5096 9.1322 19.98 17.829 15.585 11.816zm176.21-8.5866c15.987-5.1606 23.691-10.305 34.126-22.788 8.424-10.077 11.804-14.69 11.176-15.25-.85455-.76219-14.4-3.325-20.706-3.9175-21.762-2.0449-48.752 10.285-48.752 22.271 0 2.0044.0227 2.0067 1.9918.20608 3.0515-2.7904 13.491-7.5953 17.816-8.2004 3.71-.51901 3.6519-.45835-1.4493 1.5129-9.8445 3.8042-21.288 13.882-25.816 22.735-1.9818 3.875-2.0181 4.2431-.48311 4.8966 2.793 1.189 27.345.0677 32.096-1.4658zm-79.94-21.46c5.4534-6.4227 7.0466-15.301 4.0957-22.822l-1.3023-3.3193-.0735 2.7287c-.1049 3.894-5.4377 14.032-9.3279 17.733-2.9535 2.8097-3.3066 3.6876-3.3066 8.2211v5.0755l4.1065-2.8064c2.2586-1.5435 4.8722-3.7083 5.8082-4.8106zm-29.722 3.3925c18.296-4.7938 32.986-23.491 27.153-34.562-2.009-3.8131-4.4629-5.6358-9.296-6.9045-3.6573-.96009-5.2424-.88231-10.066.49391-9.0924 2.5944-13.815 8.4223-11.54 14.241.88118 2.2539 5.8991 4.5147 8.3857 3.7783 2.9922-.88622 7.44-5.19 7.44-7.1991 0-1.9696-2.7446-3.613-4.8312-2.8928-1.2432.42909-1.2607.27594-.12325-1.0765 1.9705-2.343 5.622-1.9573 7.4542.78723 4.2884 6.4238-5.7561 15.542-14.695 13.34-4.4016-1.0843-8.0955-5.5561-8.0955-9.8004 0-8.6297 10.242-15.861 22.465-15.861 4.05 0 6.5221-.39055 6.5221-1.0304 0-1.6928-9.9123-6.0895-15.038-6.6705-5.6463-.63992-16.14 1.5406-20.851 4.3327-1.7836 1.0571-4.1132 2.3032-5.177 2.7691-3.3387 1.4624-11.109 10.368-13.566 15.548-2.906 6.1263-3.1167 13.704-.53609 19.281 2.04 4.4088 7.9733 9.7058 12.787 11.416 4.3856 1.5578 15.681 1.563 21.608.0102z"/>
  <path id="path3666" fill="#afafaf" d="m10.526 216.09c-1.0583-13.3 10.923-35.9 25.475-48.05 9.238-7.71 24.457-14.36 32.933-14.39l2.7471-.0113-4.1221-4.8324c-2.2672-2.6578-6.9818-7.0915-10.477-9.8526-8.6645-6.8448-12.336-10.337-18.462-17.559-2.8756-3.3904-7.7412-8.8473-10.812-12.126-3.0713-3.2791-5.5841-6.7206-5.5841-7.6477 0-.92718 1.9974-3.1521 4.4387-4.9442 5.9136-4.3412 10.151-10.191 15.358-21.202 4.6124-9.754 10.296-18.553 14.397-22.29 3.9144-3.5668 2.8859-9.6904-2.7911-16.617-1.5943-1.9453-2.8987-3.9785-2.8987-4.5181 0-.59582 3.7945-1.0676 9.6623-1.2013 6.717-.15308 12.661-.98491 19.5-2.7289 5.4106-1.3798 10.683-2.5087 11.715-2.5087 1.0329 0 4.6499-2.6838 8.0379-5.9639 6.4658-6.2601 11.729-8.8163 23.048-11.193 7.9092-1.661 23.157-.56883 31.423 2.2508 13.504 4.6063 18.348 7.7284 31.752 20.463l12.694 12.06 11.353 4.2319c6.2441 2.3275 11.353 4.7708 11.353 5.4294.00018.65860-.85154 4.2147-1.8927 7.9025-1.933 6.8464-4.3613 27.74-3.7564 32.321l.33516 2.5377 5.6061-4.1717c3.5821-2.6655 8.4661-5.1033 13.527-6.7518 7.1318-2.323 9.2691-2.5774 21.448-2.5529 11.216.02252 15.002.41845 22.157 2.3174 4.7463 1.2596 8.783 2.7601 8.9702 3.3345.45596 1.3984-17.461 23.413-23.595 28.992-11.638 10.584-32.447 16.834-51.931 15.598l-9.7367-.61785-1.9191 3.511c-7.3615 13.468-20.456 21.957-48.298 31.312-7.3511 2.4699-15.421 5.9637-19.456 8.4234-3.7923 2.3117-7.6141 4.2031-8.493 4.2031-.87889 0-3.3491-.87683-5.4893-1.9485-3.7159-1.8606-27.971-12.277-28.588-12.277-.16264 0-.29571 1.0839-.29571 2.4087 0 4.2644-3.9423 10.21-11.969 18.051-6.6124 6.4595-9.4252 8.4158-17.984 12.507-5.58 2.6676-16.233 7.0102-23.673 9.6503-11.472 4.0707-17.487 6.3487-24.397 9.2399-.66428.27791-1.2539-.0738-1.3102-.78162zm17.495-8.8313c29.334-10.59 41.351-17.035 50.614-27.148 5.7675-6.2962 7.5536-9.6563 7.1746-13.497-.28576-2.8959-.45688-3.0093-4.1063-2.721-2.0945.16542-4.6318.73346-5.6386 1.2623-1.0068.52885-2.0528.74335-2.3245.47668s1.2874-1.3768 3.4646-2.467 3.9586-2.1521 3.9586-2.3597c0-.20767-1.557-1.322-3.46-2.4764-10.923-6.6259-38.828 6.9294-51.5 25.017-4.0675 5.8057-9.3858 16.49-11.141 22.383-1.9339 6.4916-1.9195 7.0618.15639 6.224 0.93-.37537 6.6912-2.4876 12.803-4.6939zm101.11-33.29c6.2248-4.6636 9.5198-6.1872 24.496-11.326 24.751-8.4935 35.604-15.492 44.064-28.415 2.063-3.1513 1.424-2.9162-4.9414 1.8183-5.5782 4.149-18.071 9.6469-27.038 11.9-8.9057 2.2371-20.311 2.7236-36.234 1.5456-9.5883-.70934-11.906-.58517-16.909.90585-6.8684 2.0471-20.378 2.3225-26.088.53179-6.1329-1.9234-11.379-4.162-14.252-6.082-2.3974-1.6019-2.6571-1.6213-2.6571-.19767 0 5.1716 9.845 12.263 28.82 20.759 7.2662 3.2534 15.82 7.2489 19.009 8.879 3.1886 1.63 6.1197 2.9842 6.5137 3.0093.39398.0251 2.7422-1.4722 5.2183-3.3273zm-15.971-27.332c17.372-6.019 29.654-19.848 30.638-34.495.21891-3.26.18472-5.9273-.076-5.9273-.26069 0-2.3923 1.0523-4.7369 2.3385-10.506 5.7635-27.687 6.9333-36.878 2.511-5.563-2.6767-11.737-9.9075-13.289-15.563-1.5573-5.6763-.66013-14.544 2.0344-20.109 3.032-6.2617 12.657-15.623 19.3-18.771 11.526-5.4623 24.629-6.7363 32.028-3.1138 1.5162.74241 2.7568 1.0027 2.7568.57850 0-1.5633-8.5167-12.064-12.647-15.593-5.5052-4.7039-14.577-8.9076-21.763-10.085-7.3516-1.2045-15.53-.37966-29.591 2.9842-6.2382 1.4924-14.339 2.7738-18.002 2.8477l-6.66.13437 2.784 5.1946c4.1501 7.7436 3.8977 14.709-1.0647 29.381-6.1101 18.066-7.2477 30.51-3.947 43.177 6.1365 23.55 21.978 36.609 44.513 36.694 6.1969.0234 9.7814-.51242 14.602-2.1828zm48.002-1.1334c16.406-3.2833 32.434-11.985 39.72-21.564 7.4176-9.7523 10.078-17.674 11.206-33.374.94877-13.199 2.3755-24.138 3.914-30.01.77133-2.9441 1.4024-5.7219 1.4024-6.1729 0-.45098-2.9349-1.839-6.5221-3.0844-12.191-4.2326-15.807-6.574-26.498-17.158-11.859-11.74-18.029-15.757-30.804-20.057-8.057-2.712-10.316-3.0691-19.272-3.0467-12.952.03244-23.367 3.0916-31.105 9.1366l-5.1287 4.0066 8.213.62809c4.5171.34545 9.5298 1.0354 11.139 1.5332 12.279 3.7979 25.465 15.545 30.036 26.758 1.9582 4.8035 7.7652 14.496 12.585 21.006 4.2759 5.7751 6.151 11.214 6.1249 17.766-.0356 8.9372-4.9934 16.373-15.101 22.65-3.2702 2.0306-4.4956 3.6066-6.0563 7.7889-2.2395 6.0014-9.2658 14.747-15.342 19.097-2.2831 1.6343-3.8798 3.2377-3.5483 3.5631 2.0984 2.0596 25.622 2.4184 35.036.53435zm-99.529-10.13c-7.468-9.71-11.299-20.18-12.057-32.96-.691-11.634.760-20.525 5.623-34.447 2.154-6.169 3.693-11.437 3.418-11.706-1.051-1.032-6.932 8.263-13.001 20.551-5.556 11.247-7.143 13.588-13.07 19.27l-6.7455 6.4675 5.2717 5.387c2.8994 2.9629 7.849 8.3401 10.999 11.95 5.7985 6.644 19.283 18.569 20.998 18.569.51341 0-.13288-1.387-1.4362-3.0822zm175.1-8.4212c9.2565-2.321 17.535-6.1577 23.742-11.003 4.5714-3.5684 24.339-26.443 23.5-27.193-1.1918-1.0651-16.135-3.6365-23.569-4.0558-14.454-.81516-28.817 3.1444-39.203 10.807-5.9274 4.3733-6.8164 5.6403-8.1368 11.596l-.72353 3.2634 3.1538-2.6046c3.4303-2.833 10.63-6.6251 14.473-7.623 1.4819-.38477.92174.16981-1.4494 1.4348-5.388 2.8746-14.015 9.672-16.982 13.381-3.8404 4.8001-7.966 12.133-7.2317 12.853 2.5216 2.475 21.098 1.9844 32.427-.85631zm-81.008-19.569c5.5502-4.9216 7.5831-9.3878 7.5308-16.545-.044-6.0152-2.601-14.563-2.7774-9.2843-.12343 3.6932-5.2022 13.295-9.6053 18.159-3.7658 4.1602-3.9558 4.6509-3.3849 8.7392.55003 3.9387.7764 4.2414 2.4961 3.3381 1.0402-.54639 3.6235-2.5295 5.7407-4.4069zm-24.794.55476c14.365-4.5962 25.605-17.142 25.605-28.579 0-4.1395-.41506-5.0746-3.6711-8.2704-4.4363-4.3543-8.9481-5.4224-16.187-3.8323-5.9265 1.3018-12.577 6.5616-13.551 10.717-.48306 2.061-.0139 3.1649 2.3174 5.4531 1.6487 1.6182 3.9462 2.869 5.27 2.869 3.0313 0 8.498-3.6681 9.5-6.3743 1.0162-2.7448-1.4158-5.2913-4.3118-4.515-2.0255.54296-2.03.52232-.19663-.91617 2.2767-1.7864 3.5161-1.8445 5.7129-.26787 3.732 2.6785 1.4371 9.7945-4.1534 12.878-4.6147 2.5456-8.107 2.5844-12.145.13495-6.5103-3.9492-6.8148-11.456-.70229-17.311 4.7273-4.5286 10.715-6.6327 18.768-6.5958 7.7449.03554 7.8895-1.1252.62357-5.0066-15.925-8.5073-40.669.97335-49.67 19.031-4.6528 9.3342-3.3138 18.429 3.8071 25.857 7.4332 7.7544 18.548 9.3474 32.985 4.7279z"/>
  <path id="path3664" fill="#8f8f8f" d="m10.629 212.61c0-4.7163 2.3883-12.498 6.02-19.614 10.788-21.139 30.373-36.355 50.191-38.994l4.5177-.60164-3.5514-4.68c-1.9533-2.574-6.6366-6.9619-10.407-9.7509-3.771-2.79-10.148-8.64-14.171-12.99-17.574-19.01-21.003-23-20.982-24.42.01256-.82964 1.8018-2.7887 3.9761-4.3535 6.103-4.3921 9.7711-9.4132 16.244-22.235 6.2384-12.358 11.532-20.283 14.636-21.913 3.6496-1.9171 1.88-10.62-3.4119-16.779-3.8243-4.4515-3.0073-5.3239 4.8203-5.1475 3.6905.08318 9.5363-.44812 12.991-1.1807 3.4543-.73254 10.407-2.211 15.45-3.2855 5.0435-1.0745 9.3331-2.4341 9.5325-3.0212.98549-2.9018 7.0167-8.1043 12.166-10.495 17.72-8.2253 39.186-7.0309 58.968 3.2813 3.721 1.9396 10.285 7.267 18.457 14.979 12.027 11.35 13.101 12.123 20.797 14.96 13.881 5.117 14.688 5.5768 13.965 7.9574-2.0753 6.838-4.4109 20.688-5.1521 30.552-.47038 6.2592-.76239 11.508-.64892 11.664.11348.15602 2.2201-1.427 4.6813-3.5178 5.4558-4.6346 11.193-7.2201 21.357-9.624 9.9406-2.3511 19.104-2.3222 31.895.10052 11.167 2.1151 14.967 3.2608 14.967 4.512 0 1.4789-20.105 25.469-24.597 29.349-5.5572 4.8012-16.124 9.9385-26.13 12.703-5.9008 1.6306-10.359 2.1472-18.842 2.1834-6.1114.0261-12.205-.25556-13.541-.62581-2.1996-.60958-2.6919-.1806-5.2107 4.5413-6.1649 11.557-20.415 21.061-43.087 28.736-14.394 4.8726-19.075 6.8799-25.602 10.978-2.9453 1.8492-6.0133 3.3622-6.8178 3.3622s-3.731-1.1285-6.5033-2.5078c-4.9137-2.4446-26.557-11.718-27.35-11.718-.21858 0-.39742 1.2317-.39742 2.737 0 3.6718-6.4625 13.006-13.171 19.024-9.704 8.7049-21.752 14.516-49.634 23.941-6.1114 2.0658-11.525 4.1506-12.03 4.6328-.50486.48217-1.7006.87668-2.6571.87668-1.3712 0-1.7392-.76637-1.7392-3.6213zm16.426-4.9233c29.121-10.288 38.594-15.106 48.427-24.63 8.661-8.3887 12.204-14.299 10.619-17.714-.93625-2.0168-1.4646-2.1835-5.1639-1.629-2.2665.33972-4.9343 1.0285-5.9285 1.5306-1.0485.52961-1.5753.54416-1.2545.0347.30417-.48306 2.2983-1.6507 4.4314-2.5948l3.8784-1.7166-4.0732-2.6148c-3.838-2.4638-4.4251-2.5662-10.164-1.7737-12.517 1.7286-28.144 10.479-36.713 20.557-8.5036 10.001-15.38 22.861-17.042 31.872-.61164 3.3157-.50385 3.6125 1.0795 2.9729.96744-.39082 6.3244-2.3235 11.904-4.2948zm101.88-33.57c5.3979-4.0441 14.076-8.0463 24.693-11.388 4.5171-1.4216 13.11-4.9112 19.095-7.7546 8.6015-4.0864 12.155-6.4079 16.956-11.078 3.3406-3.2494 7.0318-7.534 8.2028-9.5213 2.308-3.9171 1.917-3.823-4.6379 1.1158-6.2126 4.6809-18.402 10.025-28.504 12.496-7.1044 1.738-10.818 2.0753-20.291 1.8427-23.77-.58374-29.955-.35527-37.925 1.4011-7.4829 1.649-8.4478 1.6645-15.746.25327-6.3587-1.2296-12.058-3.3762-21.429-8.0706-.38476-.19276-.23328.96238.33663 2.567 1.7092 4.8123 9.1692 10.318 22.103 16.313 6.6428 3.079 16.426 7.7147 21.74 10.302 5.3143 2.5868 9.9847 4.7139 10.379 4.727.39398.013 2.6559-1.4295 5.0266-3.2056zm-15.954-27.206c11.76-4.0032 23.349-13.598 28.099-23.265 2.0531-4.1782 4.0306-17.427 2.6011-17.427-.27663 0-2.6294 1.0828-5.2283 2.4063-6.5581 3.3395-14.14 5.1571-21.541 5.1641-12.674.012-20.745-4.4117-25.924-14.209-2.9988-5.6722-3.2246-6.6944-2.8285-12.803.30853-4.7583 1.1851-8.0935 3.0946-11.775 9.0388-17.427 34.184-28.062 50.539-21.376 3.8407 1.5703 3.8927 1.0171.40971-4.3609-3.2273-4.9832-12.189-13.227-18.031-16.588-9.9002-5.6946-23.731-6.2814-41.681-1.7682-5.2479 1.3195-13.33 2.6451-17.959 2.9458l-8.4179.54676 2.5462 4.2645c1.9902 3.3332 2.6295 5.842 2.9274 11.488.34244 6.4899-.01055 8.3414-3.476 18.231-8.9051 25.414-7.6196 45.026 4.0839 62.305 5.0678 7.4822 8.6587 10.482 17.282 14.439 10.717 4.9178 22.457 5.5417 33.506 1.7806zm48.893-1.3713c14.61-2.9619 26.924-9.1418 35.718-17.925 9.9898-9.9775 13.264-18.992 15.004-41.311.58965-7.5632 1.7402-16.952 2.5568-20.864.81659-3.912 1.6911-8.1897 1.9434-9.506.41428-2.1615-.04-2.5654-4.6916-4.1712-13.855-4.7827-16.958-6.7468-28.151-17.818-6.817-6.743-13.148-12.032-17.101-14.287-13.574-7.7427-30.637-10.776-44.443-7.9004-8.6613 1.8038-17.796 6.0181-21.689 10.006l-2.8287 2.8979h5.7752c7.1143 0 15.654 2.1092 21.772 5.3776 7.7147 4.1212 16.77 13.693 21.245 22.457 6.1681 12.08 8.0941 15.391 11.214 19.282 6.9002 8.6055 9.4106 18.021 7.0299 26.367-1.5066 5.2817-7.374 12.009-14.227 16.311-2.8062 1.7619-5.1022 3.8447-5.1022 4.6284 0 4.8088-9.6649 17.504-17.723 23.279-3.5565 2.549-3.6173 2.6814-1.4494 3.1558 8.0195 1.755 26.542 1.7667 35.147.0222zm-98.704-8.2615c-.39228-.652-1.6995-2.4767-2.905-4.0548-3.599-4.72-8.034-14.88-9.545-21.88-2.82-13.065-1.341-26.859 4.712-43.945 1.926-5.438 3.484-10.346 3.462-10.906-.113-2.863-7.273 7.695-13.002 19.171-6.919 13.86-10.783 19.305-16.336 23.017-1.9032 1.2724-3.4634 2.6523-3.467 3.0666-.01322 1.508 23.773 26.711 29.861 31.64 6.0686 4.9131 8.6825 6.3191 7.2158 3.8814zm172.5-9.7371c8.727-2.0486 20.996-7.9833 26.561-12.848 4.4468-3.8872 21.843-24.332 21.843-25.671 0-1.2616-14.348-3.8396-24.171-4.3428-8.3517-.42785-11.58-.16820-18.134 1.4586-9.2438 2.2943-16.389 5.6002-22.192 10.267-4.7066 3.7854-5.5214 5.0701-6.4652 10.194l-.68142 3.6994 3.0988-2.5593c3.3869-2.7972 8.7175-5.6445 12.503-6.6785 1.4419-.39381.70942.32788-1.817 1.7904-2.3279 1.3476-6.3064 4.1543-8.8411 6.2372-5.5121 4.5296-13.99 16.316-13.196 18.347.30996.79283 2.1866 1.6183 4.234 1.8625 6.1027.72775 20.676-.21137 27.258-1.7566zm-79.659-20.636c5.0515-4.9581 6.2395-6.7525 7.1109-10.741 1.048-4.7965.97186-5.814-1.0139-13.541l-1.0676-4.1543-1.3245 5.0797c-1.5394 5.9041-4.565 11.189-9.4198 16.453-3.0321 3.2881-3.4297 4.2925-3.2853 8.2982.11722 3.2505.56167 4.5573 1.5499 4.5573.76206 0 4.1147-2.6786 7.4503-5.9525zm-25.024 1.2008c22.673-7.614 34.101-32.15 18.592-39.916-9.6087-4.8113-26.844 2.1416-26.862 10.836-.002.95292 1.2673 2.9801 2.8208 4.5047 3.9694 3.896 7.9691 3.7483 12.249-.45230 1.8069-1.7734 3.2852-3.6634 3.2852-4.1999 0-1.5113-2.8543-3.9528-4.6586-3.9849-1.4158-.02517-1.3937-.15901.17449-1.0534 1.2884-.73483 2.4497-.73242 4.1065.0085 3.6504 1.6325 3.2125 7.0162-.89888 11.052-6.0608 5.9487-15.146 4.9508-18.523-2.0345-3.0816-6.3739 1.1634-13.547 10.299-17.405 3.9901-1.6848 6.3464-2.0399 11.602-1.7484 3.6271.20116 6.5948.03172 6.5948-.37653 0-1.198-3.51-4.2998-6.9538-6.1449-2.4412-1.308-5.3498-1.7101-12.371-1.7101-8.5915 0-9.6584.22460-16.664 3.5082-13.523 6.3378-22.373 17.873-22.416 29.218-.0286 7.4977 4.1549 14.587 11.017 18.67 2.8005 1.6662 6.2384 3.2281 7.6399 3.4708 4.7206.81741 15.19-.30235 20.968-2.2426z"/>
  <path id="path3662" fill="#6f6f6f" d="m10.629 212.95c0-1.9249 1.1154-6.7757 2.4788-10.78 6.267-18.406 20.011-34.423 36.243-42.239 5.2309-2.5187 11.832-4.8741 15.511-5.534l6.4039-1.149-3.7828-4.9176c-2.0805-2.7047-6.7015-7.0507-10.269-9.6578-3.5673-2.6071-8.8775-7.2565-11.8-10.332-8.5351-8.9808-23.19-25.678-23.19-26.422 0-.37598 3.1836-3.7233 7.0747-7.4384 6.3565-6.0691 7.7328-8.0889 13.557-19.896 4.9389-10.012 7.7271-14.422 11.712-18.522l5.228-5.383-.939-4.101c-1.159-5.063-2.96-8.568-5.615-10.926-3.8399-3.4108-2.6625-4.3541 5.4569-4.372 4.1186-.009 10.532-.67818 14.252-1.4869 3.72-.80876 10.335-2.209 14.7-3.1117 7.1387-1.4762 8.1599-1.9667 10.16-4.8793 7.3598-10.719 30.363-16.78 48.655-12.819 16.124 3.4914 26.82 9.5917 39.764 22.679 9.993 10.104 13.547 12.444 25.376 16.706 4.5171 1.6278 8.587 3.3221 9.0441 3.7651.46314.44885.16264 2.8377-.67872 5.3954-.83042 2.5244-1.9615 7.1505-2.5134 10.28-1.0992 6.2326-2.9103 28.228-2.3732 28.821.18427.20355 2.0662-1.165 4.182-3.0411 4.7965-4.2533 9.2017-6.4796 18.439-9.3192 10.028-3.0827 27.273-2.9605 40.492.28682 5.0058 1.2297 9.2481 2.6677 9.4274 3.1956.5169 1.522-20.748 26.805-25.921 30.818-10.512 8.1559-27.211 13.538-42.369 13.657-5.0486.0394-10.922-.23697-13.051-.61408l-3.8718-.68564-2.7918 5.2337c-6.1861 11.597-20.661 21.023-45.023 29.321-12.016 4.0924-15.319 5.5681-26.702 11.929l-3.9953 2.2325-10.498-4.8648c-8.5685-3.9706-22.273-9.761-23.102-9.761-.10617 0-.46754 1.6849-.80304 3.7442-1.1509 7.0644-13.991 20.735-25.34 26.977-7.4465 4.0963-36.039 15.228-51.838 20.181-1.4025.43973-1.6909-.0668-1.6909-2.9696zm17.875-5.7221c14.137-4.9881 26.715-10.162 34.09-14.022 7.732-4.0472 21.892-18.13 23.489-23.361 1.0371-3.3974.99443-4.1723-.29937-5.4422-1.2327-1.2099-2.3199-1.3109-5.9451-.55199-4.9042 1.0266-5.1851.18224-.56436-1.6964l2.9828-1.2127-4.325-2.7614c-4.2166-2.6922-4.4763-2.7345-10.359-1.6874-18.518 3.2958-34.581 14.782-44.944 32.138-4.6376 7.767-7.5761 14.699-8.6808 20.479-.63192 3.3061-.53042 3.5676 1.1336 2.9202 1.0052-.39107 7.0453-2.552 13.422-4.8021zm99.866-32.605c4.4016-3.4038 13.466-7.8728 20.43-10.072 17.058-5.3871 32.093-12.573 39.349-18.806 3.7484-3.2199 11.861-13.517 11.861-15.054 0-.50854-1.9373.74916-4.3052 2.7949-5.6162 4.8522-13.444 8.8896-24.73 12.756l-9.1308 3.1276-24.156.0529c-16.511.0361-25.226.42209-27.538 1.2196-1.86.64166-7.1663 1.1625-11.792 1.1574-9.4916-.0104-17.604-2.1738-25.167-6.7107-2.5243-1.5144-4.5896-2.5441-4.5896-2.2881 0 .25602.59563 1.8647 1.3236 3.5748 2.1722 5.1026 8.9803 9.9245 23.798 16.855 7.7057 3.6041 17.271 8.239 21.257 10.3 3.9857 2.0608 7.8364 3.7625 8.557 3.7815.72067.019 2.8947-1.1908 4.8312-2.6883zm-20.242-26.24c3.4048-.78774 8.8399-2.7972 12.078-4.4654 7.3267-3.7747 18.326-14.302 20.892-19.996 2.3691-5.2567 3.8425-12.607 3.1885-15.907l-.48978-2.4711-5.0441 2.6815c-15.107 8.0312-33.73 7.1216-42.939-2.0972-5.5347-5.5407-7.3356-9.9209-7.3713-17.929-.02655-5.9521.42126-8.0182 2.7444-12.662 7.6107-15.213 28.743-26.328 44.59-23.452 2.915.52891 6.1396 1.4026 7.1656 1.9416 3.0713 1.6133 3.0732 1.1908.0165-3.685-3.5229-5.6195-14.015-15.459-19.314-18.112-11.27-5.6431-22.953-5.9083-43.423-.98549-6.9354 1.6679-14.628 2.8987-18.117 2.8987-3.3348 0-6.0632.25419-6.0632.56488 0 .31068.82026 1.6977 1.8228 3.0822 5.0858 7.0236 5.1329 15.679.16435 30.237-6.261 18.344-7.4463 31.771-3.9791 45.076 4.3452 16.675 13.357 27.595 27.246 33.015 9.6123 3.7512 17.523 4.4188 26.833 2.2648zm56.131-3.3208c24.333-5.6965 41.534-20.513 46.195-39.792.56748-2.3472 1.5234-10.456 2.1243-18.019.94163-11.852 1.7265-17.312 4.5114-31.386.46335-2.3417.0603-2.6117-8.3338-5.5825-10.856-3.8422-14.367-6.2789-26.622-18.477-7.2156-7.1824-11.375-10.483-16.426-13.036-15.137-7.6505-29.571-9.9808-43.28-6.9873-8.7356 1.9076-17.538 6.0168-21.43 10.004l-2.8045 2.8732h4.9644c12.41 0 22.615 4.1394 32.289 13.097 6.7968 6.2932 10.487 11.4 12.512 17.316.61258 1.7897 1.6683 3.8941 2.346 4.6765s2.2466 3.1725 3.4866 5.3112c1.2399 2.1388 4.0991 6.5744 6.3538 9.857 10.638 15.488 7.4939 28.43-9.6552 39.745-2.5243 1.6655-4.5896 3.6947-4.5896 4.5095 0 3.5784-6.4696 13.086-12.849 18.884-3.6909 3.354-7.0926 6.0982-7.5593 6.0982-.46674 0-.84861.40446-.84861.89881 0 1.0367 5.759 1.5258 20.774 1.7642 7.819.12417 12.8-.33946 18.842-1.7539zm-104.33-12.73c-12.177-18.35-13.678-37.759-4.881-63.131 2.199-6.343 3.866-12.197 3.704-13.008-.482-2.42-8.005 9-13.672 20.757-5.658 11.738-8.874 16.201-15.432 21.421l-4.2823 3.4084 11.563 12.889c10.358 11.546 25.558 25.374 26.681 24.272.23556-.2312-1.4201-3.205-3.6793-6.6083zm177.76-5.2789c10.546-2.9116 18.477-6.9367 24.751-12.561 5.4452-4.8816 21.629-23.862 21.629-25.367 0-1.4319-13.932-4.0102-24.209-4.4802-16.368-.74858-30.957 3.6443-40.819 12.291-3.7114 3.2541-4.9072 5.085-5.9818 9.1587l-1.343 5.0915 2.1168-1.8878c3.1949-2.8493 10.303-7.215 10.859-6.6694.26938.26439-1.1526 1.672-3.1599 3.1279-6.4013 4.6431-10.934 9.3238-14.343 14.812-4.3052 6.9306-4.2613 8.183.30623 8.7332 7.4569.8983 22.985-.25812 30.195-2.2487zm-83.8-17.75c6.8122-4.823 9.8217-10.445 9.7393-18.194-.0364-3.4221-.71911-7.6645-1.5172-9.4275l-1.451-3.2054-.69057 3.6796c-1.1283 6.0121-3.9902 11.389-8.6825 16.313-4.1766 4.3826-4.4164 4.9279-4.4164 10.045 0 6.0265-.32602 5.9898 7.0183.79007zm-27.532.23382c15.755-3.6459 28.292-15.095 30.625-27.97.44403-2.4497.0211-4.4374-1.6146-7.5869-3.0422-5.8581-7.1128-7.8376-14.98-7.2847-14.674 1.0312-23.313 13.195-13.146 18.51 4.3775 2.2884 10.711.15105 12.784-4.3141 1.5103-3.2535 1.3416-3.855-1.4895-5.3109-1.9425-.99897-2.1953-1.4343-1.0772-1.8555 2.3552-.88706 5.5477 1.9458 5.5477 4.9227 0 3.4336-2.8829 6.9875-7.3595 9.0725-6.8771 3.2031-15.303-1.7585-15.303-9.0112 0-8.9262 11.089-15.868 23.896-14.958 4.6487.33004 5.5546.15040 5.3182-1.0545-.15672-.79877-1.7526-2.4231-3.5464-3.6096-12.426-8.219-34.404-3.5697-46.41 9.8177-10.633 11.856-11.237 25.467-1.5541 34.971 6.7915 6.6659 16.006 8.5085 28.309 5.6612z"/>
  <path id="path3660" fill="#4e4e4e" d="m10.629 213.19c0-9.6298 9.4241-28.474 19.774-39.54 8.6107-9.2063 22.678-17.012 34.519-19.153l6.3648-1.1511-3.3095-4.5214c-1.82-2.49-7.123-7.48-11.784-11.1-4.661-3.61-10.842-9.25-13.734-12.53-2.8924-3.28-8.6287-9.7645-12.747-14.41-4.1186-4.6455-7.4883-8.6673-7.4883-8.9373 0-.27001 3.1922-3.5593 7.0938-7.3095 6.3068-6.0621 7.8218-8.2743 13.655-19.94 4.7627-9.5246 7.9827-14.628 11.746-18.618 4.7112-4.9946 5.1282-5.7887 4.5638-8.6908-.81912-4.2115-3.5068-9.3933-6.0368-11.639-3.9012-3.4629-2.6866-4.3568 5.9361-4.3691 5.4592-.0078 11.778-.90085 20.049-2.8338 6.6428-1.5523 12.998-2.8275 14.124-2.8338 1.2941-.0072 2.9465-1.3474 4.4976-3.648 7.9885-11.848 34.47-17.591 53.846-11.676 14.135 4.3147 21.609 8.9496 33.931 21.041 11.636 11.418 14.235 13.099 27.328 17.678 3.7733 1.3196 7.2204 2.7289 7.6604 3.1319.43997.40293-.0648 3.4807-1.1218 6.8396-1.8479 5.8721-3.2369 15.584-4.5013 31.473l-.59484 7.4752 4.6415-4.0162c5.8022-5.0205 9.7995-7.0403 18.754-9.4758 13.846-3.7659 28.239-3.3014 45.148 1.4572l5.1512 1.4497-1.6902 2.5591c-4.4955 6.8064-21.055 25.719-25.255 28.843-13.615 10.128-36.574 15.538-54.375 12.812l-4.348-.66579-3.3818 5.8133c-6.923 11.901-21.066 20.951-45.526 29.134-11.549 3.8635-18.789 7.1-25.208 11.269l-3.6769 2.3883-7.966-3.5987c-11.542-5.2142-25.096-10.886-26.015-10.886-.43610 0-.79291.87053-.79291 1.9345s-.83836 3.5474-1.863 5.5188c-5.2222 10.047-15.962 19.453-29.54 25.871-6.1997 2.9305-38.857 15.385-46.138 17.595-1.3837.42011-1.6909-.0785-1.6909-2.7444zm14.09-4.4506c30.849-10.801 41.805-16.324 51.751-26.085 7.668-7.5262 11.082-13.308 10.108-17.117-.65104-2.546-.87181-2.6372-5.0291-2.0779-2.7624.37163-4.133.24328-3.7582-.35196.32448-.51531 1.1908-.93692 1.9253-.93692 2.9954 0 2.166-1.8601-1.8628-4.1774-4.9847-2.8672-5.9505-2.9401-13.636-1.0292-22.128 5.5023-40.602 23.198-48.884 46.825-1.6337 4.6606-2.3177 8.6452-1.484 8.6452.17644 0 5.068-1.6622 10.87-3.6937zm104.63-34.6c6.2646-4.4775 10.33-6.3228 25.251-11.461 18.431-6.3469 27.038-10.988 35.25-19.006 3.7395-3.6512 7.8371-8.559 9.1058-10.906l2.3068-4.2676-3.2818 2.9828c-8.3985 7.6332-22.577 14.215-36.617 16.997-6.7865 1.3451-10.562 1.4967-21.74.87296-18.439-1.0289-20.53-.95849-28.506.95985-5.1286 1.2336-9.3038 1.5501-15.948 1.209-8.1993-.42095-9.7829-.83589-17.783-4.6597-4.8299-2.3087-8.7817-3.8426-8.7817-3.4087 0 4.6697 9.1592 12.689 20.531 17.977 4.7982 2.2309 14.207 6.6947 20.909 9.9196 6.7019 3.2248 12.779 5.8921 13.505 5.9273.72595.0352 3.3348-1.3762 5.7974-3.1363zm-20.606-25.755c3.1674-.79892 8.1388-2.6127 11.048-4.0306 6.7475-3.2891 17.283-12.985 20.515-18.881 2.9768-5.4302 5.1353-14.321 4.2846-17.648l-.60944-2.3833-5.1196 2.7216c-9.9379 5.283-22.934 6.9346-32.54 4.1349-7.0009-2.0406-14.513-9.3422-16.915-16.441-6.8005-20.096 15.437-43.819 41.039-43.781 5.7956.0086 9.1389.61149 13.922 2.5103 3.4438 1.3672-2.1595-6.6933-9.5214-13.697-14.47-13.756-27.98-16.277-53.677-10.005-5.58 1.362-13.68 2.71-18 2.995l-7.8548.51844 2.2974 3.3228c4.8956 7.0807 5.3615 17.397 1.2519 27.72-4.51 11.328-5.8791 17.536-6.38 28.925-.59624 13.556.89660 21.203 5.9998 30.735 4.881 9.1169 10.781 15.296 18.004 18.854 11.653 5.7408 21.644 7.1154 32.258 4.4381zm54.412-2.9202c14.126-3.0734 26.873-9.6854 35.209-18.263 9.9123-10.2 12.891-19.38 15.119-46.594.92673-11.319 2.6036-21.158 4.3746-25.667.45431-1.1566-1.0755-2.0579-6.9401-4.0886-12.01-4.15-15.03-6.128-27.06-17.706-12.84-12.342-21.45-17.52-34.69-20.842-17.28-4.3394-38.52-.263-47.85 9.185l-3.1339 3.1735 3.8129.0072c6.942.01304 16.125 1.9443 21.601 4.5428 7.7092 3.6581 19.34 15.186 22.678 22.478 1.4325 3.1296 3.0184 6.3303 3.524 7.1127.50568.78240 1.8203 3.0574 2.9214 5.0555s3.9348 6.2099 6.2971 9.3595c11.548 15.397 8.918 29.772-7.4424 40.677-3.1172 2.0777-5.6719 4.2952-5.6771 4.9278-.0423 5.1552-9.9921 18.096-18.233 23.713l-4.4643 3.0431 10.629 1.0526c11.813 1.1699 20.141.84113 29.328-1.1578zm-103.63-14.03c-11.602-16.63-12.923-37.62-4.001-63.549 2.3417-6.8051 4.0608-12.566 3.8204-12.802-1.1691-1.1475-6.8512 7.4454-13.121 19.842-6.101 12.064-7.8029 14.579-13.867 20.494l-6.9127 6.7423 8.1453 8.9058c4.4799 4.8982 9.2777 10.337 10.662 12.085 3.3932 4.2879 18.883 16.736 19.3 15.51.18256-.53756-1.6291-3.7888-4.0259-7.225zm170.02-2.5c14.156-2.4609 25.346-7.3679 33.091-14.511 5.3301-4.9154 22.634-25.361 21.995-25.989-.18879-.18530-4.4136-1.1613-9.3886-2.1688-22.758-4.6092-43.615-.64444-56.407 10.723-3.8198 3.3943-4.9174 5.0993-5.8227 9.0449l-1.1157 4.8621 3.4772-2.6812c1.9125-1.4747 4.999-3.4005 6.859-4.2797l3.3818-1.5984-2.8987 2.1706c-6.1734 4.6228-11.517 9.9921-15.104 15.176-4.5207 6.534-4.801 9.0158-1.0806 9.569 5.4591.8117 17.47.64601 23.012-.31744zm-74.693-20.094c7.9404-6.109 10.866-15.33 7.9317-24.998l-1.6988-5.5971-1.1581 4.2676c-1.6355 6.0271-4.5023 11.155-9.095 16.268-3.6398 4.0521-3.9641 4.8501-3.9641 9.7541 0 5.2381.0418 5.3194 2.174 4.222 1.1957-.61543 3.8103-2.3778 5.8102-3.9165zm-25.754.12597c14.895-4.5154 26.488-15.964 27.986-27.636 1.0818-8.4317-5.4411-14.947-14.948-14.931-13.564.02322-23.989 10.77-17.052 17.579 4.0318 3.9572 12.095 2.4767 14.942-2.7433 1.5852-2.9073.85446-5.1176-2.0736-6.2719-2.1607-.85176-2.1552-.86642.34339-.92558 7.0614-.16720 5.6756 9.2925-1.9312 13.183-5.7304 2.9309-12.749.48854-15.21-5.2928-1.2681-2.9788-1.2238-3.6672.47843-7.4442 3.1933-7.0855 12.337-11.465 22.44-10.747 8.4212.59787 7.2804-2.673-2.398-6.875-12.292-5.337-30.453-.29965-41.627 11.547-11.442 12.13-11.937 26.859-1.2336 36.67 6.3071 5.7811 18.764 7.3804 30.285 3.888z"/>
  <path id="path3658" fill="#2e2e2e" d="m10.629 213.8c0-8.1772 7.7517-25.193 16.269-35.714 10.601-13.093 27.359-22.9 40.469-23.681l4.8183-.28723-3.5697-4.7472c-1.9633-2.611-7.8223-8.1419-13.02-12.291-5.1976-4.149-12.546-11.191-16.33-15.648-3.7838-4.4574-9.1662-10.554-11.961-13.549-2.7948-2.9947-5.0814-5.71-5.0814-6.0342 0-.32413 3.0363-3.3485 6.7474-6.7209 6.107-5.5496 7.4127-7.4442 13.757-19.96 5.2388-10.336 8.3116-15.168 12.166-19.13l5.1573-5.3014-1.0927-4.9127c-.66293-2.9806-2.3977-6.5239-4.4109-9.0095-1.825-2.2532-3.3225-4.4169-3.3276-4.8081-.0052-.3912 3.7952-.71638 8.4452-.72261 5.9963-.008 11.966-.83199 20.532-2.8338 6.6428-1.5523 12.948-2.8308 14.01-2.8411 1.2308-.01187 2.7314-1.3917 4.1327-3.8003 4.5542-7.8276 19.692-13.638 35.483-13.621 20.211.022717 38.496 8.3746 52.656 24.052 7.6915 8.5152 12.15 11.515 23.338 15.706 4.9157 1.8412 9.4434 3.7596 10.062 4.2632.84504.68835.6771 2.4968-.67691 7.2895-1.8635 6.5962-3.1281 15.532-4.2392 29.953l-.64464 8.3676 6.0514-4.7861c10.561-8.3528 27.49-12.449 43.632-10.557 8.1928.96012 22.535 4.0298 23.569 5.0445.67404.66157-12.819 17.39-19.984 24.776-3.5864 3.6971-8.962 8.1663-11.946 9.9315-12.137 7.1805-29.988 10.841-45.968 9.426-3.9857-.35286-7.3732-.30054-7.5278.11627-1.3388 3.6101-9.6328 13.726-14.251 17.381-6.717 5.3166-19.813 11.744-31.364 15.394-11.213 3.5429-20.661 7.648-26.778 11.634l-5.1231 3.3386-9.4128-4.3421c-5.1771-2.3882-13-5.8255-17.384-7.6385l-7.9714-3.2964-.0091 2.5202c-.02408 6.693-15.086 23.225-26.659 29.26-6.3864 3.3306-26.312 11.228-36.62 14.515-3.72 1.1861-8.3768 2.9512-10.349 3.9226-4.7364 2.3334-5.5943 2.2323-5.5943-.65907zm17.784-6.2351c16.387-5.85 28.732-10.98 34.759-14.45 12.217-7.0273 24.199-20.542 23.595-26.612-.27984-2.8097-.44071-2.902-4.9519-2.84-4.4848.0617-4.5677.0153-2.174-1.2157 1.3688-.70391 2.4887-1.4229 2.4887-1.5977 0-.17483-1.8081-1.4923-4.018-2.9277-3.5789-2.3246-4.593-2.5435-9.279-2.003-20.977 2.4198-41.887 19.84-51.932 43.262-2.5159 5.8671-4.1128 13.259-2.8643 13.259.41612 0 6.8851-2.19 14.375-4.8668zm102.9-34.442c6.1747-4.0889 9.1639-5.3799 27.629-11.933 15.306-5.4321 27.291-12.219 33.177-18.789 2.5759-2.8751 8.854-12.084 8.854-12.987 0-.33019-1.9567 1.0902-4.3482 3.1563-4.9656 4.2901-15.28 9.848-23.427 12.624-13.585 4.6283-25.627 5.6391-43.095 3.617-7.9291-.91784-9.7676-.81651-17.206.94836-15.016 3.5629-25.92 2.3379-38.375-4.3112l-6.1551-3.2859.65920 2.5779c1.7085 6.6812 9.4638 12.164 31.141 22.017 8.9432 4.0648 17.565 8.092 19.159 8.9494 4.1797 2.2478 4.9356 2.0848 11.987-2.5844zm-17.19-26.04c16.925-6.2892 29.365-20.809 30.582-35.697.27498-3.3623.19175-6.1133-.18494-6.1133-.3767 0-2.5016 1.0188-4.7219 2.264-7.2828 4.0842-14.035 5.7424-23.362 5.7368-7.5054-.005-9.3576-.34565-13.527-2.492-20.883-10.75-18.846-37.204 3.9745-51.6 10.892-6.8708 26.036-9.1029 34.916-5.1465 2.2586 1.0062 4.1065 1.5072 4.1065 1.1132 0-1.8551-6.5133-10.462-11.417-15.086-6.8988-6.5061-11.644-9.2315-19.527-11.214-8.2488-2.075-20.378-1.3881-33.794 1.9138-5.58 1.3733-13.717 2.7587-18.082 3.0786l-7.9368.58161 2.0134 2.7753c2.6052 3.591 4.6859 10.444 4.6618 15.355-.01049 2.1339-1.3352 7.5073-2.9438 11.941-6.7011 18.469-8.6034 36.052-5.2625 48.641 2.0617 7.7689 7.3312 17.512 12.557 23.217 4.9161 5.3668 15.061 10.957 22.723 12.52 6.7516 1.3778 19.051.50604 25.224-1.7878zm52.815-2.5102c20.143-5.6275 33.711-15.685 40.619-30.108 2.6268-5.4849 4.6232-16.59 5.9344-33.012.56712-7.1023 1.8978-16.239 2.9571-20.304 1.0593-4.0652 1.926-7.502 1.926-7.6375 0-.13544-2.2827-.97816-5.0727-1.8727-12.908-4.1386-16.884-6.6317-29.043-18.212-12.401-11.811-17.801-15.408-29.656-19.759-6.4766-2.3766-8.5304-2.6644-19.325-2.7084-9.8652-.04019-13.321.33462-18.862 2.0459-11.023 3.4044-23.239 13.052-15.029 11.869 4.8038-0.692 15.633 1.5656 21.972 4.5805 9.9592 4.7368 20.767 15.711 23.899 24.268 1.3782 3.7652 5.5715 10.865 10.842 18.358 5.9981 8.5269 7.4817 12.35 7.5458 19.441.0887 9.8253-3.8345 15.74-15.068 22.715-3.2137 1.9955-4.5798 3.6082-5.4952 6.4872-1.9815 6.2314-7.8169 13.896-14.889 19.557l-6.619 5.2978 8.9919 1.1116c12.086 1.494 24.093.7544 34.371-2.1171zm-102.77-6.35c-.37548-.652-1.6198-2.4658-2.7651-4.0306-13.39-18.29-15.156-38.375-5.783-65.77 2.396-7.003 4.197-13.2 4.003-13.771-0.5-1.474-9.178 10.333-11.762 16.004-6.854 15.041-8.832 18.182-15.657 24.869l-6.9914 6.85 5.9931 6.4467c3.2962 3.5457 8.5685 9.3434 11.716 12.884 8.028 9.0293 24.152 21.568 21.246 16.522zm173.04-10.66c9.7671-2.617 20.847-8.4083 26.632-13.92 5.2479-5.0003 21.588-24.427 21.013-24.981-1.0046-.96765-13.745-3.488-20.913-4.1373-18.452-1.6712-33.811 2.7409-46.823 13.45-1.7645 1.4523-3.1827 4.0043-4.095 7.3691-.76764 2.8311-1.4009 5.2904-1.4072 5.4652-.007.17483 2.0539-1.1443 4.5781-2.9314 7.6714-5.431 7.7974-5.1108.58824 1.4942-6.6538 6.0962-12.017 13.101-13.331 17.411-.5249 1.722-.17953 2.1432 2.0706 2.5255 5.4149.91988 25.965-.21208 31.688-1.7455zm-86.144-15.802c8.5995-5.7821 13.226-13.091 13.109-20.711-.0536-3.4991-3.2916-14.9-3.7709-13.277-.077.26080-.33336 1.9407-.56956 3.733-.64984 4.9309-4.4992 12.347-8.9672 17.277-3.6772 4.0569-4.0001 4.8416-4.0001 9.7207 0 2.9192.25898 5.3076.57552 5.3076s1.947-.92219 3.6234-2.0493zm-23.18-2.2962c11.993-3.031 22.512-11.43 27.376-21.858 5.4017-11.581-.71254-21.203-13.478-21.211-13.593-.0086-23.74 10.675-16.701 17.584 3.5378 3.4723 9.4028 3.2458 13.23-.51111 3.4355-3.372 3.3813-6.5232-.14236-8.2667l-2.4156-1.1952 2.6232-.01398c3.0796-.01642 5.0671 2.8644 4.2312 6.1331-.30616 1.1973-2.0975 3.5048-3.9807 5.1277-9.5558 8.2349-23.035-2.1178-16.132-12.391 4.1381-6.1585 13.299-9.92 22.01-9.0375 6.2906.63724 7.0011-.82055 2.1183-4.3464-6.1616-4.4494-13.834-6.0132-21.978-4.4797-22.086 4.1588-38.517 24.659-32.389 40.41 5.1151 13.146 18.434 18.401 35.627 14.056z"/>
  <path id="path3656" fill="#060606" d="m11.076 211.72c1.771-11.963 10.114-28.067 19.199-37.06 8.5279-8.4413 11.477-10.599 20.452-14.96 6.6581-3.2358 10.215-4.3622 15.179-4.806 7.4251-.66396 7.4311-.71806.88951-8.0097-2.1601-2.4078-3.6157-4.7167-3.2345-5.131.38113-.41425.21560-.4863-.36784-.16013-1.888 1.0555-15.541-10.74-24.206-20.913-2.5559-3.0006-7.3734-8.3444-10.706-11.875-3.3322-3.5306-6.0585-6.7874-6.0585-7.2373 0-.44991 1.6305-2.0283 3.6234-3.5076 7.3266-5.4383 11.001-10.382 17.667-23.768 5.0352-10.112 7.91-14.661 11.637-18.417 4.6704-4.7063 4.9159-5.1982 4.3442-8.7074-.73582-4.5165-3.4949-10.02-6.2493-12.465-1.1194-.99364-2.0353-2.1008-2.0353-2.4603 0-.35954 3.8045-.67901 8.4545-.70992 5.9108-.03929 12.271-.93974 21.14-2.9928 6.977-1.6151 13.282-2.953 14.01-2.9731.72868-.0201 2.1945-1.388 3.2573-3.0398 3.1583-4.9084 9.65-9.0395 18.424-11.725 7.455-2.2814 9.1892-2.459 19.992-2.0473 9.7889.37303 13.078.90303 19.075 3.0739 11.863 4.294 18.989 8.9963 29.47 19.447 10.861 10.829 14.383 13.172 26.385 17.552 9.5926 3.5004 9.4081 3.0894 6.6172 14.748-1.3503 5.6408-3.4976 24.917-3.522 31.618l-.01 2.7308 4.1065-3.4528c14.901-12.529 37.199-15.388 64.254-8.237 2.2586.59694 4.1065 1.5057 4.1065 2.0194 0 .51374-3.1942 4.8722-7.0983 9.6854-16.183 19.952-22.416 24.903-37.929 30.133-9.2353 3.1133-10.092 3.2272-24.843 3.3049l-15.278.0804-2.2103 3.8194c-7.5111 12.979-19.883 21.288-43.567 29.259-11.288 3.7993-21.67 8.334-28.028 12.243-2.9085 1.788-4.2315 2.132-5.3143 1.3821-1.24-.8589-1.2229-.93059.12207-.51258.87397.27161 3.6443-.97895 6.2805-2.8351 6.8463-4.8204 12.241-7.3368 24.95-11.638 22.002-7.4464 34.918-15.278 41.886-25.398 6.6209-9.617 6.6315-10.242.0859-5.0647-7.6375 6.0405-19.294 11.685-29.836 14.448-9.1168 2.3893-22.271 2.8563-38.649 1.3722-7.7101-.69866-9.9524-.57061-14.01.80014-13.358 4.5123-31.073 2.0449-41.79-5.8205l-3.1403-2.3048v2.199c0 6.4827 10.725 14.61 30.389 23.027 14.743 6.311 18.264 8.0439 17.623 8.6731-.2636.25873-2.2699-.42619-4.4584-1.522-2.1885-1.0959-7.7744-3.5108-12.413-5.3666-4.6387-1.8558-9.0276-3.614-9.7532-3.9073-.96937-.39182-1.1488-.006-.67638 1.4549 1.7915 5.5401-11.942 21.854-24.374 28.955-6.2527 3.5711-26.756 11.866-41.491 16.784-4.5831 1.53-8.7772 3.2179-9.3202 3.7508-.54298.53298-1.6019.96903-2.3531.96903-1.0788 0-1.2257-.94653-.69894-4.5047zm14.046-2.771c32.096-11.364 42.824-16.774 51.859-26.15 7.2565-7.5308 10.171-12.298 9.8065-16.037-.28470-2.9168-.62016-3.2122-4.1745-3.6753-3.4553-.45019-3.6232-.58614-1.5838-1.2827 2.2099-.75484 2.1496-.8669-1.9325-3.5905-3.84-2.5621-4.7276-2.7651-10.011-2.2902-25.16 2.2618-49.722 26.361-56.022 54.968-.52012 2.3617-.36717 2.6326 1.1392 2.0177.95699-.39063 5.8706-2.1728 10.919-3.9603zm85.095-60.639c13.598-3.9623 26.591-14.111 31.478-24.588 2.6824-5.7509 4.4209-18.456 2.5253-18.456-.53591 0-2.9333 1.0746-5.3276 2.3881-10.112 5.547-25.901 7.3957-33.9 3.9692-14.336-6.13-20.49-21.722-13.845-35.053 7.524-15.094 24.975-25.26 41.545-24.205 3.8036.24218 8.3287 1.1603 10.056 2.0402 4.4749 2.2798 4.1582.27192-1.0531-6.6763-5.5231-7.3639-12.246-12.965-19.962-16.63-5.5292-2.6268-7.4941-3.0318-16.426-3.3862-8.9171-.35375-11.725-.03564-23.19 2.6274-7.1743 1.6665-16.196 3.2657-20.049 3.554-3.8528.28823-7.0052.88921-7.0052 1.3355 0 .44631.38692.81148.85982.81148s1.834 2.0271 3.0247 4.5047c3.5392 7.3644 3.1006 14.497-1.7818 28.974-9.6591 28.641-6.2246 51.736 10.132 68.128 10.253 10.275 28.6 14.837 42.907 10.668zm57.22-3.6156c22.478-6.4984 36.974-18.664 42.262-35.469 1.2229-3.8862 2.507-12.441 3.3666-22.429 1.5124-17.573 1.9033-20.26 4.0504-27.834.78719-2.7771 1.2174-5.2591.95614-5.5156-.26132-.25649-4.4546-1.9185-9.3183-3.6933-11.231-4.0982-12.86-5.2251-25.257-17.469-11.444-11.302-19.78-16.363-32.771-19.897-13.541-3.683-30.611-2.2251-42.264 3.6097-4.4345 2.2205-10.872 7.4047-10.872 8.7554 0 .46757 3.4621.85012 7.6936.85012 12.401 0 22.543 4.6034 32.225 14.626 4.7391 4.9059 10.3 13.288 10.316 15.551.005.68842 1.3135 3.1125 2.9078 5.3869s2.8987 4.3966 2.8987 4.7161c0 .31949 1.7797 2.9454 3.9548 5.8354 5.7956 7.7001 7.9764 13.116 7.9721 19.796-.006 8.8103-3.6224 14.551-13.403 21.276-4.9266 3.3873-5.9819 4.6992-8.4525 10.507-2.1086 4.9574-4.3214 8.094-8.744 12.395-3.2566 3.1667-7.1268 6.4568-8.6006 7.3113-1.4738.85449-2.6796 1.8457-2.6796 2.2026 0 1.1955 15.839 2.599 25.605 2.2689 6.7624-.22853 12.211-1.0633 18.154-2.7814zm-103.76-7.41c-.61681-1.1736-2.1809-3.527-3.4757-5.2298-6.5-8.55-9.969-20.52-9.95-34.331.016-11.125 1.313-17.67 6.361-32.09 1.88-5.371 3.251-10.258 3.046-10.86-.779-2.293-8.982 9.766-14.998 22.049-5.592 11.415-7.007 13.497-13.057 19.209l-6.7855 6.406 5.7045 5.9604c3.1375 3.2782 8.9262 9.5073 12.864 13.842 10.763 11.849 23.624 21.383 20.291 15.04zm172.14-9.34c13.598-3.3136 21.356-7.5292 30.306-16.469 4.2916-4.2868 9.082-9.5695 10.645-11.739 1.5634-2.1699 3.1939-3.9452 3.6234-3.9452.42948 0 .78088-.57401.78088-1.2756 0-.70156.86961-2.048 1.9325-2.9921 1.0629-.94408 1.9325-2.0571 1.9325-2.4733 0-2.2429-24.057-5.978-33.076-5.1355-7.5862.70862-18.726 3.5801-23.858 6.1494-1.9765.98969-5.9775 3.7054-8.8911 6.0349-4.5635 3.6486-5.4576 4.9163-6.453 9.1489-1.6701 7.1016-1.6085 7.1532 3.4963 2.9284 2.5585-2.1174 4.9764-3.8499 5.373-3.8499.39668 0-1.3705 1.7718-3.9271 3.9373-7.3886 6.2583-12.444 12.836-14.229 18.515-.81669 2.5974.3604 2.8519 13.987 3.0244 7.4793.0947 12.38-.40136 18.358-1.8581zm-82.413-17.843c5.878-4.5604 8.4684-7.719 9.9542-12.138 1.4446-4.2962.68707-12.878-1.5732-17.823l-1.7337-3.7924-.64374 4.7418c-.86155 6.3463-2.968 10.723-8.1881 17.013-3.9881 4.8058-4.3537 5.6854-4.3537 10.476 0 2.8762.39576 5.2294.87947 5.2294.4837 0 3.0301-1.6686 5.6587-3.7079zm-24.83-.66434c7.8006-2.2699 12.25-4.7764 18.073-10.182 9.5679-8.8816 12.855-17.755 9.3795-25.319-2.5046-5.4516-6.496-7.545-14.385-7.545-6.2472 0-10.704 1.4586-15.149 4.9576-3.8962 3.067-5.0378 9.7948-2.0903 12.318 3.631 3.1087 5.9672 3.7585 9.453 2.6293 6.3376-2.0529 9.6563-9.5194 5.0405-11.34-1.5554-.61363-1.7125-.87480-.55214-.91780 1.7502-.06487 4.6586 2.3376 4.6586 3.8482 0 2.0434-3.0288 6.4855-5.6904 8.3457-7.3204 5.1162-17.621-.56370-16.234-8.9517.80401-4.8629 3.0984-7.5013 9.1334-10.503 4.6046-2.29 6.7314-2.7574 12.546-2.7574 3.851 0 7.1121-.30624 7.2467-.68053.48183-1.3393-5.3639-6.6006-8.0366-7.2332-9.3-2.2012-11.78-2.3725-17.55-1.2122-13.448 2.7043-25.62 11.2-30.74 21.455-1.8792 3.7634-2.3678 6.2239-2.3678 11.925 0 6.2755.34094 7.6883 2.6994 11.186 3.5394 5.2485 6.5908 7.83 11.577 9.7939 5.2742 2.0775 16.183 2.1648 22.99.18405zm-10.205 66.975c-.33851-.53759.0494-.69657.9092-.37272 1.6739.63047 1.9802 1.3102.59033 1.3102-.50006 0-1.1749-.42188-1.4995-.93751z"/>
 </g>
</svg>
