<?xml version="1.0" encoding="UTF-8" standalone="no"?>
<!-- Created with Inkscape (http://www.inkscape.org/) -->
<svg id="svg3587" xmlns:rdf="http://www.w3.org/1999/02/22-rdf-syntax-ns#" xmlns="http://www.w3.org/2000/svg" height="216" viewBox="0 0 329 216" width="329" version="1.1" xmlns:cc="http://creativecommons.org/ns#" xmlns:dc="http://purl.org/dc/elements/1.1/">
 <metadata id="metadata3593">
  <rdf:RDF>
   <cc:Work rdf:about="">
    <dc:format>image/svg+xml</dc:format>
    <dc:type rdf:resource="http://purl.org/dc/dcmitype/StillImage"/>
    <dc:title/>
   </cc:Work>
  </rdf:RDF>
 </metadata>
 <path id="path3609" d="m97.888 114.44c-1.4712-.91201-3.9694-2.8962-5.5515-4.4093-3.8083-3.642-13.054-8.8097-13.054-7.2961 0 .2799-.79628.86656-1.7695 1.3037-2.5065 1.1258-5.432 4.6451-6.1464 7.3939-.57082 2.1962-.61190 2.2264-.66409.48837-.06827-2.2735 2.4403-6.7282 4.6882-8.3254l1.6639-1.1822-2.4328-.46837c-1.338-.2576-3.8664-.4857-5.6185-.50691l-3.1857-.0385-0.442 5.1146c-.42078 4.8692-.37194 5.1719 1.0176 6.3085 1.7117 1.4001 1.2412 2.4008-.62076 1.3202-1.7035-.98862-2.154-3.2754-1.6649-8.4519l.40547-4.2915h-5.3117c-4.0086 0-5.2332.2051-4.9919.83608.17586.45985.67167 2.0096 1.1018 3.444.43014 1.4343 1.6973 3.5717 2.8158 4.7496 1.1186 1.178 2.0338 2.4876 2.0338 2.9103 0 1.3456-1.7797.82603-2.5227-.73644-.39359-.82772-1.1847-2.1069-1.7581-2.8427-.57334-.73575-1.5615-2.6922-2.196-4.3476-.63444-1.6554-1.7267-3.7234-2.4273-4.5955l-1.2737-1.5856 12.953.35071c7.7247.20915 13.825.67952 15.112 1.1652 9.4671 3.5718 15.022 7.0008 19.391 11.969.99643 1.1331 2.1597 2.0602 2.5851 2.0602.42539 0 .94499.30098 1.1547.66887.61861 1.0854-.44111.76168-3.2917-1.0054zm-47.109-.29c-3.1898-1.3523-3.0547-1.2265-7.8739-7.3308-1.8572-2.3525-4.2981-4.6947-5.4241-5.2049-1.126-.51019-2.2038-1.3696-2.3949-1.9098-.55619-1.5717-7.2005-1.3019-10.383.42157-3.8597 2.0902-7.2374 9.2036-5.7762 12.164.49808 1.0092.45573 1.235-.18843 1.0048-.45702-.16335-.92533-.99777-1.0407-1.8543-1.0183-7.5598 5.3542-15.394 12.522-15.394 1.5402 0 2.8003-.23401 2.8003-.52003 0-.96675-2.0524-3.8065-6.2442-8.6398-2.2954-2.6467-4.903-6.4843-5.7946-8.5281-.89162-2.0437-1.7006-3.7159-1.7978-3.7159-.09715 0-.14639 2.3573-.10941 5.2384.07962 6.2046-.83564 8.5913-3.5896 9.3608-1.7896 0.5-1.9143.74974-2.2484 4.5031-.19457 2.1855-.68032 4.821-1.0795 5.8566-.39913 1.0356-.72570 3.5797-.72570 5.6535 0 3.335.22776 4.0254 1.9715 5.9763 1.0843 1.2131 1.6773 2.2057 1.3178 2.2057-1.0242 0-3.6899-3.1702-4.5425-5.4021-.64529-1.6893-.59320-2.8185.31551-6.8387.59863-2.6484 1.2184-6.5549 1.3772-8.681.25574-3.4236.52926-4.0738 2.392-5.6854l2.1032-1.8197.000018-9.0632c.000010-4.9847-.24553-9.3491-.54564-9.6986-.881-1.021-5.398-11.066-6.4534-14.344-1.7425-5.413-2.3896-18.536-1.4512-29.431.42597-4.9455.79908-6.4273 2.9474-11.705 1.6244-3.9907 8.1527-10.093 8.7474-8.1763.56640 1.825-.31409 3.1598-2.0844 3.1598-.97821 0-1.7786.30099-1.7786.66887s-.39603.66887-.88007.66887c-.96576 0-2.764 3.3837-3.1991 6.0198-.15181.91969-.68397 2.807-1.1826 4.194-1.4214 3.9539-1.2509 25.403.25107 31.591 1.0258 4.226 3.6291 10.684 6.8757 17.056.65601 1.2876 1.1424 3.0935 1.0808 4.0132-.06809 1.0176.54075 2.4305 1.5553 3.6092.91696 1.0654 1.6672 2.3506 1.6672 2.856 0 1.6716 3.1438 6.3572 8.0718 12.03 2.6736 3.0778 5.0402 6.421 5.2592 7.4293.43139 1.986 3.1478 5.5271 4.2099 5.488.36060-.0133 3.0161 2.7143 5.9011 6.0614 4.6738 5.4224 5.5308 6.127 7.8646 6.4665 1.4406.20953 2.6192.64231 2.6192.96174 0 .90095-1.8812.63598-5.0638-.71325zm50.658-4.893c-1.0559-2.2992-3.3136-5.7312-5.0172-7.6267-1.7035-1.8954-2.9206-3.7564-2.7045-4.1354.21605-.37906 1.984-1.0172 3.9288-1.4181 5.4228-1.1178 10.848-2.8973 11.757-3.8566.45052-.47533 1.3517-1.1733 2.0027-1.5511 2.1577-1.2522 3.8668-5.931 3.9172-10.723.0398-3.7845-.20425-4.8063-1.7543-7.3467-1.6772-2.7487-2.5375-7.3306-2.787-14.843-.0482-1.4531-4.0382-6.3237-5.6289-6.8711-1.5162-.52182-5.0309 2.3454-6.8682 5.6029-2.1522 3.816-3.5795 5.1066-3.5795 3.2369 0-.47965.97151-1.8932 2.1589-3.1411 1.1874-1.248 2.1589-2.6293 2.1589-3.0696 0-.44029.35224-.94710.78276-1.1262.95436-.39712 5.0613-9.0873 4.5544-9.637-.19889-.21566-1.8557.40056-3.6819 1.3694-1.8262.96882-3.6396 1.7615-4.0298 1.7615-.39026 0-.70956.26567-.70956.59038s-1.5961 1.4255-3.5468 2.4461c-1.9507 1.0207-4.3261 2.4433-5.2786 3.1614-.95249.71810-1.9037 1.1192-2.1139.89133-.46298-.50203 1.6866-2.356 2.7662-2.3858.42407-.01171.77104-.34070.77104-.73112 0-.47161-.98335-.54083-2.93-.20623-4.1667.71621-14.136.45858-17.751-.45873-12.563-3.1876-23.105-4.0199-29.9-2.3608-4.6819 1.1432-9.5015 3.2791-10.992 4.8714-.44830.47892-1.0266.87077-1.2851.87077-.25848 0-1.4877 1.1036-2.7317 2.4525-1.2668 1.3736-2.2527 2.0357-2.2412 1.505.02678-1.2367 1.7328-3.4193 3.8465-4.9211 1.4649-1.0408 1.688-1.6445 1.7114-4.6315.01478-1.889.31927-4.7891.67666-6.4445s.73799-7.3743.84578-12.709c.211-10.661-.896-18.571-2.95-21.046-.620-.7477-1.532-1.8365-2.025-2.4191-.909-1.0738-1.213-2.6194-.515-2.6194 1.1256 0 5.3247 5.5424 5.3247 7.028 0 .91699.25412 1.6673.56472 1.6673s.54048 1.1287.51085 2.5083c-.02962 1.3795.26088 4.1577.64557 6.1737 1.0827 5.6741.55422 22.518-.79589 25.366-.59370 1.2521-1.0795 2.8239-1.0795 3.4927 0 1.1103.25353 1.07 2.912-.46281 6.7944-3.9174 19.151-4.6147 34.715-1.9592 3.5622.60779 11.196 1.3276 16.963 1.5996l10.486.49450 2.4673-1.6789c4.437-3.0192 7.9879-4.7601 9.7151-4.763 1.5279-.0025 1.6963.22961 1.6963 2.3382 0 1.2876.18139 2.341.4031 2.341s1.9235-.77994 3.7818-1.7332l3.3787-1.7332 1.2338 1.3379c1.5756 1.7085 1.1854 3.5026-1.7776 8.1735-1.9148 3.0184-2.1401 3.739-1.5107 4.8319.40685.70642.86907 3.2887 1.0272 5.7385.4913 7.613.76751 8.9356 2.0732 9.9273.69291.52627 1.2686 1.4665 1.2794 2.0894.0108.62293.43954 1.7346.95277 2.4703.65497.93895.81486 2.0982.53635 3.8887l-.3968 2.5509 2.374-.38431c1.7466-.28273 2.0479-.21805 1.1403.24474-.67851.34597-1.8395.65019-2.58.67605-.83436.02919-1.5107.61928-1.7786 1.552-.68707 2.3916-3.9665 6.5215-5.1786 6.5215-.60848 0-1.4833.49261-1.9442 1.0947-1.2374 1.6168-5.333 3.32-9.1353 3.7992-1.8399.23184-3.6235.72317-3.9635 1.0918-.41297.44780.54387 1.9913 2.8827 4.6502 1.9255 2.189 3.5009 4.3032 3.5009 4.6984 0 .39518-.003.87045-.008 1.0561-.003.1857.39832 1.3897.89377 2.6755 1.5395 3.9954-.14856 2.5634-2.172-1.8426zm-17.804-16.78c.56654-.67545 8.5995-2.3303 8.5995-1.7715 0 .28360-.43998.69871-.97773.92248-1.4334.59644-8.0259 1.3308-7.6218.84904zm35.247-3.2531c-1.1531-1.2504-.87992-1.7163.80188-1.3677.84815.17581 1.5421.73605 1.5421 1.245 0 1.1381-1.3427 1.2084-2.344.12269zm-32.35-2.651c-.93296-.36950-1.6963-.94027-1.6963-1.2684 0-.33504.69366-.31060 1.5822.05575.87023.35877 2.4663.67346 3.5468.69933 1.657.03963 1.7714.13699.73089.62185-1.566.72970-2.081.71627-4.1636-.10854zm12.612-12.911c.23643-.28003 2.1795-1.1898 4.3178-2.0218 2.1384-.83196 4.3274-1.7137 4.8645-1.9594.79667-.36445.92558-.07036.69992 1.5968-.32502 2.4014-1.3136 3.3041-2.0518 1.8736-.52087-1.0093-2.2464-.87190-6.7182.53483-.84815.26680-1.3486.25598-1.1122-.02408z" fill="#e6e6e6"/>
 <path id="path3607" d="m99.211 115.32c-.74354-.38963-1.5188-1.1801-1.7228-1.7566-.31413-.88768-.19412-.87469.78363.0848.63501.62316 1.4797 1.133 1.877 1.133.39735 0 .72247.30098.72247.66887 0 .7768.0827.78328-1.6603-.13007zm-47.686-1.145c0-.33344.55515-.44884 1.2337-.25643.67852.19241 1.2337.46522 1.2337.60625s-.55515.25643-1.2337.25643c-.67852 0-1.2337-.27282-1.2337-.60625zm15.01-.36763c0-.53564.23131-.81887.51403-.62939.28271.18946.51403.62771.51403.97387 0 .34617-.23131.6294-.51403.6294s-.51403-.43825-.51403-.97388zm-17.631-.62609c-.59370-.4887-1.0795-1.2494-1.0795-1.6904s-.28445-.61119-.63212-.37819c-.34766.23299-.55584.0387-.46262-.43178.09322-.47047-.15424-.86908-.54991-.88579-.75415-.0318-8.3349-8.4947-7.9668-8.8938.11666-.12649.65160.24657 1.1888.82905.53716.58247 1.1947 1.0483 1.4613 1.0352.26656-.0132.48465.35235.48465.81219 0 .45986.34697.83609.77104.83609s.74733.26734.71836.5941c-.02898.32673.17921.77822.46263 1.0033.28342.22506.83645 1.0112 1.2289 1.747.39250.73575.97455 1.2778 1.2934 1.2046.31888-.0732 1.6501 1.0555 2.9583 2.5083 2.2883 2.5411 2.3613 3.5523.12347 1.7102zm-30.93-.79578c-.58685-1.6583-.43834-4.9618.22306-4.9618.32861 0 .43770-.45148.24242-1.0033-.19528-.55181-.04778-1.0033.32778-1.0033s.68283.60199.68283 1.3377c0 .73576-.27757 1.3377-.61683 1.3377-.86766 0-.77059 3.5789.12337 4.5483.49521.53697.51705.80264.066.80264-.37081 0-.84269-.4761-1.0486-1.058zm46.16-1.26c-.45528-2.6316.05885-5.7084.95385-5.7084.34431 0 .37801.60736.08185 1.4755-.27684.81152-.29680 2.4686-.04435 3.6824.25246 1.2138.22436 2.3641-.06244 2.5563-.28680.19219-.70481-.7104-.92892-2.0058zm31.495 1.6492c-.20968-.36788-.08727-.66887.27201-.66887s.65324.30099.65324.66887-.12240.66887-.27201.66887-.44356-.30099-.65324-.66887zm7.6646.50165c-.0252-.0919-.16919-.91969-.31994-1.8394-.15076-.91969-.73834-2.0484-1.3057-2.5082-.57578-.46665-.70696-.83609-.2969-.83609.40411 0 .91525-.0752 1.1359-.16721.22063-.0919.495.49955.6097 1.3145.38526 2.7374.52856 3.1982 1.1481 3.6918.38202.30432.32331.4953-.15421.50165-.42407.005-.79167-.0651-.81687-.15698zm-90.012-1.21c0-.38959.27758-.52233.61683-.29496.33926.22736.61683.54612.61683.70834 0 .16223-.27758.29496-.61683.29496-.33926 0-.61683-.31876-.61683-.70834zm43.283-1.2879c-.96558-1.4162-1.0799-1.8675-.40167-1.5852.97719.40662 2.4402 2.8183 1.9995 3.2961-.1364.14791-.85544-.62199-1.5979-1.7109zm-44.763.25719c-.21953-.62033-.26035-1.2784-.09072-1.4623.16963-.18395.48803.17311.70756.79345.21952.62033.26035 1.2784.09072 1.4623-.16963.18394-.48803-.17312-.70756-.79345zm80.575-1.1999c-1.031-1.2733-1.9959-2.1834-2.1443-2.0224-.14841.16093-.99015-.43129-1.8705-1.316-.88038-.88474-1.748-1.4489-1.9279-1.2538-.17998.19516-1.0992-.19667-2.0428-.87077-.94355-.67407-2.1319-1.2898-2.6408-1.3684-.50889-.0785-1.5487-.30274-2.3106-.49825-.94377-.24215-1.5773.0335-1.9876.86465-.33120.67106-1.0613 1.4112-1.6224 1.6446-.93963.39099-.94292.29661-.04157-1.1951.92108-1.5243.89845-1.6803-.38480-2.6518l-1.3634-1.0322 1.3572-.0351c.74647-.0194 1.5792.34116 1.8505.80101s1.1872.88419 2.0354.94298c2.0716.14361 3.1232.46582 4.8205 1.477.78535.46788 2.0308.97657 2.7676 1.1304.73683.15388 1.8229.96055 2.4136 1.7926.59064.83207 1.0801 1.2666 1.0876.96566.0075-.30096.84971.0983 1.8715.88723 1.0218.78894 1.714 1.6867 1.5382 1.995-.17574.30833.02917.6956.45537.86059.42619.16499.60365.5018.39435.74846-.20929.24666-1.2241-.59329-2.255-1.8666zm-21.729.93237c0-.36789.29396-.66888.65324-.66888s.48168.30099.27201.66888c-.20968.36787-.50363.66886-.65324.66886s-.27201-.30099-.27201-.66886zm-60.312-3.727c-.06817-.89317.15052-1.624.48598-1.624.72244 0 .82642 2.4514.12395 2.9222-.26729.17913-.54175-.40508-.60992-1.2983zm89.321-1.5884c-.48148-.97555-.41401-1.2199.30525-1.1054 1.5469.24619 2.3627 1.5048 1.2702 1.9594-.5784.24067-1.202-.0973-1.5754-.85401zm-81.44-.95698c0-.13889.42272-.63295.93937-1.0979.78544-.70685.87571-.66547.55084.25253-.33179.93758-1.4902 1.5947-1.4902.84538zm34.798-.50877c-.26604-.46676-.17994-.60459.21311-.34118.36270.24308.80004.0639.97186-.3983.22360-.60141.32624-.61381.3611-.0436.07036 1.151-1.0212 1.704-1.5461.78312zm11.464-1.5403c0-.57352-.45035-1.0428-1.0008-1.0428-.81965 0-.86180-.1816-.23289-1.0033.963-1.2582 2.0924-1.3138 1.6563-.0815-.17941.50698-.04614 1.2255.29617 1.5967.41861.45392.40283.82201-.04818 1.1243-.37338.25021-.67061-.0128-.67061-.59338zm31.865-.93129c-1.1955-1.3531-1.4049-1.8951-.73224-1.8951.51818 0 .80083.15325.62810.34056-.17273.18730.29202 1.0401 1.0328 1.8951.74076.85501 1.2116 1.5546 1.0463 1.5546s-1.054-.85281-1.9749-1.8951zm-86.147-.0296c0-.41292.29744-.75077.66098-.75077s.57172-.82213.46262-1.827c-.15131-1.3937.09424-1.885 1.0353-2.0715.99780-.19780 1.0862-.07865.46263.62302-.42407.47716-.77104 1.3725-.77104 1.9896 0 .61713-.41636 1.4968-.92525 1.9547-.63926.57529-.92525.6006-.92525.0819zm9.8693.51145c0-.18869.89152-1.2271 1.9811-2.3076s1.6108-1.4378 1.1581-0.794c-.59240.84253-.61881 1.1705-.09425 1.1705.40082 0 .54552.32151.32155.71446-.22397.39296-.76168.56697-1.1949.38671-.43323-.18027-1.0991.0101-1.4797.42261-.38060.41271-0.692.59599-0.692.4073zm15.534-1.4071c-.86406-.93694-.95301-1.8617-.17908-1.8617.56530 0 1.4957 2.017 1.1188 2.4256-.11542.12516-.53831-.12861-.93977-.56394zm15.229-.35672c-.76726-1.0609-.74544-1.0845.23289-.25254.59370.50490 1.0795 1.0316 1.0795 1.1705 0 .5505-.50653.19618-1.3123-.91798zm6.8638.4504c0-.41337-.90557-.63551-2.1258-.52151-1.1692.10923-2.3409-.0346-2.6037-.31961-.26284-0.285 1.4345-.42656 3.772-.31456 2.7087.12979 4.3426.50681 4.5056 1.0397.14068.45986-.06131.8361-.44885.8361-.38756 0-.53309-.30099-.32342-.66888.20967-.36787-.05151-.66886-.58043-.66886-.52891 0-.96166.30099-.96166.66886 0 .36789-.27758.66888-.61683.66888-.33926 0-.61683-.32406-.61683-.72012zm10.178-.61762c-1.7367-.47920-1.6893-.51547.77104-.58973 1.4418-.04358 2.6215.22185 2.6215.58973 0 .74725-.68438.74725-3.3926 0zm-43.483-.647c0-.36787.29396-.66886.65324-.66886s.48169.30099.27201.66886c-.20967.36788-.50363.66887-.65324.66887s-.27201-.30099-.27201-.66887zm4.0094-1.3377c.20968-.36787.78121-.66886 1.2701-.66886.48887 0 .88885.30099.88885.66886s-.57153.66887-1.2701.66887c-.69854 0-1.0985-0.301-.88885-.66887zm4.8109-.59676c-.40090-.69609-.56019-1.4486-.35399-1.6722.77216-.83730 1.2488-.35426 1.2488 1.2656 0 2.0029.01948 1.994-.89478.40654zm61.84-.04338c-1.1421-.44974-1.1346-.49153.15360-.85681.74482-.21121 1.4978-.13208 1.6733.17584.48503.85101-.48086 1.211-1.8269.68096zm-68.501-.697c.20967-.36788.78120-.66887 1.2701-.66887.48887 0 .88885 0.301.88885.66887s-.57153.66887-1.2701.66887c-.69854 0-1.0985-0.301-.88885-.66887zm76.573-1.0033c.19528-.55182.60293-1.0033.90589-1.0033 1.133 0 1.496-.13170 2.2613-.82035.5883-.52944.69579-.45404.42869.30072-.19606.55402-1.0482 1.3491-1.8936 1.7668-1.9843.98036-2.1281.95976-1.7022-.24383zm-70.717-1.655c0-.31246.40833-.50312.90740-.42370 1.4376.22880 1.6243.78503.29980.89322-.66396.05423-1.2072-.15704-1.2072-.46952zm76.246-.96919c.18522-.52338.78548-1.1383 1.3339-1.3665.81922-.34088.79365-.17107-.14329.95159-1.3436 1.6099-1.6515 1.7172-1.1906.41493zm-96.299-1.29c-.30544-.78258-.19414-1.4318.30254-1.7646.43216-.28962.60686-.84042.38824-1.224-.21863-.38358-.07251-.91523.32470-1.1814.47864-.32077.55597-.19235.22931.38079-.38468.67494.000618.76440 1.7552.40747 2.7777-.56505 2.9754.0296.26314.79166-1.3574.38140-2.1106 1.0747-2.3824 2.193-.35761 1.4712-.44596 1.511-.88069.39718zm20.412.40194c-.25444-.27591-.78646-.50166-1.1823-.50166-.39580 0-.71964-.37624-.71964-.83608s-.23412-.80673-.52028-.77084c-.79011.09913-4.0652-3.4996-3.9226-4.3101.06877-.39096-.19878-.72452-.59459-.74124-1.0687-.0451-1.5866-.81075-.54852-.81075.48991 0 2.6331 1.9063 4.7626 4.2362s3.718 4.2362 3.5299 4.2362-.55018-.22574-.80462-.50165zm-2.8272-3.0605c0-.11980-.76333-.94753-1.6963-1.8394l-1.6963-1.6215 1.4954 1.8394c1.3977 1.7192 1.8972 2.1461 1.8972 1.6215zm54.59 2.8933c1.7041-.79406 2.7757-.79406 2.7757 0 0 .36788-.90212.64771-2.0047.62185-1.68-.03943-1.8049-.14012-.77104-.62185zm5.8599-.66886c0-.36788.29396-.66887.65324-.66887s.48169.30099.27201.66887c-.20967.36788-.50363.66886-.65324.66886s-.27201-.30099-.27201-.66886zm21.93-.61175c-.19861-.34845-.0982-.80976.22317-1.0251.32135-.21536.74677-.10646.94536.242.19862.34846.0982.80977-.22317 1.0251-.32135.21536-.74677.10646-.94536-0.242zm6.5676-1.5286c-1.2228-1.3259-.83324-2.1715.42949-.93231.90892.89195 1.2419.95234 1.4934.27089.21142-.57279.34059-.47096.37239.29354.0559 1.3451-1.2074 1.5476-2.2953.36788zm-101.29-2.54c0-.36788.29396-.66887.65324-.66887s.48169.30099.27201.66887-.50363.66886-.65324.66886-.27201-.30099-.27201-.66886zm68.931-.10854c-.93296-.36950-1.6963-.95544-1.6963-1.3021 0-.34667.83272-.16337 1.8505.40734 1.0178.57072 1.8505 1.1804 1.8505 1.3549s-.0694.29350-.15421.26445c-.08482-.02899-.91754-.35511-1.8505-.72460zm-72.015-.154c0-.14458.41636-.43612.92525-.64787.50889-.21176.92525-.09345.92525.26287 0 .35633-.41636.64788-.92525.64788s-.92525-.11830-.92525-.26288zm75.138-.19404c.44527-.19322.97729-.16946 1.1823.05281.20497.22226-.15935.38034-.80959.35130-.71858-.03213-.86474-.19059-.37267-.40410zm-71.247-4.759c.03208-2.2332.27995-3.9117.55083-3.7302.66292.44427.61101 5.7012-.06777 6.8635-.34212.58578-.51992-.56748-.48306-3.1333zm98.297 1.3322c.78986-3.4126.43888-6.204-.71946-5.722-.50888.21176-.92525.07845-.92525-.29624 0-.97590 1.8426-.54856 2.5232.58519.31574.52593.40155 2.126.19068 3.5556-.37684 2.5551-.35504 2.5917 1.2788 2.147.96804-.26347 1.515-.19406 1.3096.16618-.1939.34020-1.1816.75052-2.195.91178-1.6932.26948-1.8116.16033-1.4626-1.3475zm-100.32-6.579c-.0076-6.5306.16798-8.1959.89605-8.4989.49802-.20723 1.0961-.04241 1.329.36622.25643.44992.14257.55475-.28866.26575-.39168-.26249-.73338-.23375-.75933.06387-.02596.29762-.13736 1.047-.24757 1.6653-.13991.78495.09101 1.003.76522.72242.59095-.24590.80880-.12670.56149.30722-.22226.38995.47884 1.6451 1.558 2.7891 1.0792 1.1441 1.6154 2.0801 1.1918 2.0801-.42368 0-.59878.30099-.38911.66887s.06856.66887-.31358.66887c-.39905 0-.53830-.53469-.32715-1.2561.28125-.96090.0011-1.3321-1.1921-1.5794-1.5301-.31716-1.5599-.24550-1.5692 3.7644-.0051 2.2482-.27852 4.5392-.60739 5.091-.40425.67831-0.601-1.6277-.60739-7.1188zm98.684 6.7843c0-.55182.26886-1.0033.59748-1.0033.32861 0 .4377.45148.24242 1.0033s-.46414 1.0033-.59748 1.0033c-.13332 0-.24242-.45148-.24242-1.0033zm-91.921-.684c-.65186-.8517-.61370-.94958.23289-.59730.55687.23171 1.0125.69009 1.0125 1.0186 0 .86013-.35707.73934-1.2454-.42131zm-1.6548-2.9238c-.62214-1.0802-.57367-1.2541.31045-1.1134.57623.09173.99911.37132.93974.62136-.36814 1.5504-.59028 1.6378-1.2502.49201zm93.886-4.758c.21116-.37048-.0484-.85350-.57689-1.0734-.52844-.21988-.7989-.68386-.60101-1.0311.46624-.81804 2.1005.62648 2.1005 1.8566 0 .50678-.29396.92141-.65324.92141s-.48047-.30312-.26932-.67359zm-15.115-1.2315c0-.33792.55515-.77181 1.2337-.96422.67851-.19241 1.2337-.23810 1.2337-.10154 0 .13655-.55515.57045-1.2337.96421-.68156.39553-1.2337.44097-1.2337.10155zm3.701-1.5015c0-.65688 1.3988-1.1327 2.3131-.78682 1.314 0.497.84941 1.2504-.77103 1.2504-.84815 0-1.5421-.20859-1.5421-.46353zm4.3178-.94109c0-.91970.23908-1.6722.53129-1.6722s.39865.75248.23651 1.6722c-.16214.91969-.40121 1.6722-.5313 1.6722-.13008 0-.2365-.75248-.2365-1.6722zm4.4894.25293c-.3806-.41271-.54521-1.1652-.3658-1.6722.17942-.50698.019-.92180-.35661-.92180-.41645 0-.68283-1.4351-.68283-3.6788 0-3.3429.87841-4.9796 1.5256-2.8427.21277.70255.79562 9.8658.62752 9.8658-.0308 0-.36728-.33766-.74788-.75038zm-.36704-8.0703c-.1969-.53358-.34307-.37509-.37267.40411-.0268.70509.11901 1.1001.32398.87789.20497-.22226.22688-.79916.0487-1.282zm-97.881-1.2518c0-.38959.27757-.52232.61683-.29496s.61683.54612.61683.70834c0 .16223-.27758.29496-.61683.29496-.33926 0-.61683-.31876-.61683-.70834zm-1.8561-1.6401c-.83234-1.0875-.17958-1.3146 1.151-.40044.50836.34929.59634.73624.2241.98570-.33704.22587-.95581-.03752-1.375-.58526zm98.082-1.3304c0-1.1667.32628-1.6562 1.0795-1.6194.5937.02903.76196.19396.3739.3665-.38806.17253-.56387.90125-.39069 1.6194.17347.71930.005 1.3057-.3739 1.3057-.37883 0-.68877-.75248-.68877-1.6722zm-16.038.37339c0-.74157 2.4207-2.3191 2.8478-1.8559.15116.16391-.42776.79722-1.2865 1.4073-.85874.61014-1.5613.81199-1.5613.44858zm-82.703-3.884c-.02909-.69926-.17396-.83390-.35982-.33443-.35604.95678-1.442 1.1366-1.442.23878 0-1.2794 1.854-1.3143 2.4796-.04662.44340.89840.44637 1.3128.0094 1.3128-.35119 0-.66045-.52673-.68723-1.1705zm86.222-.48064c1.4535-2.1655 2.3583-2.1836 1.0515-.021-.55572.91969-1.269 1.6722-1.5851 1.6722-.31608 0-.07598-.74302.53357-1.6512zm11.984.75353c-.37786-.49369-.50437-1.0957-.28114-1.3377.77715-.84271 1.3566-.43129 1.2643.89763-.11026 1.587-.10664 1.5854-.98319.44011zm-86.433-2.447c0-.36788.29396-.66887.65324-.66887s.48169.30099.27201.66887c-.20967.36788-.50363.66887-.65324.66887s-.27201-.30099-.27201-.66887zm84.198 0c-.20968-.36788-.0872-.66887.27201-.66887.35928 0 .65324.30099.65324.66887s-.12241.66887-.27201.66887c-.14961 0-.44356-.30099-.65324-.66887zm-23.126-.708c0-.38959.27758-.52232.61683-.29496.33926.22736.61683.09463.61683-.29496s.31156-.70834.69236-.70834c.47836 0 .45501.31011-.07553 1.0033-.89169 1.1651-1.8505 1.3179-1.8505.29496zm25.65.12925c-.2657-.46620-.31652-1.0283-.11293-1.2491.55205-.59861 1.154.28179.85579 1.2518-.20893.67968-.35423.67916-.74286-.0026zm-101.44-1.845c-.86014-2.047-.90197-3.8137-.077219-3.261.33926.22736.63443-.13111.65593-.79661.029034-.89855.19632-.78267.64992.45022.41633 1.1316.40388 1.735-.0391 1.8951-.35746.12920-.64992.52859-.64992.88752 0 .35894.25839.47944.57421.26779.92150-.61757 1.223.56399.36352 1.4245-.61163.61237-.93538.42225-1.4773-.86756zm16.577 1.0866c0-.36788.29396-.66887.65324-.66887s.48169.30099.27201.66887c-.20967.36788-.50363.66887-.65324.66887s-.27201-.30099-.27201-.66887zm86.973.12137c0-.80836 1.1702-1.7508 1.598-1.287.15525.16835-.14078.68683-.65787 1.1522-.58623.52757-.94016.57832-.94016.13479zm-10.703-1.1071c-.19036-.53792-.10974-1.1364.17915-1.3301.2889-.19361.681.0881.87137.62603.19036.53792.10974 1.1364-.17914 1.3301-.2889.19361-.68101-.0881-.87138-.62603zm4.2263.31686c-.20968-.36788-.0872-.66887.27201-.66887.35928 0 .65324.30099.65324.66887s-.1224.66887-.27201.66887c-.1496 0-.44356-.30099-.65324-.66887zm-79.886-1.997c0-.741.27758-1.3473.61683-1.3473.33926 0 .61683.27907.61683.62016s.88118.49924 1.9582.35143c2.5522-.35025 1.5086.82944-1.1872 1.3419-1.7145.32593-2.0047.18607-2.0047-.96619zm47.496.63398c-1.9301-.29902-.73606-.44965 3.9189-.49441 3.6821-.03538 6.5823.05752 6.4449.20645-.47720.51745-7.6044.71548-10.364.28796zm14.496-.64352c-.20967-.36788-.08727-.66887.27201-.66887s.65324.30099.65324.66887-.12240.66887-.27201.66887-.44356-.30099-.65324-.66887zm2.1589-.01431c0-.36002.38238-.65455.84973-.65455.46734 0 1.1953-.45149 1.6176-1.0033.83015-1.0846 3.3936-1.4185 2.7924-.36364-.20051.35181-.77205.47010-1.2701.26287-.49802-.20724-.90549-.0919-.90549.25628 0 .34819-.69394.97591-1.5421 1.395-.93808.46347-1.5421.50552-1.5421.10736zm24.383-.98759c.43494-2.233.73562-2.7513 1.2638-2.1786.19618.21273-.0958 1.2411-.64885 2.2853l-1.0056 1.8985.39059-2.0052zm-46.743.55893c.42407-.18555 1.118-.18555 1.5421 0 .42407.18555.0771.33737-.77104.33737s-1.1951-.15182-.77104-.33737zm17.423-.143c0-.32262-1.5961-.53682-3.5468-.47601-1.9507.0608-5.4898-.26180-7.8646-.71689-2.8873-.55330-3.3186-.72799-1.3018-.52729 1.6588.16508 6.3776.35076 10.486.41259 4.1086.06187 6.3757.23397 5.0381.38250-1.7629.19575-2.1872.43805-1.5421.88062.73402.50360.70081.61236-.18952.62081-.59370.0054-1.0795-.25372-1.0795-.57633zm19.584.14359c.42408-.18555.77104-.63104.77104-.98997s-.27757-.46658-.61683-.23922-.61683.09463-.61683-.29496.29396-.70834.65324-.70834.48918-.28785.28865-.63966c-.20051-.35181-.84144-.44595-1.4243-.20920-.92597.37613-.95286.28803-.21314-.69808 1.3149-1.7529 2.7452-1.4427 2.3992.5203-.15987.90686-.004 1.7523.34572 1.8789.97024.35069-.12865 1.8305-1.3147 1.7704-.64223-.03251-.74676-.18245-.27202-.39017zm-40.051-.684c.44527-.19322.97729-.16946 1.1823.05278.20497.22227-.15935.38035-.80959.35130-.71858-.03211-.86474-.19059-.37267-.40410zm-34.427-.47483c0-.14458.41636-.43612.92525-.64788.50889-.21175.92525-.09345.92525.26287 0 .35633-.41636.64788-.92525.64788s-.92525-.11830-.92525-.26287zm3.701-1.1375c0-.77239.42559-1.2711 1.0795-1.2649.8637.0081.90745.12835.21888.60113-.68883.47296-.62728.64317.30842.85289 1.0403.23318 1.0163.30734-.21888.67399-1.0868.32261-1.3879.13537-1.3879-.86313zm25.29.73149c-0.721-.50525-.55080-.65064.77104-.65863.93296-.0054 1.6963.29075 1.6963.65863 0 .84572-1.2605.84572-2.4673 0zm43.178 0c0-.36788.27757-.66887.61683-.66887s.61684.30099.61684.66887-.27758.66887-.61684.66887-.61683-.30099-.61683-.66887zm-64.303-1.111c.42407-.18555 1.118-.18555 1.5421 0 .42407.18555.0771.33737-.77104.33737s-1.1951-.15182-.77104-.33737zm14.804-.0291c.76333-.15943 2.0124-.15943 2.7758 0 .76333.15942.13879.28987-1.3879.28987s-2.1512-.13044-1.3879-.28987zm9.015-0.343c-.16386-.28745.25724-.52267.93576-.52267s1.3948.28278 1.5918.62839c.19698.34561-.22411.58083-.93575.5227-.71165-.05813-1.428-.34091-1.5918-.62839zm47.888.18612c0-.53519-.40131-.68624-1.0794-.40628-.86551.35730-.92664.27868-.30841-.39665.59366-.64851.93895-.66019 1.501-.05077.40146.43533.54025.99718.30842 1.2486-.23183.25137-.42151.07369-.42151-.39486zm-82.652-.709c0-.36788.29396-.66887.65324-.66887s.48169.30099.27201.66887c-.20967.36788-.50363.66887-.65324.66887s-.27201-.30099-.27201-.66887zm-1.2337-1.3377c0-.73576.25159-1.3377.55909-1.3377s.41391.60198.23647 1.3377c-.17744.73576-.42902 1.3377-.55908 1.3377s-.23648-.60198-.23648-1.3377zm11.566.89476c.42407-.18555 1.118-.18555 1.5421 0 .42407.18555.0771.33737-.77104.33737-.84815 0-1.1951-.15182-.77104-.33737zm19.43-.01812c.59370-.16823 1.5652-.16823 2.1589 0 .59370.16824.10795.30589-1.0795.30589s-1.6732-.13765-1.0795-.30589zm41.315-.33276c.30736-.99982 1.7093-1.5503 1.7093-.67118 0 .35918-.43956.83594-.97680 1.0595-.60074.24998-.88274.10050-.73249-.38829zm15.742-.59961c-.59371-.70510-.8449-1.282-.55823-1.282.28668 0 1.0236.60198 1.6377 1.3377.61405.73576.86525 1.3127.55823 1.282-.30703-.03063-1.044-.63264-1.6377-1.3377zm-86.205-.613c0-.36788.29396-.66887.65324-.66887s.48169.30099.27201.66887c-.20967.36788-.50363.66887-.65324.66887s-.27201-.30099-.27201-.66887zm72.888 0c.32249-1.0713 4.2164-1.8314 4.2164-.82303 0 .32971-.62455.54035-1.3879.46810-.76333-.07225-1.78.20380-2.2592.61343-.67844.57990-.80449.52267-.56933-.25851zm-93.271-.669c-.35015-2.7395-.28526-4.6821.15639-4.6821.27021 0 .49129-1.505.49129-3.3443 0-1.8394-.27758-3.3443-.61683-3.3443-.33926 0-.61683-.30099-.61683-.66887s.31010-.59362.68910-.50165c.37901.09197.76799-.33868.86440-.95699.11426-.73274-.12754-.99820-.69439-.76232-.67726.28181-.75312.02019-.34287-1.1824.28975-.84935.84728-1.6601 1.239-1.8017.51420-.18586.71213 2.1858.71213 8.5331 0 5.1427-.23410 8.6336-.56415 8.4124-.31028-.20794-.70473.000037-.87655.46218-.22107.59459-.34990.54692-.44064-.16305zm21.003-2.301c0-.57353.27757-1.0428.61683-1.0428s.61683.28323.61683.62939c0 .34617-.27758.81542-.61683 1.0428-.33926.22736-.61683-.05587-.61683-.62939zm-1.8505-.66887c0-.53011.27758-1.1498.61683-1.3772.33926-.22736.61683.20636.61683.96383s-.27758 1.3772-.61683 1.3772c-.33926 0-.61683-.43372-.61683-.96383zm-18.506-16.427c0-.36788.27757-.66887.61683-.66887s.61683.30099.61683.66887-.27758.66887-.61683.66887c-.33926 0-.61683-.30099-.61683-.66887zm20.356-1.003c0-.91969.27757-1.6722.61683-1.6722s.61683.75248.61683 1.6722c0 .91969-.27758 1.6722-.61683 1.6722-.33926 0-.61683-.75248-.61683-1.6722zm-.61683-4.5483c0-1.214-.33309-2.5685-.7402-3.0099-.57571-.62428-.53002-.80264.20561-.80264.52020 0 .98744.37624 1.0383.83609.05088.45985.26743 1.8143.48123 3.0099.25096 1.4034.14530 2.1738-.29812 2.1738-.37776 0-.68684-.99327-.68684-2.2073zm-19.122-.469c-.5559-.389-.6320-.652-.1906-.658.40405-.0057.90619.29075 1.1159.65863.47330.83042.25976.83042-.92525 0zm.29177-1.9774c.20052-.35181.77205-.47010 1.2701-.26287 1.2751.53056 1.1248.90253-.36457.90253-.69854 0-1.106-.28784-.90550-.63966zm17.353-3.764c-.23053-.65142-.09267-.95721.35808-.79428.92207.33328 1.4298 1.8535.61899 1.8535-.33123 0-.77092-.47664-.97707-1.0592zm-15.178-1.282c.42234-.55182 1.0455-1.0033 1.3847-1.0033.34409 0 .27729.44363-.15106 1.0033-.42234.55182-1.0455 1.0033-1.3847 1.0033-.34409 0-.27729-.44363.15106-1.0033zm1.374-2.7244c.585-.6648 1.234-1.0254 1.44-.8012.207.2242-.272.7682-1.064 1.2089-1.378.7659-1.394.7480-.376-.4077zm13.43-.9935c0-.38959.27758-.52232.61683-.29496.33926.22736.61683.54611.61683.70834s-.27758.29496-.61683.29496c-.33926 0-.61683-.31875-.61683-.70834zm-11.719-.9029c0-.12735.41636-.60624.92525-1.0642.53331-.47995.92525-.54495.92525-.15346 0 .37356-.41636.85246-.92525 1.0642-.50889.21175-.92525.28081-.92525.15346zm9.098-.8564c-.620-.1758-1.071-.9254-1.06-1.7618.01693-1.2572.12602-1.319.79928-.45261.42881.55182 1.1694 1.3795 1.6458 1.8394.87690.84644.57079.92931-1.3853.37502zm-6.631-1.1396c0-.14458.43078-.44212.95729-.66121.54894-.22842.79653-.11628.58043.26287-.36224.63556-1.5377.94006-1.5377.39833z" fill="#dadada"/>
 <path id="path3605" d="m64.527 110.37c.02961-.7792.17576-.9377.37267-.40411.17818.48283.15627 1.0597-.04867 1.282-.20497.22225-.35076-.17281-.32397-.87789zm23.44-4.6821c.02961-.7792.17576-.93769.37267-.40411.17818.48284.15628 1.0597-.04867 1.282-.20497.22226-.35076-.17279-.32397-.87789zm-11.769-2.2458c0-.34616.27440-.81328.60977-1.038.34966-.23433.45306.0342.24242.62939-.41006 1.1588-.85219 1.3708-.85219.40865zm3.0842-1.3772c-.79072-.55411-.76830-.64987.15421-.65863.59370-.005 1.0795.29075 1.0795.65863 0 .81576-.06958.81576-1.2337 0zm-67.803-2.388c.02959-.7792.17576-.93769.37267-.40411.17818.48283.15627 1.0597-.0487 1.282-.20497.22225-.35076-.1728-.32397-.87789zm63.986.60213c.44527-.19322.97729-.16946 1.1823.0528.20497.22226-.15935.38034-.80959.35131-.71858-.0321-.86474-.1906-.37267-.40411zm-21.589-.66888c.44528-.19322.97730-.16946 1.1823.05281.20497.22226-.15935.38034-.80959.3513-.71858-.03213-.86474-.19059-.37267-.40410zm16.038 0c.44527-.19322.97729-.16946 1.1823.05281.20497.22226-.15935.38034-.80959.3513-.71858-.03213-.86474-.19059-.37267-.40410zm-42.562-3.34c.44528-.19322.97730-.16946 1.1823.05281.20497.22226-.15935.38035-.80959.35130-.71858-.03213-.86474-.19058-.37267-.40410zm57.173-4.225c1.7137-.79852 2.9225-.79852 2.4673 0-.20967.36788-1.1282.64771-2.0411.62185-1.4821-.04196-1.5278-.10856-.42622-.62185zm32.384-8.2829c0-.14106.68553-.39856 1.5234-.57225.83788-.17368 1.3767-.05828 1.1973.25646-.31587.55420-2.7207.83332-2.7207.31579zm-100.33-6.098c.0023-2.943.11068-4.0638.24099-2.4906.13030 1.5732.12847 3.9811-.0041 5.3509-.13255 1.3698-.23916.08271-.23692-2.8604zm2.3046 3.9575c.0296-.7792.17576-.93769.37267-.40411.17819.48283.15627 1.0597-.0487 1.282-.20497.22226-.35076-.17279-.32397-.87789zm-.66553-8.3051c-.39423-.79877-0.578-1.6028-.40837-1.7867.16963-.18394.63097.31910 1.0252 1.1179.39423.79877 0.578 1.6028.40837 1.7867-.16963.18394-.63097-.31910-1.0252-1.1179zm87.512-1.8394c-.76725-1.0609-.74544-1.0845.23289-.25254 1.0275.87379 1.3542 1.4231.84657 1.4231-.12808 0-.61384-.52673-1.0795-1.1705zm2.5947-.55739c.0296-.77920.17575-.93769.37266-.40411.17819.48284.15627 1.0597-.0486 1.282-.20498.22226-.35077-.17280-.32398-.87789zm4.229-4.7922c.27394-4.6122.46216-4.2936.78955 1.3363.10578 1.8193-.0808 3.1777-.43652 3.1785-.38236.000669-.51812-1.7354-.35303-4.5149zm-1.6901-7.1917c.0125-1.1036.1508-1.4741.3072-.82336.15639.65079.14611 1.5538-.0229 2.0066-.16896.45284-.29692-.07962-.28435-1.1832zm-13.237-3.093c.41842-.45712.91614-.66263 1.1061-.45669.18992.20594-.15242.57994-.76076.83112-.87911.36298-.94996.28616-.34530-.37443zm-12.789-3.301c0-.38959.27758-.52232.61683-.29496.33926.22736.61683.54612.61683.70834 0 .16223-.27758.29496-.61683.29496-.33926 0-.61683-.31876-.61683-.70834zm25.599-.62939c.20968-.36788.50363-.66887.65324-.66887.1496 0 .27201.30099.27201.66887s-.29396.66887-.65323.66887c-.35928 0-.48169-.30099-.27202-.66887zm-84.186-1.8c.0051-.29762.27852-.99262.60739-1.5444.51530-.86464.59925-.84698.60739.12774.0051.62207-.26813 1.3171-.60739 1.5444-.33926.22736-.61258.16988-.60739-.12774zm47.795-.20669-2.4673-.47904 2.2767-.09491c1.2522-.05217 2.4483.20607 2.6579.57395.20967.36788.29545.62615.19061.57395s-1.3009-.31048-2.6579-.57395zm5.5508-.0013c-.12880-.22599.85956-.48087 2.1964-.56640 1.3368-.08554 2.4305-.02576 2.4305.13284 0 .47112-4.372.88079-4.6269.43356zm-71.195-1.058c.029591-.77920.17576-.93769.37267-.40411.17819.48284.15627 1.0597-.0487 1.282-.20497.22226-.35076-.17280-.32397-.87789zm1.5696-.63899c-.59523-1.682-.41964-2.116.30751-.76006.36004.67138.52468 1.3616.36586 1.5338-.15882.17221-.46183-.17597-.67337-.77374zm58.099.57225c.44527-.19322.97729-.16946 1.1823.05278.20497.22227-.15935.38034-.80959.35130-.71858-.03211-.86474-.19059-.37267-.40410zm22.99.28256c.14136-.09589.88156-.74452 1.6449-1.4414.76333-.69689 1.3879-1.0914 1.3879-.87674 0 .67411-1.9072 2.4925-2.6142 2.4925-.37157 0-.55992-.07846-.41856-.17435zm-26.074-.95143c.44527-.19322.97729-.16946 1.1823.05278.20497.22227-.15935.38035-.80959.35130-.71858-.03211-.86474-.19059-.37267-.40410zm-34.427-.47483c0-.14458.43078-.44212.95729-.66121.54893-.22841.79653-.11628.58043.26287-.36224.63557-1.5377.94006-1.5377.39834zm28.998-.387c-.721-.494-.622-.605.463-.516.75905.062 1.3801.34967 1.3801.63926 0 .69796-.71491.65025-1.8427-.12297zm18.981.15561c1.7925-.13555 4.5682-.13412 6.1683.0033 1.6001.13728.13353.24818-3.2591.24644-3.3926-.002-4.7018-.11406-2.9093-.24960zm-7.7311-.63605c.59370-.16823 1.5652-.16823 2.1589 0 .59370.16824.10794.30589-1.0795.30589s-1.6732-.13765-1.0795-.30589zm34.897-1.3276c.26322-1.3999.41833-1.5681.59809-.64854.13348.68286-.0265 1.5334-.3554 1.8901-.38622.41881-.47219-.021-.24269-1.2416zm-67.283.677c.42407-.18555 1.118-.18555 1.5421 0 .42407.18555.0771.33737-.77104.33737s-1.1951-.15182-.77104-.33737zm14.804-.0291c.76333-.15943 2.0124-.15943 2.7758 0 .76333.15942.13879.28987-1.3879.28987s-2.1512-.13044-1.3879-.28987zm-18.467-.654c.44528-.19322.97730-.16946 1.1823.05278.20497.22226-.15935.38035-.80959.35130-.71858-.03211-.86474-.19059-.37267-.40410zm28.374 0c.44527-.19322.97729-.16946 1.1823.05278.20497.22226-.15935.38035-.80959.35130-.71858-.03211-.86474-.19059-.37267-.40410zm-36.796-1.55c0-.91970.14001-1.2959.31112-.83608.17112.45985.17112 1.2123 0 1.6722-.17112.45985-.31112.08361-.31112-.83609zm11.507.88083c.44528-.19322.97730-.16946 1.1823.05278.20497.22226-.15935.38034-.80959.35130-.71858-.0321-.86474-.19059-.37267-.40410zm20.02-.0067c.60016-.16958 1.4329-.15843 1.8505.02475.41761.18322-.07343.32197-1.0912.30834-1.0178-.01364-1.3595-.16354-.75930-.33312zm41.162-.913c0-.38959.27758-.52232.61683-.29496.33926.22736.61684.54612.61684.70835s-.27758.29496-.61684.29496-.61683-.31876-.61683-.70835zm-90.009-2.358c.029602-.77919.17576-.93769.37267-.40411.17819.48284.15627 1.0597-.0487 1.282-.20497.22226-.35076-.17279-.32397-.87789zm17.888-2.006c.0296-.77919.17576-.93769.37267-.40411.17819.48284.15627 1.0597-.0487 1.282-.20497.22226-.35076-.17279-.32397-.87789zm-17.725-4.627c.00225-2.943.11069-4.0638.24099-2.4906s.12847 3.9811-.00407 5.3509c-.13255 1.3698-.23916.08265-.23692-2.8604zm-1.6109-7.745c.21812-.90445.49772-1.2076.65172-.70669.14834.48255-.023568 1.1954-.38201 1.5841-.45773.49634-.53801.23520-.26970-.87736zm21.875-4.963c.01257-1.1036.15082-1.4741.30721-.82336.15639.65079.14611 1.5538-.02285 2.0066-.16897.45285-.29693-.07962-.28436-1.1832zm-.68839-4.7378c.02959-.77919.17576-.93769.37267-.40411.17819.48284.15627 1.0597-.0487 1.282-.20497.22226-.35076-.17279-.32397-.87789zm-2.168-6.102c-.33474-.95327-.26389-1.0301.34530-.37443.42155.45372.61108.99343.42116 1.1994-.18992.20594-.53482-.16529-.76646-.82494zm-13.779-3.9278c.58562-0.663 1.1975-1.0615 1.3598-.88551.16228.17597-.31687.71842-1.0648 1.2055-1.2992.84606-1.3124.83181-.29505-.31994zm10.123-3.9605c.19528-.55182.43444-1.0033.53148-1.0033.09703 0 .33620.45149.53148 1.0033.21411.60502.0031 1.0033-.53148 1.0033-.53461 0-.74559-.39828-.53148-1.0033zm-5.9453.071558c0-.14458.43078-.44212.95729-.66121.54894-.22842.79653-.11628.58043.26287-.36224.63556-1.5377.94006-1.5377.39833z" fill="#c7c7c7"/>
 <path id="path3603" d="m75.465 100.27c.44527-.19322.97729-.16946 1.1823.0528.20497.22226-.15935.38034-.80959.35131-.71858-.0321-.86474-.1906-.37267-.40411zm-5.5515-.66888c.44527-.19322.97729-.16946 1.1823.05281.20497.22226-.15935.38034-.80959.3513-.71858-.03213-.86474-.19059-.37267-.40410zm15.228-7.5695c.20967-.36787.50363-.66886.65324-.66886s.27201.30099.27201.66886c0 .36788-.29396.66887-.65324.66887s-.48168-0.301-.27201-.66887zm32.268-8.48c.44527-.19322.97728-.16946 1.1823.05281.20496.22226-.15936.38034-.8096.35130-.71858-.03213-.86474-.19059-.37267-.40411zm-100.83-5.897c.0023-2.943.11068-4.0638.24099-2.4906.13030 1.5732.12847 3.9811-.0041 5.3509-.13255 1.3698-.23916.08271-.23692-2.8604zm94.263-18.394c0-.91969.14-1.2959.31111-.83609.17112.45985.17112 1.2123 0 1.6722-.17111.45985-.31111.08361-.31111-.83608zm-84.257-9.56c.23164-.65965.57655-1.0309.76646-.82494.18991.20594.00039.74565-.42116 1.1994-.60919.65567-.68005.57884-.34530-.37443zm-18.188-.863c.029591-.77920.17576-.93769.37267-.40411.17819.48284.15627 1.0597-.0487 1.282-.2050.222-.3508-.173-.3240-.878zm84.149-.948c.20967-.36788.50363-.66887.65324-.66887s.27201.30099.27201.66887-.29396.66887-.65324.66887-.48168-.30099-.27201-.66887zm-61.992-.262c0-.14458.43078-.44212.95729-.66121.54893-.22841.79653-.11628.58043.26287-.36224.63557-1.5377.94006-1.5377.39834zm48.903-.22960c1.6217-.13824 4.1199-.13657 5.5515.0041 1.4316.14028.10475.25338-2.9486.25134-3.0533-.002-4.2246-.11681-2.6029-.25505zm-8.0257-.63992c.60016-.16958 1.4329-.15844 1.8505.02475.41761.18322-.07343.32197-1.0912.30834-1.0178-.01364-1.3595-.16354-.75930-.33312zm-17.9-.666c.59370-.16823 1.5652-.16823 2.1589 0 .59370.16824.10794.30589-1.0795.30589s-1.6732-.13765-1.0795-.30589zm9.5995-.66471c.44527-.19322.97729-.16946 1.1823.05278.20497.22226-.15935.38035-.80959.35130-.71858-.03211-.86474-.19059-.37267-.40410zm-25.289-.669c.44528-.19322.97730-.16946 1.1823.05278.20497.22226-.15935.38034-.80959.35130-.71858-.0321-.86474-.19059-.37267-.40410zm20.972 0c.44527-.19322.97729-.16946 1.1823.05278.20497.22226-.15935.38034-.80959.35130-.71858-.0321-.86474-.19059-.37267-.40410zm-49.64-10.245c0-2.7591.10888-3.8878.24196-2.5083s.13308 3.637 0 5.0165-.24196.25082-.24196-2.5083zm20.268-12.374c.01257-1.1036.15082-1.4741.30721-.82336.15639.65079.14611 1.5538-.02285 2.0066-.16897.45285-.29693-.07962-.28436-1.1832zm-6.512-18.728c.19528-.55182.43444-1.0033.53148-1.0033.09703 0 .33620.45149.53148 1.0033.21411.60502.0031 1.0033-.53148 1.0033-.53461 0-.74559-.39828-.53148-1.0033z" fill="#b7b7b7"/>
 <path id="path3601" d="m75.465 100.27c.44527-.19322.97729-.16946 1.1823.0528.20497.22226-.15935.38034-.80959.35131-.71858-.0321-.86474-.1906-.37267-.40411zm-58.893-22.28c0-2.7591.10888-3.8878.24196-2.5083s.13308 3.637 0 5.0165-.24196.25083-.24196-2.5083zm94.268-18.729c0-.91969.14-1.2959.31111-.83609.17112.45985.17112 1.2123 0 1.6722-.17111.45985-.31111.08361-.31111-.83608zm-102.44-10.423c.029591-.77920.17576-.93769.37267-.40411.17819.48284.15627 1.0597-.0487 1.282-.2050.222-.3508-.173-.3240-.878zm70.123-1.421c.76728-.15999 1.8776-.15391 2.4673.01351.58975.16741-.03806.29832-1.3951.29089-1.357-.0074-1.8396-.14440-1.0723-.30439zm4.9347 0c.76728-.15999 1.8776-.15391 2.4673.01351.58975.16741-.03806.29832-1.3951.29089-1.357-.0074-1.8396-.14440-1.0723-.30439zm-11.689-.652c.44527-.19322.97730-.16946 1.1823.05278.20497.22227-.15935.38035-.80959.35130-.71858-.03211-.86474-.19059-.37267-.40410zm-8.6357-1.3377c.44527-.19322.97729-.16946 1.1823.05278.20497.22226-.15935.38035-.80959.35130-.71858-.03211-.86474-.19059-.37267-.40410zm-53.958-10.914c0-2.7591.10888-3.8878.24196-2.5083s.13308 3.637 0 5.0165-.24196.25082-.24196-2.5083zm20.246-12.708c0-.91970 0.14-1.2959.31112-.83609.17112.45985.17112 1.2123 0 1.6722-.17112.45985-.31112.08361-.31112-.83608zm-6.489-18.394c.19528-.55182.46414-1.0033.59747-1.0033s.24242.45149.24242 1.0033c0 .55182-.26886 1.0033-.59747 1.0033s-.43770-.45149-.24242-1.0033z" fill="#a9a9a9"/>
 <path id="path3599" d="m16.521 76.317c.0069-1.4715.13316-1.9947.28071-1.1627.14754.83201.14194 2.036-.01244 2.6755-.15439.6395-.27511-.04125-.26826-1.5128zm-7.3555-41.47c.00268-2.5751.11423-3.5467.24776-2.1589.13353 1.3877.13129 3.4947-.00504 4.6821-.13625 1.1874-.24550.05196-.24276-2.5232z" fill="#919191"/>
</svg>
