<?xml version="1.0" encoding="UTF-8" standalone="no"?>
<!-- Created with Inkscape (http://www.inkscape.org/) -->

<svg
   xmlns:dc="http://purl.org/dc/elements/1.1/"
   xmlns:cc="http://creativecommons.org/ns#"
   xmlns:rdf="http://www.w3.org/1999/02/22-rdf-syntax-ns#"
   xmlns:svg="http://www.w3.org/2000/svg"
   xmlns="http://www.w3.org/2000/svg"
   xmlns:sodipodi="http://sodipodi.sourceforge.net/DTD/sodipodi-0.dtd"
   xmlns:inkscape="http://www.inkscape.org/namespaces/inkscape"
   id="svg3587"
   height="216"
   viewBox="0 0 329 216"
   width="329"
   version="1.1"
   inkscape:version="0.91 r13725"
   sodipodi:docname="sleepcat.svg">
  <defs
     id="defs12" />
  <sodipodi:namedview
     pagecolor="#ffffff"
     bordercolor="#666666"
     borderopacity="1"
     objecttolerance="10"
     gridtolerance="10"
     guidetolerance="10"
     inkscape:pageopacity="0"
     inkscape:pageshadow="2"
     inkscape:window-width="1441"
     inkscape:window-height="804"
     id="namedview10"
     showgrid="false"
     inkscape:zoom="2.2893712"
     inkscape:cx="164.5"
     inkscape:cy="108"
     inkscape:window-x="0"
     inkscape:window-y="0"
     inkscape:window-maximized="0"
     inkscape:current-layer="svg3587" />
  <metadata
     id="metadata3593">
    <rdf:RDF>
      <cc:Work
         rdf:about="">
        <dc:format>image/svg+xml</dc:format>
        <dc:type
           rdf:resource="http://purl.org/dc/dcmitype/StillImage" />
        <dc:title></dc:title>
      </cc:Work>
    </rdf:RDF>
  </metadata>
  <g
     id="g3508">
    <g
       transform="matrix(0.90572394,0,0,1.0002096,-2.1699217,1.7248054)"
       id="g3431">
      <g
         id="g3387"
         transform="translate(0,1.3104035)" />
    </g>
    <path
       id="path3506"
       style="fill:none;fill-rule:evenodd;stroke:#000000;stroke-width:0.95631909px;stroke-linecap:butt;stroke-linejoin:miter;stroke-opacity:1"
       d="m 60.701331,86.103997 7.922485,-1.420146 6.596948,-1.050387 5.256044,-0.28143 9.638641,-0.582487 6.129492,-0.261801 6.550849,0.147215 5.64666,0.925989 6.94146,1.354631 5.64667,0.925988 5.22531,0.516974 3.88441,1.28593 5.64665,0.925988 5.64667,0.925988 5.22531,0.516974 6.98757,0.157028 4.80395,0.107958 3.93051,0.08833 4.80394,0.107957 3.08781,-0.729702 5.20995,0.916174 2.13749,1.246673 m 55.60458,71.230649 2.76935,0.43689 0.79124,0.87378 -0.79124,1.31069 -1.58249,0 z m -37.1884,-27.52424 7.5168,-2.18447 4.35185,-1.31067 5.93431,-2.62136 0,3.49514 -0.39562,1.74758 -1.9781,0.43689 -1.18687,-0.43689 -1.9781,-0.4369 -1.18687,0 -7.91243,1.31068 z m -29.27597,35.8252 6.72557,-1.74757 4.74745,-1.74757 2.37373,0.4369 0.79124,0.43689 -5.5387,1.31067 -4.35183,1.31068 z m 1.18686,-13.54367 5.14308,2.62135 2.76935,0 4.35184,-0.43689 m -39.95775,47.18442 1.58248,-4.80582 3.16497,-3.49514 5.93432,-5.67961 5.5387,-2.18446 0.39562,-0.8738 m -24.1329,19.66018 -3.16497,-2.62135 -0.79125,-0.87379 -1.18686,-1.74757 0.39562,-4.80582 0.79124,-3.93204 0.79125,-4.80581 0.79124,-3.49514 0.39562,-1.31069 m -90.597266,21.40775 -1.978107,-3.93204 1.186865,-5.24271 2.769348,-4.80582 4.747456,-5.6796 3.16497,-1.74758 4.747455,-2.18446 3.956213,-1.74757 3.16497,-0.43689 3.16497,-0.87379 2.769349,0 1.978106,0 0.791243,0 m -34.814671,-58.10673 1.186863,17.9126 0,8.73786 0.395621,6.99028 1.186864,3.93203 -3.16497,3.93203 -4.351834,1.31069 -1.582485,3.49514 0,5.6796 -0.395621,5.67961 -1.186865,3.93203 -1.978106,7.86407 0,6.1165 0.791243,5.24271 3.16497,3.05825 1.186864,1.74757 M 206.71811,77.090624 l 2.37373,3.932035 0,2.621357 1.18686,2.184463 3.95622,-2.184463 4.74745,-1.747572 3.56059,-1.310677 1.58248,-0.873786 0,0 1.58249,2.621356 0.79124,1.747571 0.39562,2.621356 -0.39562,2.184464 -1.58248,3.058249 -1.97811,4.80582 -1.9781,3.058249 -1.18687,3.495144 0,0.87378 0.79124,3.49514 0.39563,3.49514 0.79124,3.93204 0,4.36893 0.79124,3.49514 0.39562,3.93203 0.79124,3.49514 0.39562,1.74758 2.76935,4.36892 3.16497,5.24271 0.79124,4.36894 0,4.80581 0,2.18446 -0.39562,1.74758 3.56059,-0.43689 2.37373,0 0.39562,0 -5.93432,0.43689 -1.58248,0.87378 -1.58249,3.93204 -0.79124,3.49514 -2.76935,2.62136 -1.18686,1.31067 -1.18686,0.87379 -1.18687,0.87379 M 55.590784,92.818762 l 9.099288,-3.932034 8.308048,-2.621356 6.725561,-0.873785 11.868642,-1.310679 9.494907,0 10.68177,1.310679 10.28615,1.74757 9.09929,2.184464 7.91243,1.747571 4.35184,0.436893 7.91242,0 6.32994,0 8.30804,0 5.93433,-0.873787 3.16497,0.436894 2.37373,0.873785 1.18686,0 m 18.98982,121.893073 -8.70367,-6.99029 -7.5168,-6.1165 -7.5168,-3.93203 -7.51682,-4.80582 -6.72555,-2.62136 -3.16497,-0.43689 -7.91243,-1.74757 -10.68177,-0.87379 -13.05551,-1.31067 -13.45112,0 -8.30804,0.43689 1.9781,3.49514 3.95622,6.55339 2.37372,5.24271 3.56059,4.80582 3.95622,4.36893 m 50.2439,-112.71832 15.42923,-8.300962 7.12118,-4.368927 7.5168,-3.932034 5.93432,-2.184464 1.97811,-0.436893 0.39562,1.310678 -5.14308,10.485425 -2.76935,4.368928 -1.9781,2.621356 -1.58249,1.74757 0,1.747573 -4.35183,5.24271 -3.16497,5.24271 0,0.87378 3.95621,-5.6796 4.74746,-6.553387 0.79124,0 5.14307,-4.368927 4.74747,0 4.35183,2.621356 3.95621,5.679608 0.79124,2.18446 1.18687,4.80582 1.58248,12.23299 1.58249,8.30097 2.76934,4.80582 2.76935,3.49514 0.39562,1.74757 0.39562,1.31068 0,2.18446 -0.39562,3.49514 -0.79124,3.49515 0,2.62136 -1.18686,4.36892 -0.79124,3.05825 -2.76935,4.80582 -1.97811,3.05825 -3.16497,1.31067 -3.95621,3.49515 -3.95621,1.74756 -3.16498,0.4369 -6.32994,1.74757 -6.72556,0.87378 -5.14307,1.74758 -1.58249,0.43689 0.39562,1.31068 2.76935,3.49514 3.56059,3.49514 3.16497,3.93204 0,1.74757 3.16497,5.6796 1.58248,3.05825 3.16497,4.80582 0,0.43689 m -95.74033,3.49514 -9.099295,-3.49514 -3.16497,-2.18446 -4.747452,-6.1165 -3.164975,-3.49514 -5.143079,-6.11649 -3.956212,-3.05825 -2.373727,-0.43689 -3.956213,-3.93204 -2.769349,-3.49514 -1.186864,-6.1165 -3.956213,-5.24271 -7.516804,-7.86407 -3.16497,-3.93203 -2.373728,-2.62136 -4.351833,-4.80582 -2.769349,-6.55339 -1.186864,-2.18447 -1.582486,-3.93203 -3.956212,-4.80582 -0.395622,-5.67961 -4.351833,-8.73785 -4.747456,-9.61164 -3.956213,-9.174749 -3.164969,-13.106782 -1.186865,-12.232996 -0.39562,-16.165031 0.791242,-13.106781 0.395621,-7.864068 1.978107,-7.427177 1.978106,-6.116497 1.978106,-3.495143 3.560592,-5.242712 3.560591,-3.932035 3.16497,-2.1844633 3.956213,-2.6213563 0,0 m 5.93432,-2.1844636 5.143076,6.5533907 3.16497,3.0582485 2.373727,7.427176 1.582486,9.611639 0.791242,8.300963 0.395621,10.048532 0,5.242712 -0.395621,7.864069 -1.186863,12.232997 -1.186865,9.174746 -0.791242,9.611641 -1.582485,1.310677 -1.582485,1.747572 -2.373727,2.184463 -2.769349,2.621358 -1.978107,2.18446 -0.791243,0.8738" />
  </g>
</svg>
