<?xml version="1.0" encoding="UTF-8" standalone="no"?>
<!-- Created with Inkscape (http://www.inkscape.org/) -->

<svg
   xmlns:dc="http://purl.org/dc/elements/1.1/"
   xmlns:cc="http://creativecommons.org/ns#"
   xmlns:rdf="http://www.w3.org/1999/02/22-rdf-syntax-ns#"
   xmlns:svg="http://www.w3.org/2000/svg"
   xmlns="http://www.w3.org/2000/svg"
   xmlns:sodipodi="http://sodipodi.sourceforge.net/DTD/sodipodi-0.dtd"
   xmlns:inkscape="http://www.inkscape.org/namespaces/inkscape"
   id="svg3587"
   height="216"
   viewBox="0 0 329 216"
   width="329"
   version="1.1"
   inkscape:version="0.91 r13725"
   sodipodi:docname="sleep.svg">
  <defs
     id="defs12" />
  <sodipodi:namedview
     pagecolor="#ffffff"
     bordercolor="#666666"
     borderopacity="1"
     objecttolerance="10"
     gridtolerance="10"
     guidetolerance="10"
     inkscape:pageopacity="0"
     inkscape:pageshadow="2"
     inkscape:window-width="1441"
     inkscape:window-height="804"
     id="namedview10"
     showgrid="false"
     inkscape:zoom="2.2893712"
     inkscape:cx="164.5"
     inkscape:cy="108"
     inkscape:window-x="0"
     inkscape:window-y="0"
     inkscape:window-maximized="0"
     inkscape:current-layer="svg3587" />
  <metadata
     id="metadata3593">
    <rdf:RDF>
      <cc:Work
         rdf:about="">
        <dc:format>image/svg+xml</dc:format>
        <dc:type
           rdf:resource="http://purl.org/dc/dcmitype/StillImage" />
        <dc:title></dc:title>
      </cc:Work>
    </rdf:RDF>
  </metadata>
  <path
     id="path3609"
     d="m 91.335984,114.00319 c -1.4712,-0.91201 -3.9694,-2.8962 -5.5515,-4.4093 -3.8083,-3.642 -13.054,-8.8097 -13.054,-7.2961 0,0.2799 -0.79628,0.86656 -1.7695,1.3037 -2.5065,1.1258 -5.432,4.6451 -6.1464,7.3939 -0.57082,2.1962 -0.6119,2.2264 -0.66409,0.48837 -0.0683,-2.2735 2.4403,-6.7282 4.6882,-8.3254 l 1.6639,-1.1822 -2.4328,-0.46837 c -1.338,-0.2576 -3.8664,-0.4857 -5.6185,-0.50691 l -3.1857,-0.0385 -0.442,5.1146 c -0.42078,4.8692 -0.37194,5.1719 1.0176,6.3085 1.7117,1.4001 1.2412,2.4008 -0.62076,1.3202 -1.7035,-0.98862 -2.154,-3.2754 -1.6649,-8.4519 l 0.40547,-4.2915 -5.3117,0 c -4.0086,0 -5.2332,0.2051 -4.9919,0.83608 0.17586,0.45985 0.67167,2.0096 1.1018,3.444 0.43014,1.4343 1.6973,3.5717 2.8158,4.7496 1.1186,1.178 2.0338,2.4876 2.0338,2.9103 0,1.3456 -1.7797,0.82603 -2.5227,-0.73644 -0.39359,-0.82772 -1.1847,-2.1069 -1.7581,-2.8427 -0.57334,-0.73575 -1.5615,-2.6922 -2.196,-4.3476 -0.63444,-1.6554 -1.7267,-3.7234 -2.4273,-4.5955 l -1.2737,-1.585595 12.953,0.35071 c 7.7247,0.20915 13.825,0.67952 15.112,1.165195 9.4671,3.5718 15.022,7.0008 19.391,11.969 0.99643,1.1331 2.1597,2.0602 2.5851,2.0602 0.42539,0 0.94499,0.30098 1.1547,0.66887 0.61861,1.0854 -0.44111,0.76168 -3.2917,-1.0054 z m -47.109,-0.29 c -3.1898,-1.3523 -3.0547,-1.2265 -7.8739,-7.3308 -1.8572,-2.3525 -4.2981,-4.6947 -5.4241,-5.2049 -1.126,-0.51019 -2.2038,-1.369595 -2.3949,-1.909795 -0.55619,-1.5717 -7.2005,-1.3019 -10.383,0.42157 -3.8597,2.090195 -7.2374,9.203595 -5.7762,12.163995 0.49808,1.0092 0.45573,1.235 -0.18843,1.0048 -0.45702,-0.16335 -0.92533,-0.99777 -1.0407,-1.8543 -1.0183,-7.5598 5.3542,-15.393995 12.522,-15.393995 1.5402,0 2.8003,-0.23401 2.8003,-0.52003 0,-0.96675 -2.0524,-3.8065 -6.2442,-8.6398 -2.2954,-2.6467 -4.903,-6.4843 -5.7946,-8.5281 -0.89162,-2.0437 -1.7006,-3.715896 -1.7978,-3.715896 -0.0971,0 -0.14639,2.357296 -0.10941,5.238396 0.0796,6.2046 -0.83564,8.5913 -3.5896,9.3608 -1.7896,0.5 -1.9143,0.74974 -2.2484,4.5031 -0.19457,2.1855 -0.68032,4.821 -1.0795,5.8566 -0.39913,1.035595 -0.7257,3.579695 -0.7257,5.653495 0,3.335 0.22776,4.0254 1.9715,5.9763 1.0843,1.2131 1.6773,2.2057 1.3178,2.2057 -1.0242,0 -3.6899,-3.1702 -4.5425,-5.4021 -0.64529,-1.6893 -0.5932,-2.8185 0.31551,-6.8387 0.59863,-2.648395 1.2184,-6.554895 1.3772,-8.680995 0.25574,-3.4236 0.52926,-4.0738 2.392,-5.6854 l 2.1032,-1.8197 2e-5,-9.063196 c 1e-5,-4.9847 -0.24553,-9.3491 -0.54564,-9.6986 -0.881,-1.021 -5.398,-11.066 -6.4534,-14.344 -1.7425,-5.413 -2.38960003,-18.536 -1.4512,-29.431 0.42597,-4.9455 0.79908,-6.4273 2.9474,-11.705 1.6244,-3.9907001 8.1527,-10.09300006 8.7474,-8.1763001 0.5664,1.825 -0.31409,3.1598 -2.0844,3.1598 -0.97821,0 -1.7786,0.30099 -1.7786,0.66887 0,0.36788 -0.39603,0.66887 -0.88007,0.66887 -0.96576,0 -2.764,3.3837001 -3.1991,6.0198001 -0.15181,0.91969 -0.68397,2.807 -1.1826,4.194 -1.4214,3.9539 -1.2509,25.403 0.25107,31.591 1.0258,4.226 3.6291,10.684 6.8757,17.056 0.65601,1.2876 1.1424,3.0935 1.0808,4.0132 -0.0681,1.0176 0.54075,2.4305 1.5553,3.6092 0.91696,1.0654 1.6672,2.3506 1.6672,2.855996 0,1.6716 3.1438,6.3572 8.0718,12.03 2.6736,3.0778 5.0402,6.421 5.2592,7.4293 0.43139,1.986 3.1478,5.527095 4.2099,5.487995 0.3606,-0.0133 3.0161,2.7143 5.9011,6.0614 4.6738,5.4224 5.5308,6.127 7.8646,6.4665 1.4406,0.20953 2.6192,0.64231 2.6192,0.96174 0,0.90095 -1.8812,0.63598 -5.0638,-0.71325 z m 50.658,-4.893 c -1.0559,-2.2992 -3.3136,-5.7312 -5.0172,-7.6267 -1.7035,-1.895395 -2.9206,-3.756395 -2.7045,-4.135395 0.21605,-0.37906 1.984,-1.0172 3.9288,-1.4181 5.4228,-1.1178 10.847996,-2.8973 11.756996,-3.8566 0.45052,-0.47533 1.3517,-1.1733 2.0027,-1.5511 2.1577,-1.2522 3.8668,-5.931 3.9172,-10.723 0.0398,-3.7845 -0.20425,-4.806296 -1.7543,-7.346696 -1.6772,-2.7487 -2.5375,-7.3306 -2.787,-14.843 -0.0482,-1.4531 -4.0382,-6.3237 -5.628896,-6.8711 -1.5162,-0.52182 -5.0309,2.3454 -6.8682,5.6029 -2.1522,3.816 -3.5795,5.1066 -3.5795,3.2369 0,-0.47965 0.97151,-1.8932 2.1589,-3.1411 1.1874,-1.248 2.1589,-2.6293 2.1589,-3.0696 0,-0.44029 0.35224,-0.9471 0.78276,-1.1262 0.95436,-0.39712 5.0613,-9.0873 4.5544,-9.637 -0.19889,-0.21566 -1.8557,0.40056 -3.6819,1.3694 -1.8262,0.96882 -3.6396,1.7615 -4.0298,1.7615 -0.39026,0 -0.70956,0.26567 -0.70956,0.59038 0,0.32471 -1.5961,1.4255 -3.5468,2.4461 -1.9507,1.0207 -4.3261,2.4433 -5.2786,3.1614 -0.95249,0.7181 -1.9037,1.1192 -2.1139,0.89133 -0.46298,-0.50203 1.6866,-2.356 2.7662,-2.3858 0.42407,-0.01171 0.77104,-0.3407 0.77104,-0.73112 0,-0.47161 -0.98335,-0.54083 -2.93,-0.20623 -4.1667,0.71621 -14.136,0.45858 -17.751,-0.45873 -12.563,-3.1876 -23.105,-4.0199 -29.9,-2.3608 -4.6819,1.1432 -9.5015,3.2791 -10.992,4.8714 -0.4483,0.47892 -1.0266,0.87077 -1.2851,0.87077 -0.25848,0 -1.4877,1.1036 -2.7317,2.4525 -1.2668,1.3736 -2.2527,2.0357 -2.2412,1.505 0.0268,-1.2367 1.7328,-3.4193 3.8465,-4.9211 1.4649,-1.0408 1.688,-1.6445 1.7114,-4.6315 0.0148,-1.889 0.31927,-4.7891 0.67666,-6.4445 0.35739,-1.6554 0.73799,-7.3743 0.84578,-12.709 0.211,-10.661 -0.896,-18.5710001 -2.95,-21.0460001 -0.62,-0.7477 -1.532,-1.8365 -2.025,-2.4191 -0.909,-1.0738 -1.213,-2.6194 -0.515,-2.6194 1.1256,0 5.3247,5.5424 5.3247,7.028 0,0.91699 0.25412,1.6673 0.56472,1.6673 0.3106,0 0.54048,1.1287001 0.51085,2.5083001 -0.0296,1.3795 0.26088,4.1577 0.64557,6.1737 1.0827,5.6741 0.55422,22.518 -0.79589,25.366 -0.5937,1.2521 -1.0795,2.8239 -1.0795,3.4927 0,1.1103 0.25353,1.07 2.912,-0.46281 6.7944,-3.9174 19.151,-4.6147 34.715,-1.9592 3.5622,0.60779 11.196,1.3276 16.963,1.5996 l 10.486,0.4945 2.4673,-1.6789 c 4.437,-3.0192 7.9879,-4.7601 9.7151,-4.763 1.5279,-0.0025 1.6963,0.22961 1.6963,2.3382 0,1.2876 0.181386,2.341 0.403096,2.341 0.22171,0 1.9235,-0.77994 3.7818,-1.7332 l 3.3787,-1.7332 1.2338,1.3379 c 1.5756,1.7085 1.1854,3.5026 -1.7776,8.1735 -1.9148,3.0184 -2.1401,3.739 -1.5107,4.8319 0.40685,0.70642 0.86907,3.2887 1.0272,5.7385 0.4913,7.613 0.76751,8.9356 2.0732,9.9273 0.69291,0.52627 1.2686,1.4665 1.2794,2.0894 0.0108,0.62293 0.43954,1.734596 0.95277,2.470296 0.65497,0.93895 0.81486,2.0982 0.53635,3.8887 l -0.3968,2.5509 2.374,-0.38431 c 1.7466,-0.28273 2.0479,-0.21805 1.1403,0.24474 -0.67851,0.34597 -1.8395,0.65019 -2.58,0.67605 -0.83436,0.0292 -1.5107,0.61928 -1.7786,1.552 -0.68707,2.3916 -3.9665,6.5215 -5.1786,6.5215 -0.60848,0 -1.4833,0.49261 -1.9442,1.0947 -1.2374,1.6168 -5.332996,3.32 -9.135296,3.7992 -1.8399,0.23184 -3.6235,0.72317 -3.9635,1.0918 -0.41297,0.4478 0.54387,1.9913 2.8827,4.650195 1.9255,2.189 3.5009,4.3032 3.5009,4.6984 0,0.39518 -0.003,0.87045 -0.008,1.0561 -0.003,0.1857 0.39832,1.3897 0.89377,2.6755 1.5395,3.9954 -0.14856,2.5634 -2.172,-1.8426 z m -17.804,-16.779995 c 0.56654,-0.67545 8.5995,-2.3303 8.5995,-1.7715 0,0.2836 -0.43998,0.69871 -0.97773,0.92248 -1.4334,0.59644 -8.0259,1.3308 -7.6218,0.84904 z m 35.246996,-3.2531 c -1.1531,-1.2504 -0.87992,-1.7163 0.80188,-1.3677 0.84815,0.17581 1.5421,0.73605 1.5421,1.245 0,1.1381 -1.3427,1.2084 -2.344,0.12269 z m -32.349996,-2.651 c -0.93296,-0.3695 -1.6963,-0.94027 -1.6963,-1.2684 0,-0.33504 0.69366,-0.3106 1.5822,0.0558 0.87023,0.35877 2.4663,0.67346 3.5468,0.69933 1.657,0.0396 1.7714,0.13699 0.73089,0.62185 -1.566,0.7297 -2.081,0.71627 -4.1636,-0.10854 z m 12.612,-12.910996 c 0.23643,-0.28003 2.1795,-1.1898 4.3178,-2.0218 2.1384,-0.83196 4.327396,-1.7137 4.864496,-1.9594 0.79667,-0.36445 0.92558,-0.07036 0.69992,1.5968 -0.32502,2.4014 -1.3136,3.3041 -2.0518,1.8736 -0.520866,-1.0093 -2.246396,-0.8719 -6.718196,0.53483 -0.84815,0.2668 -1.3486,0.25598 -1.1122,-0.02408 z"
     inkscape:connector-curvature="0"
     style="fill:#e6e6e6" />
</svg>
